<?xml version="1.0" encoding="utf-8"?>
<!-- Generator: Adobe Illustrator 27.5.0, SVG Export Plug-In . SVG Version: 6.00 Build 0)  -->
<svg version="1.1" xmlns="http://www.w3.org/2000/svg" xmlns:xlink="http://www.w3.org/1999/xlink" x="0px" y="0px"
	 viewBox="0 0 3710 3710" style="enable-background:new 0 0 3710 3710;" xml:space="preserve">
<g id="Background">
	<g>
		<g>
			<rect style="fill:#FFFFFF;" width="3710" height="3710"/>
		</g>
	</g>
</g>
<g id="Illustration">
	<g>
		<linearGradient id="SVGID_1_" gradientUnits="userSpaceOnUse" x1="3574.4763" y1="4013.9465" x2="1129.3525" y2="977.2563">
			<stop  offset="0" style="stop-color:#DAE3FE"/>
			<stop  offset="1" style="stop-color:#E9EFFD"/>
		</linearGradient>
		<path style="fill:url(#SVGID_1_);" d="M2901.807,2816.385c-56.163,59.127-109.305,97.257-151.291,127.382
			c-493.537,354.118-1077.522,250.895-1201.636,225.686c-183.276-37.224-537.546-109.178-793.676-410.383
			C367.7,2303.375,428.04,1585.437,728.615,1111.517c54.98-86.688,345.399-567.827,935.674-644.987
			c357.228-46.696,773.642,47.484,1075.197,300.128C3372.476,1296.978,3327.414,2368.32,2901.807,2816.385z"/>
		<path style="fill:#91B3FA;" d="M3239.777,3248.952h-1131.49V1464.699c0-26.874,21.785-48.659,48.659-48.659h1051.861
			c26.874,0,48.659,21.785,48.659,48.659v1766.564C3257.466,3241.032,3249.546,3248.952,3239.777,3248.952z"/>
		
			<linearGradient id="SVGID_00000128442892188451553380000005536854308723149202_" gradientUnits="userSpaceOnUse" x1="2650.9236" y1="1322.0525" x2="1749.0492" y2="3153.5474">
			<stop  offset="0" style="stop-color:#4F52FF"/>
			<stop  offset="1" style="stop-color:#4042E2"/>
		</linearGradient>
		<path style="fill:url(#SVGID_00000128442892188451553380000005536854308723149202_);" d="M2504.926,3248.952H1503.369V2033.409
			c0-26.874,21.785-48.659,48.659-48.659h904.239c26.874,0,48.659,21.785,48.659,48.659V3248.952z"/>
		<path style="fill:#91B3FA;" d="M1891.701,3248.952H965.702c-9.769,0-17.688-7.919-17.688-17.688v-754.93
			c0-26.874,21.785-48.659,48.659-48.659h846.37c26.874,0,48.659,21.785,48.659,48.659V3248.952z"/>
		
			<linearGradient id="SVGID_00000008855965462715972610000011208086362277222285_" gradientUnits="userSpaceOnUse" x1="1489.2842" y1="2581.4719" x2="163.5814" y2="3474.8789">
			<stop  offset="0" style="stop-color:#4F52FF"/>
			<stop  offset="1" style="stop-color:#4042E2"/>
		</linearGradient>
		<path style="fill:url(#SVGID_00000008855965462715972610000011208086362277222285_);" d="M1315.554,3255H470.223
			c-9.769,0-17.688-7.919-17.688-17.688v-487.719c0-26.874,21.785-48.659,48.659-48.659h765.701
			c26.874,0,48.659,21.785,48.659,48.659V3255z"/>
		<g>
			<g style="opacity:0.3;">
				
					<linearGradient id="SVGID_00000019669333229278067740000015864309083317986736_" gradientUnits="userSpaceOnUse" x1="1226.0099" y1="-21.4284" x2="2212.1375" y2="-21.4284" gradientTransform="matrix(0.9526 0.3043 -0.3043 0.9526 127.1196 433.547)">
					<stop  offset="0" style="stop-color:#FE7062"/>
					<stop  offset="1" style="stop-color:#FF928E"/>
				</linearGradient>
				<path style="fill:url(#SVGID_00000019669333229278067740000015864309083317986736_);" d="M1202.89,1163.391
					c-8.324-2.659-13.465-11.234-11.646-19.977c3.971-19.121,8.835-38.354,14.45-57.162c2.733-9.151,12.364-14.356,21.512-11.624
					c0.109,0.035,0.215,0.069,0.322,0.103c8.948,2.859,13.999,12.37,11.299,21.411c-5.337,17.869-9.954,36.139-13.729,54.302
					c-1.94,9.348-11.095,15.356-20.446,13.411C1204.05,1163.733,1203.463,1163.574,1202.89,1163.391z M1249.787,1020.261
					c-0.644-0.206-1.284-0.452-1.916-0.739c-8.691-3.953-12.533-14.206-8.58-22.897c8.124-17.851,17.091-35.532,26.653-52.547
					c4.677-8.325,15.172-11.274,23.543-6.608c8.324,4.68,11.276,15.222,6.602,23.541c-9.088,16.175-17.605,32.971-25.323,49.939
					C1267.099,1019.008,1258.017,1022.891,1249.787,1020.261z M1327.031,891.017c-1.833-0.586-3.6-1.491-5.219-2.724
					c-7.589-5.792-9.055-16.64-3.265-24.233c11.864-15.565,24.557-30.808,37.724-45.303c6.426-7.065,17.355-7.579,24.423-1.174
					c7.066,6.419,7.592,17.356,1.173,24.422c-12.504,13.765-24.553,28.235-35.823,43.018
					C1341.489,890.999,1333.799,893.179,1327.031,891.017z M1431.259,782.268c-3.03-0.968-5.828-2.784-8.013-5.41
					c-6.106-7.339-5.104-18.242,2.234-24.347c15.061-12.523,30.841-24.546,46.903-35.735c7.833-5.445,18.604-3.521,24.069,4.308
					c5.456,7.833,3.526,18.609-4.308,24.068c-15.255,10.624-30.246,22.042-44.552,33.947
					C1442.877,783.016,1436.698,784.006,1431.259,782.268z M1557.117,699.494c-4.25-1.358-7.973-4.348-10.151-8.638
					c-4.327-8.514-0.931-18.922,7.581-23.243c17.417-8.848,35.463-17.078,53.627-24.448c8.845-3.598,18.931,0.66,22.522,9.513
					c3.589,8.846-0.67,18.928-9.518,22.524c-17.267,7.004-34.417,14.825-50.97,23.234
					C1565.986,700.582,1561.298,700.829,1557.117,699.494z M1698.142,646.626c-5.504-1.758-10.002-6.23-11.519-12.244
					c-2.334-9.26,3.277-18.655,12.534-20.994c18.973-4.785,38.393-8.819,57.711-11.977c9.428-1.54,18.312,4.85,19.852,14.276
					c1.542,9.418-4.849,18.308-14.271,19.85c-18.358,3.004-36.804,6.831-54.833,11.379
					C1704.37,647.736,1701.111,647.574,1698.142,646.626z M2314.142,800.21c-2.281-0.729-4.441-1.943-6.33-3.653
					c-13.769-12.467-28.27-24.5-43.097-35.76c-7.602-5.775-9.086-16.621-3.312-24.22c5.772-7.606,16.618-9.09,24.224-3.314
					c15.616,11.859,30.89,24.53,45.392,37.656c7.08,6.409,7.621,17.344,1.213,24.421
					C2327.534,800.533,2320.402,802.21,2314.142,800.21z M1847.28,626.339c-6.832-2.183-11.848-8.507-12.021-16.077
					c-0.218-9.549,7.344-17.462,16.889-17.681c19.565-0.449,39.388-0.05,58.919,1.184c9.524,0.646,16.77,8.81,16.167,18.344
					c-0.602,9.528-8.816,16.765-18.348,16.166c-18.547-1.175-37.37-1.552-55.949-1.128
					C1850.964,627.19,1849.058,626.907,1847.28,626.339z M2191.808,712.366c-1.087-0.347-2.157-0.802-3.192-1.381
					c-16.221-9.074-33.051-17.563-50.016-25.244c-8.698-3.942-12.558-14.186-8.621-22.882c3.941-8.695,14.192-12.601,22.882-8.62
					c17.849,8.084,35.559,17.018,52.63,26.561c8.334,4.662,11.313,15.198,6.652,23.529
					C2208.064,711.625,2199.476,714.815,2191.808,712.366z M1997.21,639.875c-8.311-2.655-13.452-11.21-11.654-19.944
					c1.925-9.354,11.065-15.373,20.42-13.455c19.148,3.941,38.385,8.761,57.17,14.337c0.117,0.03,0.237,0.068,0.353,0.105
					c8.935,2.855,13.986,12.345,11.308,21.38c-2.716,9.157-12.335,14.378-21.491,11.66c-17.846-5.29-36.118-9.866-54.312-13.608
					C1998.395,640.218,1997.793,640.061,1997.21,639.875z"/>
				
					<linearGradient id="SVGID_00000018203754217327556560000003026144827738111134_" gradientUnits="userSpaceOnUse" x1="2260.0732" y1="-281.1454" x2="2317.665" y2="-281.1454" gradientTransform="matrix(0.9526 0.3043 -0.3043 0.9526 127.1196 433.547)">
					<stop  offset="0" style="stop-color:#FE7062"/>
					<stop  offset="1" style="stop-color:#FF928E"/>
				</linearGradient>
				<path style="fill:url(#SVGID_00000018203754217327556560000003026144827738111134_);" d="M2396.401,889.495
					c-3.242-1.036-6.216-3.035-8.445-5.944c-5.421-7.077-11.083-14.154-16.82-21.049c-6.111-7.333-5.119-18.239,2.217-24.347
					c7.334-6.115,18.246-5.131,24.349,2.221c6.04,7.247,11.991,14.692,17.698,22.138c5.807,7.577,4.374,18.434-3.202,24.237
					C2407.525,890.334,2401.611,891.159,2396.401,889.495z"/>
			</g>
			<g style="opacity:0.3;">
				
					<linearGradient id="SVGID_00000026878237387781150230000010309403000086778551_" gradientUnits="userSpaceOnUse" x1="2558.9954" y1="158.9385" x2="2598.5149" y2="158.9385" gradientTransform="matrix(0.9526 0.3043 -0.3043 0.9526 127.1196 433.547)">
					<stop  offset="0" style="stop-color:#FE7062"/>
					<stop  offset="1" style="stop-color:#FF928E"/>
				</linearGradient>
				<path style="fill:url(#SVGID_00000026878237387781150230000010309403000086778551_);" d="M2528.207,1399.843
					c-7.948-2.539-13.103-10.538-11.815-19.053c1.337-8.811,2.511-17.801,3.486-26.713c1.041-9.494,9.578-16.345,19.068-15.305
					c9.531,1.046,16.344,9.582,15.304,19.069c-1.03,9.383-2.264,18.85-3.669,28.129c-1.431,9.44-10.244,15.933-19.685,14.505
					C2529.971,1400.335,2529.072,1400.119,2528.207,1399.843z"/>
				
					<linearGradient id="SVGID_00000025421680168237525060000007675893255084285570_" gradientUnits="userSpaceOnUse" x1="1591.2258" y1="608.463" x2="2606.9595" y2="608.463" gradientTransform="matrix(0.9526 0.3043 -0.3043 0.9526 127.1196 433.547)">
					<stop  offset="0" style="stop-color:#FE7062"/>
					<stop  offset="1" style="stop-color:#FF928E"/>
				</linearGradient>
				<path style="fill:url(#SVGID_00000025421680168237525060000007675893255084285570_);" d="M1658.111,1941.107
					c-7.578-2.421-15.143-4.98-22.694-7.676c-8.991-3.213-13.68-13.104-10.47-22.097c3.21-8.992,13.157-13.698,22.095-10.474
					c17.427,6.22,35.067,11.72,52.633,16.397c9.231,2.474,14.716,11.925,12.261,21.152c-2.457,9.233-11.931,14.721-21.157,12.263
					C1679.913,1947.781,1668.922,1944.561,1658.111,1941.107z M1551.751,1896.941c-0.92-0.294-1.831-0.671-2.719-1.131
					c-17.124-8.88-34.061-18.588-50.339-28.85c-8.076-5.09-10.497-15.767-5.408-23.84c5.094-8.078,15.795-10.515,23.846-5.405
					c15.461,9.746,31.552,18.963,47.823,27.408c8.475,4.395,11.781,14.83,7.387,23.302
					C1568.403,1896.014,1559.628,1899.457,1551.751,1896.941z M1780.109,1967.924c-7.765-2.481-12.915-10.202-11.879-18.584
					c1.175-9.48,9.807-16.208,19.284-15.038c18.126,2.247,36.595,3.744,54.903,4.446c9.541,0.382,16.979,8.402,16.612,17.941
					c-0.37,9.545-8.403,16.981-17.945,16.613c-19.277-0.742-38.731-2.321-57.82-4.683
					C1782.174,1968.484,1781.119,1968.246,1780.109,1967.924z M1428.47,1814.6c-2.091-0.668-4.084-1.752-5.866-3.25
					c-14.74-12.415-29.127-25.611-42.76-39.218c-6.756-6.745-6.766-17.688-0.021-24.444c6.748-6.763,17.688-6.777,24.449-0.023
					c12.945,12.919,26.605,25.45,40.605,37.24c7.305,6.147,8.236,17.058,2.086,24.359
					C1442.315,1814.783,1434.945,1816.668,1428.47,1814.6z M1928.223,1969.727c-6.369-2.035-11.247-7.691-11.949-14.771
					c-0.942-9.503,5.999-17.969,15.502-18.911c18.166-1.796,36.513-4.4,54.533-7.732c9.389-1.737,18.41,4.464,20.145,13.859
					c1.734,9.387-4.468,18.402-13.856,20.138c-18.97,3.511-38.286,6.251-57.415,8.145
					C1932.763,1970.695,1930.404,1970.423,1928.223,1969.727z M2073.15,1938.985c-5.091-1.627-9.36-5.585-11.167-11.047
					c-2.994-9.067,1.926-18.846,10.994-21.84c17.387-5.747,34.735-12.292,51.559-19.452c8.781-3.752,18.933,0.334,22.68,9.132
					c3.74,8.788-0.35,18.938-9.136,22.682c-17.707,7.536-35.961,14.424-54.259,20.467
					C2080.222,1940.117,2076.509,1940.058,2073.15,1938.985z M2207.928,1877.379c-3.873-1.237-7.324-3.836-9.574-7.602
					c-4.898-8.194-2.222-18.81,5.975-23.706c15.736-9.4,31.243-19.561,46.096-30.214c7.757-5.561,18.553-3.793,24.124,3.978
					c5.561,7.761,3.784,18.557-3.978,24.125c-15.632,11.205-31.954,21.907-48.509,31.797
					C2217.63,1878.401,2212.489,1878.836,2207.928,1877.379z M2326.053,1787.852c-2.683-0.857-5.191-2.382-7.268-4.569
					c-6.571-6.927-6.281-17.866,0.646-24.437c13.293-12.605,26.192-25.918,38.346-39.574c6.348-7.132,17.287-7.763,24.407-1.426
					c7.135,6.349,7.77,17.278,1.422,24.41c-12.802,14.385-26.388,28.407-40.379,41.676
					C2338.485,1788.428,2331.865,1789.709,2326.053,1787.852z M2421.68,1674.534c-1.509-0.482-2.975-1.184-4.357-2.108
					c-7.936-5.307-10.066-16.047-4.756-23.979c10.158-15.188,19.803-31.007,28.666-47.034c4.623-8.356,15.165-11.362,23.496-6.758
					c8.356,4.62,11.383,15.143,6.76,23.5c-9.331,16.869-19.484,33.527-30.182,49.513
					C2436.923,1674.221,2428.833,1676.819,2421.68,1674.534z M2490.03,1543.064c-0.338-0.108-0.674-0.23-1.009-0.358
					c-8.9-3.453-13.317-13.471-9.862-22.37c4.876-12.565,9.421-25.427,13.515-38.242c1.482-4.638,2.907-9.287,4.281-13.932
					c2.709-9.159,12.328-14.388,21.482-11.676c9.324,2.561,14.383,12.323,11.678,21.476c-1.446,4.891-2.945,9.772-4.504,14.654
					c-4.306,13.477-9.091,27.014-14.219,40.228C2508.069,1541.411,2498.666,1545.823,2490.03,1543.064z"/>
				
					<linearGradient id="SVGID_00000075142243509350171090000005071937225909219988_" gradientUnits="userSpaceOnUse" x1="1489.9818" y1="822.5396" x2="1546.8387" y2="822.5396" gradientTransform="matrix(0.9526 0.3043 -0.3043 0.9526 127.1196 433.547)">
					<stop  offset="0" style="stop-color:#FE7062"/>
					<stop  offset="1" style="stop-color:#FF928E"/>
				</linearGradient>
				<path style="fill:url(#SVGID_00000075142243509350171090000005071937225909219988_);" d="M1326.106,1706.797
					c-3.275-1.046-6.267-3.072-8.501-6.013c-5.657-7.458-11.263-15.175-16.662-22.94c-5.454-7.84-3.519-18.614,4.32-24.064
					c7.841-5.449,18.609-3.527,24.065,4.32c5.13,7.375,10.456,14.705,15.825,21.787c5.771,7.601,4.284,18.447-3.323,24.219
					C1337.165,1707.643,1331.285,1708.451,1326.106,1706.797z"/>
			</g>
			<g>
				
					<linearGradient id="SVGID_00000043447342731593327200000003604827457285926283_" gradientUnits="userSpaceOnUse" x1="4350.0513" y1="1365.6689" x2="567.0628" y2="-295.152" gradientTransform="matrix(0.9526 0.3043 -0.3043 0.9526 127.1196 433.547)">
					<stop  offset="0" style="stop-color:#FE7062"/>
					<stop  offset="1" style="stop-color:#FF928E"/>
				</linearGradient>
				<path style="fill:url(#SVGID_00000043447342731593327200000003604827457285926283_);" d="M1372.785,1547.562
					c1.319,3.348,4.618,5.493,8.214,5.337l102.591-4.431c27.287,39.434,61.058,74.803,100.634,104.286l-8.008,102.307
					c-0.282,3.589,1.746,6.96,5.047,8.396l112.954,49.119c3.302,1.435,7.15,0.616,9.582-2.033l69.365-75.627
					c48.554,8.838,97.451,9.42,144.902,2.482l66.723,78.057c2.339,2.735,6.155,3.686,9.504,2.368l114.602-45.14
					c3.351-1.32,5.494-4.619,5.337-8.214l-4.431-102.59c39.435-27.286,74.803-61.059,104.286-100.634l102.309,8.008
					c3.588,0.281,6.959-1.745,8.395-5.046l49.118-112.956c1.436-3.3,0.619-7.149-2.035-9.581l-75.627-69.366
					c8.839-48.554,9.422-97.45,2.483-144.901l78.058-66.724c2.733-2.338,3.686-6.156,2.367-9.504l-45.14-114.602
					c-1.318-3.351-4.618-5.493-8.213-5.338l-102.591,4.432c-27.285-39.436-61.057-74.804-100.634-104.286l8.009-102.31
					c0.281-3.587-1.745-6.959-5.046-8.395l-112.956-49.117c-3.301-1.437-7.148-0.619-9.581,2.034l-69.365,75.627
					c-48.553-8.841-97.452-9.421-144.902-2.483l-66.722-78.055c-2.338-2.738-6.157-3.688-9.505-2.369l-114.602,45.14
					c-3.349,1.319-5.492,4.617-5.338,8.213l4.431,102.59c-39.436,27.286-74.803,61.059-104.286,100.634l-102.309-8.009
					c-3.586-0.282-6.96,1.745-8.394,5.048l-49.117,112.953c-1.435,3.301-0.619,7.149,2.033,9.583l75.627,69.365
					c-8.838,48.552-9.419,97.45-2.483,144.901l-78.055,66.723c-2.737,2.339-3.687,6.154-2.369,9.505L1372.785,1547.562z"/>
				<path style="opacity:0.6;fill:#FFFFFF;" d="M1815.642,1409.988c-57.49-18.367-94.484-76.71-84.413-137.998
					c11.074-67.37,74.885-113.162,142.251-102.093c32.64,5.356,61.229,23.114,80.506,49.977
					c19.284,26.865,26.951,59.635,21.585,92.269c-11.074,67.371-74.885,113.162-142.25,102.093
					C1827.248,1413.237,1821.341,1411.808,1815.642,1409.988z M1882.485,1201.687c-4.44-1.418-9.006-2.522-13.69-3.293
					c-51.648-8.49-100.576,26.63-109.066,78.274c-8.488,51.651,26.609,100.595,78.276,109.069
					c51.648,8.491,100.576-26.629,109.066-78.273c4.112-25.025-1.764-50.146-16.549-70.748
					C1918.503,1219.975,1901.766,1207.847,1882.485,1201.687z"/>
				<path style="opacity:0.6;fill:#FFFFFF;" d="M1763.634,1581.099c-9.874-3.154-19.646-6.824-29.282-11.013l0,0
					c-3.033-1.317-6.045-2.686-9.035-4.101c-14.74-6.982-28.901-15.125-42.266-24.303c-0.182-0.125-0.364-0.25-0.547-0.374
					c-0.515-0.357-1.03-0.714-1.543-1.078c-1.002-0.698-1.996-1.408-2.988-2.117c-2.608-1.869-3.598-5.154-2.675-8.057
					c0.225-0.705,0.566-1.388,1.019-2.021c2.324-3.24,6.834-3.968,10.074-1.653c16.671,11.966,34.743,22.211,53.717,30.456
					c94.229,40.993,198.586,27.785,278.064-25.793c44.211-29.795,80.722-72.087,103.51-124.5c3.999-9.19,7.503-18.515,10.508-27.934
					c20.241-63.383,18.086-131.234-6.629-193.975c-28.385-72.071-83.14-128.775-154.171-159.661
					c-146.707-63.776-317.815,3.663-381.574,150.293c-3.932,9.041-7.391,18.248-10.368,27.578
					c-12.909,40.432-16.829,83.239-11.325,125.363c0.141,1.089,0.035,2.15-0.281,3.13c-0.824,2.579-3.077,4.591-5.943,4.963
					c-3.958,0.505-7.584-2.26-8.096-6.228c-5.777-44.225-1.666-89.17,11.887-131.616c3.125-9.794,6.756-19.456,10.88-28.947
					c66.942-153.949,246.685-224.7,400.579-157.784c74.573,32.426,132.049,91.954,161.849,167.615
					c25.948,65.866,28.208,137.097,6.962,203.638c-3.159,9.887-6.838,19.675-11.029,29.321
					c-32.431,74.576-91.956,132.056-167.614,161.857C1901.435,1600.11,1830.185,1602.361,1763.634,1581.099z"/>
			</g>
		</g>
		<g>
			
				<linearGradient id="SVGID_00000016065723346231150220000011850409084499291288_" gradientUnits="userSpaceOnUse" x1="689.5917" y1="2641.5872" x2="755.6416" y2="2641.5872">
				<stop  offset="0" style="stop-color:#FEBBBA"/>
				<stop  offset="1" style="stop-color:#FF928E"/>
			</linearGradient>
			<path style="fill:url(#SVGID_00000016065723346231150220000011850409084499291288_);" d="M703.791,2641.739l-14.199,29.202
				c0,5.624,3.918,10.469,9.415,11.657c5.69,1.23,13.24,2.018,20.568,0.201c4.581-1.136,7.937-5.075,8.49-9.763l27.577-73.732
				L703.791,2641.739z"/>
			<g>
				
					<linearGradient id="SVGID_00000080172175709044778110000013730881031714388666_" gradientUnits="userSpaceOnUse" x1="1031.6033" y1="2369.8337" x2="1017.4039" y2="2474.5547">
					<stop  offset="0" style="stop-color:#09005D"/>
					<stop  offset="1" style="stop-color:#1A0F91"/>
				</linearGradient>
				<path style="fill:url(#SVGID_00000080172175709044778110000013730881031714388666_);" d="M1092.32,2443.919
					c-28.405-24.729-89.442-44.537-89.442-44.537l-36.723,0.802c-9.32,10.485-13.534,30.804-15.333,43.542
					c6.914,4.144,19.873,7.772,43.632,8.904C1038.448,2454.727,1073.953,2448.296,1092.32,2443.919z"/>
				
					<linearGradient id="SVGID_00000017496177574703039390000007064861076932439978_" gradientUnits="userSpaceOnUse" x1="1026.2485" y1="2448.8701" x2="993.4122" y2="2657.425">
					<stop  offset="0" style="stop-color:#09005D"/>
					<stop  offset="1" style="stop-color:#1A0F91"/>
				</linearGradient>
				<path style="fill:url(#SVGID_00000017496177574703039390000007064861076932439978_);" d="M1092.32,2443.919
					c-18.367,4.376-53.872,10.808-97.866,8.711c-23.76-1.132-36.718-4.76-43.632-8.904c-0.145,1.023-0.279,2.013-0.393,2.929
					c-0.654,5.223,2.577,10.133,7.611,11.676c33.546,10.283,107.327,6.975,136.094,5.193c6.151-0.381,9.363-7.597,5.422-12.336
					C1097.508,2448.727,1095.057,2446.302,1092.32,2443.919z"/>
			</g>
			
				<linearGradient id="SVGID_00000020400140782110406270000012168100457601732531_" gradientUnits="userSpaceOnUse" x1="969.1542" y1="2389.5461" x2="1025.5161" y2="2389.5461">
				<stop  offset="0" style="stop-color:#FEBBBA"/>
				<stop  offset="1" style="stop-color:#FF928E"/>
			</linearGradient>
			<path style="fill:url(#SVGID_00000020400140782110406270000012168100457601732531_);" d="M983.354,2368.481l-14.199,29.201
				c0,5.624,3.918,10.469,9.415,11.657c5.69,1.23,13.24,2.018,20.568,0.201c4.581-1.136,7.937-5.075,8.49-9.763l17.888-31.297
				H983.354z"/>
			
				<linearGradient id="SVGID_00000128478550988126507120000009351918841342635907_" gradientUnits="userSpaceOnUse" x1="909.7538" y1="2040.4346" x2="774.4951" y2="2706.5852">
				<stop  offset="0" style="stop-color:#09005D"/>
				<stop  offset="1" style="stop-color:#1A0F91"/>
			</linearGradient>
			<path style="fill:url(#SVGID_00000128478550988126507120000009351918841342635907_);" d="M702.778,2647.685l31.507-2.298
				c5.062,0.167,12.222-5.563,13.388-10.491c11.924-50.368,193.134-449.429,234.072-522.704l-128.319-56.165
				C853.426,2056.026,688.344,2647.249,702.778,2647.685z"/>
			
				<linearGradient id="SVGID_00000072996029391964475770000013642122886618948496_" gradientUnits="userSpaceOnUse" x1="1384.7333" y1="1773.7573" x2="1043.2043" y2="2081.4712">
				<stop  offset="0" style="stop-color:#09005D"/>
				<stop  offset="1" style="stop-color:#1A0F91"/>
			</linearGradient>
			<path style="fill:url(#SVGID_00000072996029391964475770000013642122886618948496_);" d="M1184.969,2060.08
				c-46.975-25.204-177.798-47-177.798-47l-152.167-41.204c0,0-41.783,124.635,31.428,147.127
				c73.211,22.492,179.032,11.843,223.399,5.96c0,0-59.309,42.598-130.315,248.95c0,0,23.899,0.51,43.34,5.054
				c0,0,158.473-197.241,175.082-248.126C1208.892,2097.281,1224.234,2081.147,1184.969,2060.08z"/>
			
				<linearGradient id="SVGID_00000084503448505912922750000006205212246144340151_" gradientUnits="userSpaceOnUse" x1="1170.4846" y1="1698.9047" x2="1263.5096" y2="1650.0895">
				<stop  offset="0" style="stop-color:#FEBBBA"/>
				<stop  offset="1" style="stop-color:#FF928E"/>
			</linearGradient>
			<path style="fill:url(#SVGID_00000084503448505912922750000006205212246144340151_);" d="M1276.039,1649.122
				c-32.915-2.32-132.924,19.419-132.924,19.419l51.355,42.226c0,0,40.479-9.847,67.454-15.12
				C1261.925,1695.647,1328.511,1652.821,1276.039,1649.122z"/>
			<g>
				
					<linearGradient id="SVGID_00000006708004611831813160000007646277317776937400_" gradientUnits="userSpaceOnUse" x1="1323.3273" y1="1630.2891" x2="1325.1694" y2="1793.3131">
					<stop  offset="0" style="stop-color:#FEBBBA"/>
					<stop  offset="1" style="stop-color:#FF928E"/>
				</linearGradient>
				<path style="fill:url(#SVGID_00000006708004611831813160000007646277317776937400_);" d="M1393.599,1679.003
					c0,0-44.103,40.951-70.895,52.071c-26.792,11.12-42.455,23.237-59.056-6.427c-16.601-29.664-10.21-61.81,11.946-85.791
					c0,0,34.008-37.326,52.965-38.291C1347.516,1599.6,1393.599,1679.003,1393.599,1679.003z"/>
				
					<linearGradient id="SVGID_00000106863429333593515260000003081755859668608406_" gradientUnits="userSpaceOnUse" x1="4856.9409" y1="5663.8398" x2="4981.2886" y2="5823.937" gradientTransform="matrix(0.3314 0.9435 -0.9435 0.3314 5129.9692 -4878.1821)">
					<stop  offset="0" style="stop-color:#09005D"/>
					<stop  offset="1" style="stop-color:#1A0F91"/>
				</linearGradient>
				<path style="fill:url(#SVGID_00000106863429333593515260000003081755859668608406_);" d="M1298.957,1642.778l1.403,3.995
					c0,0,27.977-28.315,38.987-15.938c11.01,12.378,42.811,65.557,67.478,70.777c23.779,5.032,45.358-14.484,46.857-32.869
					c0.095-1.163-0.795-2.183-1.949-2.355l-2.954-0.442c-2.023-0.302-2.65-2.914-0.984-4.101c1.58-1.127,1.131-3.632-0.763-4.054
					c-7.407-1.648-20.889-8.421-35.61-34.115c-20.889-36.459-45.72-56.69-72.886-47.86c-1.721,0.559-3.303-0.935-2.926-2.705
					c0.743-3.494-0.052-8.389-7.389-12.727c-12.761-7.543-34.572,5.038-45.537,35.252c-0.521,1.436-2.265,2.038-3.476,1.107
					c-4.264-3.282-13.081-7.308-16.093,12.21c-3.081,19.966,1.393,29.569,3.672,32.986c0.613,0.919,1.773,1.275,2.791,0.845
					l23.359-9.862c1.208-0.51,2.596,0.105,3.031,1.342L1298.957,1642.778z"/>
				
					<linearGradient id="SVGID_00000034768730470571447080000016692002187941692854_" gradientUnits="userSpaceOnUse" x1="4936.3823" y1="5724.5225" x2="4799.0586" y2="5829.5957" gradientTransform="matrix(0.3314 0.9435 -0.9435 0.3314 5129.9692 -4878.1821)">
					<stop  offset="0" style="stop-color:#FEBBBA"/>
					<stop  offset="1" style="stop-color:#FF928E"/>
				</linearGradient>
				<path style="fill:url(#SVGID_00000034768730470571447080000016692002187941692854_);" d="M1294.306,1645.515
					c0,0,30.22-20.328,15.659-31.963c-14.562-11.636-34.546,20.826-31.58,33.251L1294.306,1645.515z"/>
			</g>
			
				<linearGradient id="SVGID_00000085245111828861651410000002229526004627657898_" gradientUnits="userSpaceOnUse" x1="2636.9666" y1="4834.4478" x2="2801.9702" y2="4834.4478" gradientTransform="matrix(0.4098 -0.6959 -0.8617 -0.5074 4648.7959 6059.4434)">
				<stop  offset="0" style="stop-color:#FEBBBA"/>
				<stop  offset="1" style="stop-color:#FF928E"/>
			</linearGradient>
			<path style="fill:url(#SVGID_00000085245111828861651410000002229526004627657898_);" d="M1569.56,1774.901
				c0,0,24.811,8.814,29.392-5.951c4.581-14.765-8.214-54.125-0.096-59.561c8.118-5.436,22.139-32.602,17.698-45.016l-10.166,9.658
				c0,0,6.927-22.782-0.679-32.486l-19.241,49.482C1586.469,1691.027,1560.966,1749.896,1569.56,1774.901z"/>
			
				<linearGradient id="SVGID_00000039832022818403688880000009411959968221611408_" gradientUnits="userSpaceOnUse" x1="1214.4581" y1="1867.5068" x2="1248.2732" y2="1001.847">
				<stop  offset="0" style="stop-color:#FE7062"/>
				<stop  offset="1" style="stop-color:#FF928E"/>
			</linearGradient>
			<path style="fill:url(#SVGID_00000039832022818403688880000009411959968221611408_);" d="M1121.14,1676.614
				c0,0,44.234-48.805,140.926,27.37c66.637,52.498,306.767,41.826,306.767,41.826s-0.121,13.6,4.583,30.026
				c0,0-201.511,54.47-352.778,17.491c0,0-167.133,189.462-180.003,226.566c0,0-108.613,16.222-185.632-48.017
				c0,0,20.657-64.063,87.537-138.343C1029.379,1737.086,1121.14,1676.614,1121.14,1676.614z"/>
			
				<linearGradient id="SVGID_00000150806300810649891280000012283201664019756160_" gradientUnits="userSpaceOnUse" x1="1688.6705" y1="3453.4363" x2="1680.3464" y2="3589.5337" gradientTransform="matrix(0.9377 0.3475 -0.3475 0.9377 793.4609 -2040.1119)">
				<stop  offset="0" style="stop-color:#FEBBBA"/>
				<stop  offset="1" style="stop-color:#FF928E"/>
			</linearGradient>
			<path style="fill:url(#SVGID_00000150806300810649891280000012283201664019756160_);" d="M1144.366,1774.233
				c-0.805-0.298-1.259-1.171-1.023-2.011c0.249-0.886,1.168-1.402,2.053-1.154c0.574,0.162,57.543,16.162,66.528,18.385
				c0.883,0.227,1.437,1.124,1.217,2.017c-0.221,0.893-1.124,1.438-2.016,1.218c-9.035-2.237-66.054-18.251-66.629-18.412
				C1144.452,1774.263,1144.407,1774.249,1144.366,1774.233z"/>
			<g>
				
					<linearGradient id="SVGID_00000059282950091722807950000014536298416094334138_" gradientUnits="userSpaceOnUse" x1="752.0408" y1="2643.0923" x2="737.8414" y2="2747.813">
					<stop  offset="0" style="stop-color:#09005D"/>
					<stop  offset="1" style="stop-color:#1A0F91"/>
				</linearGradient>
				<path style="fill:url(#SVGID_00000059282950091722807950000014536298416094334138_);" d="M812.757,2717.177
					c-28.405-24.729-89.442-44.537-89.442-44.537l-36.723,0.803c-9.32,10.485-13.534,30.804-15.333,43.541
					c6.914,4.144,19.873,7.772,43.632,8.904C758.885,2727.985,794.39,2721.554,812.757,2717.177z"/>
				
					<linearGradient id="SVGID_00000034811992357268285090000005190776634182165936_" gradientUnits="userSpaceOnUse" x1="746.686" y1="2722.1287" x2="713.8496" y2="2930.6838">
					<stop  offset="0" style="stop-color:#09005D"/>
					<stop  offset="1" style="stop-color:#1A0F91"/>
				</linearGradient>
				<path style="fill:url(#SVGID_00000034811992357268285090000005190776634182165936_);" d="M812.757,2717.177
					c-18.367,4.377-53.872,10.808-97.866,8.711c-23.76-1.132-36.718-4.76-43.632-8.904c-0.145,1.023-0.279,2.013-0.393,2.929
					c-0.654,5.223,2.577,10.133,7.611,11.676c33.546,10.282,107.327,6.975,136.094,5.193c6.152-0.381,9.364-7.597,5.422-12.336
					C817.945,2721.986,815.494,2719.56,812.757,2717.177z"/>
			</g>
		</g>
	</g>
</g>
</svg>
