<svg width="98" height="29" viewBox="0 0 98 29" fill="none" xmlns="http://www.w3.org/2000/svg">
<path fill-rule="evenodd" clip-rule="evenodd" d="M38.0276 14.4574C51.4404 14.4574 67.7154 14.9546 79.803 15.9832H79.8052C83.1277 16.2659 86.1306 16.5888 88.6743 16.9525C87.248 17.3732 85.436 17.8543 83.5728 18.3489C82.368 18.6688 81.1417 18.9943 79.9846 19.3129C73.8346 20.0135 66.5578 20.5856 59.1128 20.9834C59.1461 20.8896 59.1624 20.7907 59.1608 20.6912C59.1608 20.1918 56.5042 20.3167 53.0195 20.4806C50.9293 20.5789 48.5412 20.6912 46.2497 20.6912C41.5808 20.6912 37.5901 21.0694 35.9649 21.6035C19.7075 21.5622 8.2082 20.7041 2.55596 19.0448C3.06888 18.7143 3.62371 18.3557 4.20726 17.9581H8.45324V17.0084H5.57491C10.3184 13.9226 18.2732 14.097 28.6467 14.3243C31.5855 14.3888 34.7185 14.4574 38.0276 14.4574ZM2.55596 19.0448C2.55591 19.0448 2.55585 19.0448 2.55579 19.0448C2.3312 19.1881 2.11593 19.3273 1.90996 19.4621C2.09073 19.3445 2.27845 19.2236 2.47237 19.0987C2.50011 19.0808 2.52797 19.0628 2.55596 19.0448ZM44.0328 23.5541C38.9561 23.4984 35.1641 22.699 35.1641 22.159C35.1641 21.9714 35.4433 21.7922 35.9458 21.6274C19.6927 21.5862 8.20189 20.7311 2.55504 19.0777L2.46398 19.1362C2.04259 19.4066 1.6514 19.6576 1.29814 19.8961L1.26185 19.92C1.1833 19.9735 1.10662 20.0263 1.0318 20.0787C1.00622 20.0962 0.98159 20.1138 0.956958 20.1313L0.932405 20.1488C0.868192 20.1933 0.804537 20.2384 0.74479 20.283C0.695803 20.3195 0.653947 20.3511 0.611222 20.3835L0.582862 20.4049C0.517718 20.455 0.454623 20.5045 0.393574 20.5535C-0.369678 21.022 0.182712 21.5805 0.350188 21.7499L0.350196 21.7499C0.379748 21.7798 0.397313 21.7975 0.393544 21.8005C3.29044 24.0162 13.1949 24.2064 28.9992 24.5098H28.9992L29.7892 24.525C29.7741 24.5795 29.7614 24.6352 29.7488 24.6907L29.7487 24.6908L29.7417 24.7215C30.024 25.4817 30.5329 26.1375 31.2001 26.6008C31.8674 27.0641 32.6608 27.3126 33.4739 27.3129H42.5821C43.0218 27.3129 43.4585 27.2401 43.8742 27.0974C43.7497 26.5986 43.6884 26.0862 43.6916 25.5721C43.6888 24.7855 43.8201 24.0729 44.0328 23.5541ZM42.6034 27.3218H33.4676C32.6512 27.3214 31.8546 27.0706 31.1849 26.6033C30.5152 26.136 30.0046 25.4745 29.7219 24.708C29.6967 24.8201 29.6794 24.9322 29.6625 25.0493C29.7969 26.0032 30.2709 26.8765 30.9973 27.5085C31.7236 28.1405 32.6536 28.4888 33.616 28.4894H42.7524C43.3092 28.489 43.8597 28.3713 44.3682 28.1441C44.1755 27.9059 44.0142 27.5454 43.8994 27.1049C43.4824 27.2485 43.0444 27.3218 42.6034 27.3218Z" fill="#212121"/>
<path d="M91.3245 2.25673C88.6842 5.89258 83.9243 10.9839 80.083 15.5742L91.3864 15.63C91.8764 13.0439 93.944 4.78929 95.5449 0L91.3245 2.25673Z" fill="#212121"/>
<path d="M46.262 20.6911C41.599 20.6911 37.6133 21.0681 35.9902 21.6005C35.488 21.7676 35.209 21.9447 35.209 22.1324C35.209 22.6726 38.9982 23.469 44.0714 23.528C44.6204 23.5339 45.1834 23.5313 45.7604 23.5202C47.8153 23.4794 49.8654 23.3068 51.8981 23.0034C57.5505 22.1446 58.8668 21.6295 59.11 20.9824C59.1433 20.8889 59.1596 20.7903 59.158 20.6911C59.1569 19.8964 52.3663 20.6911 46.262 20.6911Z" fill="#212121"/>
<path d="M8.48778 16.9756H5.5841C5.43136 17.08 5.27919 17.185 5.13322 17.2971C4.81647 17.5385 4.50649 17.7651 4.20215 17.984H8.48553L8.48778 16.9756Z" fill="white"/>
<path d="M45.9676 25.5882C45.9676 26.5395 45.6481 27.3105 45.2536 27.3105C44.8592 27.3105 44.5391 26.5395 44.5391 25.5882C44.5391 24.6368 44.8586 23.8652 45.2536 23.8652C45.6486 23.8652 45.9676 24.6368 45.9676 25.5882Z" fill="white"/>
<path d="M25.1403 17.2256H24.0479V18.402H25.1403V17.2256Z" fill="white"/>
<path d="M27.8278 17.2256H26.6514V18.402H27.8278V17.2256Z" fill="white"/>
<path d="M30.4313 17.2256H29.3389V18.402H30.4313V17.2256Z" fill="white"/>
<path d="M33.1237 17.2256H31.9473V18.402H33.1237V17.2256Z" fill="white"/>
<path d="M35.7282 17.2256H34.6357V18.402H35.7282V17.2256Z" fill="white"/>
<path d="M38.4177 17.2256H37.2412V18.402H38.4177V17.2256Z" fill="white"/>
<path d="M41.0221 17.2256H39.9297V18.402H41.0221V17.2256Z" fill="white"/>
<path d="M43.7126 17.2256H42.5361V18.402H43.7126V17.2256Z" fill="white"/>
<path d="M46.316 17.2256H45.2236V18.402H46.316V17.2256Z" fill="white"/>
<path d="M49.0055 17.2256H47.8291V18.402H49.0055V17.2256Z" fill="white"/>
<path d="M51.6119 17.2256H50.5195V18.402H51.6119V17.2256Z" fill="white"/>
<path d="M54.2985 17.2256H53.1221V18.402H54.2985V17.2256Z" fill="white"/>
<path d="M56.9049 17.2256H55.8125V18.402H56.9049V17.2256Z" fill="white"/>
<path d="M59.5954 17.2256H58.4189V18.402H59.5954V17.2256Z" fill="white"/>
<path d="M62.1969 17.2256H61.1045V18.402H62.1969V17.2256Z" fill="white"/>
<path d="M64.8884 17.2256H63.7119V18.402H64.8884V17.2256Z" fill="white"/>
<path d="M67.4938 17.2256H66.4014V18.402H67.4938V17.2256Z" fill="white"/>
<path d="M88.9168 16.1952C90.3414 15.7204 77.9862 19.2663 79.5002 18.8489C73.3502 19.5495 66.5595 20.5901 59.1145 20.9879C58.8709 21.6371 57.5502 22.1539 51.8935 23.0154C49.8583 23.3197 47.8055 23.4929 45.748 23.5338C45.9335 23.9852 46.0576 24.5853 46.0877 25.2534C46.0039 25.6165 46.2689 24.9279 46.0877 25.2534C46.1201 25.3406 46.547 24.392 46.5732 24.4814C46.5732 24.4814 46.576 24.478 46.5732 24.4763C61.985 24.0769 85.0591 22.5363 88.9168 20.5035L89.8917 19.9384C89.8917 19.9384 91.2325 19.3329 92.1543 18.0947C93.0762 16.8566 93.0762 16.6701 93.0762 16.6701L91.0649 16.3069L88.9168 16.1952Z" fill="#212121"/>
<path d="M57.8412 20.3379C56.9199 20.7323 55.0795 21.1423 51.4641 21.6925C45.2065 22.646 39.071 22.1466 36.3049 21.4992C35.6029 21.6891 35.209 21.902 35.209 22.1271C35.209 22.9259 43.4454 24.2888 51.8977 23.0007C58.3707 22.0142 59.1581 21.4797 59.1581 20.6814C59.1581 20.468 58.6693 20.3692 57.8412 20.3379Z" fill="white"/>
<path d="M58.5103 20.4219C57.9963 20.9539 56.6755 21.6849 51.7889 22.4214C44.8934 23.4611 37.3412 22.9424 35.5656 21.781C35.3334 21.8965 35.209 22.0175 35.209 22.1423C35.209 22.9324 43.4454 24.2805 51.8977 23.0064C58.3707 22.0307 59.1581 21.502 59.1581 20.7125C59.1581 20.5672 58.9254 20.4771 58.5103 20.4219Z" fill="white"/>
<path d="M95.4765 0C94.1399 5.10618 91.5781 12.5017 91.0813 15.553H80.1383C80.0336 15.7053 79.9339 15.8549 79.832 16.0061C83.144 16.2885 86.1375 16.6111 88.6732 16.9745C93.0572 16.6988 92.7788 16.7875 93.0572 16.6988C94.3721 11.7768 97.2414 3.50495 97.6468 0H95.4765Z" fill="white"/>
</svg>
