<svg width="1454" height="201" viewBox="0 0 1454 201" fill="none" xmlns="http://www.w3.org/2000/svg">
<ellipse cx="1049" cy="2.5" rx="2" ry="2.5" transform="rotate(-180 1049 2.5)" fill="url(#paint0_linear_244_6771)"/>
<path fill-rule="evenodd" clip-rule="evenodd" d="M1199 80L1260.05 134.512L1298.63 100L1349.27 145.305L1379.01 118L1428 163H1369.05L1369.26 163.19H1228L1237.15 155H1115L1199 80Z" fill="#414141"/>
<path fill-rule="evenodd" clip-rule="evenodd" d="M1199 80L1260.05 134.512L1298.63 100L1349.27 145.305L1379.01 118L1428 163H1369.05L1369.26 163.19H1228L1237.15 155H1115L1199 80Z" fill="#414141"/>
<path fill-rule="evenodd" clip-rule="evenodd" d="M668 124.849H669.54V122.839H671.08V121.445H673.704V123.455H675.7V127.771H682.636V117.438H684.176V118.831H686.024V114.972H713.744V119.756H715.432V117.746H721.284V118.671H723.601V127.302H727.912V125.452H734.688V126.846H740.072V124.836H743.004V115.132H743.768V124.996H746.848V126.587H748.179V124.836H752.084V126.784H754.954V125.761H756.187V127.093H758.959V125.761H760.4V127.093H768.1V125.046H769.024V122.776H770.971V121.445H775.8V115.687H777.956V114.355H779.286V115.896H785.249V118.461H787.196V117.438H789.869V119.386H793.972V122.678H797.052V134.293H805.467V130.692H808.14V129.151H809.471V130.791H824.255V133.677H831.142V129.669H835.762V127.302H840.48V129.669H842.537V126.686H847.971V130.286H849.104V125.046H850.546V123.911H851.975V124.935H853.515V123.295H855.979V95.959H862.348V92.6787H868.299V95.959H873.436V130.076H875.284V125.452H880.372V121.137H881.296V125.761H882.676V130.545H886.372V119.756H892.224V123.764H892.84V119.756H894.688V117.906H900.393V115.44H904.236V119.904H906.392V125.452H908.4V120.829H910.557V119.14H915.324V115.749H923.8V91.8525H928.876V88.9307H946.432V91.3965H951.36V92.6299H950.128V93.8633H951.521V95.3174H950.288V96.7852H951.668V98.709H949.98V107.031H951.668V121.827H956.189V108.19H954.23V107.167H956.694V100.484H959.27V102.025H961.314V99.8672H962.238V101.618H970.148V100.274H973.844V106.439H976.518V109.275H995.872V105.416H1032.36V137.018H1042.84V51.2627L1040.3 44.999H1043.22V31.4355H1044.61V27.1201H1046.3V23.7295H1047.69L1048.69 21.1152V5H1049.77V21.1152L1050.92 23.9639H1052.38V26.9727H1054.16V30.9795H1055.7V44.7646H1059.23L1056.62 50.4736V123.146H1064.4V118.671H1070.41V121.297H1075.64V118.979H1072.56V116.365H1080.88V113.899H1084.11V112.357H1085.96V110.04H1097.66V119.287H1108.13V115.896H1115.83V124.527H1121.68V117.746H1127.23V122.678H1152.18V118.979H1167.58V125.452H1175.28V121.753H1186.67V126.686H1193.45V122.579H1198.59V120.113H1206.79V122.986H1211.93V126.069H1218.49V118.671H1223.02L1228.15 51.0654L1233.08 114.763H1237.18V119.497H1239.65V116.611H1245.4V120.311H1254.03V117.647H1257.11V124.22H1260.38V120.521H1264.08V122.16H1267.58V119.694H1269.62V121.963H1277.01V119.694H1284V145.812H1286.36V142.622L1298.33 139.732L1310.28 142.622V145.812H1315.43V123H1343.22V136.553H1350.34V132.696H1365.49V136.553H1372.07V141.183H1383.51V144.909H1405.62V138.798H1400.81V135.736H1413.74V125.296H1434.81V138.057H1437.15V140.441H1439.82V139.507H1442.18V140.441H1444.85V139.507H1447.19V140.441H1449.87V139.507H1452.22V140.441H1454V161V201H0V161V141.502H2.3584V137.406L14.3271 133.696L26.2812 137.406V141.502H31.4297V91.1973L59.2188 80V129.615H66.3379V124.664H81.4854V129.615H88.0674V135.559H99.5137V140.343H121.616V132.497H116.811V128.567H129.735V119.604H150.808V131.546H153.15V134.606H155.822V133.407H158.18V134.606H160.852V133.407H163.194V134.606H165.866V133.407H168.224V134.606H170V131.604H171.573V134.612H173.356V131.604H174.92V134.612H176.713V131.604H178.276V134.612H180.079V131.604H181.653V134.612H183.436V131.604H185V134.612H186.793V131.604H188.356V134.612H190.139V131.604H191.713V124.102H193.217V119.819H194.292V115.968L203.545 110.371V101.214H204.043V110.371L213.296 115.968V119.819H214.422V124.102H215.926V131.604H217.499V134.612H219.282V133.8H220.846V134.612H222.639V133.8H224.202V134.612H225.985V133.8H227.559V134.612H229.342V133.8H230.905V134.612H232.698V133.8H234.262V134.612H236.045V131.604H237.708V119.819H252.369V128.945H259.341V146.858H262.768V143.85L270.735 141.151L278.703 143.85V146.858H282.13V110.261H300.686V138.223H305.437V134.612H315.546V138.223H319.938V142.546H327.577V146.026H342.328V140.31H339.111V137.451H347.736V127.712H361.8V139.617H363.373V141.844H365.156V140.971H366.72V141.844H368.513V140.971H370.037V141.844H371.819V140.971H373.394V141.844H375.176V140.971H376.739V141.844H378.532V140.971H380.097V141.844H381.879V139.617H383.453V124.142H385.026V119.859H392.596V90.0615L391.729 88.5967H392.596V84.4248H393.264V83.4219H393.911V82.4189H394.519V78.6279L395.653 77.1035L396.789 78.6279V82.4189H397.396V83.4219H398.034V84.4248H398.701V88.5566H399.578L398.701 90.0215V119.819H406.271V124.102H407.775V143.027H416.53V134.833H413.014V131.724H421.082V107.653H423.233V90.2021L421.868 87.4941H423.233V79.0889L421.868 76.3809H423.233V72.2393H426.002V67.4346L428.044 59L430.086 67.4346V72.2393H432.854V76.3809H434.229L432.854 79.0889V87.4941H434.229L432.854 90.2021V107.653H435.016V129.327H439.567V143.127H446.629V138.514H448.192V139.417H449.985V138.514H451.549V139.417H453.332V138.514H454.906V139.417H456.688V138.514H458.252V139.417H460.045V138.514H461.609V139.417H463.392V138.514H464.966V139.417H466.748V136.909H468.312V114.845L478.432 106.439L488.541 114.845V123.871H500.413V135.625H506.957V105.817L506.08 104.363H506.957V100.222H507.604V99.2188H508.252V98.2158H508.859V94.4346L509.994 92.8994L511.13 94.4346V98.2158H511.737V99.2188H512.385V100.222H513.053V104.363H513.929L513.053 105.817V135.625H524.147C524.147 130.991 525.976 126.548 529.229 123.271C532.483 119.995 536.896 118.154 541.498 118.154C546.1 118.154 550.513 119.995 553.767 123.271C557.021 126.548 558.849 130.991 558.849 135.625H569.983V105.817L569.117 104.363H569.983V100.222H570.661V99.2188H571.299V98.2158H571.906V94.4346L573.041 92.8994L574.187 94.4346V98.2158H574.784V99.2188H575.432V100.222H576.109V104.363H576.976L576.109 105.817V135.625H582.652V143.047H591.438V126.298C598.297 122.159 605.155 122.159 612.015 126.298V138.443H618.07V84.9365H637.273V112.788H653.937V133.429H662.094V124.854L668 124.849Z" fill="#212121"/>
<path d="M397.107 89H396.189V90.8059H397.107V89Z" fill="#D0E200" fill-opacity="0.76"/>
<g opacity="0.3">
<path d="M396.189 89V89.2239H396.952V90.8059H397.107V89H396.189Z" fill="black"/>
</g>
<path d="M397.375 90.8057H396.189V91.0183H397.375V90.8057Z" fill="white"/>
<path d="M394.918 89H394V90.8059H394.918V89Z" fill="#D0E200" fill-opacity="0.76"/>
<g opacity="0.3">
<path d="M394 89V89.2239H394.763V90.8059H394.918V89H394Z" fill="black"/>
</g>
<path d="M395.186 90.8057H394V91.0183H395.186V90.8057Z" fill="white"/>
<rect x="1328" y="132" width="1" height="3" transform="rotate(-90 1328 132)" fill="#455A64"/>
<rect x="1328" y="135" width="1" height="3" transform="rotate(-90 1328 135)" fill="#455A64"/>
<rect x="1328" y="138" width="1" height="3" transform="rotate(-90 1328 138)" fill="#455A64"/>
<rect x="1321" y="132" width="1" height="3" transform="rotate(-90 1321 132)" fill="#EAFF00"/>
<rect x="1321" y="135" width="1" height="3" transform="rotate(-90 1321 135)" fill="#EAFF00"/>
<rect x="1321" y="138" width="1" height="3" transform="rotate(-90 1321 138)" fill="#EAFF00"/>
<rect x="1335" y="132" width="1" height="3" transform="rotate(-90 1335 132)" fill="#455A64"/>
<rect x="1335" y="135" width="1" height="3" transform="rotate(-90 1335 135)" fill="#455A64"/>
<rect x="1335" y="138" width="1" height="3" transform="rotate(-90 1335 138)" fill="#455A64"/>
<rect x="1418" y="144" width="2" height="2" fill="#455A64"/>
<rect x="1425" y="144" width="2" height="2" fill="#455A64"/>
<rect x="1431" y="144" width="2" height="2" fill="#455A64"/>
<rect x="1418" y="138" width="2" height="2" fill="#EAFF00"/>
<rect x="1425" y="138" width="2" height="2" fill="#EAFF00"/>
<rect x="1431" y="138" width="2" height="2" fill="#EAFF00"/>
<rect x="1418" y="132" width="2" height="2" fill="#EAFF00"/>
<rect x="1425" y="132" width="2" height="2" fill="#EAFF00"/>
<rect x="1431" y="132" width="2" height="2" fill="#EAFF00"/>
<path d="M575.257 106H574V107.806H575.257V106Z" fill="#D0E200" fill-opacity="0.76"/>
<g opacity="0.3">
<path d="M574 106V106.224H575.045V107.806H575.257V106H574Z" fill="black"/>
</g>
<path d="M575.624 107.806H574V108.018H575.624V107.806Z" fill="white"/>
<path d="M580.257 138H579V139.806H580.257V138Z" fill="#455A64" fill-opacity="0.76"/>
<g opacity="0.3">
<path d="M579 138V138.224H580.045V139.806H580.257V138H579Z" fill="black"/>
</g>
<path d="M580.624 139.806H579V140.018H580.624V139.806Z" fill="white"/>
<path d="M610.257 128H609V129.806H610.257V128Z" fill="#D0E200" fill-opacity="0.76"/>
<g opacity="0.3">
<path d="M609 128V128.224H610.045V129.806H610.257V128H609Z" fill="black"/>
</g>
<path d="M610.624 129.806H609V130.018H610.624V129.806Z" fill="white"/>
<path d="M784.257 118H783V118.911H784.257V118Z" fill="#D0E200" fill-opacity="0.76"/>
<g opacity="0.3">
<path d="M783 118V118.113H784.045V118.911H784.257V118H783Z" fill="black"/>
</g>
<path d="M784.624 118.911H783V119.018H784.624V118.911Z" fill="white"/>
<path d="M767.257 129H766V129.911H767.257V129Z" fill="#D0E200" fill-opacity="0.76"/>
<g opacity="0.3">
<path d="M766 129V129.113H767.045V129.911H767.257V129H766Z" fill="black"/>
</g>
<path d="M767.624 129.911H766V130.018H767.624V129.911Z" fill="white"/>
<path d="M735.257 128H734V128.911H735.257V128Z" fill="#D0E200" fill-opacity="0.76"/>
<g opacity="0.3">
<path d="M734 128V128.113H735.045V128.911H735.257V128H734Z" fill="black"/>
</g>
<path d="M735.624 128.911H734V129.018H735.624V128.911Z" fill="white"/>
<path d="M793.257 131H792V133.701H793.257V131Z" fill="#455A64" fill-opacity="0.76"/>
<g opacity="0.3">
<path d="M792 131V131.335H793.045V133.701H793.257V131H792Z" fill="black"/>
</g>
<path d="M793.624 133.7H792V134.018H793.624V133.7Z" fill="white"/>
<path d="M784.257 131H783V133.701H784.257V131Z" fill="#D0E200" fill-opacity="0.76"/>
<g opacity="0.3">
<path d="M783 131V131.335H784.045V133.701H784.257V131H783Z" fill="black"/>
</g>
<path d="M784.624 133.7H783V134.018H784.624V133.7Z" fill="white"/>
<path d="M793.257 121H792V123.701H793.257V121Z" fill="#455A64" fill-opacity="0.76"/>
<g opacity="0.3">
<path d="M792 121V121.335H793.045V123.701H793.257V121H792Z" fill="black"/>
</g>
<path d="M793.624 123.7H792V124.018H793.624V123.7Z" fill="white"/>
<path d="M784.257 121H783V123.701H784.257V121Z" fill="#D0E200" fill-opacity="0.76"/>
<g opacity="0.3">
<path d="M783 121V121.335H784.045V123.701H784.257V121H783Z" fill="black"/>
</g>
<path d="M784.624 123.7H783V124.018H784.624V123.7Z" fill="white"/>
<path d="M484.257 120H483V121.806H484.257V120Z" fill="#D0E200" fill-opacity="0.76"/>
<g opacity="0.3">
<path d="M483 120V120.224H484.045V121.806H484.257V120H483Z" fill="black"/>
</g>
<path d="M484.624 121.806H483V122.018H484.624V121.806Z" fill="white"/>
<path d="M484.257 127H483V128.806H484.257V127Z" fill="#D0E200" fill-opacity="0.76"/>
<g opacity="0.3">
<path d="M483 127V127.224H484.045V128.806H484.257V127H483Z" fill="black"/>
</g>
<path d="M484.624 128.806H483V129.018H484.624V128.806Z" fill="white"/>
<path d="M484.257 133H483V134.806H484.257V133Z" fill="#D0E200" fill-opacity="0.76"/>
<g opacity="0.3">
<path d="M483 133V133.224H484.045V134.806H484.257V133H483Z" fill="black"/>
</g>
<path d="M484.624 134.806H483V135.018H484.624V134.806Z" fill="white"/>
<path d="M499.257 134H498V135.806H499.257V134Z" fill="#D0E200" fill-opacity="0.76"/>
<g opacity="0.3">
<path d="M498 134V134.224H499.045V135.806H499.257V134H498Z" fill="black"/>
</g>
<path d="M499.624 135.806H498V136.018H499.624V135.806Z" fill="white"/>
<path d="M406.257 126H405V127.806H406.257V126Z" fill="#455A64" fill-opacity="0.76"/>
<g opacity="0.3">
<path d="M405 126V126.224H406.045V127.806H406.257V126H405Z" fill="black"/>
</g>
<path d="M406.624 127.806H405V128.018H406.624V127.806Z" fill="white"/>
<path d="M395.257 126H394V127.806H395.257V126Z" fill="#D0E200" fill-opacity="0.76"/>
<g opacity="0.3">
<path d="M394 126V126.224H395.045V127.806H395.257V126H394Z" fill="black"/>
</g>
<path d="M395.624 127.806H394V128.018H395.624V127.806Z" fill="white"/>
<path d="M406.257 130H405V131.806H406.257V130Z" fill="#455A64" fill-opacity="0.76"/>
<g opacity="0.3">
<path d="M405 130V130.224H406.045V131.806H406.257V130H405Z" fill="black"/>
</g>
<path d="M406.624 131.806H405V132.018H406.624V131.806Z" fill="white"/>
<path d="M395.257 130H394V131.806H395.257V130Z" fill="#D0E200" fill-opacity="0.76"/>
<g opacity="0.3">
<path d="M394 130V130.224H395.045V131.806H395.257V130H394Z" fill="black"/>
</g>
<path d="M395.624 131.806H394V132.018H395.624V131.806Z" fill="white"/>
<path d="M145.257 132H144V133.806H145.257V132Z" fill="#D0E200" fill-opacity="0.76"/>
<g opacity="0.3">
<path d="M144 132V132.224H145.045V133.806H145.257V132H144Z" fill="black"/>
</g>
<path d="M145.624 133.806H144V134.018H145.624V133.806Z" fill="white"/>
<path d="M214.257 134H213V135.806H214.257V134Z" fill="#D0E200" fill-opacity="0.76"/>
<g opacity="0.3">
<path d="M213 134V134.224H214.045V135.806H214.257V134H213Z" fill="black"/>
</g>
<path d="M214.624 135.806H213V136.018H214.624V135.806Z" fill="white"/>
<path d="M202.257 134H201V135.806H202.257V134Z" fill="#D0E200" fill-opacity="0.76"/>
<g opacity="0.3">
<path d="M201 134V134.224H202.045V135.806H202.257V134H201Z" fill="black"/>
</g>
<path d="M202.624 135.806H201V136.018H202.624V135.806Z" fill="white"/>
<path d="M499.257 127H498V128.806H499.257V127Z" fill="#D0E200" fill-opacity="0.76"/>
<g opacity="0.3">
<path d="M498 127V127.224H499.045V128.806H499.257V127H498Z" fill="black"/>
</g>
<path d="M499.624 128.806H498V129.018H499.624V128.806Z" fill="white"/>
<path d="M250.257 124H249V125.806H250.257V124Z" fill="#D0E200" fill-opacity="0.76"/>
<g opacity="0.3">
<path d="M249 124V124.224H250.045V125.806H250.257V124H249Z" fill="black"/>
</g>
<path d="M250.624 125.806H249V126.018H250.624V125.806Z" fill="white"/>
<path d="M250.257 130H249V131.806H250.257V130Z" fill="#D0E200" fill-opacity="0.76"/>
<g opacity="0.3">
<path d="M249 130V130.224H250.045V131.806H250.257V130H249Z" fill="black"/>
</g>
<path d="M250.624 131.806H249V132.018H250.624V131.806Z" fill="white"/>
<path d="M256.257 135H255V136.806H256.257V135Z" fill="#D0E200" fill-opacity="0.76"/>
<g opacity="0.3">
<path d="M255 135V135.224H256.045V136.806H256.257V135H255Z" fill="black"/>
</g>
<path d="M256.624 136.806H255V137.018H256.624V136.806Z" fill="white"/>
<path d="M296.608 113.929H295.262V115.862H296.608V113.929Z" fill="#D0E200" fill-opacity="0.76"/>
<g opacity="0.3">
<path d="M295.262 113.929V114.168H296.381V115.862H296.608V113.929H295.262Z" fill="black"/>
</g>
<path d="M297 115.862H295.262V116.09H297V115.862Z" fill="white"/>
<path d="M634.482 111H632.707V113.55H634.482V111Z" fill="#D0E200" fill-opacity="0.76"/>
<g opacity="0.3">
<path d="M632.707 111V111.316H634.182V113.55H634.482V111H632.707Z" fill="black"/>
</g>
<path d="M635 113.55H632.707V113.85H635V113.55Z" fill="white"/>
<path d="M634.482 105H632.707V107.55H634.482V105Z" fill="#D0E200" fill-opacity="0.76"/>
<g opacity="0.3">
<path d="M632.707 105V105.316H634.182V107.55H634.482V105H632.707Z" fill="black"/>
</g>
<path d="M635 107.55H632.707V107.85H635V107.55Z" fill="white"/>
<path d="M634.482 90H632.707V92.5499H634.482V90Z" fill="#D0E200" fill-opacity="0.76"/>
<g opacity="0.3">
<path d="M632.707 90V90.3162H634.182V92.5499H634.482V90H632.707Z" fill="black"/>
</g>
<path d="M635 92.5498H632.707V92.8501H635V92.5498Z" fill="white"/>
<path d="M634.482 97H632.707V99.5499H634.482V97Z" fill="#D0E200" fill-opacity="0.76"/>
<g opacity="0.3">
<path d="M632.707 97V97.3162H634.182V99.5499H634.482V97H632.707Z" fill="black"/>
</g>
<path d="M635 99.5498H632.707V99.8501H635V99.5498Z" fill="white"/>
<path d="M296.983 127H295.637V128.934H296.983V127Z" fill="#D0E200" fill-opacity="0.76"/>
<g opacity="0.3">
<path d="M295.637 127V127.24H296.756V128.934H296.983V127H295.637Z" fill="black"/>
</g>
<path d="M297.375 128.934H295.637V129.161H297.375V128.934Z" fill="white"/>
<path d="M54.8226 96H53.4766V97.9338H54.8226V96Z" fill="#D0E200" fill-opacity="0.76"/>
<g opacity="0.3">
<path d="M53.4766 96V96.2398H54.5954V97.9338H54.8226V96H53.4766Z" fill="black"/>
</g>
<path d="M55.2153 97.9336H53.4766V98.1613H55.2153V97.9336Z" fill="white"/>
<path d="M22.8226 146H21.4766V147.934H22.8226V146Z" fill="#D0E200" fill-opacity="0.76"/>
<g opacity="0.3">
<path d="M21.4766 146V146.24H22.5954V147.934H22.8226V146H21.4766Z" fill="black"/>
</g>
<path d="M23.2153 147.934H21.4766V148.161H23.2153V147.934Z" fill="white"/>
<path d="M84.8226 140H83.4766V141.934H84.8226V140Z" fill="#D0E200" fill-opacity="0.76"/>
<g opacity="0.3">
<path d="M83.4766 140V140.24H84.5954V141.934H84.8226V140H83.4766Z" fill="black"/>
</g>
<path d="M85.2153 141.934H83.4766V142.161H85.2153V141.934Z" fill="white"/>
<path d="M54.8226 102.161H53.4766V104.095H54.8226V102.161Z" fill="#D0E200" fill-opacity="0.76"/>
<g opacity="0.3">
<path d="M53.4766 102.161V102.401H54.5954V104.095H54.8226V102.161H53.4766Z" fill="black"/>
</g>
<path d="M55.2153 104.095H53.4766V104.322H55.2153V104.095Z" fill="white"/>
<path d="M22.8226 152.161H21.4766V154.095H22.8226V152.161Z" fill="#D0E200" fill-opacity="0.76"/>
<g opacity="0.3">
<path d="M21.4766 152.161V152.401H22.5954V154.095H22.8226V152.161H21.4766Z" fill="black"/>
</g>
<path d="M23.2153 154.095H21.4766V154.322H23.2153V154.095Z" fill="white"/>
<path d="M54.8226 114.483H53.4766V116.417H54.8226V114.483Z" fill="#D0E200" fill-opacity="0.76"/>
<g opacity="0.3">
<path d="M53.4766 114.483V114.723H54.5954V116.417H54.8226V114.483H53.4766Z" fill="black"/>
</g>
<path d="M55.2153 116.417H53.4766V116.645H55.2153V116.417Z" fill="white"/>
<path d="M54.8226 120.645H53.4766V122.578H54.8226V120.645Z" fill="#D0E200" fill-opacity="0.76"/>
<g opacity="0.3">
<path d="M53.4766 120.645V120.884H54.5954V122.578H54.8226V120.645H53.4766Z" fill="black"/>
</g>
<path d="M55.2153 122.578H53.4766V122.806H55.2153V122.578Z" fill="white"/>
<path d="M54.8226 126.806H53.4766V128.739H54.8226V126.806Z" fill="#D0E200" fill-opacity="0.76"/>
<g opacity="0.3">
<path d="M53.4766 126.806V127.045H54.5954V128.739H54.8226V126.806H53.4766Z" fill="black"/>
</g>
<path d="M55.2153 128.739H53.4766V128.967H55.2153V128.739Z" fill="white"/>
<path d="M296.983 133H295.637V134.934H296.983V133Z" fill="#D0E200" fill-opacity="0.76"/>
<g opacity="0.3">
<path d="M295.637 133V133.24H296.756V134.934H296.983V133H295.637Z" fill="black"/>
</g>
<path d="M297.375 134.934H295.637V135.161H297.375V134.934Z" fill="white"/>
<path d="M317.983 140H316.637V141.934H317.983V140Z" fill="#D0E200" fill-opacity="0.76"/>
<g opacity="0.3">
<path d="M316.637 140V140.24H317.756V141.934H317.983V140H316.637Z" fill="black"/>
</g>
<path d="M318.375 141.934H316.637V142.161H318.375V141.934Z" fill="white"/>
<path d="M359.983 130H358.637V131.934H359.983V130Z" fill="#D0E200" fill-opacity="0.76"/>
<g opacity="0.3">
<path d="M358.637 130V130.24H359.756V131.934H359.983V130H358.637Z" fill="black"/>
</g>
<path d="M360.375 131.934H358.637V132.161H360.375V131.934Z" fill="white"/>
<path d="M359.983 136H358.637V137.934H359.983V136Z" fill="#D0E200" fill-opacity="0.76"/>
<g opacity="0.3">
<path d="M358.637 136V136.24H359.756V137.934H359.983V136H358.637Z" fill="black"/>
</g>
<path d="M360.375 137.934H358.637V138.161H360.375V137.934Z" fill="white"/>
<path d="M419.45 133H418.727V134.039H419.45V133Z" fill="#D0E200" fill-opacity="0.76"/>
<g opacity="0.3">
<path d="M418.727 133V133.129H419.328V134.039H419.45V133H418.727Z" fill="black"/>
</g>
<path d="M419.661 134.039H418.727V134.161H419.661V134.039Z" fill="white"/>
<path d="M296.983 120H295.637V121.934H296.983V120Z" fill="#D0E200" fill-opacity="0.76"/>
<g opacity="0.3">
<path d="M295.637 120V120.24H296.756V121.934H296.983V120H295.637Z" fill="black"/>
</g>
<path d="M297.375 121.934H295.637V122.161H297.375V121.934Z" fill="white"/>
<path d="M674.983 127H673.637V128.934H674.983V127Z" fill="#D0E200" fill-opacity="0.76"/>
<g opacity="0.3">
<path d="M673.637 127V127.24H674.756V128.934H674.983V127H673.637Z" fill="black"/>
</g>
<path d="M675.375 128.934H673.637V129.161H675.375V128.934Z" fill="white"/>
<path d="M711.983 118H710.637V119.934H711.983V118Z" fill="#D0E200" fill-opacity="0.76"/>
<g opacity="0.3">
<path d="M710.637 118V118.24H711.756V119.934H711.983V118H710.637Z" fill="black"/>
</g>
<path d="M712.375 119.934H710.637V120.161H712.375V119.934Z" fill="white"/>
<path d="M696.983 118H695.637V119.934H696.983V118Z" fill="#D0E200" fill-opacity="0.76"/>
<g opacity="0.3">
<path d="M695.637 118V118.24H696.756V119.934H696.983V118H695.637Z" fill="black"/>
</g>
<path d="M697.375 119.934H695.637V120.161H697.375V119.934Z" fill="white"/>
<path d="M696.983 122H695.637V123.934H696.983V122Z" fill="#D0E200" fill-opacity="0.76"/>
<g opacity="0.3">
<path d="M695.637 122V122.24H696.756V123.934H696.983V122H695.637Z" fill="black"/>
</g>
<path d="M697.375 123.934H695.637V124.161H697.375V123.934Z" fill="white"/>
<path d="M711.983 122H710.637V123.934H711.983V122Z" fill="#D0E200" fill-opacity="0.76"/>
<g opacity="0.3">
<path d="M710.637 122V122.24H711.756V123.934H711.983V122H710.637Z" fill="black"/>
</g>
<path d="M712.375 123.934H710.637V124.161H712.375V123.934Z" fill="white"/>
<path d="M721.983 122H720.637V123.934H721.983V122Z" fill="#D0E200" fill-opacity="0.76"/>
<g opacity="0.3">
<path d="M720.637 122V122.24H721.756V123.934H721.983V122H720.637Z" fill="black"/>
</g>
<path d="M722.375 123.934H720.637V124.161H722.375V123.934Z" fill="white"/>
<path d="M674.983 131H673.637V132.934H674.983V131Z" fill="#D0E200" fill-opacity="0.76"/>
<g opacity="0.3">
<path d="M673.637 131V131.24H674.756V132.934H674.983V131H673.637Z" fill="black"/>
</g>
<path d="M675.375 132.934H673.637V133.161H675.375V132.934Z" fill="white"/>
<path d="M663 127.392L663 128.738L664.934 128.738L664.934 127.392L663 127.392Z" fill="#D0E200" fill-opacity="0.76"/>
<g opacity="0.3">
<path d="M663 128.738L663.24 128.738L663.24 127.619L664.934 127.619L664.934 127.392L663 127.392L663 128.738Z" fill="black"/>
</g>
<path d="M664.934 127L664.934 128.738L665.161 128.738L665.161 127L664.934 127Z" fill="white"/>
<path d="M630.983 120H629.637V121.934H630.983V120Z" fill="#D0E200" fill-opacity="0.76"/>
<g opacity="0.3">
<path d="M629.637 120V120.24H630.756V121.934H630.983V120H629.637Z" fill="black"/>
</g>
<path d="M631.375 121.934H629.637V122.161H631.375V121.934Z" fill="white"/>
<path d="M634.346 120H633V121.934H634.346V120Z" fill="#D0E200" fill-opacity="0.76"/>
<g opacity="0.3">
<path d="M633 120V120.24H634.119V121.934H634.346V120H633Z" fill="black"/>
</g>
<path d="M634.739 121.934H633V122.161H634.739V121.934Z" fill="white"/>
<path d="M649.983 120H648.637V121.934H649.983V120Z" fill="#455A64" fill-opacity="0.76"/>
<g opacity="0.3">
<path d="M648.637 120V120.24H649.756V121.934H649.983V120H648.637Z" fill="black"/>
</g>
<path d="M650.375 121.934H648.637V122.161H650.375V121.934Z" fill="white"/>
<path d="M574.257 138H573V139.806H574.257V138Z" fill="#D0E200" fill-opacity="0.76"/>
<g opacity="0.3">
<path d="M573 138V138.224H574.045V139.806H574.257V138H573Z" fill="black"/>
</g>
<path d="M574.624 139.806H573V140.018H574.624V139.806Z" fill="white"/>
<path d="M604.257 128H603V129.806H604.257V128Z" fill="#D0E200" fill-opacity="0.76"/>
<g opacity="0.3">
<path d="M603 128V128.224H604.045V129.806H604.257V128H603Z" fill="black"/>
</g>
<path d="M604.624 129.806H603V130.018H604.624V129.806Z" fill="white"/>
<path d="M778.257 118H777V118.911H778.257V118Z" fill="#D0E200" fill-opacity="0.76"/>
<g opacity="0.3">
<path d="M777 118V118.113H778.045V118.911H778.257V118H777Z" fill="black"/>
</g>
<path d="M778.624 118.911H777V119.018H778.624V118.911Z" fill="white"/>
<path d="M761.257 129H760V129.911H761.257V129Z" fill="#D0E200" fill-opacity="0.76"/>
<g opacity="0.3">
<path d="M760 129V129.113H761.045V129.911H761.257V129H760Z" fill="black"/>
</g>
<path d="M761.624 129.911H760V130.018H761.624V129.911Z" fill="white"/>
<path d="M729.257 128H728V128.911H729.257V128Z" fill="#D0E200" fill-opacity="0.76"/>
<g opacity="0.3">
<path d="M728 128V128.113H729.045V128.911H729.257V128H728Z" fill="black"/>
</g>
<path d="M729.624 128.911H728V129.018H729.624V128.911Z" fill="white"/>
<path d="M787.257 131H786V133.701H787.257V131Z" fill="#455A64" fill-opacity="0.76"/>
<g opacity="0.3">
<path d="M786 131V131.335H787.045V133.701H787.257V131H786Z" fill="black"/>
</g>
<path d="M787.624 133.7H786V134.018H787.624V133.7Z" fill="white"/>
<path d="M778.257 131H777V133.701H778.257V131Z" fill="#D0E200" fill-opacity="0.76"/>
<g opacity="0.3">
<path d="M777 131V131.335H778.045V133.701H778.257V131H777Z" fill="black"/>
</g>
<path d="M778.624 133.7H777V134.018H778.624V133.7Z" fill="white"/>
<path d="M787.257 121H786V123.701H787.257V121Z" fill="#D0E200" fill-opacity="0.76"/>
<g opacity="0.3">
<path d="M786 121V121.335H787.045V123.701H787.257V121H786Z" fill="black"/>
</g>
<path d="M787.624 123.7H786V124.018H787.624V123.7Z" fill="white"/>
<path d="M778.257 121H777V123.701H778.257V121Z" fill="#D0E200" fill-opacity="0.76"/>
<g opacity="0.3">
<path d="M777 121V121.335H778.045V123.701H778.257V121H777Z" fill="black"/>
</g>
<path d="M778.624 123.7H777V124.018H778.624V123.7Z" fill="white"/>
<path d="M478.257 120H477V121.806H478.257V120Z" fill="#D0E200" fill-opacity="0.76"/>
<g opacity="0.3">
<path d="M477 120V120.224H478.045V121.806H478.257V120H477Z" fill="black"/>
</g>
<path d="M478.624 121.806H477V122.018H478.624V121.806Z" fill="white"/>
<path d="M478.257 127H477V128.806H478.257V127Z" fill="#D0E200" fill-opacity="0.76"/>
<g opacity="0.3">
<path d="M477 127V127.224H478.045V128.806H478.257V127H477Z" fill="black"/>
</g>
<path d="M478.624 128.806H477V129.018H478.624V128.806Z" fill="white"/>
<path d="M478.257 133H477V134.806H478.257V133Z" fill="#D0E200" fill-opacity="0.76"/>
<g opacity="0.3">
<path d="M477 133V133.224H478.045V134.806H478.257V133H477Z" fill="black"/>
</g>
<path d="M478.624 134.806H477V135.018H478.624V134.806Z" fill="white"/>
<path d="M493.257 134H492V135.806H493.257V134Z" fill="#D0E200" fill-opacity="0.76"/>
<g opacity="0.3">
<path d="M492 134V134.224H493.045V135.806H493.257V134H492Z" fill="black"/>
</g>
<path d="M493.624 135.806H492V136.018H493.624V135.806Z" fill="white"/>
<path d="M400.257 126H399V127.806H400.257V126Z" fill="#D0E200" fill-opacity="0.76"/>
<g opacity="0.3">
<path d="M399 126V126.224H400.045V127.806H400.257V126H399Z" fill="black"/>
</g>
<path d="M400.624 127.806H399V128.018H400.624V127.806Z" fill="white"/>
<path d="M389.257 126H388V127.806H389.257V126Z" fill="#455A64" fill-opacity="0.76"/>
<g opacity="0.3">
<path d="M388 126V126.224H389.045V127.806H389.257V126H388Z" fill="black"/>
</g>
<path d="M389.624 127.806H388V128.018H389.624V127.806Z" fill="white"/>
<path d="M400.257 130H399V131.806H400.257V130Z" fill="#D0E200" fill-opacity="0.76"/>
<g opacity="0.3">
<path d="M399 130V130.224H400.045V131.806H400.257V130H399Z" fill="black"/>
</g>
<path d="M400.624 131.806H399V132.018H400.624V131.806Z" fill="white"/>
<path d="M389.257 130H388V131.806H389.257V130Z" fill="#455A64" fill-opacity="0.76"/>
<g opacity="0.3">
<path d="M388 130V130.224H389.045V131.806H389.257V130H388Z" fill="black"/>
</g>
<path d="M389.624 131.806H388V132.018H389.624V131.806Z" fill="white"/>
<path d="M139.257 132H138V133.806H139.257V132Z" fill="#D0E200" fill-opacity="0.76"/>
<g opacity="0.3">
<path d="M138 132V132.224H139.045V133.806H139.257V132H138Z" fill="black"/>
</g>
<path d="M139.624 133.806H138V134.018H139.624V133.806Z" fill="white"/>
<path d="M208.257 134H207V135.806H208.257V134Z" fill="#455A64" fill-opacity="0.76"/>
<g opacity="0.3">
<path d="M207 134V134.224H208.045V135.806H208.257V134H207Z" fill="black"/>
</g>
<path d="M208.624 135.806H207V136.018H208.624V135.806Z" fill="white"/>
<path d="M493.257 127H492V128.806H493.257V127Z" fill="#D0E200" fill-opacity="0.76"/>
<g opacity="0.3">
<path d="M492 127V127.224H493.045V128.806H493.257V127H492Z" fill="black"/>
</g>
<path d="M493.624 128.806H492V129.018H493.624V128.806Z" fill="white"/>
<path d="M430.257 76H429V77.8059H430.257V76Z" fill="#D0E200" fill-opacity="0.76"/>
<g opacity="0.3">
<path d="M429 76V76.2239H430.045V77.8059H430.257V76H429Z" fill="black"/>
</g>
<path d="M430.624 77.8057H429V78.0183H430.624V77.8057Z" fill="white"/>
<path d="M430.257 88H429V89.8059H430.257V88Z" fill="#D0E200" fill-opacity="0.76"/>
<g opacity="0.3">
<path d="M429 88V88.2239H430.045V89.8059H430.257V88H429Z" fill="black"/>
</g>
<path d="M430.624 89.8057H429V90.0183H430.624V89.8057Z" fill="white"/>
<path d="M430.257 112H429V113.806H430.257V112Z" fill="#D0E200" fill-opacity="0.76"/>
<g opacity="0.3">
<path d="M429 112V112.224H430.045V113.806H430.257V112H429Z" fill="black"/>
</g>
<path d="M430.624 113.806H429V114.018H430.624V113.806Z" fill="white"/>
<path d="M244.257 124H243V125.806H244.257V124Z" fill="#D0E200" fill-opacity="0.76"/>
<g opacity="0.3">
<path d="M243 124V124.224H244.045V125.806H244.257V124H243Z" fill="black"/>
</g>
<path d="M244.624 125.806H243V126.018H244.624V125.806Z" fill="white"/>
<path d="M244.257 130H243V131.806H244.257V130Z" fill="#D0E200" fill-opacity="0.76"/>
<g opacity="0.3">
<path d="M243 130V130.224H244.045V131.806H244.257V130H243Z" fill="black"/>
</g>
<path d="M244.624 131.806H243V132.018H244.624V131.806Z" fill="white"/>
<path d="M250.257 135H249V136.806H250.257V135Z" fill="#D0E200" fill-opacity="0.76"/>
<g opacity="0.3">
<path d="M249 135V135.224H250.045V136.806H250.257V135H249Z" fill="black"/>
</g>
<path d="M250.624 136.806H249V137.018H250.624V136.806Z" fill="white"/>
<path d="M292.346 114H291V115.934H292.346V114Z" fill="#D0E200" fill-opacity="0.76"/>
<g opacity="0.3">
<path d="M291 114V114.24H292.119V115.934H292.346V114H291Z" fill="black"/>
</g>
<path d="M292.739 115.934H291V116.161H292.739V115.934Z" fill="white"/>
<path d="M628.865 111.095H627.09V113.645H628.865V111.095Z" fill="#D0E200" fill-opacity="0.76"/>
<g opacity="0.3">
<path d="M627.09 111.095V111.411H628.565V113.645H628.865V111.095H627.09Z" fill="black"/>
</g>
<path d="M629.383 113.645H627.09V113.945H629.383V113.645Z" fill="white"/>
<path d="M628.865 105.095H627.09V107.645H628.865V105.095Z" fill="#D0E200" fill-opacity="0.76"/>
<g opacity="0.3">
<path d="M627.09 105.095V105.411H628.565V107.645H628.865V105.095H627.09Z" fill="black"/>
</g>
<path d="M629.383 107.645H627.09V107.945H629.383V107.645Z" fill="white"/>
<path d="M628.865 90.0947H627.09V92.6447H628.865V90.0947Z" fill="#D0E200" fill-opacity="0.76"/>
<g opacity="0.3">
<path d="M627.09 90.0947V90.4109H628.565V92.6447H628.865V90.0947H627.09Z" fill="black"/>
</g>
<path d="M629.383 92.6445H627.09V92.9448H629.383V92.6445Z" fill="white"/>
<path d="M628.865 97.0947H627.09V99.6447H628.865V97.0947Z" fill="#D0E200" fill-opacity="0.76"/>
<g opacity="0.3">
<path d="M627.09 97.0947V97.4109H628.565V99.6447H628.865V97.0947H627.09Z" fill="black"/>
</g>
<path d="M629.383 99.6445H627.09V99.9448H629.383V99.6445Z" fill="white"/>
<path d="M292.346 127H291V128.934H292.346V127Z" fill="#D0E200" fill-opacity="0.76"/>
<g opacity="0.3">
<path d="M291 127V127.24H292.119V128.934H292.346V127H291Z" fill="black"/>
</g>
<path d="M292.739 128.934H291V129.161H292.739V128.934Z" fill="white"/>
<path d="M47.0843 96H45.7383V97.9338H47.0843V96Z" fill="#D0E200" fill-opacity="0.76"/>
<g opacity="0.3">
<path d="M45.7383 96V96.2398H46.8571V97.9338H47.0843V96H45.7383Z" fill="black"/>
</g>
<path d="M47.477 97.9336H45.7383V98.1613H47.477V97.9336Z" fill="white"/>
<path d="M15.0843 146H13.7383V147.934H15.0843V146Z" fill="#D0E200" fill-opacity="0.76"/>
<g opacity="0.3">
<path d="M13.7383 146V146.24H14.8571V147.934H15.0843V146H13.7383Z" fill="black"/>
</g>
<path d="M15.477 147.934H13.7383V148.161H15.477V147.934Z" fill="white"/>
<path d="M77.0843 140H75.7383V141.934H77.0843V140Z" fill="#455A64" fill-opacity="0.76"/>
<g opacity="0.3">
<path d="M75.7383 140V140.24H76.8571V141.934H77.0843V140H75.7383Z" fill="black"/>
</g>
<path d="M77.477 141.934H75.7383V142.161H77.477V141.934Z" fill="white"/>
<path d="M54.8226 108.322H53.4766V110.256H54.8226V108.322Z" fill="#D0E200" fill-opacity="0.76"/>
<g opacity="0.3">
<path d="M53.4766 108.322V108.562H54.5954V110.256H54.8226V108.322H53.4766Z" fill="black"/>
</g>
<path d="M55.2153 110.256H53.4766V110.484H55.2153V110.256Z" fill="white"/>
<path d="M22.8226 158.322H21.4766V160.256H22.8226V158.322Z" fill="#D0E200" fill-opacity="0.76"/>
<g opacity="0.3">
<path d="M21.4766 158.322V158.562H22.5954V160.256H22.8226V158.322H21.4766Z" fill="black"/>
</g>
<path d="M23.2153 160.256H21.4766V160.484H23.2153V160.256Z" fill="white"/>
<path d="M47.0843 114.483H45.7383V116.417H47.0843V114.483Z" fill="#D0E200" fill-opacity="0.76"/>
<g opacity="0.3">
<path d="M45.7383 114.483V114.723H46.8571V116.417H47.0843V114.483H45.7383Z" fill="black"/>
</g>
<path d="M47.477 116.417H45.7383V116.645H47.477V116.417Z" fill="white"/>
<path d="M47.0843 120.645H45.7383V122.578H47.0843V120.645Z" fill="#455A64" fill-opacity="0.76"/>
<g opacity="0.3">
<path d="M45.7383 120.645V120.884H46.8571V122.578H47.0843V120.645H45.7383Z" fill="black"/>
</g>
<path d="M47.477 122.578H45.7383V122.806H47.477V122.578Z" fill="white"/>
<path d="M47.0843 126.806H45.7383V128.739H47.0843V126.806Z" fill="#D0E200" fill-opacity="0.76"/>
<g opacity="0.3">
<path d="M45.7383 126.806V127.045H46.8571V128.739H47.0843V126.806H45.7383Z" fill="black"/>
</g>
<path d="M47.477 128.739H45.7383V128.967H47.477V128.739Z" fill="white"/>
<path d="M292.346 133H291V134.934H292.346V133Z" fill="#455A64" fill-opacity="0.76"/>
<g opacity="0.3">
<path d="M291 133V133.24H292.119V134.934H292.346V133H291Z" fill="black"/>
</g>
<path d="M292.739 134.934H291V135.161H292.739V134.934Z" fill="white"/>
<path d="M604.346 133H603V134.934H604.346V133Z" fill="#D0E200" fill-opacity="0.76"/>
<g opacity="0.3">
<path d="M603 133V133.24H604.119V134.934H604.346V133H603Z" fill="black"/>
</g>
<path d="M604.739 134.934H603V135.161H604.739V134.934Z" fill="white"/>
<path d="M311.557 140H310.211V141.934H311.557V140Z" fill="#D0E200" fill-opacity="0.76"/>
<g opacity="0.3">
<path d="M310.211 140V140.24H311.33V141.934H311.557V140H310.211Z" fill="black"/>
</g>
<path d="M311.95 141.934H310.211V142.161H311.95V141.934Z" fill="white"/>
<path d="M311.557 136H310.211V137.934H311.557V136Z" fill="#D0E200" fill-opacity="0.76"/>
<g opacity="0.3">
<path d="M310.211 136V136.24H311.33V137.934H311.557V136H310.211Z" fill="black"/>
</g>
<path d="M311.95 137.934H310.211V138.161H311.95V137.934Z" fill="white"/>
<path d="M353.557 130H352.211V131.934H353.557V130Z" fill="#D0E200" fill-opacity="0.76"/>
<g opacity="0.3">
<path d="M352.211 130V130.24H353.33V131.934H353.557V130H352.211Z" fill="black"/>
</g>
<path d="M353.95 131.934H352.211V132.161H353.95V131.934Z" fill="white"/>
<path d="M353.557 136H352.211V137.934H353.557V136Z" fill="#D0E200" fill-opacity="0.76"/>
<g opacity="0.3">
<path d="M352.211 136V136.24H353.33V137.934H353.557V136H352.211Z" fill="black"/>
</g>
<path d="M353.95 137.934H352.211V138.161H353.95V137.934Z" fill="white"/>
<path d="M292.346 120H291V121.934H292.346V120Z" fill="#D0E200" fill-opacity="0.76"/>
<g opacity="0.3">
<path d="M291 120V120.24H292.119V121.934H292.346V120H291Z" fill="black"/>
</g>
<path d="M292.739 121.934H291V122.161H292.739V121.934Z" fill="white"/>
<path d="M670.346 127H669V128.934H670.346V127Z" fill="#D0E200" fill-opacity="0.76"/>
<g opacity="0.3">
<path d="M669 127V127.24H670.119V128.934H670.346V127H669Z" fill="black"/>
</g>
<path d="M670.739 128.934H669V129.161H670.739V128.934Z" fill="white"/>
<path d="M707.346 118H706V119.934H707.346V118Z" fill="#D0E200" fill-opacity="0.76"/>
<g opacity="0.3">
<path d="M706 118V118.24H707.119V119.934H707.346V118H706Z" fill="black"/>
</g>
<path d="M707.739 119.934H706V120.161H707.739V119.934Z" fill="white"/>
<path d="M692.346 118H691V119.934H692.346V118Z" fill="#D0E200" fill-opacity="0.76"/>
<g opacity="0.3">
<path d="M691 118V118.24H692.119V119.934H692.346V118H691Z" fill="black"/>
</g>
<path d="M692.739 119.934H691V120.161H692.739V119.934Z" fill="white"/>
<path d="M692.346 122H691V123.934H692.346V122Z" fill="#D0E200" fill-opacity="0.76"/>
<g opacity="0.3">
<path d="M691 122V122.24H692.119V123.934H692.346V122H691Z" fill="black"/>
</g>
<path d="M692.739 123.934H691V124.161H692.739V123.934Z" fill="white"/>
<path d="M707.346 122H706V123.934H707.346V122Z" fill="#D0E200" fill-opacity="0.76"/>
<g opacity="0.3">
<path d="M706 122V122.24H707.119V123.934H707.346V122H706Z" fill="black"/>
</g>
<path d="M707.739 123.934H706V124.161H707.739V123.934Z" fill="white"/>
<path d="M717.346 122H716V123.934H717.346V122Z" fill="#D0E200" fill-opacity="0.76"/>
<g opacity="0.3">
<path d="M716 122V122.24H717.119V123.934H717.346V122H716Z" fill="black"/>
</g>
<path d="M717.739 123.934H716V124.161H717.739V123.934Z" fill="white"/>
<path d="M670.346 131H669V132.934H670.346V131Z" fill="#D0E200" fill-opacity="0.76"/>
<g opacity="0.3">
<path d="M669 131V131.24H670.119V132.934H670.346V131H669Z" fill="black"/>
</g>
<path d="M670.739 132.934H669V133.161H670.739V132.934Z" fill="white"/>
<path d="M663 132.029L663 133.375L664.934 133.375L664.934 132.029L663 132.029Z" fill="#D0E200" fill-opacity="0.76"/>
<g opacity="0.3">
<path d="M663 133.375L663.24 133.375L663.24 132.256L664.934 132.256L664.934 132.029L663 132.029L663 133.375Z" fill="black"/>
</g>
<path d="M664.934 131.636L664.934 133.375L665.161 133.375L665.161 131.636L664.934 131.636Z" fill="white"/>
<path d="M626.346 120H625V121.934H626.346V120Z" fill="#D0E200" fill-opacity="0.76"/>
<g opacity="0.3">
<path d="M625 120V120.24H626.119V121.934H626.346V120H625Z" fill="black"/>
</g>
<path d="M626.739 121.934H625V122.161H626.739V121.934Z" fill="white"/>
<path d="M645.346 120H644V121.934H645.346V120Z" fill="#D0E200" fill-opacity="0.76"/>
<g opacity="0.3">
<path d="M644 120V120.24H645.119V121.934H645.346V120H644Z" fill="black"/>
</g>
<path d="M645.739 121.934H644V122.161H645.739V121.934Z" fill="white"/>
<path d="M512.257 103H511V104.806H512.257V103Z" fill="#D0E200" fill-opacity="0.76"/>
<g opacity="0.3">
<path d="M511 103V103.224H512.045V104.806H512.257V103H511Z" fill="black"/>
</g>
<path d="M512.624 104.806H511V105.018H512.624V104.806Z" fill="white"/>
<path d="M572.257 106H571V107.806H572.257V106Z" fill="#D0E200" fill-opacity="0.76"/>
<g opacity="0.3">
<path d="M571 106V106.224H572.045V107.806H572.257V106H571Z" fill="black"/>
</g>
<path d="M572.624 107.806H571V108.018H572.624V107.806Z" fill="white"/>
<path d="M577.257 138H576V139.806H577.257V138Z" fill="#D0E200" fill-opacity="0.76"/>
<g opacity="0.3">
<path d="M576 138V138.224H577.045V139.806H577.257V138H576Z" fill="black"/>
</g>
<path d="M577.624 139.806H576V140.018H577.624V139.806Z" fill="white"/>
<path d="M607.257 128H606V129.806H607.257V128Z" fill="#D0E200" fill-opacity="0.76"/>
<g opacity="0.3">
<path d="M606 128V128.224H607.045V129.806H607.257V128H606Z" fill="black"/>
</g>
<path d="M607.624 129.806H606V130.018H607.624V129.806Z" fill="white"/>
<path d="M781.257 118H780V118.911H781.257V118Z" fill="#D0E200" fill-opacity="0.76"/>
<g opacity="0.3">
<path d="M780 118V118.113H781.045V118.911H781.257V118H780Z" fill="black"/>
</g>
<path d="M781.624 118.911H780V119.018H781.624V118.911Z" fill="white"/>
<path d="M764.257 129H763V129.911H764.257V129Z" fill="#455A64" fill-opacity="0.76"/>
<g opacity="0.3">
<path d="M763 129V129.113H764.045V129.911H764.257V129H763Z" fill="black"/>
</g>
<path d="M764.624 129.911H763V130.018H764.624V129.911Z" fill="white"/>
<path d="M732.257 128H731V128.911H732.257V128Z" fill="#D0E200" fill-opacity="0.76"/>
<g opacity="0.3">
<path d="M731 128V128.113H732.045V128.911H732.257V128H731Z" fill="black"/>
</g>
<path d="M732.624 128.911H731V129.018H732.624V128.911Z" fill="white"/>
<path d="M790.257 131H789V133.701H790.257V131Z" fill="#D0E200" fill-opacity="0.76"/>
<g opacity="0.3">
<path d="M789 131V131.335H790.045V133.701H790.257V131H789Z" fill="black"/>
</g>
<path d="M790.624 133.7H789V134.018H790.624V133.7Z" fill="white"/>
<path d="M781.257 131H780V133.701H781.257V131Z" fill="#D0E200" fill-opacity="0.76"/>
<g opacity="0.3">
<path d="M780 131V131.335H781.045V133.701H781.257V131H780Z" fill="black"/>
</g>
<path d="M781.624 133.7H780V134.018H781.624V133.7Z" fill="white"/>
<path d="M790.257 121H789V123.701H790.257V121Z" fill="#455A64" fill-opacity="0.76"/>
<g opacity="0.3">
<path d="M789 121V121.335H790.045V123.701H790.257V121H789Z" fill="black"/>
</g>
<path d="M790.624 123.7H789V124.018H790.624V123.7Z" fill="white"/>
<path d="M781.257 121H780V123.701H781.257V121Z" fill="#455A64" fill-opacity="0.76"/>
<g opacity="0.3">
<path d="M780 121V121.335H781.045V123.701H781.257V121H780Z" fill="black"/>
</g>
<path d="M781.624 123.7H780V124.018H781.624V123.7Z" fill="white"/>
<path d="M481.257 120H480V121.806H481.257V120Z" fill="#D0E200" fill-opacity="0.76"/>
<g opacity="0.3">
<path d="M480 120V120.224H481.045V121.806H481.257V120H480Z" fill="black"/>
</g>
<path d="M481.624 121.806H480V122.018H481.624V121.806Z" fill="white"/>
<path d="M481.257 127H480V128.806H481.257V127Z" fill="#D0E200" fill-opacity="0.76"/>
<g opacity="0.3">
<path d="M480 127V127.224H481.045V128.806H481.257V127H480Z" fill="black"/>
</g>
<path d="M481.624 128.806H480V129.018H481.624V128.806Z" fill="white"/>
<path d="M481.257 133H480V134.806H481.257V133Z" fill="#D0E200" fill-opacity="0.76"/>
<g opacity="0.3">
<path d="M480 133V133.224H481.045V134.806H481.257V133H480Z" fill="black"/>
</g>
<path d="M481.624 134.806H480V135.018H481.624V134.806Z" fill="white"/>
<path d="M496.257 134H495V135.806H496.257V134Z" fill="#D0E200" fill-opacity="0.76"/>
<g opacity="0.3">
<path d="M495 134V134.224H496.045V135.806H496.257V134H495Z" fill="black"/>
</g>
<path d="M496.624 135.806H495V136.018H496.624V135.806Z" fill="white"/>
<path d="M403.257 126H402V127.806H403.257V126Z" fill="#D0E200" fill-opacity="0.76"/>
<g opacity="0.3">
<path d="M402 126V126.224H403.045V127.806H403.257V126H402Z" fill="black"/>
</g>
<path d="M403.624 127.806H402V128.018H403.624V127.806Z" fill="white"/>
<path d="M392.257 126H391V127.806H392.257V126Z" fill="#D0E200" fill-opacity="0.76"/>
<g opacity="0.3">
<path d="M391 126V126.224H392.045V127.806H392.257V126H391Z" fill="black"/>
</g>
<path d="M392.624 127.806H391V128.018H392.624V127.806Z" fill="white"/>
<path d="M403.257 130H402V131.806H403.257V130Z" fill="#D0E200" fill-opacity="0.76"/>
<g opacity="0.3">
<path d="M402 130V130.224H403.045V131.806H403.257V130H402Z" fill="black"/>
</g>
<path d="M403.624 131.806H402V132.018H403.624V131.806Z" fill="white"/>
<path d="M392.257 130H391V131.806H392.257V130Z" fill="#D0E200" fill-opacity="0.76"/>
<g opacity="0.3">
<path d="M391 130V130.224H392.045V131.806H392.257V130H391Z" fill="black"/>
</g>
<path d="M392.624 131.806H391V132.018H392.624V131.806Z" fill="white"/>
<path d="M142.257 132H141V133.806H142.257V132Z" fill="#D0E200" fill-opacity="0.76"/>
<g opacity="0.3">
<path d="M141 132V132.224H142.045V133.806H142.257V132H141Z" fill="black"/>
</g>
<path d="M142.624 133.806H141V134.018H142.624V133.806Z" fill="white"/>
<path d="M211.257 134H210V135.806H211.257V134Z" fill="#D0E200" fill-opacity="0.76"/>
<g opacity="0.3">
<path d="M210 134V134.224H211.045V135.806H211.257V134H210Z" fill="black"/>
</g>
<path d="M211.624 135.806H210V136.018H211.624V135.806Z" fill="white"/>
<path d="M199.257 134H198V135.806H199.257V134Z" fill="#D0E200" fill-opacity="0.76"/>
<g opacity="0.3">
<path d="M198 134V134.224H199.045V135.806H199.257V134H198Z" fill="black"/>
</g>
<path d="M199.624 135.806H198V136.018H199.624V135.806Z" fill="white"/>
<path d="M496.257 127H495V128.806H496.257V127Z" fill="#D0E200" fill-opacity="0.76"/>
<g opacity="0.3">
<path d="M495 127V127.224H496.045V128.806H496.257V127H495Z" fill="black"/>
</g>
<path d="M496.624 128.806H495V129.018H496.624V128.806Z" fill="white"/>
<path d="M247.257 124H246V125.806H247.257V124Z" fill="#D0E200" fill-opacity="0.76"/>
<g opacity="0.3">
<path d="M246 124V124.224H247.045V125.806H247.257V124H246Z" fill="black"/>
</g>
<path d="M247.624 125.806H246V126.018H247.624V125.806Z" fill="white"/>
<path d="M247.257 130H246V131.806H247.257V130Z" fill="#D0E200" fill-opacity="0.76"/>
<g opacity="0.3">
<path d="M246 130V130.224H247.045V131.806H247.257V130H246Z" fill="black"/>
</g>
<path d="M247.624 131.806H246V132.018H247.624V131.806Z" fill="white"/>
<path d="M253.257 135H252V136.806H253.257V135Z" fill="#D0E200" fill-opacity="0.76"/>
<g opacity="0.3">
<path d="M252 135V135.224H253.045V136.806H253.257V135H252Z" fill="black"/>
</g>
<path d="M253.624 136.806H252V137.018H253.624V136.806Z" fill="white"/>
<path d="M314.77 140H313.424V141.934H314.77V140Z" fill="#D0E200" fill-opacity="0.76"/>
<g opacity="0.3">
<path d="M313.424 140V140.24H314.543V141.934H314.77V140H313.424Z" fill="black"/>
</g>
<path d="M315.163 141.934H313.424V142.161H315.163V141.934Z" fill="white"/>
<path d="M356.77 130H355.424V131.934H356.77V130Z" fill="#D0E200" fill-opacity="0.76"/>
<g opacity="0.3">
<path d="M355.424 130V130.24H356.543V131.934H356.77V130H355.424Z" fill="black"/>
</g>
<path d="M357.163 131.934H355.424V132.161H357.163V131.934Z" fill="white"/>
<path d="M356.77 136H355.424V137.934H356.77V136Z" fill="#D0E200" fill-opacity="0.76"/>
<g opacity="0.3">
<path d="M355.424 136V136.24H356.543V137.934H356.77V136H355.424Z" fill="black"/>
</g>
<path d="M357.163 137.934H355.424V138.161H357.163V137.934Z" fill="white"/>
<path d="M417.723 133H417V134.039H417.723V133Z" fill="#D0E200" fill-opacity="0.76"/>
<g opacity="0.3">
<path d="M417 133V133.129H417.601V134.039H417.723V133H417Z" fill="black"/>
</g>
<path d="M417.934 134.039H417V134.161H417.934V134.039Z" fill="white"/>
<path d="M571.257 138H570V139.806H571.257V138Z" fill="#D0E200" fill-opacity="0.76"/>
<g opacity="0.3">
<path d="M570 138V138.224H571.045V139.806H571.257V138H570Z" fill="black"/>
</g>
<path d="M571.624 139.806H570V140.018H571.624V139.806Z" fill="white"/>
<path d="M475.257 120H474V121.806H475.257V120Z" fill="#D0E200" fill-opacity="0.76"/>
<g opacity="0.3">
<path d="M474 120V120.224H475.045V121.806H475.257V120H474Z" fill="black"/>
</g>
<path d="M475.624 121.806H474V122.018H475.624V121.806Z" fill="white"/>
<path d="M475.257 127H474V128.806H475.257V127Z" fill="#D0E200" fill-opacity="0.76"/>
<g opacity="0.3">
<path d="M474 127V127.224H475.045V128.806H475.257V127H474Z" fill="black"/>
</g>
<path d="M475.624 128.806H474V129.018H475.624V128.806Z" fill="white"/>
<path d="M475.257 133H474V134.806H475.257V133Z" fill="#D0E200" fill-opacity="0.76"/>
<g opacity="0.3">
<path d="M474 133V133.224H475.045V134.806H475.257V133H474Z" fill="black"/>
</g>
<path d="M475.624 134.806H474V135.018H475.624V134.806Z" fill="white"/>
<path d="M490.257 134H489V135.806H490.257V134Z" fill="#D0E200" fill-opacity="0.76"/>
<g opacity="0.3">
<path d="M489 134V134.224H490.045V135.806H490.257V134H489Z" fill="black"/>
</g>
<path d="M490.624 135.806H489V136.018H490.624V135.806Z" fill="white"/>
<path d="M397.257 126H396V127.806H397.257V126Z" fill="#D0E200" fill-opacity="0.76"/>
<g opacity="0.3">
<path d="M396 126V126.224H397.045V127.806H397.257V126H396Z" fill="black"/>
</g>
<path d="M397.624 127.806H396V128.018H397.624V127.806Z" fill="white"/>
<path d="M386.257 126H385V127.806H386.257V126Z" fill="#455A64" fill-opacity="0.76"/>
<g opacity="0.3">
<path d="M385 126V126.224H386.045V127.806H386.257V126H385Z" fill="black"/>
</g>
<path d="M386.624 127.806H385V128.018H386.624V127.806Z" fill="white"/>
<path d="M397.257 130H396V131.806H397.257V130Z" fill="#D0E200" fill-opacity="0.76"/>
<g opacity="0.3">
<path d="M396 130V130.224H397.045V131.806H397.257V130H396Z" fill="black"/>
</g>
<path d="M397.624 131.806H396V132.018H397.624V131.806Z" fill="white"/>
<path d="M386.257 130H385V131.806H386.257V130Z" fill="#455A64" fill-opacity="0.76"/>
<g opacity="0.3">
<path d="M385 130V130.224H386.045V131.806H386.257V130H385Z" fill="black"/>
</g>
<path d="M386.624 131.806H385V132.018H386.624V131.806Z" fill="white"/>
<path d="M136.257 132H135V133.806H136.257V132Z" fill="#D0E200" fill-opacity="0.76"/>
<g opacity="0.3">
<path d="M135 132V132.224H136.045V133.806H136.257V132H135Z" fill="black"/>
</g>
<path d="M136.624 133.806H135V134.018H136.624V133.806Z" fill="white"/>
<path d="M205.257 134H204V135.806H205.257V134Z" fill="#D0E200" fill-opacity="0.76"/>
<g opacity="0.3">
<path d="M204 134V134.224H205.045V135.806H205.257V134H204Z" fill="black"/>
</g>
<path d="M205.624 135.806H204V136.018H205.624V135.806Z" fill="white"/>
<path d="M490.257 127H489V128.806H490.257V127Z" fill="#D0E200" fill-opacity="0.76"/>
<g opacity="0.3">
<path d="M489 127V127.224H490.045V128.806H490.257V127H489Z" fill="black"/>
</g>
<path d="M490.624 128.806H489V129.018H490.624V128.806Z" fill="white"/>
<path d="M427.257 76H426V77.8059H427.257V76Z" fill="#D0E200" fill-opacity="0.76"/>
<g opacity="0.3">
<path d="M426 76V76.2239H427.045V77.8059H427.257V76H426Z" fill="black"/>
</g>
<path d="M427.624 77.8057H426V78.0183H427.624V77.8057Z" fill="white"/>
<path d="M427.257 88H426V89.8059H427.257V88Z" fill="#D0E200" fill-opacity="0.76"/>
<g opacity="0.3">
<path d="M426 88V88.2239H427.045V89.8059H427.257V88H426Z" fill="black"/>
</g>
<path d="M427.624 89.8057H426V90.0183H427.624V89.8057Z" fill="white"/>
<path d="M427.257 112H426V113.806H427.257V112Z" fill="#D0E200" fill-opacity="0.76"/>
<g opacity="0.3">
<path d="M426 112V112.224H427.045V113.806H427.257V112H426Z" fill="black"/>
</g>
<path d="M427.624 113.806H426V114.018H427.624V113.806Z" fill="white"/>
<path d="M241.257 124H240V125.806H241.257V124Z" fill="#D0E200" fill-opacity="0.76"/>
<g opacity="0.3">
<path d="M240 124V124.224H241.045V125.806H241.257V124H240Z" fill="black"/>
</g>
<path d="M241.624 125.806H240V126.018H241.624V125.806Z" fill="white"/>
<path d="M241.257 130H240V131.806H241.257V130Z" fill="#D0E200" fill-opacity="0.76"/>
<g opacity="0.3">
<path d="M240 130V130.224H241.045V131.806H241.257V130H240Z" fill="black"/>
</g>
<path d="M241.624 131.806H240V132.018H241.624V131.806Z" fill="white"/>
<path d="M247.257 135H246V136.806H247.257V135Z" fill="#D0E200" fill-opacity="0.76"/>
<g opacity="0.3">
<path d="M246 135V135.224H247.045V136.806H247.257V135H246Z" fill="black"/>
</g>
<path d="M247.624 136.806H246V137.018H247.624V136.806Z" fill="white"/>
<path d="M286.971 113.929H285.625V115.862H286.971V113.929Z" fill="#D0E200" fill-opacity="0.76"/>
<g opacity="0.3">
<path d="M285.625 113.929V114.168H286.744V115.862H286.971V113.929H285.625Z" fill="black"/>
</g>
<path d="M287.364 115.862H285.625V116.09H287.364V115.862Z" fill="white"/>
<path d="M621.775 111H620V113.55H621.775V111Z" fill="#D0E200" fill-opacity="0.76"/>
<g opacity="0.3">
<path d="M620 111V111.316H621.475V113.55H621.775V111H620Z" fill="black"/>
</g>
<path d="M622.293 113.55H620V113.85H622.293V113.55Z" fill="white"/>
<path d="M621.775 105H620V107.55H621.775V105Z" fill="#D0E200" fill-opacity="0.76"/>
<g opacity="0.3">
<path d="M620 105V105.316H621.475V107.55H621.775V105H620Z" fill="black"/>
</g>
<path d="M622.293 107.55H620V107.85H622.293V107.55Z" fill="white"/>
<path d="M621.775 90H620V92.5499H621.775V90Z" fill="#D0E200" fill-opacity="0.76"/>
<g opacity="0.3">
<path d="M620 90V90.3162H621.475V92.5499H621.775V90H620Z" fill="black"/>
</g>
<path d="M622.293 92.5498H620V92.8501H622.293V92.5498Z" fill="white"/>
<path d="M621.775 97H620V99.5499H621.775V97Z" fill="#D0E200" fill-opacity="0.76"/>
<g opacity="0.3">
<path d="M620 97V97.3162H621.475V99.5499H621.775V97H620Z" fill="black"/>
</g>
<path d="M622.293 99.5498H620V99.8501H622.293V99.5498Z" fill="white"/>
<path d="M287.346 127H286V128.934H287.346V127Z" fill="#D0E200" fill-opacity="0.76"/>
<g opacity="0.3">
<path d="M286 127V127.24H287.119V128.934H287.346V127H286Z" fill="black"/>
</g>
<path d="M287.739 128.934H286V129.161H287.739V128.934Z" fill="white"/>
<path d="M39.346 96H38V97.9338H39.346V96Z" fill="#D0E200" fill-opacity="0.76"/>
<g opacity="0.3">
<path d="M38 96V96.2398H39.1189V97.9338H39.346V96H38Z" fill="black"/>
</g>
<path d="M39.7387 97.9336H38V98.1613H39.7387V97.9336Z" fill="white"/>
<path d="M7.34599 146H6V147.934H7.34599V146Z" fill="#D0E200" fill-opacity="0.76"/>
<g opacity="0.3">
<path d="M6 146V146.24H7.11886V147.934H7.34599V146H6Z" fill="black"/>
</g>
<path d="M7.73873 147.934H6V148.161H7.73873V147.934Z" fill="white"/>
<path d="M69.346 140H68V141.934H69.346V140Z" fill="#D0E200" fill-opacity="0.76"/>
<g opacity="0.3">
<path d="M68 140V140.24H69.1189V141.934H69.346V140H68Z" fill="black"/>
</g>
<path d="M69.7387 141.934H68V142.161H69.7387V141.934Z" fill="white"/>
<path d="M47.0843 108.322H45.7383V110.256H47.0843V108.322Z" fill="#D0E200" fill-opacity="0.76"/>
<g opacity="0.3">
<path d="M45.7383 108.322V108.562H46.8571V110.256H47.0843V108.322H45.7383Z" fill="black"/>
</g>
<path d="M47.477 110.256H45.7383V110.484H47.477V110.256Z" fill="white"/>
<path d="M15.0843 158.322H13.7383V160.256H15.0843V158.322Z" fill="#D0E200" fill-opacity="0.76"/>
<g opacity="0.3">
<path d="M13.7383 158.322V158.562H14.8571V160.256H15.0843V158.322H13.7383Z" fill="black"/>
</g>
<path d="M15.477 160.256H13.7383V160.484H15.477V160.256Z" fill="white"/>
<path d="M39.346 114.483H38V116.417H39.346V114.483Z" fill="#D0E200" fill-opacity="0.76"/>
<g opacity="0.3">
<path d="M38 114.483V114.723H39.1189V116.417H39.346V114.483H38Z" fill="black"/>
</g>
<path d="M39.7387 116.417H38V116.645H39.7387V116.417Z" fill="white"/>
<path d="M39.346 102.161H38V104.095H39.346V102.161Z" fill="#D0E200" fill-opacity="0.76"/>
<g opacity="0.3">
<path d="M38 102.161V102.401H39.1189V104.095H39.346V102.161H38Z" fill="black"/>
</g>
<path d="M39.7387 104.095H38V104.322H39.7387V104.095Z" fill="white"/>
<path d="M7.34599 152.161H6V154.095H7.34599V152.161Z" fill="#455A64" fill-opacity="0.76"/>
<g opacity="0.3">
<path d="M6 152.161V152.401H7.11886V154.095H7.34599V152.161H6Z" fill="black"/>
</g>
<path d="M7.73873 154.095H6V154.322H7.73873V154.095Z" fill="white"/>
<path d="M39.346 120.645H38V122.578H39.346V120.645Z" fill="#D0E200" fill-opacity="0.76"/>
<g opacity="0.3">
<path d="M38 120.645V120.884H39.1189V122.578H39.346V120.645H38Z" fill="black"/>
</g>
<path d="M39.7387 122.578H38V122.806H39.7387V122.578Z" fill="white"/>
<path d="M47.0843 102.161H45.7383V104.095H47.0843V102.161Z" fill="#455A64" fill-opacity="0.76"/>
<g opacity="0.3">
<path d="M45.7383 102.161V102.401H46.8571V104.095H47.0843V102.161H45.7383Z" fill="black"/>
</g>
<path d="M47.477 104.095H45.7383V104.322H47.477V104.095Z" fill="white"/>
<path d="M15.0843 152.161H13.7383V154.095H15.0843V152.161Z" fill="#455A64" fill-opacity="0.76"/>
<g opacity="0.3">
<path d="M13.7383 152.161V152.401H14.8571V154.095H15.0843V152.161H13.7383Z" fill="black"/>
</g>
<path d="M15.477 154.095H13.7383V154.322H15.477V154.095Z" fill="white"/>
<path d="M39.346 126.806H38V128.739H39.346V126.806Z" fill="#D0E200" fill-opacity="0.76"/>
<g opacity="0.3">
<path d="M38 126.806V127.045H39.1189V128.739H39.346V126.806H38Z" fill="black"/>
</g>
<path d="M39.7387 128.739H38V128.967H39.7387V128.739Z" fill="white"/>
<path d="M47.0843 132.967H45.7383V134.901H47.0843V132.967Z" fill="#D0E200" fill-opacity="0.76"/>
<g opacity="0.3">
<path d="M45.7383 132.967V133.207H46.8571V134.901H47.0843V132.967H45.7383Z" fill="black"/>
</g>
<path d="M47.477 134.9H45.7383V135.128H47.477V134.9Z" fill="white"/>
<path d="M39.346 108.322H38V110.256H39.346V108.322Z" fill="#455A64" fill-opacity="0.76"/>
<g opacity="0.3">
<path d="M38 108.322V108.562H39.1189V110.256H39.346V108.322H38Z" fill="black"/>
</g>
<path d="M39.7387 110.256H38V110.484H39.7387V110.256Z" fill="white"/>
<path d="M7.34599 158.322H6V160.256H7.34599V158.322Z" fill="#D0E200" fill-opacity="0.76"/>
<g opacity="0.3">
<path d="M6 158.322V158.562H7.11886V160.256H7.34599V158.322H6Z" fill="black"/>
</g>
<path d="M7.73873 160.256H6V160.484H7.73873V160.256Z" fill="white"/>
<path d="M39.346 132.967H38V134.901H39.346V132.967Z" fill="#D0E200" fill-opacity="0.76"/>
<g opacity="0.3">
<path d="M38 132.967V133.207H39.1189V134.901H39.346V132.967H38Z" fill="black"/>
</g>
<path d="M39.7387 134.9H38V135.128H39.7387V134.9Z" fill="white"/>
<path d="M287.346 133H286V134.934H287.346V133Z" fill="#D0E200" fill-opacity="0.76"/>
<g opacity="0.3">
<path d="M286 133V133.24H287.119V134.934H287.346V133H286Z" fill="black"/>
</g>
<path d="M287.739 134.934H286V135.161H287.739V134.934Z" fill="white"/>
<path d="M308.346 140H307V141.934H308.346V140Z" fill="#D0E200" fill-opacity="0.76"/>
<g opacity="0.3">
<path d="M307 140V140.24H308.119V141.934H308.346V140H307Z" fill="black"/>
</g>
<path d="M308.739 141.934H307V142.161H308.739V141.934Z" fill="white"/>
<path d="M294.515 140H286V141.934H294.515V140Z" fill="#D0E200" fill-opacity="0.76"/>
<g opacity="0.3">
<path d="M286 140V140.24H293.078V141.934H294.515V140H286Z" fill="black"/>
</g>
<path d="M295 141.934H286V142.161H295V141.934Z" fill="white"/>
<path d="M147.192 125H133V126.934H147.192V125Z" fill="#D0E200" fill-opacity="0.76"/>
<g opacity="0.3">
<path d="M133 125V125.24H144.797V126.934H147.192V125H133Z" fill="black"/>
</g>
<path d="M148 126.934H133V127.161H148V126.934Z" fill="white"/>
<path d="M308.346 136H307V137.934H308.346V136Z" fill="#D0E200" fill-opacity="0.76"/>
<g opacity="0.3">
<path d="M307 136V136.24H308.119V137.934H308.346V136H307Z" fill="black"/>
</g>
<path d="M308.739 137.934H307V138.161H308.739V137.934Z" fill="white"/>
<path d="M350.346 130H349V131.934H350.346V130Z" fill="#D0E200" fill-opacity="0.76"/>
<g opacity="0.3">
<path d="M349 130V130.24H350.119V131.934H350.346V130H349Z" fill="black"/>
</g>
<path d="M350.739 131.934H349V132.161H350.739V131.934Z" fill="white"/>
<path d="M350.346 136H349V137.934H350.346V136Z" fill="#D0E200" fill-opacity="0.76"/>
<g opacity="0.3">
<path d="M349 136V136.24H350.119V137.934H350.346V136H349Z" fill="black"/>
</g>
<path d="M350.739 137.934H349V138.161H350.739V137.934Z" fill="white"/>
<path d="M287.346 120H286V121.934H287.346V120Z" fill="#D0E200" fill-opacity="0.76"/>
<g opacity="0.3">
<path d="M286 120V120.24H287.119V121.934H287.346V120H286Z" fill="black"/>
</g>
<path d="M287.739 121.934H286V122.161H287.739V121.934Z" fill="white"/>
<path d="M621.346 120H620V121.934H621.346V120Z" fill="#D0E200" fill-opacity="0.76"/>
<g opacity="0.3">
<path d="M620 120V120.24H621.119V121.934H621.346V120H620Z" fill="black"/>
</g>
<path d="M621.739 121.934H620V122.161H621.739V121.934Z" fill="white"/>
<path d="M640.346 120H639V121.934H640.346V120Z" fill="#D0E200" fill-opacity="0.76"/>
<g opacity="0.3">
<path d="M639 120V120.24H640.119V121.934H640.346V120H639Z" fill="black"/>
</g>
<path d="M640.739 121.934H639V122.161H640.739V121.934Z" fill="white"/>
<path d="M509.257 103H508V104.806H509.257V103Z" fill="#D0E200" fill-opacity="0.76"/>
<g opacity="0.3">
<path d="M508 103V103.224H509.045V104.806H509.257V103H508Z" fill="black"/>
</g>
<path d="M509.624 104.806H508V105.018H509.624V104.806Z" fill="white"/>
<path d="M654 125H618V126H654V125Z" fill="#5F5F5F"/>
<path d="M715 127.781H687V128.781H715V127.781Z" fill="#5F5F5F"/>
<path d="M987 127.781H959V128.781H987V127.781Z" fill="#5F5F5F"/>
<path d="M987 117.781H959V118.781H987V117.781Z" fill="#5F5F5F"/>
<path d="M637 101H618V102H637V101Z" fill="#5F5F5F"/>
<g opacity="0.3">
<path d="M654 126H624.408V126.97H654V126Z" fill="black"/>
</g>
<g opacity="0.3">
<path d="M715 128.778H691.984V129.533H715V128.778Z" fill="black"/>
</g>
<g opacity="0.3">
<path d="M987 128.778H963.984V129.533H987V128.778Z" fill="black"/>
</g>
<g opacity="0.3">
<path d="M987 118.778H963.984V119.533H987V118.778Z" fill="black"/>
</g>
<g opacity="0.3">
<path d="M637.001 102H621.383V102.97H637.001V102Z" fill="black"/>
</g>
<path d="M1054.52 48H1046V49.9338H1054.52V48Z" fill="#D0E200" fill-opacity="0.76"/>
<g opacity="0.3">
<path d="M1046 48V48.2398H1053.08V49.9338H1054.52V48H1046Z" fill="black"/>
</g>
<path d="M1055 49.9336H1046V50.1613H1055V49.9336Z" fill="white"/>
<path d="M1228.82 121H1227.39V128.103H1228.82V121Z" fill="#D0E200" fill-opacity="0.76"/>
<g opacity="0.3">
<path d="M1227.39 121V121.881H1228.58V128.103H1228.82V121H1227.39Z" fill="black"/>
</g>
<path d="M1229.23 128.104H1227.39V128.94H1229.23V128.104Z" fill="white"/>
<path d="M1252.26 123H1251V125.701H1252.26V123Z" fill="#D0E200" fill-opacity="0.76"/>
<g opacity="0.3">
<path d="M1251 123V123.335H1252.04V125.701H1252.26V123H1251Z" fill="black"/>
</g>
<path d="M1252.62 125.7H1251V126.018H1252.62V125.7Z" fill="white"/>
<path d="M1029.26 116H1028V118.701H1029.26V116Z" fill="#D0E200" fill-opacity="0.76"/>
<g opacity="0.3">
<path d="M1028 116V116.335H1029.04V118.701H1029.26V116H1028Z" fill="black"/>
</g>
<path d="M1029.62 118.7H1028V119.018H1029.62V118.7Z" fill="white"/>
<path d="M869.257 108H868V110.701H869.257V108Z" fill="#D0E200" fill-opacity="0.76"/>
<g opacity="0.3">
<path d="M868 108V108.335H869.045V110.701H869.257V108H868Z" fill="black"/>
</g>
<path d="M869.624 110.7H868V111.018H869.624V110.7Z" fill="white"/>
<path d="M1148.06 136H1146.15V138.701H1148.06V136Z" fill="#D0E200" fill-opacity="0.76"/>
<g opacity="0.3">
<path d="M1146.15 136V136.335H1147.74V138.701H1148.06V136H1146.15Z" fill="black"/>
</g>
<path d="M1148.62 138.7H1146.15V139.018H1148.62V138.7Z" fill="white"/>
<path d="M1278.06 133H1276.15V135.701H1278.06V133Z" fill="#D0E200" fill-opacity="0.76"/>
<g opacity="0.3">
<path d="M1276.15 133V133.335H1277.74V135.701H1278.06V133H1276.15Z" fill="black"/>
</g>
<path d="M1278.62 135.7H1276.15V136.018H1278.62V135.7Z" fill="white"/>
<path d="M1095.06 129H1093.15V131.701H1095.06V129Z" fill="#455A64" fill-opacity="0.76"/>
<g opacity="0.3">
<path d="M1093.15 129V129.335H1094.74V131.701H1095.06V129H1093.15Z" fill="black"/>
</g>
<path d="M1095.62 131.7H1093.15V132.018H1095.62V131.7Z" fill="white"/>
<path d="M1029.26 109H1028V111.701H1029.26V109Z" fill="#D0E200" fill-opacity="0.76"/>
<g opacity="0.3">
<path d="M1028 109V109.335H1029.04V111.701H1029.26V109H1028Z" fill="black"/>
</g>
<path d="M1029.62 111.7H1028V112.018H1029.62V111.7Z" fill="white"/>
<path d="M869.257 101H868V103.701H869.257V101Z" fill="#D0E200" fill-opacity="0.76"/>
<g opacity="0.3">
<path d="M868 101V101.335H869.045V103.701H869.257V101H868Z" fill="black"/>
</g>
<path d="M869.624 103.7H868V104.018H869.624V103.7Z" fill="white"/>
<path d="M1148.06 129H1146.15V131.701H1148.06V129Z" fill="#D0E200" fill-opacity="0.76"/>
<g opacity="0.3">
<path d="M1146.15 129V129.335H1147.74V131.701H1148.06V129H1146.15Z" fill="black"/>
</g>
<path d="M1148.62 131.7H1146.15V132.018H1148.62V131.7Z" fill="white"/>
<path d="M1095.06 122H1093.15V124.701H1095.06V122Z" fill="#D0E200" fill-opacity="0.76"/>
<g opacity="0.3">
<path d="M1093.15 122V122.335H1094.74V124.701H1095.06V122H1093.15Z" fill="black"/>
</g>
<path d="M1095.62 124.7H1093.15V125.018H1095.62V124.7Z" fill="white"/>
<path d="M1029.26 123H1028V125.701H1029.26V123Z" fill="#D0E200" fill-opacity="0.76"/>
<g opacity="0.3">
<path d="M1028 123V123.335H1029.04V125.701H1029.26V123H1028Z" fill="black"/>
</g>
<path d="M1029.62 125.7H1028V126.018H1029.62V125.7Z" fill="white"/>
<path d="M869.257 115H868V117.701H869.257V115Z" fill="#D0E200" fill-opacity="0.76"/>
<g opacity="0.3">
<path d="M868 115V115.335H869.045V117.701H869.257V115H868Z" fill="black"/>
</g>
<path d="M869.624 117.7H868V118.018H869.624V117.7Z" fill="white"/>
<path d="M1148.06 143H1146.15V145.701H1148.06V143Z" fill="#D0E200" fill-opacity="0.76"/>
<g opacity="0.3">
<path d="M1146.15 143V143.335H1147.74V145.701H1148.06V143H1146.15Z" fill="black"/>
</g>
<path d="M1148.62 145.7H1146.15V146.018H1148.62V145.7Z" fill="white"/>
<path d="M1278.06 140H1276.15V142.701H1278.06V140Z" fill="#D0E200" fill-opacity="0.76"/>
<g opacity="0.3">
<path d="M1276.15 140V140.335H1277.74V142.701H1278.06V140H1276.15Z" fill="black"/>
</g>
<path d="M1278.62 142.7H1276.15V143.018H1278.62V142.7Z" fill="white"/>
<path d="M1095.06 136H1093.15V138.701H1095.06V136Z" fill="#D0E200" fill-opacity="0.76"/>
<g opacity="0.3">
<path d="M1093.15 136V136.335H1094.74V138.701H1095.06V136H1093.15Z" fill="black"/>
</g>
<path d="M1095.62 138.7H1093.15V139.018H1095.62V138.7Z" fill="white"/>
<path d="M1209.92 126H1208V128.701H1209.92V126Z" fill="#D0E200" fill-opacity="0.76"/>
<g opacity="0.3">
<path d="M1208 126V126.335H1209.59V128.701H1209.92V126H1208Z" fill="black"/>
</g>
<path d="M1210.48 128.7H1208V129.018H1210.48V128.7Z" fill="white"/>
<path d="M1202.92 126H1201V128.701H1202.92V126Z" fill="#D0E200" fill-opacity="0.76"/>
<g opacity="0.3">
<path d="M1201 126V126.335H1202.59V128.701H1202.92V126H1201Z" fill="black"/>
</g>
<path d="M1203.48 128.7H1201V129.018H1203.48V128.7Z" fill="white"/>
<path d="M1209.92 133H1208V135.701H1209.92V133Z" fill="#D0E200" fill-opacity="0.76"/>
<g opacity="0.3">
<path d="M1208 133V133.335H1209.59V135.701H1209.92V133H1208Z" fill="black"/>
</g>
<path d="M1210.48 135.7H1208V136.018H1210.48V135.7Z" fill="white"/>
<path d="M1202.92 133H1201V135.701H1202.92V133Z" fill="#455A64" fill-opacity="0.76"/>
<g opacity="0.3">
<path d="M1201 133V133.335H1202.59V135.701H1202.92V133H1201Z" fill="black"/>
</g>
<path d="M1203.48 135.7H1201V136.018H1203.48V135.7Z" fill="white"/>
<path d="M1209.92 140H1208V142.701H1209.92V140Z" fill="#D0E200" fill-opacity="0.76"/>
<g opacity="0.3">
<path d="M1208 140V140.335H1209.59V142.701H1209.92V140H1208Z" fill="black"/>
</g>
<path d="M1210.48 142.7H1208V143.018H1210.48V142.7Z" fill="white"/>
<path d="M1202.92 140H1201V142.701H1202.92V140Z" fill="#D0E200" fill-opacity="0.76"/>
<g opacity="0.3">
<path d="M1201 140V140.335H1202.59V142.701H1202.92V140H1201Z" fill="black"/>
</g>
<path d="M1203.48 142.7H1201V143.018H1203.48V142.7Z" fill="white"/>
<path d="M1253.06 132H1251.15V134.701H1253.06V132Z" fill="#D0E200" fill-opacity="0.76"/>
<g opacity="0.3">
<path d="M1251.15 132V132.335H1252.74V134.701H1253.06V132H1251.15Z" fill="black"/>
</g>
<path d="M1253.62 134.7H1251.15V135.018H1253.62V134.7Z" fill="white"/>
<path d="M983.845 123H981.168V124.887H983.845V123Z" fill="#455A64" fill-opacity="0.76"/>
<g opacity="0.3">
<path d="M981.168 123V123.234H983.393V124.887H983.845V123H981.168Z" fill="black"/>
</g>
<path d="M984.626 124.886H981.168V125.108H984.626V124.886Z" fill="white"/>
<path d="M983.845 114H981.168V115.887H983.845V114Z" fill="#D0E200" fill-opacity="0.76"/>
<g opacity="0.3">
<path d="M981.168 114V114.234H983.393V115.887H983.845V114H981.168Z" fill="black"/>
</g>
<path d="M984.626 115.886H981.168V116.108H984.626V115.886Z" fill="white"/>
<path d="M948.378 98H946.248V99.5009H948.378V98Z" fill="#D0E200" fill-opacity="0.76"/>
<g opacity="0.3">
<path d="M946.248 98V98.1861H948.018V99.5009H948.378V98H946.248Z" fill="black"/>
</g>
<path d="M948.999 99.5H946.248V99.6768H948.999V99.5Z" fill="white"/>
<path d="M1246.26 123H1245V125.701H1246.26V123Z" fill="#D0E200" fill-opacity="0.76"/>
<g opacity="0.3">
<path d="M1245 123V123.335H1246.04V125.701H1246.26V123H1245Z" fill="black"/>
</g>
<path d="M1246.62 125.7H1245V126.018H1246.62V125.7Z" fill="white"/>
<path d="M980.257 133H979V135.701H980.257V133Z" fill="#D0E200" fill-opacity="0.76"/>
<g opacity="0.3">
<path d="M979 133V133.335H980.045V135.701H980.257V133H979Z" fill="black"/>
</g>
<path d="M980.624 135.7H979V136.018H980.624V135.7Z" fill="white"/>
<path d="M971.065 123H968.389V124.887H971.065V123Z" fill="#D0E200" fill-opacity="0.76"/>
<g opacity="0.3">
<path d="M968.389 123V123.234H970.614V124.887H971.065V123H968.389Z" fill="black"/>
</g>
<path d="M971.846 124.886H968.389V125.108H971.846V124.886Z" fill="white"/>
<path d="M971.065 114H968.389V115.887H971.065V114Z" fill="#455A64" fill-opacity="0.76"/>
<g opacity="0.3">
<path d="M968.389 114V114.234H970.614V115.887H971.065V114H968.389Z" fill="black"/>
</g>
<path d="M971.846 115.886H968.389V116.108H971.846V115.886Z" fill="white"/>
<path d="M971.065 105H968.389V106.887H971.065V105Z" fill="#D0E200" fill-opacity="0.76"/>
<g opacity="0.3">
<path d="M968.389 105V105.234H970.614V106.887H971.065V105H968.389Z" fill="black"/>
</g>
<path d="M971.846 106.886H968.389V107.108H971.846V106.886Z" fill="white"/>
<path d="M938.213 98H936.084V99.5009H938.213V98Z" fill="#D0E200" fill-opacity="0.76"/>
<g opacity="0.3">
<path d="M936.084 98V98.1861H937.854V99.5009H938.213V98H936.084Z" fill="black"/>
</g>
<path d="M938.835 99.5H936.084V99.6768H938.835V99.5Z" fill="white"/>
<path d="M1232.21 121H1230.79V128.103H1232.21V121Z" fill="#D0E200" fill-opacity="0.76"/>
<g opacity="0.3">
<path d="M1230.79 121V121.881H1231.97V128.103H1232.21V121H1230.79Z" fill="black"/>
</g>
<path d="M1232.62 128.104H1230.79V128.94H1232.62V128.104Z" fill="white"/>
<path d="M1225.42 121H1224V128.103H1225.42V121Z" fill="#D0E200" fill-opacity="0.76"/>
<g opacity="0.3">
<path d="M1224 121V121.881H1225.18V128.103H1225.42V121H1224Z" fill="black"/>
</g>
<path d="M1225.84 128.104H1224V128.94H1225.84V128.104Z" fill="white"/>
<path d="M1249.26 123H1248V125.701H1249.26V123Z" fill="#D0E200" fill-opacity="0.76"/>
<g opacity="0.3">
<path d="M1248 123V123.335H1249.04V125.701H1249.26V123H1248Z" fill="black"/>
</g>
<path d="M1249.62 125.7H1248V126.018H1249.62V125.7Z" fill="white"/>
<path d="M1023.26 116H1022V118.701H1023.26V116Z" fill="#D0E200" fill-opacity="0.76"/>
<g opacity="0.3">
<path d="M1022 116V116.335H1023.04V118.701H1023.26V116H1022Z" fill="black"/>
</g>
<path d="M1023.62 119H1022V119.318H1023.62V119Z" fill="white"/>
<path d="M863.257 108H862V110.701H863.257V108Z" fill="#D0E200" fill-opacity="0.76"/>
<g opacity="0.3">
<path d="M862 108V108.335H863.045V110.701H863.257V108H862Z" fill="black"/>
</g>
<path d="M863.624 111H862V111.318H863.624V111Z" fill="white"/>
<path d="M1138.92 136H1137V138.701H1138.92V136Z" fill="#D0E200" fill-opacity="0.76"/>
<g opacity="0.3">
<path d="M1137 136V136.335H1138.59V138.701H1138.92V136H1137Z" fill="black"/>
</g>
<path d="M1139.48 139H1137V139.318H1139.48V139Z" fill="white"/>
<path d="M1268.92 133H1267V135.701H1268.92V133Z" fill="#D0E200" fill-opacity="0.76"/>
<g opacity="0.3">
<path d="M1267 133V133.335H1268.59V135.701H1268.92V133H1267Z" fill="black"/>
</g>
<path d="M1269.48 136H1267V136.318H1269.48V136Z" fill="white"/>
<path d="M1085.92 129H1084V131.701H1085.92V129Z" fill="#D0E200" fill-opacity="0.76"/>
<g opacity="0.3">
<path d="M1084 129V129.335H1085.59V131.701H1085.92V129H1084Z" fill="black"/>
</g>
<path d="M1086.48 132H1084V132.318H1086.48V132Z" fill="white"/>
<path d="M1023.26 109H1022V111.701H1023.26V109Z" fill="#455A64" fill-opacity="0.76"/>
<g opacity="0.3">
<path d="M1022 109V109.335H1023.04V111.701H1023.26V109H1022Z" fill="black"/>
</g>
<path d="M1023.62 112H1022V112.318H1023.62V112Z" fill="white"/>
<path d="M863.257 101H862V103.701H863.257V101Z" fill="#D0E200" fill-opacity="0.76"/>
<g opacity="0.3">
<path d="M862 101V101.335H863.045V103.701H863.257V101H862Z" fill="black"/>
</g>
<path d="M863.624 104H862V104.318H863.624V104Z" fill="white"/>
<path d="M1138.92 129H1137V131.701H1138.92V129Z" fill="#D0E200" fill-opacity="0.76"/>
<g opacity="0.3">
<path d="M1137 129V129.335H1138.59V131.701H1138.92V129H1137Z" fill="black"/>
</g>
<path d="M1139.48 132H1137V132.318H1139.48V132Z" fill="white"/>
<path d="M1268.92 126H1267V128.701H1268.92V126Z" fill="#D0E200" fill-opacity="0.76"/>
<g opacity="0.3">
<path d="M1267 126V126.335H1268.59V128.701H1268.92V126H1267Z" fill="black"/>
</g>
<path d="M1269.48 129H1267V129.318H1269.48V129Z" fill="white"/>
<path d="M1085.92 122H1084V124.701H1085.92V122Z" fill="#D0E200" fill-opacity="0.76"/>
<g opacity="0.3">
<path d="M1084 122V122.335H1085.59V124.701H1085.92V122H1084Z" fill="black"/>
</g>
<path d="M1086.48 125H1084V125.318H1086.48V125Z" fill="white"/>
<path d="M1023.26 123H1022V125.701H1023.26V123Z" fill="#D0E200" fill-opacity="0.76"/>
<g opacity="0.3">
<path d="M1022 123V123.335H1023.04V125.701H1023.26V123H1022Z" fill="black"/>
</g>
<path d="M1023.62 126H1022V126.318H1023.62V126Z" fill="white"/>
<path d="M863.257 115H862V117.701H863.257V115Z" fill="#D0E200" fill-opacity="0.76"/>
<g opacity="0.3">
<path d="M862 115V115.335H863.045V117.701H863.257V115H862Z" fill="black"/>
</g>
<path d="M863.624 118H862V118.318H863.624V118Z" fill="white"/>
<path d="M1138.92 143H1137V145.701H1138.92V143Z" fill="#D0E200" fill-opacity="0.76"/>
<g opacity="0.3">
<path d="M1137 143V143.335H1138.59V145.701H1138.92V143H1137Z" fill="black"/>
</g>
<path d="M1139.48 146H1137V146.318H1139.48V146Z" fill="white"/>
<path d="M1268.92 140H1267V142.701H1268.92V140Z" fill="#D0E200" fill-opacity="0.76"/>
<g opacity="0.3">
<path d="M1267 140V140.335H1268.59V142.701H1268.92V140H1267Z" fill="black"/>
</g>
<path d="M1269.48 143H1267V143.318H1269.48V143Z" fill="white"/>
<path d="M1085.92 136H1084V138.701H1085.92V136Z" fill="#D0E200" fill-opacity="0.76"/>
<g opacity="0.3">
<path d="M1084 136V136.335H1085.59V138.701H1085.92V136H1084Z" fill="black"/>
</g>
<path d="M1086.48 139H1084V139.318H1086.48V139Z" fill="white"/>
<path d="M1155.92 129H1154V131.701H1155.92V129Z" fill="#D0E200" fill-opacity="0.76"/>
<g opacity="0.3">
<path d="M1154 129V129.335H1155.59V131.701H1155.92V129H1154Z" fill="black"/>
</g>
<path d="M1156.48 132H1154V132.318H1156.48V132Z" fill="white"/>
<path d="M1155.92 136H1154V138.701H1155.92V136Z" fill="#D0E200" fill-opacity="0.76"/>
<g opacity="0.3">
<path d="M1154 136V136.335H1155.59V138.701H1155.92V136H1154Z" fill="black"/>
</g>
<path d="M1156.48 139H1154V139.318H1156.48V139Z" fill="white"/>
<path d="M1155.92 143H1154V145.701H1155.92V143Z" fill="#D0E200" fill-opacity="0.76"/>
<g opacity="0.3">
<path d="M1154 143V143.335H1155.59V145.701H1155.92V143H1154Z" fill="black"/>
</g>
<path d="M1156.48 146H1154V146.318H1156.48V146Z" fill="white"/>
<path d="M1243.92 132H1242V134.701H1243.92V132Z" fill="#D0E200" fill-opacity="0.76"/>
<g opacity="0.3">
<path d="M1242 132V132.335H1243.59V134.701H1243.92V132H1242Z" fill="black"/>
</g>
<path d="M1244.48 135H1242V135.318H1244.48V135Z" fill="white"/>
<path d="M1011.26 116H1010V118.701H1011.26V116Z" fill="#D0E200" fill-opacity="0.76"/>
<g opacity="0.3">
<path d="M1010 116V116.335H1011.04V118.701H1011.26V116H1010Z" fill="black"/>
</g>
<path d="M1011.62 119H1010V119.318H1011.62V119Z" fill="white"/>
<path d="M1011.26 109H1010V111.701H1011.26V109Z" fill="#D0E200" fill-opacity="0.76"/>
<g opacity="0.3">
<path d="M1010 109V109.335H1011.04V111.701H1011.26V109H1010Z" fill="black"/>
</g>
<path d="M1011.62 112H1010V112.318H1011.62V112Z" fill="white"/>
<path d="M1011.26 123H1010V125.701H1011.26V123Z" fill="#D0E200" fill-opacity="0.76"/>
<g opacity="0.3">
<path d="M1010 123V123.335H1011.04V125.701H1011.26V123H1010Z" fill="black"/>
</g>
<path d="M1011.62 126H1010V126.318H1011.62V126Z" fill="white"/>
<path d="M1017.26 116H1016V118.701H1017.26V116Z" fill="#455A64" fill-opacity="0.76"/>
<g opacity="0.3">
<path d="M1016 116V116.335H1017.04V118.701H1017.26V116H1016Z" fill="black"/>
</g>
<path d="M1017.62 119H1016V119.318H1017.62V119Z" fill="white"/>
<path d="M1017.26 109H1016V111.701H1017.26V109Z" fill="#D0E200" fill-opacity="0.76"/>
<g opacity="0.3">
<path d="M1016 109V109.335H1017.04V111.701H1017.26V109H1016Z" fill="black"/>
</g>
<path d="M1017.62 112H1016V112.318H1017.62V112Z" fill="white"/>
<path d="M1017.26 123H1016V125.701H1017.26V123Z" fill="#D0E200" fill-opacity="0.76"/>
<g opacity="0.3">
<path d="M1016 123V123.335H1017.04V125.701H1017.26V123H1016Z" fill="black"/>
</g>
<path d="M1017.62 126H1016V126.318H1017.62V126Z" fill="white"/>
<path d="M977.454 123H974.777V124.887H977.454V123Z" fill="#D0E200" fill-opacity="0.76"/>
<g opacity="0.3">
<path d="M974.777 123V123.234H977.002V124.887H977.454V123H974.777Z" fill="black"/>
</g>
<path d="M978.235 125.096H974.777V125.318H978.235V125.096Z" fill="white"/>
<path d="M977.454 114H974.777V115.887H977.454V114Z" fill="#D0E200" fill-opacity="0.76"/>
<g opacity="0.3">
<path d="M974.777 114V114.234H977.002V115.887H977.454V114H974.777Z" fill="black"/>
</g>
<path d="M978.235 116.096H974.777V116.318H978.235V116.096Z" fill="white"/>
<path d="M943.294 98H941.164V99.5009H943.294V98Z" fill="#455A64" fill-opacity="0.76"/>
<g opacity="0.3">
<path d="M941.164 98V98.1861H942.934V99.5009H943.294V98H941.164Z" fill="black"/>
</g>
<path d="M943.915 99.667H941.164V99.8438H943.915V99.667Z" fill="white"/>
<path d="M1243.26 123H1242V125.701H1243.26V123Z" fill="#D0E200" fill-opacity="0.76"/>
<g opacity="0.3">
<path d="M1242 123V123.335H1243.04V125.701H1243.26V123H1242Z" fill="black"/>
</g>
<path d="M1243.62 125.7H1242V126.018H1243.62V125.7Z" fill="white"/>
<path d="M977.257 133H976V135.701H977.257V133Z" fill="#D0E200" fill-opacity="0.76"/>
<g opacity="0.3">
<path d="M976 133V133.335H977.045V135.701H977.257V133H976Z" fill="black"/>
</g>
<path d="M977.624 135.7H976V136.018H977.624V135.7Z" fill="white"/>
<path d="M964.677 123H962V124.887H964.677V123Z" fill="#D0E200" fill-opacity="0.76"/>
<g opacity="0.3">
<path d="M962 123V123.234H964.225V124.887H964.677V123H962Z" fill="black"/>
</g>
<path d="M965.458 124.886H962V125.108H965.458V124.886Z" fill="white"/>
<path d="M964.677 114H962V115.887H964.677V114Z" fill="#D0E200" fill-opacity="0.76"/>
<g opacity="0.3">
<path d="M962 114V114.234H964.225V115.887H964.677V114H962Z" fill="black"/>
</g>
<path d="M965.458 115.886H962V116.108H965.458V115.886Z" fill="white"/>
<path d="M964.677 105H962V106.887H964.677V105Z" fill="#D0E200" fill-opacity="0.76"/>
<g opacity="0.3">
<path d="M962 105V105.234H964.225V106.887H964.677V105H962Z" fill="black"/>
</g>
<path d="M965.458 106.886H962V107.108H965.458V106.886Z" fill="white"/>
<path d="M933.129 98H931V99.5009H933.129V98Z" fill="#455A64" fill-opacity="0.76"/>
<g opacity="0.3">
<path d="M931 98V98.1861H932.77V99.5009H933.129V98H931Z" fill="black"/>
</g>
<path d="M933.751 99.5H931V99.6768H933.751V99.5Z" fill="white"/>
<path d="M1227.75 55.5277V51.0746H1228.51V55.5277H1227.75ZM1225.9 53.679V52.9233H1230.36V53.679H1225.9Z" fill="#212121"/>
<defs>
<linearGradient id="paint0_linear_244_6771" x1="1048.94" y1="-0.214285" x2="1048.82" y2="3.97002" gradientUnits="userSpaceOnUse">
<stop stop-color="#EAFF00"/>
<stop offset="1" stop-color="#D9D9D9" stop-opacity="0"/>
</linearGradient>
</defs>
</svg>
