<svg width="894" height="68" viewBox="0 0 894 68" fill="none" xmlns="http://www.w3.org/2000/svg">
<g style="mix-blend-mode:screen" opacity="0.28" filter="url(#filter0_d_124_53)">
<path style="mix-blend-mode:screen" d="M554.273 45.5363C552.528 45.5473 550.851 46.1872 549.573 47.3296C549.135 45.2637 547.971 43.4059 546.275 42.0692C544.58 40.7324 542.458 39.9983 540.266 39.9906C538.958 39.9829 537.664 40.2396 536.466 40.7441C535.747 38.9115 534.511 37.3077 532.897 36.1124C531.284 34.9172 529.356 34.1776 527.33 33.9766C525.305 33.7755 523.26 34.121 521.427 34.9743C519.594 35.8275 518.044 37.1548 516.951 38.8076C516.635 38.7594 516.315 38.7342 515.995 38.7322C514.25 38.7432 512.573 39.3831 511.294 40.5255C510.857 38.4596 509.692 36.6018 507.997 35.2651C506.302 33.9283 504.179 33.1943 501.987 33.1865C500.677 33.1798 499.38 33.4364 498.18 33.94C497.31 31.6615 495.654 29.7394 493.487 28.4957C491.32 27.252 488.774 26.7621 486.277 27.1082C483.779 27.4543 481.481 28.6153 479.767 30.3967C478.053 32.1781 477.028 34.4718 476.863 36.8937C475.519 35.9624 473.904 35.4616 472.248 35.462C470.514 35.4667 468.828 36.0151 467.447 37.024C466.066 38.0329 465.064 39.4474 464.594 41.053C463.924 40.2543 463.077 39.6098 462.114 39.1666C461.152 38.7233 460.099 38.4925 459.032 38.4911C457.146 38.5507 455.358 39.3131 454.046 40.6172C452.734 41.9213 452 43.665 452 45.4798C452 47.2946 452.734 49.0383 454.046 50.3424C455.358 51.6465 457.146 52.4089 459.032 52.4685H490.157C490.202 54.2757 490.978 55.9948 492.319 57.261C493.66 58.5272 495.462 59.2407 497.341 59.25H545.499C545.612 59.2453 545.725 59.2327 545.836 59.2123H554.07H554.273H554.485C556.365 59.1813 558.156 58.4332 559.463 57.1325C560.77 55.8317 561.486 54.0849 561.454 52.2764C561.421 50.4678 560.643 48.7456 559.291 47.4887C557.939 46.2318 556.122 45.543 554.242 45.574L554.273 45.5363Z" fill="url(#paint0_linear_124_53)"/>
</g>
<g style="mix-blend-mode:screen" opacity="0.28" filter="url(#filter1_d_124_53)">
<path style="mix-blend-mode:screen" d="M106.273 29.5363C104.528 29.5473 102.851 30.1872 101.573 31.3296C101.135 29.2637 99.9706 27.4059 98.2753 26.0692C96.5801 24.7324 94.4577 23.9983 92.2656 23.9906C90.9582 23.9829 89.6636 24.2396 88.466 24.7441C87.7466 22.9115 86.511 21.3077 84.8975 20.1124C83.284 18.9172 81.3563 18.1776 79.3304 17.9766C77.3045 17.7755 75.2605 18.121 73.4272 18.9743C71.5939 19.8275 70.0439 21.1548 68.9507 22.8076C68.6345 22.7594 68.315 22.7342 67.9949 22.7322C66.2499 22.7432 64.5727 23.3831 63.2943 24.5255C62.8566 22.4596 61.6921 20.6018 59.9969 19.2651C58.3017 17.9283 56.1793 17.1943 53.9872 17.1865C52.6773 17.1798 51.3804 17.4364 50.1797 17.94C49.3104 15.6615 47.6536 13.7394 45.4866 12.4957C43.3197 11.252 40.7742 10.7621 38.2766 11.1082C35.7789 11.4543 33.4807 12.6153 31.7669 14.3967C30.0531 16.1781 29.0277 18.4718 28.8625 20.8937C27.5188 19.9624 25.9044 19.4615 24.2481 19.462C22.5137 19.4667 20.8282 20.0151 19.447 21.024C18.0658 22.0329 17.0642 23.4474 16.594 25.053C15.9239 24.2543 15.0766 23.6098 14.1143 23.1666C13.1519 22.7233 12.0987 22.4925 11.0316 22.4911C9.14576 22.5507 7.35786 23.3131 6.04572 24.6172C4.73358 25.9213 4 27.665 4 29.4798C4 31.2946 4.73358 33.0383 6.04572 34.3424C7.35786 35.6465 9.14576 36.4089 11.0316 36.4685H42.1573C42.2022 38.2757 42.9776 39.9948 44.3189 41.261C45.6603 42.5272 47.462 43.2407 49.3414 43.25H97.4989C97.612 43.2453 97.7246 43.2327 97.8358 43.2123H106.07H106.273H106.485C108.365 43.1813 110.156 42.4332 111.463 41.1325C112.77 39.8317 113.486 38.0849 113.454 36.2764C113.421 34.4678 112.643 32.7456 111.291 31.4887C109.939 30.2318 108.122 29.543 106.242 29.574L106.273 29.5363Z" fill="url(#paint1_linear_124_53)"/>
</g>
<g style="mix-blend-mode:screen" opacity="0.28" filter="url(#filter2_d_124_53)">
<path style="mix-blend-mode:screen" d="M884.573 12.3575C883.421 12.3649 882.312 12.7915 881.468 13.5531C881.179 12.1758 880.409 10.9373 879.289 10.0461C878.169 9.15502 876.767 8.66562 875.318 8.66042C874.454 8.65532 873.599 8.82642 872.808 9.16272C872.333 7.94102 871.516 6.87182 870.45 6.07502C869.384 5.27812 868.11 4.78512 866.772 4.65102C865.433 4.51702 864.083 4.74732 862.872 5.31622C861.66 5.88502 860.636 6.76992 859.914 7.87172C859.705 7.83962 859.494 7.82282 859.282 7.82152C858.129 7.82882 857.021 8.25542 856.177 9.01702C855.887 7.63972 855.118 6.40122 853.998 5.51012C852.878 4.61892 851.476 4.12952 850.027 4.12432C849.162 4.11982 848.305 4.29092 847.512 4.62662C846.937 3.10762 845.843 1.82632 844.411 0.997118C842.979 0.168018 841.297 -0.158581 839.647 0.072119C837.997 0.302919 836.478 1.07682 835.346 2.26452C834.214 3.45212 833.536 4.98122 833.427 6.59582C832.539 5.97502 831.473 5.64102 830.378 5.64142C829.232 5.64452 828.119 6.01012 827.206 6.68272C826.293 7.35532 825.632 8.29822 825.321 9.36872C824.878 8.83622 824.318 8.40652 823.683 8.11102C823.047 7.81552 822.351 7.66172 821.646 7.66072C820.4 7.70042 819.219 8.20872 818.352 9.07812C817.485 9.94762 817 11.11 817 12.3199C817 13.5297 817.485 14.6922 818.352 15.5616C819.219 16.431 820.4 16.9393 821.646 16.979H842.211C842.241 18.1838 842.753 19.3299 843.639 20.174C844.526 21.0181 845.716 21.4938 846.958 21.5H878.776C878.851 21.4968 878.925 21.4884 878.999 21.4749H884.439H884.573H884.713C885.956 21.4542 887.139 20.9555 888.002 20.0883C888.866 19.2211 889.339 18.0566 889.317 16.8509C889.296 15.6452 888.782 14.4971 887.889 13.6591C886.995 12.8212 885.795 12.362 884.553 12.3827L884.573 12.3575Z" fill="url(#paint2_linear_124_53)"/>
</g>
<defs>
<filter id="filter0_d_124_53" x="448" y="27" width="117.455" height="40.25" filterUnits="userSpaceOnUse" color-interpolation-filters="sRGB">
<feFlood flood-opacity="0" result="BackgroundImageFix"/>
<feColorMatrix in="SourceAlpha" type="matrix" values="0 0 0 0 0 0 0 0 0 0 0 0 0 0 0 0 0 0 127 0" result="hardAlpha"/>
<feOffset dy="4"/>
<feGaussianBlur stdDeviation="2"/>
<feComposite in2="hardAlpha" operator="out"/>
<feColorMatrix type="matrix" values="0 0 0 0 0 0 0 0 0 0 0 0 0 0 0 0 0 0 0.1 0"/>
<feBlend mode="normal" in2="BackgroundImageFix" result="effect1_dropShadow_124_53"/>
<feBlend mode="normal" in="SourceGraphic" in2="effect1_dropShadow_124_53" result="shape"/>
</filter>
<filter id="filter1_d_124_53" x="0" y="11" width="117.455" height="40.25" filterUnits="userSpaceOnUse" color-interpolation-filters="sRGB">
<feFlood flood-opacity="0" result="BackgroundImageFix"/>
<feColorMatrix in="SourceAlpha" type="matrix" values="0 0 0 0 0 0 0 0 0 0 0 0 0 0 0 0 0 0 127 0" result="hardAlpha"/>
<feOffset dy="4"/>
<feGaussianBlur stdDeviation="2"/>
<feComposite in2="hardAlpha" operator="out"/>
<feColorMatrix type="matrix" values="0 0 0 0 0 0 0 0 0 0 0 0 0 0 0 0 0 0 0.1 0"/>
<feBlend mode="normal" in2="BackgroundImageFix" result="effect1_dropShadow_124_53"/>
<feBlend mode="normal" in="SourceGraphic" in2="effect1_dropShadow_124_53" result="shape"/>
</filter>
<filter id="filter2_d_124_53" x="813" y="0" width="80.3174" height="29.5" filterUnits="userSpaceOnUse" color-interpolation-filters="sRGB">
<feFlood flood-opacity="0" result="BackgroundImageFix"/>
<feColorMatrix in="SourceAlpha" type="matrix" values="0 0 0 0 0 0 0 0 0 0 0 0 0 0 0 0 0 0 127 0" result="hardAlpha"/>
<feOffset dy="4"/>
<feGaussianBlur stdDeviation="2"/>
<feComposite in2="hardAlpha" operator="out"/>
<feColorMatrix type="matrix" values="0 0 0 0 0 0 0 0 0 0 0 0 0 0 0 0 0 0 0.1 0"/>
<feBlend mode="normal" in2="BackgroundImageFix" result="effect1_dropShadow_124_53"/>
<feBlend mode="normal" in="SourceGraphic" in2="effect1_dropShadow_124_53" result="shape"/>
</filter>
<linearGradient id="paint0_linear_124_53" x1="506.57" y1="27.1735" x2="506.57" y2="59.2199" gradientUnits="userSpaceOnUse">
<stop stop-color="white"/>
<stop offset="0.23" stop-color="white"/>
<stop offset="0.37" stop-color="white"/>
<stop offset="0.49" stop-color="white" stop-opacity="0.9"/>
<stop offset="0.59" stop-color="white" stop-opacity="0.8"/>
<stop offset="0.68" stop-color="white" stop-opacity="0.7"/>
<stop offset="0.76" stop-color="white" stop-opacity="0.57"/>
<stop offset="0.84" stop-color="white" stop-opacity="0.48"/>
<stop offset="0.92" stop-color="white" stop-opacity="0.23"/>
<stop offset="0.99" stop-color="#F6FE9A" stop-opacity="0.03"/>
<stop offset="1" stop-color="white" stop-opacity="0"/>
</linearGradient>
<linearGradient id="paint1_linear_124_53" x1="58.5702" y1="11.1735" x2="58.5702" y2="43.2199" gradientUnits="userSpaceOnUse">
<stop stop-color="white"/>
<stop offset="0.23" stop-color="white"/>
<stop offset="0.37" stop-color="white"/>
<stop offset="0.49" stop-color="white" stop-opacity="0.9"/>
<stop offset="0.59" stop-color="white" stop-opacity="0.8"/>
<stop offset="0.68" stop-color="white" stop-opacity="0.7"/>
<stop offset="0.76" stop-color="white" stop-opacity="0.57"/>
<stop offset="0.84" stop-color="white" stop-opacity="0.48"/>
<stop offset="0.92" stop-color="white" stop-opacity="0.23"/>
<stop offset="0.99" stop-color="#F6FE9A" stop-opacity="0.03"/>
<stop offset="1" stop-color="white" stop-opacity="0"/>
</linearGradient>
<linearGradient id="paint2_linear_124_53" x1="853.055" y1="0.115719" x2="853.055" y2="21.4799" gradientUnits="userSpaceOnUse">
<stop stop-color="white"/>
<stop offset="0.23" stop-color="white"/>
<stop offset="0.37" stop-color="white"/>
<stop offset="0.49" stop-color="white" stop-opacity="0.9"/>
<stop offset="0.59" stop-color="white" stop-opacity="0.8"/>
<stop offset="0.68" stop-color="white" stop-opacity="0.7"/>
<stop offset="0.76" stop-color="white" stop-opacity="0.57"/>
<stop offset="0.84" stop-color="white" stop-opacity="0.48"/>
<stop offset="0.92" stop-color="white" stop-opacity="0.23"/>
<stop offset="0.99" stop-color="#F6FE9A" stop-opacity="0.03"/>
<stop offset="1" stop-color="white" stop-opacity="0"/>
</linearGradient>
</defs>
</svg>
