<svg width="1446" height="967" viewBox="0 0 1446 967" fill="none" xmlns="http://www.w3.org/2000/svg">
<path fill-rule="evenodd" clip-rule="evenodd" d="M359.434 784.915C359.434 784.915 424.797 791.446 436.702 790.901C448.607 790.355 566.513 799.125 566.513 799.125L590.986 804.443L502.981 801.694L426.958 799.125C407.984 798.479 362.238 785.963 351.764 784.872C341.29 783.781 315.491 782.604 315.491 782.604C315.491 782.604 339.215 776.72 346.484 777.265C353.753 777.81 359.434 784.915 359.434 784.915Z" fill="url(#paint0_linear_10_105)"/>
<path fill-rule="evenodd" clip-rule="evenodd" d="M45.8983 757.254L49.2158 739.885C49.2158 739.885 59.2223 737.009 60.83 734.045C62.4378 731.08 69.9974 677.067 69.9974 677.067L76.965 672.228C76.965 672.228 81.485 662.423 84.865 663.605C88.2451 664.787 91.6712 678.374 91.6712 678.374C91.6712 678.374 92.1968 678.989 93.0053 680.055C94.1429 681.526 95.1995 683.049 96.1709 684.62C97.6592 686.994 99.1955 696.174 100.158 702.742C100.731 706.761 101.079 709.827 101.079 709.827L118.442 713.635L120.51 717.672L134.824 726.178C138.565 746.362 133.517 771.474 133.517 771.474C128.71 774.84 106.726 779.14 99.4518 778.373C92.6548 777.66 78.672 772.938 76.9745 772.34L76.7896 772.335L74.6718 759.524C63.0637 762.335 45.8983 757.254 45.8983 757.254Z" fill="#25AED1"/>
<path fill-rule="evenodd" clip-rule="evenodd" d="M45.8981 757.254L49.2156 739.885C49.2156 739.885 59.2221 737.009 60.8298 734.045C62.4376 731.08 69.9972 677.067 69.9972 677.067L76.9648 672.228C76.9648 672.228 81.4848 662.423 84.8648 663.605C88.2449 664.787 91.6709 678.374 91.6709 678.374C91.6709 678.374 92.1966 678.989 93.0051 680.055L89.4266 681.539L83.1214 676.071L79.9704 683.25L77.3885 723.535L86.8746 721.179L98.1734 709.46L100.158 702.742C100.731 706.761 101.078 709.827 101.078 709.827L118.442 713.635L120.509 717.672L134.824 726.178L125.029 724.407L123.433 733.761L120.294 719.706L115.799 719.447L105.482 721.756C103.807 724.77 102.357 727.889 101.142 731.091C100.144 734.356 97.5105 755.602 97.5105 755.602L96.2603 774.956L90.5917 776.164L77.0978 772.328L76.913 772.324L74.7951 759.513C63.0635 762.335 45.8981 757.254 45.8981 757.254Z" fill="url(#paint1_linear_10_105)"/>
<path fill-rule="evenodd" clip-rule="evenodd" d="M0 719.617C0 719.617 18.2726 683.332 19.0023 677.763C19.7321 672.194 22.5652 642.253 22.5652 642.253C22.5652 642.253 39.736 642.511 47.0336 647.018C54.3312 651.525 57.8512 663.969 57.8512 663.969C57.8512 663.969 64.233 685.141 62.9452 687.021C61.4469 688.728 59.7347 690.233 57.8512 691.499C57.8512 691.499 66.5367 723.636 68.0678 729.464C69.5988 735.291 94.1244 750.535 94.1244 750.535C94.1244 750.535 115.874 740.387 118.049 734.588C120.224 728.789 118.993 727.411 118.993 727.411C118.993 727.411 116.747 720.005 116.747 717.364C116.747 714.723 149.572 715.699 149.572 715.699C149.572 715.699 170.105 724.096 172.266 729.938C172.92 731.476 172.989 733.201 172.462 734.788C171.935 736.374 170.847 737.712 169.404 738.55C169.404 738.55 198.566 736.095 205.677 738.55L213.332 744.822L258.348 750.19C258.348 750.19 261.74 732.291 265.918 730.497C270.983 728.316 305.983 750.592 305.983 750.592C305.983 750.592 323.583 777.978 328.877 780.146C334.172 782.313 348.91 783.949 354.519 782.327C355.004 782.187 355.573 782.018 356.213 781.828C362.971 779.824 377.576 775.491 383.523 778.021C390.034 780.792 419.296 796.465 419.296 796.465L587.571 803.659C600.38 800.973 612.194 799.095 622.97 797.841C623.773 795.135 626.968 784.933 629.729 784.038C630.128 783.908 630.535 783.951 630.943 784.126C633.799 785.345 636.685 792.995 636.685 792.995L640.65 796.252C664.557 794.764 681.797 796.502 691.675 798.552C692.525 798.728 693.329 798.896 694.089 799.057L697.26 797.227L699.352 793.282L715.622 790.232C715.622 790.232 716.076 787.184 716.781 783.195L716.781 783.194C717.958 776.674 719.779 767.57 721.262 765.263C722.23 763.736 723.276 762.26 724.395 760.84C725.178 759.826 725.689 759.237 725.705 759.219L725.705 759.218C725.705 759.218 729.469 745.795 732.655 744.759L732.655 744.759C735.842 743.726 739.611 753.717 739.611 753.717L745.865 758.854C745.865 758.854 746.158 762.247 746.618 767.384C747.684 779.278 749.648 800.523 750.959 810.643L1446 840.355V966.5H0V719.617Z" fill="url(#paint2_linear_10_105)"/>
<path fill-rule="evenodd" clip-rule="evenodd" d="M22.5654 642.253C22.5654 642.253 27.316 660.812 31.1508 669.869C34.9856 678.926 39.5502 681.639 39.5502 681.639L47.0767 679.744C47.0767 679.744 51.7557 685.873 53.6588 687.021C55.5619 688.169 62.9883 687.021 62.9883 687.021C62.2425 677.778 60.7543 668.609 58.5382 659.606L56.3632 654.984C56.3632 654.984 49.2087 646.3 47.0767 643.702C44.9446 641.105 22.5654 642.253 22.5654 642.253Z" fill="#25AED1"/>
<path fill-rule="evenodd" clip-rule="evenodd" d="M68.0679 729.464L59.3108 727.053C59.3108 727.053 61.2854 737.933 63.6893 740.114C66.0932 742.296 70.6864 746.918 70.6864 746.918V744.191C70.6864 744.191 74.4926 746.645 78.0126 748.812C81.5326 750.98 89.8891 752.616 89.8891 752.616H97.0435L94.1817 750.535C94.1817 750.535 70.6006 731.875 68.0679 729.464Z" fill="#25AED1"/>
<path fill-rule="evenodd" clip-rule="evenodd" d="M172.738 731.631V731.746C170.134 734.531 161.505 734.947 161.505 734.947L153.106 733.583L143.619 734.904C143.619 734.904 127.078 729.163 124.374 727.024C122.098 725.201 118.278 719.589 117.09 717.809L116.733 717.264C121.583 712.656 150.874 716.144 150.874 716.144C166.056 720.68 170.706 726.105 172.108 729.206C172.491 729.959 172.706 730.787 172.738 731.631Z" fill="#25AED1"/>
<path fill-rule="evenodd" clip-rule="evenodd" d="M169.375 738.464L154.194 746.1C154.194 746.1 172.795 745.282 179.12 744.736C182.339 744.609 185.49 743.771 188.349 742.282L194.588 739.842L205.649 738.406C193.687 735.877 181.329 735.897 169.375 738.464Z" fill="#25AED1"/>
<path fill-rule="evenodd" clip-rule="evenodd" d="M213.848 746.099L205.649 747.721L187.047 750.994C187.047 750.994 211.129 758.328 220.101 759.965L226.625 757.51C236.001 759.822 245.511 761.547 255.1 762.678C271.083 764.587 290.873 762.678 290.873 762.678C290.873 762.678 272.557 751.798 258.348 750.104C258.32 750.104 225.495 745.281 213.848 746.099Z" fill="#25AED1"/>
<path fill-rule="evenodd" clip-rule="evenodd" d="M265.889 730.411C265.889 730.411 263.285 737.588 264.315 741.305C265.346 745.023 279.182 755.07 288.397 756.707C297.612 758.343 306.026 750.535 306.026 750.535C306.026 750.535 278.367 729.952 265.889 730.411Z" fill="#25AED1"/>
<path fill-rule="evenodd" clip-rule="evenodd" d="M354.562 782.27C354.562 782.27 358.611 785.571 376.512 790.968C388.029 794.177 400.131 794.668 411.869 792.404C411.869 792.404 389.876 776.758 380.933 777.318C371.99 777.878 354.562 782.27 354.562 782.27Z" fill="#25AED1"/>
<path fill-rule="evenodd" clip-rule="evenodd" d="M263.156 783.347C263.156 783.347 280.542 780.634 290.844 783.347C301.147 786.059 328.92 790.968 328.92 790.968C328.92 790.968 261.468 793.681 241.721 790.968C241.721 790.968 253.369 784.366 263.156 783.347Z" fill="#25AED1"/>
<path d="M740 762C740 762 740 766.5 732 767.5C722 766 726.5 762.5 726.5 762.5C726.5 762.5 730.463 753 733.5 753C736.538 753 738 756.5 740 762Z" fill="#25AED1"/>
<defs>
<linearGradient id="paint0_linear_10_105" x1="315.491" y1="789.508" x2="472.5" y2="791" gradientUnits="userSpaceOnUse">
<stop stop-color="#4CCCED"/>
<stop offset="1" stop-color="#005497"/>
</linearGradient>
<linearGradient id="paint1_linear_10_105" x1="89.5903" y1="776.141" x2="92.1233" y2="663.682" gradientUnits="userSpaceOnUse">
<stop offset="0.9999" stop-color="#00305C"/>
<stop offset="1" stop-color="#00305C" stop-opacity="0"/>
<stop offset="1" stop-color="#291689"/>
</linearGradient>
<linearGradient id="paint2_linear_10_105" x1="209.669" y1="796.365" x2="209.669" y2="642.253" gradientUnits="userSpaceOnUse">
<stop stop-color="#00305C"/>
<stop offset="1" stop-color="#001927"/>
</linearGradient>
</defs>
</svg>
