<svg width="1446" height="964" viewBox="0 0 1446 964" fill="none" xmlns="http://www.w3.org/2000/svg">
<path fill-rule="evenodd" clip-rule="evenodd" d="M143 637.914L214.345 625.138L220.194 625.108L422.198 570.267L479.975 592.901L485.465 593.84L557.6 617.617L563.09 618.546L585.583 624.158L621.241 628.159L524.084 615.148L527.202 614.944L575.106 600.382L585.54 598.116L637.108 616.821L640.486 616.658L649.727 622.771L662.691 626.924L746.194 574.737H750.176L801.945 537.367L806.903 536L838.882 556.583L841.296 556.879L962.211 625.138L966.293 625.495L1061.25 606.392L1067.83 606.127L1184.14 647.793L1258.21 617.474L1262.59 617.617L1371.22 578.339L1446 597.31V702L143 701.847V637.914Z" fill="url(#paint0_linear_4_3674)"/>
<g style="mix-blend-mode:soft-light">
<path fill-rule="evenodd" clip-rule="evenodd" d="M807.653 536L844 566.63L813.43 543.833L805.251 545.039L840.997 578.761L818.077 559.612L798.431 573.371L802.52 593.066L798.431 593.87L789.422 584.965L784.661 586.048L800.418 613.401L723.306 645L669 624.985L747.256 575.123L774.409 605.073L751.217 575.123L802.72 537.381L807.653 536Z" fill="white"/>
</g>
<g style="mix-blend-mode:soft-light">
<path fill-rule="evenodd" clip-rule="evenodd" d="M916 616L844 566L881.661 593.357L880.007 594.422L899.94 611.615L916 616Z" fill="white"/>
</g>
<g style="mix-blend-mode:soft-light">
<path fill-rule="evenodd" clip-rule="evenodd" d="M423.6 571L457 591.651L423.6 574.75L419.096 575.404L440.25 587.378L424.046 581.325L401.526 588.956L429.256 613.086L412.505 601.323L409.21 601.464L422.132 610.02L384.502 625L341.101 598.437L336.309 600.016L361.262 616.183L282 608.823L423.6 571Z" fill="white"/>
</g>
<g style="mix-blend-mode:soft-light">
<path fill-rule="evenodd" clip-rule="evenodd" d="M1069.49 606L1086.15 614.239L1073.52 610.114L1069.49 609.568L1092 627.977L1069.49 631L1036.9 614.701L1033.91 614.879L1038.92 617.671L1030.49 613.777L1024.56 614.197L1044.23 627.799L1012 628.523L997 619.738L1062.9 606.273L1069.49 606Z" fill="white"/>
</g>
<g style="mix-blend-mode:soft-light" opacity="0.5">
<path fill-rule="evenodd" clip-rule="evenodd" d="M747.08 575L787 619.193L747.08 635.364L726.692 593.574L739.684 638.369L733.188 641L712 596.962L747.08 575Z" fill="white"/>
</g>
<g style="mix-blend-mode:soft-light">
<path fill-rule="evenodd" clip-rule="evenodd" d="M803.376 537L805.93 544.591L842 578.022L818.872 559.038L799.047 572.678L787.043 555.83L803.174 592.203L799.047 593L789.958 584.172L774 558.149L803.376 537Z" fill="white"/>
</g>
<g style="mix-blend-mode:soft-light" opacity="0.5">
<path fill-rule="evenodd" clip-rule="evenodd" d="M392.464 579L429 612.986L412.217 601.176L392.464 588.296L408.916 601.318L421.863 609.908L403.321 617.306L371.486 589.689L398.808 619.103L391.542 622L359 587.953L392.464 579Z" fill="white"/>
</g>
<g style="mix-blend-mode:soft-light">
<path fill-rule="evenodd" clip-rule="evenodd" d="M1214 636.066L1259 617.782L1322.27 650.183L1263.38 617.924L1371.84 579L1399.59 587.828L1392.66 598.416L1365.57 591.075L1362.84 591.054L1408 609.712L1356.5 625.943L1316.42 606.537H1312.37L1369.37 640.374L1323.64 616.447L1299.44 613.333L1400.32 667.274L1306.67 675L1235.81 642.063L1276.52 664.22L1214 636.066Z" fill="white"/>
</g>
<g style="mix-blend-mode:soft-light">
<path fill-rule="evenodd" clip-rule="evenodd" d="M1258.32 617L1321.75 650.1L1354 670.06L1338.46 671L1258.32 624.697L1253.37 626.412L1313.78 660.493L1283.54 664.76L1222 632.042L1258.32 617Z" fill="white"/>
</g>
<g style="mix-blend-mode:soft-light">
<path fill-rule="evenodd" clip-rule="evenodd" d="M1371.85 579L1400 588.094L1396.24 593.906L1368.51 582.281L1367.22 583.187L1393.76 597.76L1392.97 599L1351 586.604L1371.85 579Z" fill="white"/>
</g>
<g style="mix-blend-mode:soft-light">
<path fill-rule="evenodd" clip-rule="evenodd" d="M1347.61 588L1394 613.542L1370.81 620.612L1330.04 598.342H1326.75L1362.9 623.022L1356.38 625L1308 601.652L1347.61 588Z" fill="white"/>
</g>
<path fill-rule="evenodd" clip-rule="evenodd" d="M1301.4 587.943L1100.98 651.85H1093.68L926.185 626.076H920.342L849.832 600.712L765.641 628.616L761.98 628.851L718.098 646.628L715.126 645.982L620.945 582.015L618.059 582.23L547.735 531H540.601L482.163 583.202L476.134 586.469L432.509 626.117L336.376 617.127L333.749 615.181L143.72 579.7L138.595 580.919L86.832 627.663L39.289 639.746L0 607.307V964H1446V655.669L1321.73 605.853L1315.87 603.539L1301.4 587.943Z" fill="url(#paint1_linear_4_3674)"/>
<path opacity="0.53" fill-rule="evenodd" clip-rule="evenodd" d="M621.401 582L628.384 587.995L658 630L622.895 610.509L613.253 607.74L611.745 610.387L616.314 619.537L609 610.387L618.513 582.214L621.401 582Z" fill="white"/>
<g style="mix-blend-mode:soft-light">
<path fill-rule="evenodd" clip-rule="evenodd" d="M576 658L539.418 621.48L549.586 570.418L560.589 581.02L547.253 554.412L552.927 568.768L539.418 541.056L547.123 533.29L549.859 533.754L566.422 542.737L547.123 531H539.922L481.289 583.599L485.12 589.075L475.226 586.889L431.514 626.812L439.09 626.152L469.047 603.669L466.022 609.857L421 654.019L576 658ZM540.8 636.393L543.45 637.126L550.047 640.539H545.423L540.8 636.393ZM500.934 651.389H491.572L488.26 634.568L491.572 635.537L500.934 651.389ZM536.868 566.066L533.34 538.972L536.436 540.261L546.518 568.108L536.868 566.066ZM553.172 639.725L546.374 637.229L528.428 621.758L537.588 623.584L553.172 639.725Z" fill="white"/>
</g>
<g style="mix-blend-mode:soft-light">
<path fill-rule="evenodd" clip-rule="evenodd" d="M564 585L569.814 587.918L595 625L566.494 589.929L564 585Z" fill="white"/>
</g>
<g style="mix-blend-mode:soft-light">
<path fill-rule="evenodd" clip-rule="evenodd" d="M705 660L658 630L689.262 653.264L681.493 651.445L687.899 659.56L705 660Z" fill="white"/>
</g>
<g style="mix-blend-mode:soft-light">
<path fill-rule="evenodd" clip-rule="evenodd" d="M765 628.663L788.63 662.274L857.758 664L831.223 642.347L865.794 630.358L873.02 636.713L860.446 627.313L868.742 627.434L896 638.865L844.982 609.121L849.838 601L765 628.663ZM851.196 616.796L857.671 618.237L866.589 625.13H861.819L851.196 616.796ZM830.471 647.616L831.772 646.001L835.631 649.24L833.058 649.95L830.471 647.616ZM814.703 627.861L820.484 630.003L834.041 639.992H830.5L814.703 627.861Z" fill="white"/>
</g>
<g style="mix-blend-mode:soft-light">
<path fill-rule="evenodd" clip-rule="evenodd" d="M762.549 628L785 663L731.379 660.884L719 646.553L737.932 638.484L752.007 657.464L743.032 636.315L762.549 628Z" fill="white"/>
</g>
<g style="mix-blend-mode:soft-light">
<path fill-rule="evenodd" clip-rule="evenodd" d="M920 625L1019.07 668.63L1033 669L925.871 625H920Z" fill="white"/>
</g>
<g style="mix-blend-mode:soft-light">
<path fill-rule="evenodd" clip-rule="evenodd" d="M1101 651.629L1128.6 670.86L1173.33 672.022L1141.63 645.867L1149.14 645.164L1193.47 672.532L1290.4 675L1237.39 610.923L1256.53 606.201L1326.42 666.822L1338 667.373L1278.95 610.923L1283.34 609.281L1310.12 622.292L1301.06 588L1101 651.629ZM1158.83 637.689L1162.14 636.262L1176.67 645.847L1187.33 662.162L1158.83 637.689Z" fill="white"/>
</g>
<g style="mix-blend-mode:soft-light">
<path fill-rule="evenodd" clip-rule="evenodd" d="M336 617L368.941 639.379L347.339 621.274L352.471 621.842L394.945 646L432 626.242L336 617Z" fill="white"/>
</g>
<g style="mix-blend-mode:soft-light">
<path fill-rule="evenodd" clip-rule="evenodd" d="M216.218 593.62L266 628.972L216.218 603.364L171.638 595.202L244.788 649L196.486 647.459L162.139 609.496L189.919 647.296L176.424 646.949L125.018 598.252L120.434 600.273L156.261 646.102L86 627.789L137.823 581.214L142.953 580L216.218 593.62Z" fill="white"/>
</g>
<g style="mix-blend-mode:soft-light">
<path fill-rule="evenodd" clip-rule="evenodd" d="M306 650L266 628L297.059 649.768L306 650Z" fill="white"/>
</g>
<g style="mix-blend-mode:soft-light">
<path fill-rule="evenodd" clip-rule="evenodd" d="M259 609L266.169 610.654L291 631L259 609Z" fill="white"/>
</g>
<path fill-rule="evenodd" clip-rule="evenodd" d="M1235 674L1226.61 669L1203.92 670.676L1201.7 672.682L1199.17 672.508L1194.71 670.735L1183.73 671.994L1176.31 672.44L1164.35 671.5L1162.48 670.163L1158.45 669.533L1149.61 671.5L1147.02 670.909L1137 671.461L1235 674Z" fill="#4F8DF4"/>
<path fill-rule="evenodd" clip-rule="evenodd" d="M974 668L965.197 664H951.202L907 666L974 668Z" fill="#4F8DF4"/>
<g style="mix-blend-mode:soft-light">
<path fill-rule="evenodd" clip-rule="evenodd" d="M534 539L491 576.741L523.45 548.154L524.148 550.058L502.655 574.386L529.001 621.188L538.244 623L540.089 620.901L545.03 601.099L534 575.84L545.568 589.386L550 571.611L536.354 565.212L534 539Z" fill="white"/>
</g>
<g style="mix-blend-mode:soft-light">
<path fill-rule="evenodd" clip-rule="evenodd" d="M476 587L486.024 589.175L507.602 633.365L484.538 602.224L481.945 602.469L517 653H503.261L476 587Z" fill="white"/>
</g>
<g style="mix-blend-mode:soft-light">
<path fill-rule="evenodd" clip-rule="evenodd" d="M622.016 610.323L656 629L636.296 606.946L619.996 586.399L627.526 587.956L620.516 582L617.616 582.212L610 606.44L612.337 607.573L622.016 610.323Z" fill="white"/>
</g>
<g style="mix-blend-mode:soft-light">
<path fill-rule="evenodd" clip-rule="evenodd" d="M466.218 609L492 653L472.124 652.654L456.453 624.432L453.645 623.939L469.814 652.612L446.425 652.193L445 631.005L466.218 609Z" fill="white"/>
</g>
<g style="mix-blend-mode:soft-light">
<path fill-rule="evenodd" clip-rule="evenodd" d="M865.247 630.337L850.836 616.78L857.197 618.221L868.144 627.394L876.535 627.739L880 628.338L844.744 609.108L849.515 601L809.574 614.212L820.706 629.941L806.308 615.339L796 618.769L835.615 657.746L850.836 658L831.284 642.332L855.621 633.727L834.024 616.78L857.239 633.168L865.247 630.337Z" fill="white"/>
</g>
<g style="mix-blend-mode:soft-light">
<path fill-rule="evenodd" clip-rule="evenodd" d="M797.543 626L765 627.52L784.087 657.483L811.115 658L793.298 626.884L793.847 630.441L816.457 658H826L797.543 626Z" fill="white"/>
</g>
<g style="mix-blend-mode:soft-light">
<path fill-rule="evenodd" clip-rule="evenodd" d="M1163.24 632.841L1163 636.953L1177.52 646.426L1189.09 663.76L1201.86 664.153L1182.43 630.815L1205.8 664.153H1216.33L1188.17 628.558L1252.97 665H1270L1188.17 625L1163.24 632.841Z" fill="white"/>
</g>
<g style="mix-blend-mode:soft-light">
<path fill-rule="evenodd" clip-rule="evenodd" d="M1139.1 640L1142.6 646.227L1164 664L1130.15 663.536L1121.33 647.459L1128.67 663.515L1116.79 663.315L1101 652.2L1139.1 640Z" fill="white"/>
</g>
<g style="mix-blend-mode:soft-light">
<path fill-rule="evenodd" clip-rule="evenodd" d="M245 649L153.997 581.938L143.641 580L138.534 581.214L123 595.232L176.955 646.949L182.033 647.296L143.255 598.824L160.191 611.485L185.309 647.164L190.387 647.296L164.911 609.496L196.924 647.459L232.985 649L168.015 594.61L239.908 648.112L245 649Z" fill="white"/>
</g>
<path opacity="0.2" fill-rule="evenodd" clip-rule="evenodd" d="M626.256 654.908L595 625L632 655L626.256 654.908Z" fill="#223995"/>
<path opacity="0.2" fill-rule="evenodd" clip-rule="evenodd" d="M896 638L926 659L921.377 658.927L896 638Z" fill="#223995"/>
<g style="mix-blend-mode:soft-light">
<path fill-rule="evenodd" clip-rule="evenodd" d="M921.063 631L914 641.46L926.097 656L918.516 643.5L927 651.9L923.461 632.882L921.063 631Z" fill="white"/>
</g>
<g style="mix-blend-mode:soft-light">
<path fill-rule="evenodd" clip-rule="evenodd" d="M589 627L578 642L589 638.634V627Z" fill="white"/>
</g>
<g style="mix-blend-mode:soft-light">
<path fill-rule="evenodd" clip-rule="evenodd" d="M282 619L308.292 641.549L366 648L311.746 640.86L366 645.633L361.418 639.362L282 619Z" fill="white"/>
</g>
<g style="mix-blend-mode:soft-light">
<path fill-rule="evenodd" clip-rule="evenodd" d="M1336 653H1388.23L1443 669L1412.49 668.663L1365.31 655.165L1360.29 654.934L1384.46 667.768L1352 666.643L1336 653Z" fill="white"/>
</g>
<g style="mix-blend-mode:soft-light">
<path fill-rule="evenodd" clip-rule="evenodd" d="M1301.11 588L1310.14 622.569L1301.11 618.13L1280.16 594.731L1275.95 596.077L1283.41 609.446L1279.03 611.101L1338 668L1264 600.157L1301.11 588Z" fill="white"/>
</g>
<g style="mix-blend-mode:soft-light">
<path fill-rule="evenodd" clip-rule="evenodd" d="M118.035 598L155 646L152.166 645.948L116.661 605.852L115.563 606.874L143.175 643.56L125.22 638.805L103 611.734L118.035 598Z" fill="white"/>
</g>
<g style="mix-blend-mode:soft-light">
<path fill-rule="evenodd" clip-rule="evenodd" d="M101.761 614L119 636L117.105 635.492L98 617.442L101.761 614Z" fill="white"/>
</g>
<g style="mix-blend-mode:soft-light">
<path fill-rule="evenodd" clip-rule="evenodd" d="M80.0626 629L109 646L82.9224 645.125L64.5399 633.842L59.4393 634.382L72.9277 644.444L59.4393 644.509L48 637.495L80.0626 629Z" fill="white"/>
</g>
<defs>
<linearGradient id="paint0_linear_4_3674" x1="794.5" y1="702" x2="794.5" y2="536" gradientUnits="userSpaceOnUse">
<stop offset="0.01" stop-color="#86F9FF"/>
<stop offset="1" stop-color="#4C51DD"/>
</linearGradient>
<linearGradient id="paint1_linear_4_3674" x1="723.007" y1="725.924" x2="723.007" y2="530.99" gradientUnits="userSpaceOnUse">
<stop offset="0.01" stop-color="#86C4FF"/>
<stop offset="1" stop-color="#4C40DD"/>
</linearGradient>
</defs>
</svg>
