<svg width="1446" height="964" viewBox="0 0 1446 964" fill="none" xmlns="http://www.w3.org/2000/svg">
<path fill-rule="evenodd" clip-rule="evenodd" d="M1428 694.189L9 668V759H1428V694.189Z" fill="#4F8DF4"/>
<path fill-rule="evenodd" clip-rule="evenodd" d="M1286 690.508L9 668L1286 700V690.508Z" fill="#7AA9F7"/>
<path d="M1446 964H0.280124L0 660L1298.79 676.752H1446V964Z" fill="url(#paint0_linear_7_5034)"/>
<path style="mix-blend-mode:soft-light" d="M560.9 709.057C691.074 714.436 815.867 707.637 879.453 709.057C943.04 710.477 1253.45 722.426 1301.8 734.954C1350.14 747.483 614.372 779 614.372 779H1435C1435 779 1223 767.311 1232.98 760.702C1242.97 754.092 1320.7 735.584 1319.73 733.384C1318.76 731.185 1087.47 714.876 1086.99 712.226C1086.51 709.577 817.388 704.737 802.034 704.297C786.679 703.857 594.369 697.688 594.369 697.688L346.206 704.737L0 697V704.737L560.9 709.057Z" fill="url(#paint1_linear_7_5034)"/>
<path style="mix-blend-mode:soft-light" d="M0 720C0 720 341.267 738.261 467.171 734.906C593.075 731.552 1011.64 736.232 1014.98 749.842C1018.32 763.451 573.114 786 573.114 786L0 782.857V720Z" fill="url(#paint2_linear_7_5034)"/>
<path style="mix-blend-mode:soft-light" d="M1446 696C1333.86 693.701 946.292 685.803 761.785 684.851C544.128 683.733 0 691.548 0 691.548V679L1446 680.417V696Z" fill="url(#paint3_linear_7_5034)"/>
<path style="mix-blend-mode:screen" opacity="0.93" d="M124 701.4C124 701.4 222.653 709.176 263.523 701.4C304.394 693.624 396 707.232 396 707.232C396 707.232 155.005 711.12 124 701.4Z" fill="url(#paint4_linear_7_5034)"/>
<path style="mix-blend-mode:screen" opacity="0.93" d="M225 690.332C225 690.332 278.312 694.648 300.403 690.332C322.495 686.015 372 693.574 372 693.574C372 693.574 241.756 695.732 225 690.332Z" fill="url(#paint5_linear_7_5034)"/>
<path style="mix-blend-mode:screen" opacity="0.93" d="M618 718.332C618 718.332 670.969 722.651 692.919 718.332C714.869 714.013 764 721.579 764 721.579C764 721.579 634.635 723.724 618 718.332Z" fill="url(#paint6_linear_7_5034)"/>
<path style="mix-blend-mode:screen" opacity="0.93" d="M789 702.335C789 702.335 842.326 706.658 864.403 702.335C886.481 698.011 936 705.574 936 705.574C936 705.574 805.756 707.731 789 702.335Z" fill="url(#paint7_linear_7_5034)"/>
<path style="mix-blend-mode:screen" opacity="0.93" d="M359 694.602C359 694.602 453.665 699.789 492.886 694.602C532.106 689.414 620 698.487 620 698.487C620 698.487 388.754 701.081 359 694.602Z" fill="url(#paint8_linear_7_5034)"/>
<path style="mix-blend-mode:screen" opacity="0.93" d="M619 729.869C619 729.869 713.665 735.92 752.886 729.869C792.106 723.817 880 734.402 880 734.402C880 734.402 648.754 737.428 619 729.869Z" fill="url(#paint9_linear_7_5034)"/>
<defs>
<linearGradient id="paint0_linear_7_5034" x1="8.59358" y1="737.68" x2="1431.5" y2="737.68" gradientUnits="userSpaceOnUse">
<stop stop-color="#5668FF"/>
<stop offset="0.45" stop-color="#5474FF"/>
<stop offset="1" stop-color="#527FFF"/>
</linearGradient>
<linearGradient id="paint1_linear_7_5034" x1="742.898" y1="825.476" x2="722.257" y2="690.665" gradientUnits="userSpaceOnUse">
<stop stop-color="#B3ECFF"/>
<stop offset="0.37" stop-color="#B8EDFF"/>
<stop offset="0.79" stop-color="#C5EFFF"/>
<stop offset="1" stop-color="#CFF0FF"/>
</linearGradient>
<linearGradient id="paint2_linear_7_5034" x1="541.773" y1="581.776" x2="516.173" y2="825.58" gradientUnits="userSpaceOnUse">
<stop stop-color="#B3ECFF"/>
<stop offset="0.37" stop-color="#B8EDFF"/>
<stop offset="0.79" stop-color="#C5EFFF"/>
<stop offset="1" stop-color="#CFF0FF"/>
</linearGradient>
<linearGradient id="paint3_linear_7_5034" x1="725.945" y1="663.004" x2="725.945" y2="797.707" gradientUnits="userSpaceOnUse">
<stop stop-color="#B3ECFF"/>
<stop offset="0.37" stop-color="#B8EDFF"/>
<stop offset="0.79" stop-color="#C5EFFF"/>
<stop offset="1" stop-color="#CFF0FF"/>
</linearGradient>
<linearGradient id="paint4_linear_7_5034" x1="262.664" y1="651.77" x2="261.295" y2="708.629" gradientUnits="userSpaceOnUse">
<stop stop-color="#38EAC9"/>
<stop offset="0.1" stop-color="#37E4C4"/>
<stop offset="0.23" stop-color="#33D3B5"/>
<stop offset="0.38" stop-color="#2CB79D"/>
<stop offset="0.55" stop-color="#22907C"/>
<stop offset="0.72" stop-color="#175E51"/>
<stop offset="0.91" stop-color="#08221D"/>
<stop offset="1"/>
</linearGradient>
<linearGradient id="paint5_linear_7_5034" x1="299.936" y1="662.746" x2="299.153" y2="694.356" gradientUnits="userSpaceOnUse">
<stop stop-color="#38EAC9"/>
<stop offset="0.1" stop-color="#37E4C4"/>
<stop offset="0.23" stop-color="#33D3B5"/>
<stop offset="0.38" stop-color="#2CB79D"/>
<stop offset="0.55" stop-color="#22907C"/>
<stop offset="0.72" stop-color="#175E51"/>
<stop offset="0.91" stop-color="#08221D"/>
<stop offset="1"/>
</linearGradient>
<linearGradient id="paint6_linear_7_5034" x1="692.455" y1="690.804" x2="691.669" y2="722.35" gradientUnits="userSpaceOnUse">
<stop stop-color="#38EAC9"/>
<stop offset="0.1" stop-color="#37E4C4"/>
<stop offset="0.23" stop-color="#33D3B5"/>
<stop offset="0.38" stop-color="#2CB79D"/>
<stop offset="0.55" stop-color="#22907C"/>
<stop offset="0.72" stop-color="#175E51"/>
<stop offset="0.91" stop-color="#08221D"/>
<stop offset="1"/>
</linearGradient>
<linearGradient id="paint7_linear_7_5034" x1="863.936" y1="674.781" x2="863.161" y2="706.356" gradientUnits="userSpaceOnUse">
<stop stop-color="#38EAC9"/>
<stop offset="0.1" stop-color="#37E4C4"/>
<stop offset="0.23" stop-color="#33D3B5"/>
<stop offset="0.38" stop-color="#2CB79D"/>
<stop offset="0.55" stop-color="#22907C"/>
<stop offset="0.72" stop-color="#175E51"/>
<stop offset="0.91" stop-color="#08221D"/>
<stop offset="1"/>
</linearGradient>
<linearGradient id="paint8_linear_7_5034" x1="491.503" y1="657.882" x2="490.517" y2="699.883" gradientUnits="userSpaceOnUse">
<stop stop-color="#38EAC9"/>
<stop offset="0.1" stop-color="#37E4C4"/>
<stop offset="0.23" stop-color="#33D3B5"/>
<stop offset="0.38" stop-color="#2CB79D"/>
<stop offset="0.55" stop-color="#22907C"/>
<stop offset="0.72" stop-color="#175E51"/>
<stop offset="0.91" stop-color="#08221D"/>
<stop offset="1"/>
</linearGradient>
<linearGradient id="paint9_linear_7_5034" x1="751.503" y1="687.03" x2="750.162" y2="736.021" gradientUnits="userSpaceOnUse">
<stop stop-color="#38EAC9"/>
<stop offset="0.1" stop-color="#37E4C4"/>
<stop offset="0.23" stop-color="#33D3B5"/>
<stop offset="0.38" stop-color="#2CB79D"/>
<stop offset="0.55" stop-color="#22907C"/>
<stop offset="0.72" stop-color="#175E51"/>
<stop offset="0.91" stop-color="#08221D"/>
<stop offset="1"/>
</linearGradient>
</defs>
</svg>
