<svg width="1446" height="964" viewBox="0 0 1446 964" fill="none" xmlns="http://www.w3.org/2000/svg">
<mask id="mask0_14_413" style="mask-type:alpha" maskUnits="userSpaceOnUse" x="0" y="853" width="341" height="102">
<rect y="853" width="341" height="102" fill="#D9D9D9"/>
</mask>
<g mask="url(#mask0_14_413)">
<path fill-rule="evenodd" clip-rule="evenodd" d="M92.3789 858.826C33.8064 859.417 -3.11411 858.826 -3.11411 858.826C-4.16022 860.829 224.298 857.048 223.055 858.826L224.59 862.275L284.109 867.613L340.846 876.015C339.305 878.884 337.661 881.646 335.919 884.288C334.888 885.576 333.772 886.727 332.587 887.727C332.587 887.727 331.156 895.693 330.636 898.97C330.351 901.123 330.512 903.331 331.101 905.336L328.247 916.544L246.551 937.898L194.697 936.519L89.0777 947.593L-3.11407 954.813L-3.11411 858.826L81.669 856.348L92.3789 858.826Z" fill="url(#paint0_linear_14_413)"/>
<path fill-rule="evenodd" clip-rule="evenodd" d="M207.826 862.153C207.826 862.153 212.881 858.997 216.084 858.553C219.287 858.11 300.351 864.366 305.191 864.743L316.042 863.866C316.042 863.866 318.321 860.691 320.472 861.287C321.835 861.707 323.148 862.381 324.374 863.29C324.374 863.29 325.05 866.749 325.717 867.64C326.385 868.532 329.286 869.321 329.286 869.321L331.456 871.849L335.043 868.762L338.797 872.055L341.11 875.828C341.11 875.828 335.209 876.749 333.404 877.381C331.6 878.013 304.01 875.013 295.811 876.381C287.613 877.749 278.425 877.504 277.759 878.371C277.094 879.238 268.584 881.363 265.496 880.828C262.408 880.293 231.144 872.902 231.144 872.902L213.235 867.226L207.826 862.153Z" fill="url(#paint1_linear_14_413)"/>
<path fill-rule="evenodd" clip-rule="evenodd" d="M15.7309 891.854L10.9595 949.786L33.7257 949.919L45.2275 949.803L46.96 950.271L48.8822 949.268L69.2742 948.756L93.2389 947.595L99.799 919.722L105.029 894.24L104.737 921.924L103.651 940.299L108.79 946.348L132.442 943.9L139.774 893.46L149.71 887.144L152.337 917.085L156.307 919.78L154.372 934.658L177.068 936.168L210.33 938.682L216.667 885.387L219.588 884.839L215.286 914.617L224.649 884.661L223.993 925.248L227.986 903.552L234.949 903.511L235.105 879.135L252.458 883.027L250.704 900.327L263.876 903.331L271.395 900.878L281.534 878.072L297.191 877.41L292.171 891.16L290.815 898.891L287.404 918.564L300.349 914.96L309.361 887.529L310.295 881.211L312.98 876.341L333.798 877.392L341.156 875.829C341.156 875.829 337.469 882.84 336.441 884.107C335.413 885.374 333.255 887.55 333.255 887.55L326.388 888.101L321.533 892.351L317.794 899.609L324.95 902.324L327.639 905.276L331.517 906.091L329.461 914.084L317.562 921.523L228.246 947.368L123.393 957.394L10.7628 955.617L-3.11414 954.813L-2.34811 891.093L15.7309 891.854Z" fill="url(#paint2_linear_14_413)"/>
<path fill-rule="evenodd" clip-rule="evenodd" d="M330.773 901.993L324.725 900.818L321.187 901.231L324.15 902.303L326.97 905.258L331.033 906.078C331.28 905.427 331.387 904.694 331.341 903.969C331.295 903.244 331.098 902.558 330.773 901.993Z" fill="url(#paint3_linear_14_413)"/>
<path fill-rule="evenodd" clip-rule="evenodd" d="M182.418 855.328L146.341 853.969L125.039 853.801L99.6217 856.394L49.0323 860.183L111.75 861.851L138.542 861.259L176.69 857.268L182.418 855.328Z" fill="url(#paint4_linear_14_413)"/>
<path fill-rule="evenodd" clip-rule="evenodd" d="M269.871 881.861L248.267 882.937C242.127 882.34 236.046 881.03 230.087 879.023L219.097 884.534L210.739 885.229L209.016 887.826L140.629 886.902L114.692 881.077L101.801 877.39L49.0252 860.172L110.074 859.218L120.478 862.073L141.727 860.923L179.828 856.413C179.828 856.413 205.53 861.239 210.113 862.871C214.697 864.503 245.737 871.306 245.737 871.306L275.405 879.376C275.405 879.376 275.575 880.999 269.871 881.861Z" fill="url(#paint5_linear_14_413)"/>
<path fill-rule="evenodd" clip-rule="evenodd" d="M324.373 863.301L322.259 865.402L318.948 864.235L317.422 863.116L318.398 860.984C318.398 860.984 322.639 861.291 324.373 863.301Z" fill="#C2FFFF"/>
<path fill-rule="evenodd" clip-rule="evenodd" d="M330.047 870.215L327.242 870.141L325.29 867.856C325.29 867.856 327.445 867.007 330.047 870.215Z" fill="#C2FFFF"/>
<path fill-rule="evenodd" clip-rule="evenodd" d="M335.042 868.784L338.151 872.265L337.374 873.744L333.843 873.65L331.456 871.86L335.042 868.784Z" fill="#C2FFFF"/>
<path fill-rule="evenodd" clip-rule="evenodd" d="M93.8658 893.933L78.5651 895.781L71.1229 895.583L55.5879 894.037L47.8381 894.467L37.3143 894.683L32.777 898.856L22.9671 897.883L14.6407 896.259L11.9481 891.754L2.81821 890.723L-2.95471 891.077L35.87 886.166L56.1707 889.823L75.6452 890.341L93.8658 893.933Z" fill="url(#paint6_linear_14_413)"/>
<path fill-rule="evenodd" clip-rule="evenodd" d="M295.119 877.344L288.927 876.295L284.529 874.97L277.414 875.827L267.041 876.597L255.021 873.538L275.412 879.387L278.411 878.734L279.667 879.501L295.119 877.344Z" fill="url(#paint7_linear_14_413)"/>
<path fill-rule="evenodd" clip-rule="evenodd" d="M140.66 886.904L128.986 884.284L114.661 881.088L98.9201 876.462L119.062 880.223L147.932 886.547L142.145 900.115L140.66 886.904Z" fill="url(#paint8_linear_14_413)"/>
</g>
<path fill-rule="evenodd" clip-rule="evenodd" d="M991.213 782.598C993.349 786.742 995.735 790.768 998.358 794.655C1000.17 797.194 1002.17 799.605 1004.35 801.869L1001.35 806.131L891.987 810.824L787.558 819.441C790.224 823.079 793.086 826.585 796.133 829.947C797.952 831.591 799.934 833.067 802.05 834.356C802.05 834.356 804.237 844.363 805.008 848.476C805.414 851.177 804.997 853.932 803.808 856.419L808.424 870.525L956.956 899.937H1052.05L1244.99 917.293L1445.87 926.814V828.288L1263.57 803.474L991.213 782.598Z" fill="url(#paint9_linear_14_413)"/>
<path fill-rule="evenodd" clip-rule="evenodd" d="M1032.07 806.535C1032.07 806.535 1022.98 802.422 1017.14 801.761C1011.29 801.1 862.402 806.225 853.513 806.535L833.676 805.078C833.676 805.078 829.675 801.033 825.702 801.707C823.18 802.187 820.738 802.985 818.442 804.08C818.442 804.08 817.012 808.382 815.74 809.475C814.468 810.567 809.109 811.457 809.109 811.457L804.993 814.545L798.591 810.567L791.531 814.559L787.086 819.198C787.086 819.198 797.847 820.546 801.12 821.396C804.393 822.246 855.114 819.414 870.063 821.396C885.011 823.378 901.861 823.378 903.033 824.484C904.205 825.59 919.683 828.53 925.371 827.964C931.059 827.397 988.754 819.198 988.754 819.198L1021.88 812.698L1032.07 806.535Z" fill="url(#paint10_linear_14_413)"/>
<path fill-rule="evenodd" clip-rule="evenodd" d="M1445.7 771H1182.55C1178.94 772.466 1175.14 773.49 1171.26 774.048C1166.58 774.412 1111.62 775.073 1103.89 775.194C1096.15 775.315 1075.22 774.196 1062 775.194C1048.78 776.192 1031.9 776.785 1026.63 777.662C1021.35 778.538 1006.33 780.008 1000.9 780.885C995.47 781.762 989.553 780.885 990.797 782.355C992.04 783.825 1004.52 784.122 1008.88 786.185C1013.23 788.248 1032.91 789.705 1037.57 790.891C1042.23 792.078 1067.5 795.301 1073.3 797.054C1079.1 798.807 1083.73 800.291 1083.73 800.291C1083.73 800.291 1034.06 805.591 1027.88 807.357C1021.71 809.124 1016.11 810.58 1016.11 810.58C1016.11 810.58 941.348 818.82 934.002 821.463C926.656 824.107 922.04 825.293 922.941 827.06C923.841 828.827 950.709 830.593 956.912 831.173C963.114 831.753 990.554 824.997 995.227 827.357C999.901 829.717 1004.93 831.173 1007.56 833.236C1010.19 835.3 1018.32 833.533 1025.47 835.286C1032.61 837.039 1147.62 838.523 1153.85 839.71C1160.08 840.896 1165.7 846.452 1172.56 847.936C1179.42 849.419 1445.42 849.702 1445.42 849.702L1445.7 771Z" fill="url(#paint11_radial_14_413)"/>
<path fill-rule="evenodd" clip-rule="evenodd" d="M1410.42 848.886L1416.25 919.246L1372.56 918.673L1350.5 918.162L1347.15 918.673L1343.52 917.395L1304.43 916.118L1258.52 913.938L1247.53 879.948L1238.96 848.899L1237.93 882.458L1238.96 904.761L1228.75 911.925L1183.52 908.196L1172.35 846.834L1153.65 838.859L1146.89 875.059L1139.12 878.196L1141.97 896.29L1098.35 897.388L1034.39 899.362L1025.29 834.571L1019.72 833.813L1026.26 870.039L1010.02 833.434L1008.94 882.641L1002.53 856.22L989.173 855.946L990.273 826.401L956.758 830.558L959.13 851.579L933.687 854.795L919.401 851.579L901.258 823.616L871.258 822.309L880.101 839.134L882.258 848.546L887.672 872.497L863.043 867.712L847.329 834.179L845.9 826.492L841.029 820.505L801.029 821.106L787 818.975C787 818.975 793.671 827.59 795.571 829.159C797.472 830.728 801.486 833.434 801.486 833.434L814.629 834.323L823.7 839.631L830.457 848.546L816.572 851.606L811.243 855.096L803.757 855.959L807.243 865.712L829.643 875.111L999.516 909.311L1200.1 924.841L1416.29 926.319L1445.15 923.064V848.546L1410.42 848.886Z" fill="url(#paint12_linear_14_413)"/>
<path fill-rule="evenodd" clip-rule="evenodd" d="M907.292 856.176L914.838 897.442C914.838 897.442 938.49 905.951 947.865 907.678C957.241 909.404 968.102 903.632 968.102 903.632L985.423 902.175L997.328 894.569L1002.66 857.7L973.033 857.349L907.292 856.176Z" fill="url(#paint13_linear_14_413)"/>
<path fill-rule="evenodd" clip-rule="evenodd" d="M907.292 856.176C907.292 856.176 935.875 845.873 939.848 846.169C943.821 846.466 956.84 846.169 956.84 846.169C956.84 846.169 967.445 850.579 973.99 851.172C980.536 851.766 1002.66 857.645 1002.66 857.645C1002.66 857.645 987.439 859.992 982.579 859.992L984.58 862.932C975.687 864.043 966.677 864.043 957.784 862.932C957.784 862.932 944.364 860.289 907.292 856.176Z" fill="url(#paint14_linear_14_413)"/>
<path fill-rule="evenodd" clip-rule="evenodd" d="M804.593 852.251L815.74 850.984L822.2 851.618L816.712 852.858L811.381 856.459L803.892 857.349C803.475 856.526 803.318 855.607 803.443 854.702C803.567 853.798 803.966 852.946 804.593 852.251Z" fill="url(#paint15_linear_14_413)"/>
<path fill-rule="evenodd" clip-rule="evenodd" d="M1079 798.848L1145.19 798.349L1184.23 798.848L1230.67 802.934L1323.16 809.353H1208.14L1159.08 807.722L1089.39 801.464L1079 798.848Z" fill="url(#paint16_linear_14_413)"/>
<path fill-rule="evenodd" clip-rule="evenodd" d="M917.296 829.11L956.826 831.173C968.11 830.63 979.325 829.196 990.354 826.885L1010.19 834.14L1025.47 835.286L1028.48 838.59L1153.85 839.71L1201.7 833.29L1225.52 829.11L1323.18 809.34L1211.36 806.117L1192.14 809.34L1153.26 807.196L1083.69 800.291C1083.69 800.291 1036.33 805.469 1027.84 807.357C1019.35 809.245 962.1 816.716 962.1 816.716L907.292 825.819C907.292 825.819 906.892 827.842 917.296 829.11Z" fill="url(#paint17_linear_14_413)"/>
<path fill-rule="evenodd" clip-rule="evenodd" d="M818.441 804.094L822.2 806.791L828.331 805.443L831.189 804.094L829.517 801.397C829.517 801.397 821.728 801.64 818.441 804.094Z" fill="#C2FFFF"/>
<path fill-rule="evenodd" clip-rule="evenodd" d="M807.666 812.549H812.811L816.512 809.758C816.512 809.758 812.61 808.625 807.666 812.549Z" fill="#C2FFFF"/>
<path fill-rule="evenodd" clip-rule="evenodd" d="M798.59 810.594L792.702 814.842L794.046 816.717H800.52L804.993 814.559L798.59 810.594Z" fill="#C2FFFF"/>
<path fill-rule="evenodd" clip-rule="evenodd" d="M1351.89 809.609L1445.37 806.777L1445.7 816.716L1351.89 809.609Z" fill="url(#paint18_linear_14_413)"/>
<path fill-rule="evenodd" clip-rule="evenodd" d="M1239.16 850.053L1271.6 852.872H1287.45L1320.6 851.456L1337.07 852.252L1359.45 852.872L1368.84 858.239L1389.77 857.349L1407.59 855.596L1413.61 850.053L1433.11 849.069L1445.37 849.703L1363.06 842.272L1319.63 846.17H1278.16L1239.16 850.053Z" fill="url(#paint19_linear_14_413)"/>
<path fill-rule="evenodd" clip-rule="evenodd" d="M871.277 822.623L882.682 821.517L890.814 820.007L903.805 821.315L922.769 822.623L944.964 819.198L907.277 825.833L901.818 824.916L899.474 825.833L871.277 822.623Z" fill="url(#paint20_linear_14_413)"/>
<path fill-rule="evenodd" clip-rule="evenodd" d="M1153.79 839.71L1175.33 836.824L1201.75 833.304L1230.85 828.045L1193.74 832.077L1140.49 839.022L1150.35 856.176L1153.79 839.71Z" fill="url(#paint21_linear_14_413)"/>
<path fill-rule="evenodd" clip-rule="evenodd" d="M1182.55 771L1224.32 775.086L1227.79 779.186L1210.51 777.905H1179.65L1156.64 775.086L1182.55 771Z" fill="url(#paint22_linear_14_413)"/>
<defs>
<linearGradient id="paint0_linear_14_413" x1="158.823" y1="957.064" x2="161.889" y2="841.783" gradientUnits="userSpaceOnUse">
<stop stop-color="#009DBA"/>
<stop offset="1" stop-color="#000E77"/>
</linearGradient>
<linearGradient id="paint1_linear_14_413" x1="341.191" y1="872.335" x2="207.641" y2="868.339" gradientUnits="userSpaceOnUse">
<stop stop-color="#6BEBED"/>
<stop offset="1" stop-color="#3994DD"/>
</linearGradient>
<linearGradient id="paint2_linear_14_413" x1="167.098" y1="959.776" x2="169.453" y2="871.261" gradientUnits="userSpaceOnUse">
<stop stop-color="#097098"/>
<stop offset="1" stop-color="#003194"/>
</linearGradient>
<linearGradient id="paint3_linear_14_413" x1="331.374" y1="903.541" x2="321.127" y2="903.235" gradientUnits="userSpaceOnUse">
<stop stop-color="#4CCCED"/>
<stop offset="1" stop-color="#39BDDD"/>
</linearGradient>
<linearGradient id="paint4_linear_14_413" x1="182.298" y1="859.327" x2="49.1771" y2="855.344" gradientUnits="userSpaceOnUse">
<stop stop-color="#0059A2"/>
<stop offset="1" stop-color="#000E77"/>
</linearGradient>
<linearGradient id="paint5_linear_14_413" x1="275.552" y1="874.72" x2="48.8007" y2="867.936" gradientUnits="userSpaceOnUse">
<stop stop-color="#4CCCED"/>
<stop offset="1" stop-color="#39BDDD"/>
</linearGradient>
<linearGradient id="paint6_linear_14_413" x1="93.861" y1="894.095" x2="-2.95833" y2="891.198" gradientUnits="userSpaceOnUse">
<stop stop-color="#4CCCED"/>
<stop offset="1" stop-color="#39BDDD"/>
</linearGradient>
<linearGradient id="paint7_linear_14_413" x1="274.952" y1="879.375" x2="275.094" y2="874.071" gradientUnits="userSpaceOnUse">
<stop stop-color="#4CCCED"/>
<stop offset="1" stop-color="#39BDDD"/>
</linearGradient>
<linearGradient id="paint8_linear_14_413" x1="122.889" y1="899.602" x2="123.487" y2="877.115" gradientUnits="userSpaceOnUse">
<stop stop-color="#0059A2"/>
<stop offset="1" stop-color="#000E77"/>
</linearGradient>
<linearGradient id="paint9_linear_14_413" x1="1116.66" y1="926.814" x2="1116.66" y2="782.598" gradientUnits="userSpaceOnUse">
<stop stop-color="#009DBA"/>
<stop offset="1" stop-color="#000E77"/>
</linearGradient>
<linearGradient id="paint10_linear_14_413" x1="787.129" y1="814.828" x2="1032.07" y2="814.828" gradientUnits="userSpaceOnUse">
<stop stop-color="#6BEBED"/>
<stop offset="1" stop-color="#3994DD"/>
</linearGradient>
<radialGradient id="paint11_radial_14_413" cx="0" cy="0" r="1" gradientUnits="userSpaceOnUse" gradientTransform="translate(1184.23 810.351) scale(187.219 176.662)">
<stop stop-color="#4CACED"/>
<stop offset="1" stop-color="#39A5DD"/>
</radialGradient>
<linearGradient id="paint12_linear_14_413" x1="1116.12" y1="926.319" x2="1116.12" y2="818.975" gradientUnits="userSpaceOnUse">
<stop stop-color="#097098"/>
<stop offset="1" stop-color="#003194"/>
</linearGradient>
<linearGradient id="paint13_linear_14_413" x1="954.954" y1="908.001" x2="954.954" y2="856.176" gradientUnits="userSpaceOnUse">
<stop stop-color="#00B4BA"/>
<stop offset="1" stop-color="#0031A2"/>
</linearGradient>
<linearGradient id="paint14_linear_14_413" x1="907.277" y1="854.948" x2="1002.64" y2="854.948" gradientUnits="userSpaceOnUse">
<stop stop-color="#4CCCED"/>
<stop offset="1" stop-color="#39BDDD"/>
</linearGradient>
<linearGradient id="paint15_linear_14_413" x1="803.406" y1="854.166" x2="822.2" y2="854.166" gradientUnits="userSpaceOnUse">
<stop stop-color="#4CCCED"/>
<stop offset="1" stop-color="#39BDDD"/>
</linearGradient>
<linearGradient id="paint16_linear_14_413" x1="1079" y1="803.851" x2="1323.16" y2="803.851" gradientUnits="userSpaceOnUse">
<stop stop-color="#0059A2"/>
<stop offset="1" stop-color="#000E77"/>
</linearGradient>
<linearGradient id="paint17_linear_14_413" x1="907.278" y1="819.993" x2="1323.16" y2="819.993" gradientUnits="userSpaceOnUse">
<stop stop-color="#4CCCED"/>
<stop offset="1" stop-color="#39BDDD"/>
</linearGradient>
<linearGradient id="paint18_linear_14_413" x1="1351.89" y1="811.754" x2="1445.7" y2="811.754" gradientUnits="userSpaceOnUse">
<stop stop-color="#0059A2"/>
<stop offset="1" stop-color="#000E77"/>
</linearGradient>
<linearGradient id="paint19_linear_14_413" x1="1239.16" y1="850.256" x2="1445.37" y2="850.256" gradientUnits="userSpaceOnUse">
<stop stop-color="#4CCCED"/>
<stop offset="1" stop-color="#39BDDD"/>
</linearGradient>
<linearGradient id="paint20_linear_14_413" x1="908.121" y1="825.833" x2="908.121" y2="819.198" gradientUnits="userSpaceOnUse">
<stop stop-color="#4CCCED"/>
<stop offset="1" stop-color="#39BDDD"/>
</linearGradient>
<linearGradient id="paint21_linear_14_413" x1="1185.66" y1="856.176" x2="1185.66" y2="828.045" gradientUnits="userSpaceOnUse">
<stop stop-color="#0059A2"/>
<stop offset="1" stop-color="#000E77"/>
</linearGradient>
<linearGradient id="paint22_linear_14_413" x1="1156.64" y1="775.086" x2="1227.79" y2="775.086" gradientUnits="userSpaceOnUse">
<stop stop-color="#4CCCED"/>
<stop offset="1" stop-color="#39BDDD"/>
</linearGradient>
</defs>
</svg>
