<svg width="1446" height="964" viewBox="0 0 1446 964" fill="none" xmlns="http://www.w3.org/2000/svg">
<path fill-rule="evenodd" clip-rule="evenodd" d="M1034.91 350.355L1037.62 367.775C1037.62 367.775 1046.85 370.871 1048.28 373.868C1049.71 376.864 1055.61 430.971 1055.61 430.971L1061.97 435.96C1061.97 435.96 1065.96 445.852 1069.13 444.748C1072.29 443.644 1075.75 430.154 1075.75 430.154C1075.75 430.154 1076.25 429.551 1077.02 428.505C1078.11 427.062 1079.12 425.564 1080.06 424.017C1081.49 421.681 1083.1 412.548 1084.13 406.011C1084.75 402.011 1085.13 398.957 1085.13 398.957L1101.33 395.545L1103.33 391.559L1116.79 383.387C1120.69 363.316 1116.52 338.126 1116.52 338.126C1112.13 334.657 1091.82 329.868 1085.05 330.471C1078.73 331.03 1065.65 335.431 1064.06 335.99H1063.89L1061.66 348.735C1050.94 345.667 1034.91 350.355 1034.91 350.355Z" fill="#394FDD"/>
<path fill-rule="evenodd" clip-rule="evenodd" d="M1034.91 350.356L1037.62 367.775C1037.62 367.775 1046.85 370.872 1048.28 373.868C1049.71 376.864 1055.61 430.971 1055.61 430.971L1061.97 435.96C1061.97 435.96 1065.96 445.853 1069.13 444.749C1072.29 443.645 1075.75 430.154 1075.75 430.154C1075.75 430.154 1076.25 429.552 1077.02 428.505L1073.73 426.942L1067.77 432.261L1064.99 425.021L1063.43 384.735L1072.19 387.301L1082.43 399.258L1084.13 406.011C1084.75 402.011 1085.13 398.957 1085.13 398.957L1101.33 395.545L1103.33 391.559L1116.79 383.388L1107.67 384.936L1106.38 375.56L1103.17 389.524L1099 389.681L1089.47 387.144C1087.98 384.096 1086.7 380.949 1085.64 377.725C1084.78 374.441 1082.77 353.166 1082.77 353.166L1082.02 333.811L1076.78 332.478L1064.18 336.005H1064L1061.77 348.75C1050.94 345.668 1034.91 350.356 1034.91 350.356Z" fill="url(#paint0_linear_7_5095)"/>
<path fill-rule="evenodd" clip-rule="evenodd" d="M1142.32 309.195C1143.98 308.693 1145.28 304.894 1146.32 301.267L1146.44 300.865C1146.94 299.145 1147.37 297.539 1147.74 296.464C1148.93 293.08 1150.33 284.88 1147.74 283.102C1146.67 282.488 1145.45 282.179 1144.22 282.209C1142.98 282.239 1141.78 282.608 1140.74 283.274C1138.8 284.292 1137.35 285.783 1137.27 286.529C1137.08 288.077 1139.83 309.983 1142.32 309.195Z" fill="#394FDD"/>
<path fill-rule="evenodd" clip-rule="evenodd" d="M1142.32 309.195C1143.98 308.693 1145.28 304.894 1146.32 301.267L1146.44 300.865H1143.99L1141.84 297.826L1140.74 283.274C1138.8 284.292 1137.35 285.783 1137.27 286.529C1137.08 288.077 1139.83 309.983 1142.32 309.195Z" fill="url(#paint1_linear_7_5095)"/>
<path fill-rule="evenodd" clip-rule="evenodd" d="M1265.72 379.115V379.316C1265.49 381.28 1263.56 397.122 1262.86 400.821C1262.09 404.706 1260.71 404.72 1260.7 404.72C1260.69 404.72 1256.69 415.76 1253.22 417.494C1249.74 419.229 1238.91 416.878 1238.91 416.878C1238.91 416.878 1225.24 406.513 1222.93 380.563C1222.93 380.563 1235.81 374.384 1244.85 374.828C1253.89 375.273 1265.72 379.115 1265.72 379.115Z" fill="url(#paint2_linear_7_5095)"/>
<path fill-rule="evenodd" clip-rule="evenodd" d="M1265.72 379.316C1265.49 381.28 1263.56 397.122 1262.86 400.821C1262.09 404.706 1260.71 404.72 1260.7 404.72C1260.69 404.72 1256.69 415.76 1253.22 417.494C1249.74 419.229 1238.91 416.878 1238.91 416.878C1238.91 416.878 1225.24 406.513 1222.93 380.563C1222.93 380.563 1226.47 398.326 1232.62 405.667C1238.77 413.007 1245.35 410.283 1245.35 410.283L1251.56 396.462L1254.56 385.653L1256.74 380.893L1259.5 390.083L1258.07 399.244H1262.12L1265.72 379.316Z" fill="url(#paint3_linear_7_5095)"/>
<path fill-rule="evenodd" clip-rule="evenodd" d="M1222.97 380.534L1234.83 380.348L1246.04 379.316L1260.67 379.101L1265.75 379.316C1265.75 379.316 1253.08 374.413 1245.85 373.681C1238.63 372.95 1222.97 380.534 1222.97 380.534Z" fill="#A0FFED"/>
<path fill-rule="evenodd" clip-rule="evenodd" d="M833.968 564.731L833.97 564.531C834.222 562.569 836.337 546.751 837.08 543.06C837.898 539.184 839.271 539.186 839.286 539.186C839.3 539.186 843.419 528.194 846.915 526.5C850.412 524.806 861.213 527.283 861.213 527.283C861.213 527.283 874.769 537.807 876.772 563.782C876.772 563.782 863.825 569.81 854.79 569.261C845.754 568.711 833.968 564.731 833.968 564.731Z" fill="url(#paint4_linear_7_5095)"/>
<path fill-rule="evenodd" clip-rule="evenodd" d="M833.97 564.531C834.222 562.57 836.337 546.751 837.08 543.061C837.898 539.185 839.271 539.186 839.286 539.186C839.3 539.187 843.419 528.195 846.915 526.5C850.412 524.806 861.213 527.283 861.213 527.283C861.213 527.283 874.769 537.807 876.772 563.782C876.772 563.782 873.444 545.979 867.378 538.567C861.312 531.156 854.7 533.803 854.7 533.803L848.331 547.55L845.202 558.324L842.972 563.059L840.318 553.837L841.854 544.693L837.806 544.646L833.97 564.531Z" fill="url(#paint5_linear_7_5095)"/>
<path fill-rule="evenodd" clip-rule="evenodd" d="M876.728 563.81L864.867 563.858L853.654 564.76L839.018 564.805L833.942 564.531C833.942 564.531 846.559 569.581 853.775 570.396C860.991 571.211 876.728 563.81 876.728 563.81Z" fill="#A0FFED"/>
<g opacity="0.2">
<path fill-rule="evenodd" clip-rule="evenodd" d="M599.073 552.401L599.076 552.201C599.327 550.239 601.442 534.421 602.186 530.73C603.003 526.854 604.377 526.856 604.391 526.856C604.405 526.856 608.524 515.864 612.021 514.17C615.517 512.476 626.319 514.953 626.319 514.953C626.319 514.953 639.875 525.477 641.877 551.451C641.877 551.451 628.931 557.48 619.895 556.931C610.859 556.381 599.073 552.401 599.073 552.401Z" fill="url(#paint6_linear_7_5095)"/>
<path fill-rule="evenodd" clip-rule="evenodd" d="M599.076 552.201C599.327 550.239 601.442 534.421 602.186 530.73C603.003 526.854 604.377 526.856 604.391 526.856C604.405 526.856 608.524 515.864 612.021 514.17C615.517 512.476 626.319 514.953 626.319 514.953C626.319 514.953 639.874 525.477 641.877 551.451C641.877 551.451 638.549 533.648 632.483 526.237C626.417 518.825 619.805 521.473 619.805 521.473L613.436 535.22L610.307 545.994L608.078 550.728L605.423 541.507L606.96 532.363L602.911 532.316L599.076 552.201Z" fill="url(#paint7_linear_7_5095)"/>
<path fill-rule="evenodd" clip-rule="evenodd" d="M641.834 551.48L629.973 551.528L618.76 552.43L604.123 552.475L599.047 552.2C599.047 552.2 611.665 557.251 618.88 558.066C626.096 558.881 641.834 551.48 641.834 551.48Z" fill="#A0FFED"/>
</g>
<path fill-rule="evenodd" clip-rule="evenodd" d="M0 503.017L47.8461 500.85C54.8562 500.85 69.4056 501.166 72.2525 500.392C78.4471 498.7 89.8921 492.334 98.2326 491.818C117.761 498.6 171.838 505.51 183.312 505.51C194.785 505.51 201.237 503.001 201.237 503.001L207.417 507.918C207.417 507.918 259.363 506.055 270.594 504.177C281.824 502.298 307.561 497.123 314.113 496.191L320.665 495.245L330.494 507.918C330.494 507.918 407.232 509.739 416.073 511.603C424.915 513.467 466.818 514.47 466.818 514.47L478.763 512.119C478.763 512.119 514.843 492.42 526.532 488.205C526.532 488.205 544.901 477.883 552.283 476.951C559.665 476.019 571.577 480.101 571.577 480.101C571.577 480.101 559.193 490.084 559.193 493.367C559.193 496.65 570.366 520.09 570.366 520.09C570.366 520.09 575.43 514.929 576.675 511.187C577.919 507.445 579.693 477.869 580.967 473.912C582.24 469.955 590.981 458.987 590.981 458.987C590.981 458.987 592.612 433.554 593.985 429.468C595.359 425.382 595.344 414.916 596.746 411.934C596.746 411.934 600.623 406.071 601.968 408.694C603.313 411.318 601.568 444.134 601.968 449.769C602.369 455.403 604.057 469.84 604.386 472.908C604.715 475.976 604.386 499.947 604.386 499.947C604.386 499.947 604.457 521.983 606.217 526.198C607.977 530.413 640.352 538.398 640.352 538.398C640.352 538.398 650.366 532.764 658.435 533.237C666.503 533.71 668.592 536.104 672.441 538.398C676.289 540.692 770.266 546.369 779.208 546.369C788.149 546.369 808.521 549.237 811.439 551.989C814.358 554.742 826.404 550.556 836.289 551.989C846.175 553.423 885.689 552.577 890.023 552.993C894.358 553.409 906.547 549.653 906.547 549.653C906.547 549.653 942.556 553.868 951.698 556.219C957.385 557.601 963.32 557.601 969.008 556.219C969.008 556.219 988.436 559.502 994.516 561.38C1000.6 563.258 1033.14 567.946 1042.34 568.878C1051.54 569.81 1058.16 576.849 1067.99 576.849C1077.82 576.849 1446 614.83 1446 614.83V964L0 962.879V503.017Z" fill="url(#paint8_linear_7_5095)"/>
<path fill-rule="evenodd" clip-rule="evenodd" d="M480.325 514.396C480.325 514.396 500.44 514.668 509.796 514.396C519.152 514.123 533.616 506.138 537.579 503.6C541.542 501.063 542.629 488.719 540.841 484.776C539.052 480.834 483.43 509.966 480.325 514.396Z" fill="#4CA4ED"/>
<path fill-rule="evenodd" clip-rule="evenodd" d="M545.8 482.815C541.898 486.026 561.505 482.815 567.768 482.815C574.031 482.815 578.847 478.292 578.847 478.292C573.494 476.089 567.219 475.333 561.157 476.163C555.096 476.993 549.648 479.352 545.8 482.815Z" fill="#394FDD"/>
<path fill-rule="evenodd" clip-rule="evenodd" d="M588.309 471.83C588.309 471.83 599.382 473.149 603.359 470.397C607.336 467.644 609.439 455.357 609.439 455.357L598.266 456.877C598.266 456.877 589.167 466.139 588.309 471.83Z" fill="#394FDD"/>
<path fill-rule="evenodd" clip-rule="evenodd" d="M613.502 524.116C613.502 524.116 599.754 531.084 593.96 532.517C593.96 532.517 613.488 534.324 626.492 535.385C632.964 536.059 639.48 536.217 645.977 535.858C645.977 535.858 618.581 526.582 613.502 524.116Z" fill="#394FDD"/>
<path fill-rule="evenodd" clip-rule="evenodd" d="M649.382 535.385C649.382 535.385 653.974 537.091 663.016 536.962C672.057 536.833 673.831 532.79 673.831 532.79C669.882 531.058 665.55 530.386 661.263 530.841C656.976 531.296 652.881 532.862 649.382 535.385Z" fill="#394FDD"/>
<path fill-rule="evenodd" clip-rule="evenodd" d="M268.193 505.923C268.193 505.923 312.371 492.748 327.936 493.163L332.786 501.35C332.786 501.35 304.416 515.156 268.193 505.923Z" fill="#394FDD"/>
<path fill-rule="evenodd" clip-rule="evenodd" d="M0 502.616C0 502.616 44.1775 489.44 59.7427 489.856L64.5925 498.042C64.5925 498.042 36.2233 511.849 0 502.616Z" fill="#394FDD"/>
<path fill-rule="evenodd" clip-rule="evenodd" d="M190.582 503.486C190.582 503.486 200.167 505.278 205.26 505.55C207.895 505.824 210.556 505.47 213.028 504.518L208.508 500.977C208.508 500.977 197.034 500.618 190.582 503.486Z" fill="#394FDD"/>
<path fill-rule="evenodd" clip-rule="evenodd" d="M105.503 489.794C96.238 490.316 87.2751 493.284 79.5233 498.396C79.5233 498.396 90.8681 501.579 97.921 499.514C104.974 497.45 107.95 492.231 105.503 489.794Z" fill="#394FDD"/>
<path fill-rule="evenodd" clip-rule="evenodd" d="M723.059 551.571C723.059 551.571 772.487 543.155 786.493 544.288C800.498 545.421 818.724 549.908 818.724 549.908C818.724 549.908 787.008 554.926 775.877 555.227C764.747 555.528 723.059 551.571 723.059 551.571Z" fill="#394FDD"/>
<path fill-rule="evenodd" clip-rule="evenodd" d="M603.502 411.645C603.502 411.645 599.739 430.842 599.925 432.706C600.111 434.569 598.867 450.942 598.867 450.942C598.867 450.942 601.356 444.304 601.184 443.616C601.277 441.692 601.497 439.776 601.842 437.881C601.842 437.881 600.912 433.336 601.842 431.257C602.79 429.594 604.054 428.133 605.562 426.956L606.435 435.1L608.538 417.81L603.502 411.645Z" fill="url(#paint9_linear_7_5095)"/>
<path fill-rule="evenodd" clip-rule="evenodd" d="M541.935 485.322L545.263 506.9C545.263 506.9 566.182 508.44 569.605 504.775C573.028 501.11 575.044 491.141 575.044 491.141L578.847 478.077C578.847 478.077 577.383 481.357 567.779 482.797C558.176 484.238 541.935 485.322 541.935 485.322Z" fill="url(#paint10_linear_7_5095)"/>
<path fill-rule="evenodd" clip-rule="evenodd" d="M514.274 514.511C514.274 514.511 521.327 521.12 524.575 521.306C527.822 521.493 540.569 520.117 540.569 520.117C540.569 520.117 546.621 512.432 547.164 509.708C547.708 506.984 541.685 485.45 541.685 485.45C541.685 485.45 540.841 500.002 539.21 501.809C537.579 503.615 522.057 512.446 514.274 514.511Z" fill="url(#paint11_linear_7_5095)"/>
<path fill-rule="evenodd" clip-rule="evenodd" d="M603.359 470.425C603.359 470.425 600.855 495.242 601.842 496.676C602.83 498.109 603.731 503.371 604.26 505.005C604.789 506.64 601.842 522.209 601.842 522.209L595.576 532.647L613.502 524.045C613.502 524.045 612.958 496.963 613.044 492.791C613.13 488.619 613.044 470.354 613.044 470.354L611.614 470.755L609.468 450.87L609.325 434.555L609.797 416.261V413.394C609.797 413.394 607.88 422.268 607.179 423.616C606.478 424.964 607.565 445.25 607.565 445.25L607.207 455.572L609.325 456.203C609.325 456.203 606.249 466.999 603.359 470.425Z" fill="url(#paint12_linear_7_5095)"/>
<path fill-rule="evenodd" clip-rule="evenodd" d="M818.724 549.908L782.43 555.241H770.555C770.555 555.241 786.407 556.517 794.618 557.377C802.83 558.238 828.023 550.496 828.023 550.496L818.724 549.908Z" fill="url(#paint13_linear_7_5095)"/>
<path fill-rule="evenodd" clip-rule="evenodd" d="M682.773 537.005C682.773 537.005 674.918 542.74 669.897 544.173C664.875 545.607 646.006 540.589 646.006 540.589L657.966 540.704L661.227 536.991C661.227 536.991 670.584 535.643 673.845 532.819L682.773 537.005Z" fill="url(#paint14_linear_7_5095)"/>
<path fill-rule="evenodd" clip-rule="evenodd" d="M337.764 505.837C337.764 505.837 328.737 510.984 322.929 512.346C317.12 513.708 288.923 512.346 288.923 512.346L278.451 509.106C278.451 509.106 299.366 509.952 313.143 506.812C319.805 505.433 326.367 503.608 332.786 501.35L337.764 505.837Z" fill="url(#paint15_linear_7_5095)"/>
<path fill-rule="evenodd" clip-rule="evenodd" d="M69.571 502.53C69.571 502.53 60.5438 507.677 54.7355 509.039C48.9272 510.401 20.7296 509.039 20.7296 509.039L10.2575 505.799C10.2575 505.799 31.1732 506.644 44.95 503.505C51.6118 502.125 58.174 500.301 64.5924 498.042L69.571 502.53Z" fill="url(#paint16_linear_7_5095)"/>
<path fill-rule="evenodd" clip-rule="evenodd" d="M208.508 500.977L202.928 503.3H191.183C191.183 503.3 204.774 508.891 214.688 505.895L208.508 500.977Z" fill="url(#paint17_linear_7_5095)"/>
<path fill-rule="evenodd" clip-rule="evenodd" d="M105.503 489.794C105.503 489.794 102.027 497.565 97.9208 499.457C97.9208 499.457 112.227 501.278 122.671 494.626L105.503 489.794Z" fill="url(#paint18_linear_7_5095)"/>
<path fill-rule="evenodd" clip-rule="evenodd" d="M574.818 520.632V530.897C574.818 530.897 569.353 530.783 562.5 530.754C557.366 530.594 552.249 530.057 547.193 529.148L532.701 520.632C532.701 520.632 557.822 521.693 565.419 521.321C573.015 520.948 574.818 520.632 574.818 520.632Z" fill="url(#paint19_linear_7_5095)"/>
<path fill-rule="evenodd" clip-rule="evenodd" d="M532.701 520.632C532.701 520.632 557.937 512.432 563.659 512.346C569.382 512.26 574.818 520.632 574.818 520.632C574.818 520.632 571.671 523.256 563.659 523.184C555.648 523.113 532.701 520.632 532.701 520.632Z" fill="#4CA4ED"/>
<path fill-rule="evenodd" clip-rule="evenodd" d="M585.648 508.618C582.764 511.529 580.128 514.675 577.765 518.023C577.765 518.023 588.366 521.407 593.96 520.633C595.651 520.341 597.249 519.649 598.62 518.614C599.991 517.579 601.096 516.232 601.842 514.683L600.297 514.511L601.842 511.299C601.842 511.299 592.887 506.267 585.648 508.618Z" fill="#4CA4ED"/>
<path fill-rule="evenodd" clip-rule="evenodd" d="M601.27 427.386C601.27 427.386 604.975 426.756 606.435 424.949C607.894 423.143 609.754 413.38 609.754 413.38L609.328 402.974C609.328 402.974 605.619 404.72 604.26 407.043C602.901 409.365 601.27 427.386 601.27 427.386Z" fill="#394FDD"/>
<path fill-rule="evenodd" clip-rule="evenodd" d="M1213.59 115.649C1213.65 115.697 1213.7 115.757 1213.73 115.824C1213.77 115.892 1213.79 115.966 1213.79 116.042C1213.79 116.117 1213.78 116.193 1213.76 116.264C1213.73 116.335 1213.69 116.4 1213.63 116.454C1213.58 116.508 1213.52 116.551 1213.45 116.579C1213.38 116.607 1213.3 116.62 1213.23 116.617C1213.15 116.614 1213.08 116.595 1213.01 116.562C1212.94 116.529 1212.88 116.482 1212.83 116.424C1212.77 116.376 1212.72 116.316 1212.69 116.249C1212.66 116.181 1212.64 116.107 1212.63 116.031C1212.63 115.956 1212.64 115.88 1212.67 115.809C1212.69 115.738 1212.73 115.673 1212.79 115.619C1212.84 115.565 1212.9 115.522 1212.97 115.494C1213.04 115.466 1213.12 115.453 1213.19 115.456C1213.27 115.459 1213.34 115.478 1213.41 115.511C1213.48 115.544 1213.54 115.591 1213.59 115.649Z" fill="white"/>
<defs>
<linearGradient id="paint0_linear_7_5095" x1="1079.38" y1="444.726" x2="1074.89" y2="332.786" gradientUnits="userSpaceOnUse">
<stop stop-color="#1F4D95"/>
<stop offset="0.98" stop-color="#291689"/>
</linearGradient>
<linearGradient id="paint1_linear_7_5095" x1="1141.84" y1="309.224" x2="1141.84" y2="283.274" gradientUnits="userSpaceOnUse">
<stop stop-color="#0E2463"/>
<stop offset="1" stop-color="#004D93"/>
</linearGradient>
<linearGradient id="paint2_linear_7_5095" x1="1244.38" y1="418.111" x2="1244.38" y2="374.785" gradientUnits="userSpaceOnUse">
<stop stop-color="#4C51DD"/>
<stop offset="0.99" stop-color="#57CFFF"/>
</linearGradient>
<linearGradient id="paint3_linear_7_5095" x1="1244.36" y1="418.111" x2="1244.36" y2="379.316" gradientUnits="userSpaceOnUse">
<stop stop-color="#3E47BE"/>
<stop offset="1" stop-color="#239ABA"/>
</linearGradient>
<linearGradient id="paint4_linear_7_5095" x1="855.763" y1="525.987" x2="855.259" y2="569.309" gradientUnits="userSpaceOnUse">
<stop stop-color="#4C51DD"/>
<stop offset="0.99" stop-color="#57CFFF"/>
</linearGradient>
<linearGradient id="paint5_linear_7_5095" x1="855.777" y1="525.987" x2="855.326" y2="564.78" gradientUnits="userSpaceOnUse">
<stop stop-color="#3E47BE"/>
<stop offset="1" stop-color="#239ABA"/>
</linearGradient>
<linearGradient id="paint6_linear_7_5095" x1="620.869" y1="513.656" x2="620.364" y2="556.979" gradientUnits="userSpaceOnUse">
<stop stop-color="#4C51DD"/>
<stop offset="0.99" stop-color="#57CFFF"/>
</linearGradient>
<linearGradient id="paint7_linear_7_5095" x1="620.883" y1="513.657" x2="620.431" y2="552.449" gradientUnits="userSpaceOnUse">
<stop stop-color="#3E47BE"/>
<stop offset="1" stop-color="#239ABA"/>
</linearGradient>
<linearGradient id="paint8_linear_7_5095" x1="640.438" y1="598.799" x2="640.438" y2="407.963" gradientUnits="userSpaceOnUse">
<stop stop-color="#012266"/>
<stop offset="1" stop-color="#005791"/>
</linearGradient>
<linearGradient id="paint9_linear_7_5095" x1="603.702" y1="450.942" x2="603.702" y2="411.645" gradientUnits="userSpaceOnUse">
<stop stop-color="#0168DD"/>
<stop offset="0.99" stop-color="#86F9FF"/>
</linearGradient>
<linearGradient id="paint10_linear_7_5095" x1="560.363" y1="507.228" x2="560.363" y2="478.077" gradientUnits="userSpaceOnUse">
<stop stop-color="#200377"/>
<stop offset="1" stop-color="#005497"/>
</linearGradient>
<linearGradient id="paint11_linear_7_5095" x1="530.741" y1="521.321" x2="530.741" y2="485.45" gradientUnits="userSpaceOnUse">
<stop stop-color="#200377"/>
<stop offset="1" stop-color="#005497"/>
</linearGradient>
<linearGradient id="paint12_linear_7_5095" x1="604.532" y1="532.675" x2="604.532" y2="413.38" gradientUnits="userSpaceOnUse">
<stop stop-color="#200377"/>
<stop offset="1" stop-color="#005497"/>
</linearGradient>
<linearGradient id="paint13_linear_7_5095" x1="799.339" y1="557.449" x2="799.339" y2="549.908" gradientUnits="userSpaceOnUse">
<stop stop-color="#200377"/>
<stop offset="1" stop-color="#005497"/>
</linearGradient>
<linearGradient id="paint14_linear_7_5095" x1="664.375" y1="544.431" x2="664.375" y2="532.833" gradientUnits="userSpaceOnUse">
<stop stop-color="#200377"/>
<stop offset="1" stop-color="#005497"/>
</linearGradient>
<linearGradient id="paint15_linear_7_5095" x1="278.451" y1="507.142" x2="337.764" y2="507.142" gradientUnits="userSpaceOnUse">
<stop stop-color="#200377"/>
<stop offset="1" stop-color="#005497"/>
</linearGradient>
<linearGradient id="paint16_linear_7_5095" x1="10.2575" y1="503.834" x2="69.571" y2="503.834" gradientUnits="userSpaceOnUse">
<stop stop-color="#200377"/>
<stop offset="1" stop-color="#005497"/>
</linearGradient>
<linearGradient id="paint17_linear_7_5095" x1="191.183" y1="503.816" x2="214.688" y2="503.816" gradientUnits="userSpaceOnUse">
<stop stop-color="#200377"/>
<stop offset="1" stop-color="#005497"/>
</linearGradient>
<linearGradient id="paint18_linear_7_5095" x1="97.9208" y1="494.74" x2="122.671" y2="494.74" gradientUnits="userSpaceOnUse">
<stop stop-color="#200377"/>
<stop offset="1" stop-color="#005497"/>
</linearGradient>
<linearGradient id="paint19_linear_7_5095" x1="532.701" y1="525.765" x2="574.818" y2="525.765" gradientUnits="userSpaceOnUse">
<stop stop-color="#200377"/>
<stop offset="1" stop-color="#005497"/>
</linearGradient>
</defs>
</svg>
