<svg width="1446" height="964" viewBox="0 0 1446 964" fill="none" xmlns="http://www.w3.org/2000/svg">
<mask id="mask0_10_164" style="mask-type:luminance" maskUnits="userSpaceOnUse" x="0" y="0" width="1446" height="964">
<path d="M1446 0H0V964H1446V0Z" fill="white"/>
</mask>
<g mask="url(#mask0_10_164)">
<path d="M-32.1796 989.654L1470.48 989.654L1470.48 -4.66412L-32.1796 -4.66412L-32.1796 989.654Z" fill="#2E2BD8"/>
<path d="M1470.46 51.23L-30.7915 108.974L1470.46 272.686V51.23Z" fill="#3B4CE3"/>
<path d="M-32.1812 1000.5H1470.46V197.364L-32.1812 88.2358V1000.5Z" fill="#4474EF"/>
<path d="M-27.2054 235.796L1470.46 226.622V522.147L-30.7915 513.802L-27.2054 235.796Z" fill="#5280F8"/>
<path d="M1470.46 384.34L-32.1812 401.281V989.654L1470.46 999.849V384.34Z" fill="#5F8CFE"/>
<path d="M-32.1812 999.849H1470.46V522.147L-32.1812 439.983V999.849Z" fill="#7199FF"/>
<path d="M1470.46 565.803L-30.7915 619.808L-14.712 957.196L1489.36 914.698L1470.46 565.803Z" fill="#79B6FE"/>
<g opacity="0.2">
<path d="M1489.36 309.827L229.741 293.444L1489.36 277.061V309.827Z" fill="white"/>
</g>
<g opacity="0.2">
<path d="M-38.6763 54.7571L852.079 71.1398L-38.6763 87.5226V54.7571Z" fill="white"/>
</g>
<path opacity="0.1" d="M722.461 818.926C839.92 818.926 935.139 723.737 935.139 606.316C935.139 488.895 839.92 393.707 722.461 393.707C605.002 393.707 509.783 488.895 509.783 606.316C509.783 723.737 605.002 818.926 722.461 818.926Z" fill="white"/>
<path opacity="0.1" d="M722.46 861.463C863.419 861.463 977.689 747.23 977.689 606.316C977.689 465.403 863.419 351.169 722.46 351.169C581.501 351.169 467.231 465.403 467.231 606.316C467.231 747.23 581.501 861.463 722.46 861.463Z" fill="white"/>
<path opacity="0.1" d="M975.457 859.246C1115.19 719.562 1115.19 493.089 975.457 353.405C835.728 213.72 609.183 213.72 469.454 353.405C329.725 493.089 329.725 719.562 469.454 859.246C609.183 998.93 835.728 998.93 975.457 859.246Z" fill="white"/>
<path d="M748.576 766.992C837.358 752.585 897.647 668.957 883.236 580.204C868.825 491.45 785.17 431.18 696.388 445.587C607.606 459.993 547.316 543.621 561.728 632.375C576.139 721.129 659.794 781.399 748.576 766.992Z" fill="#D5E6FF"/>
</g>
<path style="mix-blend-mode:screen" fill-rule="evenodd" clip-rule="evenodd" d="M877.623 106.375C877.623 106.375 918.776 146.248 943.244 161.756C967.711 177.263 981.073 170.628 981.073 170.628C981.073 170.628 1002.69 177.439 1015.89 188.43C1029.09 199.421 1031.26 207.767 1039.45 218.846C1047.64 229.925 1072.67 226.9 1072.67 226.9L1129.74 258.923L1187.76 293.827C1187.76 293.827 1130.36 257.433 1124.26 246.354C1118.15 235.275 1071.12 194.993 1062.93 183.914C1054.75 172.835 1043.48 175.056 1035.28 159.549C1027.08 144.041 1017.88 126.297 1004.57 113.026C991.26 99.7543 963.631 79.7887 948.769 70.9314C933.908 62.074 910.359 53.2167 910.359 53.2167L869.395 43.2339L800.4 2.03406H624.113C624.113 2.03406 736.073 86.4244 776.929 103.043C792.385 109.342 877.623 106.375 877.623 106.375Z" fill="url(#paint0_linear_10_164)"/>
<path style="mix-blend-mode:screen" fill-rule="evenodd" clip-rule="evenodd" d="M1043.31 131.198C1043.31 131.198 1074.32 153.177 1082.99 161.221C1091.66 169.265 1120.15 172.84 1125.73 175.082C1131.3 177.324 1144.67 197.441 1144.67 197.441C1144.67 197.441 1152.36 212.328 1154.22 222.995C1156.07 233.662 1180.8 245.75 1180.8 245.75L1204.29 256.432C1204.29 256.432 1167.92 212.152 1163.86 201.427C1159.81 190.701 1164.77 180.914 1154.23 175.053C1143.69 169.192 1118.08 159.873 1115.38 149.147C1112.67 138.422 1071.01 100.795 1057.79 94.1277C1044.57 87.4609 1005.39 71.3286 1005.39 71.3286C1005.39 71.3286 1030.87 116.443 1043.31 131.198Z" fill="url(#paint1_linear_10_164)"/>
<path d="M391.662 223.835C405.659 186.773 338.531 121.985 241.727 79.1268C144.923 36.2688 55.1004 31.5705 41.1031 68.6328C27.1058 105.695 94.234 170.483 191.038 213.341C287.842 256.199 377.664 260.898 391.662 223.835Z" fill="url(#paint2_radial_10_164)" style="mix-blend-mode:screen"/>
<path style="mix-blend-mode:screen" fill-rule="evenodd" clip-rule="evenodd" d="M1170.7 286.599C1170.7 286.599 1239.14 327.883 1247.81 335.917C1256.47 343.952 1242.4 349.088 1246.45 353.845C1256.52 365.552 1308.33 381.328 1308.33 381.328C1311.02 382.49 1313.39 384.368 1315.22 386.789C1317.06 389.209 1318.3 392.093 1318.83 395.173C1320.68 405.841 1332.35 412.734 1332.35 412.734L1355.8 423.461C1355.8 423.461 1306.21 378.475 1302.14 367.747C1298.07 357.02 1291.64 355.762 1281.11 349.952C1270.58 344.142 1235.57 328.922 1232.87 318.195C1230.17 307.468 1166.4 223.158 1153.13 216.47C1139.86 209.782 1090.24 201.587 1090.24 201.587C1090.24 201.587 1158.33 271.847 1170.7 286.599Z" fill="url(#paint3_linear_10_164)"/>
<path style="mix-blend-mode:screen" fill-rule="evenodd" clip-rule="evenodd" d="M319.09 0C319.09 0 398.643 74.5299 428.478 88.3462C428.478 88.3462 465.853 85.3133 470.907 88.3462C475.96 91.379 498.12 106.25 500.458 112.067C502.795 117.883 504.282 130.322 508.876 136.124C513.47 141.926 554.817 163.523 569.343 166.013C583.869 168.504 619.095 175.962 625.986 180.943C632.877 185.925 630.58 197.543 634.404 203.36C638.228 209.176 661.199 219.125 670.374 225.762C679.548 232.399 708.208 230.743 716.869 234.89C725.531 239.036 743.894 251.49 743.894 251.49L750.785 258.127C750.785 258.127 746.947 272.236 750.785 276.397C754.622 280.558 770.688 283.855 770.688 283.855C770.688 283.855 758.446 270.58 758.446 262.288C758.446 253.995 750.785 247.343 750.785 247.343C750.785 247.343 712.518 228.296 707.154 223.271C701.79 218.246 653.51 175.141 649.713 167.669C645.917 160.197 637.471 139.45 632.877 133.634C628.283 127.817 584.598 115.378 573.937 110.397C563.276 105.415 549.467 90.4853 542.927 78.0316C536.387 65.5779 524.185 31.1471 520.361 26.5758C516.537 22.0046 479.017 0 479.017 0H319.09Z" fill="url(#paint4_linear_10_164)"/>
<path style="mix-blend-mode:screen" fill-rule="evenodd" clip-rule="evenodd" d="M612.042 278.659C612.042 278.659 646.766 303.262 656.464 312.341C666.161 321.421 698.05 325.375 704.29 327.879C710.53 330.383 725.508 352.95 725.508 352.95C725.508 352.95 734.138 369.63 736.205 381.58C738.271 393.53 765.919 407.076 765.919 407.076L792.175 419.099C792.175 419.099 751.521 369.41 746.983 357.343C742.445 345.276 747.996 334.293 736.178 327.776C724.36 321.26 695.659 310.73 692.701 298.707C689.743 286.684 643.039 244.523 628.249 237.069C613.46 229.615 569.591 211.559 569.591 211.559C569.591 211.559 598.117 262.155 612.042 278.659Z" fill="url(#paint5_linear_10_164)"/>
<path style="mix-blend-mode:screen" fill-rule="evenodd" clip-rule="evenodd" d="M1220.31 378.142C1220.31 378.142 1255.03 402.679 1264.72 411.735C1274.42 420.79 1306.3 424.733 1312.55 427.231C1318.81 429.729 1333.76 452.221 1333.76 452.221C1333.76 452.221 1342.38 468.857 1344.45 480.775C1346.52 492.693 1374.16 506.203 1374.16 506.203L1400.42 518.194C1400.42 518.194 1359.72 468.711 1355.19 456.72C1350.65 444.728 1356.2 433.731 1344.38 427.231C1332.57 420.732 1303.87 410.23 1300.91 398.239C1297.96 386.248 1251.26 344.199 1236.47 336.764C1221.69 329.33 1177.84 311.278 1177.84 311.278C1177.84 311.278 1206.4 361.638 1220.31 378.142Z" fill="url(#paint6_linear_10_164)"/>
<path style="mix-blend-mode:screen" fill-rule="evenodd" clip-rule="evenodd" d="M1073.55 119.393C1073.55 119.393 1119.73 164.129 1147.13 181.553C1174.54 198.976 1189.59 191.501 1189.59 191.501C1189.59 191.501 1213.79 199.152 1228.61 211.485C1243.42 223.817 1241.11 246.186 1250.3 258.621C1259.48 271.056 1297.36 262.351 1297.36 262.351L1354.09 330.246L1391.61 372.979C1391.61 372.979 1351.09 315.807 1344.33 303.372C1337.58 290.937 1290.47 218.829 1281.28 206.423C1272.1 194.017 1259.48 196.489 1250.3 179.081C1241.11 161.672 1230.79 141.761 1215.87 126.839C1200.94 111.917 1169.95 89.5486 1153.33 79.6006C1136.72 69.6527 1110.29 59.7193 1110.29 59.7193L1064.36 48.5278L1019.61 22.0925L1006.04 0H786.569C786.569 0 914.975 97.0681 960.764 115.721C978.066 122.713 1073.55 119.393 1073.55 119.393Z" fill="url(#paint7_linear_10_164)"/>
<path style="mix-blend-mode:screen" fill-rule="evenodd" clip-rule="evenodd" d="M1254.97 29.5715C1254.97 29.5715 1280.04 68.0931 1297.89 79.2663C1315.74 90.4396 1338.47 95.2219 1346.88 106.395C1355.29 117.568 1388.11 143.162 1388.11 143.162L1435.13 164.192C1435.13 164.192 1371.1 105.693 1364.08 92.0484C1357.06 78.4035 1338.25 67.1863 1338.25 67.1863L1254.97 29.5715Z" fill="url(#paint8_linear_10_164)"/>
<path style="mix-blend-mode:screen" fill-rule="evenodd" clip-rule="evenodd" d="M2.5 291.5C2.5 291.5 50.1387 322.54 60.9376 332.68C71.7364 342.82 100.768 342.044 110.364 352.681C119.96 363.319 137.205 367.986 149.261 382.442C161.317 396.898 201.268 407.536 214.878 424.596C228.489 441.657 251.654 448.636 263.331 456.332C275.009 464.029 311.19 482.669 311.19 482.669C311.19 482.669 267.021 460.298 259.831 437.911C252.641 415.525 256.722 387.651 256.722 387.651C256.722 387.651 265.967 385.456 256.722 366.933C247.478 348.409 255.195 336.586 243.572 321.048C231.948 305.509 226.407 277.533 234.341 264.481C242.274 251.43 260.804 213.109 256.722 190.313C252.641 167.517 288.565 150.808 288.565 150.808C288.565 150.808 342.91 156.397 349.384 165.717C355.858 175.038 403.797 190.357 403.797 190.357C403.797 190.357 442.019 192.64 447.222 190.357C452.426 188.075 468.847 202.984 482.16 216.036C495.473 229.087 498.095 221.142 516.624 235.057C535.154 248.972 538.709 270.173 549.332 280.415C549.332 280.415 537.438 257.897 533.694 235.057C544.727 236.4 555.682 238.402 566.51 241.056C580.296 244.787 586.891 243.982 596.419 251.825C602.646 256.865 609.352 261.171 616.422 264.672C616.422 264.672 600.298 248.928 596.419 240.222C592.541 231.516 589.472 222.825 584.499 219.504C579.525 216.182 523.22 200.819 508.812 193.576C494.405 186.333 482.16 162.557 482.16 162.557C482.16 162.557 449.142 112.341 428.314 111.58C407.487 110.819 370.982 99.9625 357.696 89.8227C344.41 79.6829 285.628 0 285.628 0H2.5V291.5Z" fill="url(#paint9_linear_10_164)"/>
<defs>
<linearGradient id="paint0_linear_10_164" x1="916.979" y1="293.827" x2="916.979" y2="19.6144" gradientUnits="userSpaceOnUse">
<stop offset="0.01" stop-color="#00295C"/>
<stop offset="1"/>
</linearGradient>
<linearGradient id="paint1_linear_10_164" x1="1104.84" y1="256.476" x2="1104.84" y2="71.3286" gradientUnits="userSpaceOnUse">
<stop offset="0.01" stop-color="#0045B3"/>
<stop offset="1"/>
</linearGradient>
<radialGradient id="paint2_radial_10_164" cx="0" cy="0" r="1" gradientUnits="userSpaceOnUse" gradientTransform="translate(214.578 150.509) rotate(-69.31) scale(72.1481 191.276)">
<stop stop-color="#703E90"/>
<stop offset="1"/>
</radialGradient>
<linearGradient id="paint3_linear_10_164" x1="1223.03" y1="423.461" x2="1223.03" y2="201.587" gradientUnits="userSpaceOnUse">
<stop offset="0.01" stop-color="#00295C"/>
<stop offset="1"/>
</linearGradient>
<linearGradient id="paint4_linear_10_164" x1="552.223" y1="283.855" x2="552.223" y2="22.0339" gradientUnits="userSpaceOnUse">
<stop/>
<stop offset="0.96" stop-color="#001122"/>
<stop offset="1" stop-color="#1D1660"/>
</linearGradient>
<linearGradient id="paint5_linear_10_164" x1="680.924" y1="419.026" x2="680.924" y2="211.559" gradientUnits="userSpaceOnUse">
<stop/>
<stop offset="0.96" stop-color="#001122"/>
<stop offset="1" stop-color="#1D1660"/>
</linearGradient>
<linearGradient id="paint6_linear_10_164" x1="1289.18" y1="518.136" x2="1289.18" y2="311.219" gradientUnits="userSpaceOnUse">
<stop/>
<stop offset="0.96" stop-color="#001122"/>
</linearGradient>
<linearGradient id="paint7_linear_10_164" x1="1102.9" y1="372.964" x2="1102.9" y2="22.0341" gradientUnits="userSpaceOnUse">
<stop/>
<stop offset="0.96" stop-color="#001122"/>
</linearGradient>
<linearGradient id="paint8_linear_10_164" x1="1345.05" y1="164.192" x2="1345.05" y2="29.5715" gradientUnits="userSpaceOnUse">
<stop/>
<stop offset="0.96" stop-color="#001122"/>
<stop offset="1" stop-color="#1D1660"/>
</linearGradient>
<linearGradient id="paint9_linear_10_164" x1="-3.67975" y1="252.352" x2="616.422" y2="252.352" gradientUnits="userSpaceOnUse">
<stop stop-color="#1D1660"/>
<stop offset="0.04" stop-color="#001122"/>
<stop offset="1"/>
</linearGradient>
</defs>
</svg>
