<svg width="1446" height="964" viewBox="0 0 1446 964" fill="none" xmlns="http://www.w3.org/2000/svg">
<mask id="mask0_14_413" style="mask-type:alpha" maskUnits="userSpaceOnUse" x="0" y="843" width="341" height="102">
<rect y="843" width="341" height="102" fill="#D9D9D9"/>
</mask>
<g mask="url(#mask0_14_413)">
<path fill-rule="evenodd" clip-rule="evenodd" d="M92.3789 848.826C33.8064 849.417 -3.11411 848.826 -3.11411 848.826C-4.16021 850.829 224.298 847.048 223.055 848.826L224.59 852.275L284.109 857.613L340.846 866.015C339.305 868.884 337.661 871.646 335.919 874.288C334.888 875.576 333.772 876.727 332.587 877.727C332.587 877.727 331.156 885.693 330.636 888.97C330.351 891.123 330.512 893.331 331.101 895.336L328.247 906.544L246.551 927.898L194.697 926.519L89.0777 937.593L-3.11407 944.813L-3.11411 848.826L81.669 846.348L92.3789 848.826Z" fill="url(#paint0_linear_14_413)"/>
<path fill-rule="evenodd" clip-rule="evenodd" d="M207.826 852.153C207.826 852.153 212.881 848.997 216.084 848.553C219.287 848.11 300.351 854.366 305.191 854.743L316.042 853.866C316.042 853.866 318.321 850.691 320.472 851.287C321.835 851.707 323.148 852.381 324.374 853.29C324.374 853.29 325.05 856.749 325.717 857.64C326.385 858.532 329.286 859.321 329.286 859.321L331.456 861.849L335.043 858.762L338.797 862.055L341.11 865.828C341.11 865.828 335.209 866.749 333.404 867.381C331.6 868.013 304.01 865.013 295.811 866.381C287.613 867.749 278.425 867.504 277.759 868.371C277.094 869.238 268.584 871.363 265.496 870.828C262.408 870.293 231.144 862.902 231.144 862.902L213.235 857.226L207.826 852.153Z" fill="url(#paint1_linear_14_413)"/>
<path fill-rule="evenodd" clip-rule="evenodd" d="M15.7309 881.854L10.9595 939.786L33.7257 939.919L45.2275 939.803L46.96 940.271L48.8822 939.268L69.2742 938.756L93.2389 937.595L99.799 909.722L105.029 884.24L104.737 911.924L103.651 930.299L108.79 936.348L132.442 933.9L139.774 883.46L149.71 877.144L152.337 907.085L156.307 909.78L154.372 924.658L177.068 926.168L210.33 928.682L216.667 875.387L219.588 874.839L215.286 904.617L224.649 874.661L223.993 915.248L227.986 893.552L234.949 893.511L235.105 869.135L252.458 873.027L250.704 890.327L263.876 893.331L271.395 890.878L281.534 868.072L297.191 867.41L292.171 881.16L290.815 888.891L287.404 908.564L300.349 904.96L309.361 877.529L310.295 871.211L312.98 866.341L333.798 867.392L341.156 865.829C341.156 865.829 337.469 872.84 336.441 874.107C335.413 875.374 333.255 877.55 333.255 877.55L326.388 878.101L321.533 882.351L317.794 889.609L324.95 892.324L327.639 895.276L331.517 896.091L329.461 904.084L317.562 911.523L228.246 937.368L123.393 947.394L10.7628 945.617L-3.11414 944.813L-2.34811 881.093L15.7309 881.854Z" fill="url(#paint2_linear_14_413)"/>
<path fill-rule="evenodd" clip-rule="evenodd" d="M330.773 891.993L324.725 890.818L321.187 891.231L324.15 892.303L326.97 895.258L331.033 896.078C331.28 895.427 331.387 894.694 331.341 893.969C331.295 893.244 331.098 892.558 330.773 891.993Z" fill="url(#paint3_linear_14_413)"/>
<path fill-rule="evenodd" clip-rule="evenodd" d="M182.418 845.328L146.341 843.969L125.039 843.801L99.6217 846.394L49.0323 850.183L111.75 851.851L138.542 851.259L176.69 847.268L182.418 845.328Z" fill="url(#paint4_linear_14_413)"/>
<path fill-rule="evenodd" clip-rule="evenodd" d="M269.871 871.861L248.267 872.937C242.127 872.34 236.046 871.03 230.087 869.023L219.097 874.534L210.739 875.229L209.016 877.826L140.629 876.902L114.692 871.077L101.801 867.39L49.0252 850.172L110.074 849.218L120.478 852.073L141.727 850.923L179.828 846.413C179.828 846.413 205.529 851.239 210.113 852.871C214.697 854.503 245.737 861.306 245.737 861.306L275.405 869.376C275.405 869.376 275.575 870.999 269.871 871.861Z" fill="url(#paint5_linear_14_413)"/>
<path fill-rule="evenodd" clip-rule="evenodd" d="M324.373 853.301L322.259 855.402L318.948 854.235L317.422 853.116L318.398 850.984C318.398 850.984 322.639 851.291 324.373 853.301Z" fill="#C2FFFF"/>
<path fill-rule="evenodd" clip-rule="evenodd" d="M330.047 860.215L327.242 860.141L325.29 857.856C325.29 857.856 327.445 857.007 330.047 860.215Z" fill="#C2FFFF"/>
<path fill-rule="evenodd" clip-rule="evenodd" d="M335.042 858.784L338.151 862.265L337.374 863.744L333.843 863.65L331.456 861.86L335.042 858.784Z" fill="#C2FFFF"/>
<path fill-rule="evenodd" clip-rule="evenodd" d="M93.8658 883.933L78.5651 885.781L71.1229 885.583L55.5879 884.037L47.8381 884.467L37.3143 884.683L32.777 888.856L22.9671 887.883L14.6407 886.259L11.9481 881.754L2.81822 880.723L-2.95471 881.077L35.87 876.166L56.1707 879.823L75.6452 880.341L93.8658 883.933Z" fill="url(#paint6_linear_14_413)"/>
<path fill-rule="evenodd" clip-rule="evenodd" d="M295.119 867.344L288.927 866.295L284.529 864.97L277.414 865.827L267.041 866.597L255.021 863.538L275.412 869.387L278.411 868.734L279.667 869.501L295.119 867.344Z" fill="url(#paint7_linear_14_413)"/>
<path fill-rule="evenodd" clip-rule="evenodd" d="M140.66 876.904L128.986 874.284L114.661 871.088L98.9201 866.462L119.062 870.223L147.932 876.547L142.145 890.115L140.66 876.904Z" fill="url(#paint8_linear_14_413)"/>
</g>
<path fill-rule="evenodd" clip-rule="evenodd" d="M991.213 772.598C993.349 776.742 995.735 780.768 998.358 784.655C1000.17 787.194 1002.17 789.605 1004.35 791.869L1001.35 796.131L891.987 800.824L787.558 809.441C790.224 813.079 793.086 816.585 796.133 819.947C797.952 821.591 799.934 823.067 802.05 824.356C802.05 824.356 804.237 834.363 805.008 838.476C805.414 841.177 804.997 843.932 803.808 846.419L808.424 860.525L956.956 889.937H1052.05L1244.99 907.293L1445.87 916.814V818.288L1263.57 793.474L991.213 772.598Z" fill="url(#paint9_linear_14_413)"/>
<path fill-rule="evenodd" clip-rule="evenodd" d="M1032.07 796.535C1032.07 796.535 1022.98 792.422 1017.14 791.761C1011.29 791.1 862.402 796.225 853.513 796.535L833.676 795.078C833.676 795.078 829.675 791.033 825.702 791.707C823.18 792.187 820.738 792.985 818.442 794.08C818.442 794.08 817.012 798.382 815.74 799.475C814.468 800.567 809.109 801.457 809.109 801.457L804.993 804.545L798.591 800.567L791.531 804.559L787.086 809.198C787.086 809.198 797.847 810.546 801.12 811.396C804.393 812.246 855.114 809.414 870.063 811.396C885.011 813.378 901.861 813.378 903.033 814.484C904.205 815.59 919.683 818.53 925.371 817.964C931.059 817.397 988.754 809.198 988.754 809.198L1021.88 802.698L1032.07 796.535Z" fill="url(#paint10_linear_14_413)"/>
<path fill-rule="evenodd" clip-rule="evenodd" d="M1445.7 761H1182.55C1178.94 762.466 1175.14 763.49 1171.26 764.048C1166.58 764.412 1111.62 765.073 1103.89 765.194C1096.15 765.315 1075.22 764.196 1062 765.194C1048.78 766.192 1031.9 766.785 1026.63 767.662C1021.35 768.538 1006.33 770.008 1000.9 770.885C995.47 771.762 989.553 770.885 990.797 772.355C992.04 773.825 1004.52 774.122 1008.88 776.185C1013.23 778.248 1032.91 779.705 1037.57 780.891C1042.23 782.078 1067.5 785.301 1073.3 787.054C1079.1 788.807 1083.73 790.291 1083.73 790.291C1083.73 790.291 1034.06 795.591 1027.88 797.357C1021.71 799.124 1016.11 800.58 1016.11 800.58C1016.11 800.58 941.348 808.82 934.002 811.463C926.656 814.107 922.04 815.293 922.941 817.06C923.841 818.827 950.709 820.593 956.912 821.173C963.114 821.753 990.554 814.997 995.227 817.357C999.901 819.717 1004.93 821.173 1007.56 823.236C1010.19 825.3 1018.32 823.533 1025.47 825.286C1032.61 827.039 1147.62 828.523 1153.85 829.71C1160.08 830.896 1165.7 836.452 1172.56 837.936C1179.42 839.419 1445.42 839.702 1445.42 839.702L1445.7 761Z" fill="url(#paint11_radial_14_413)"/>
<path fill-rule="evenodd" clip-rule="evenodd" d="M1410.42 838.886L1416.25 909.246L1372.56 908.673L1350.5 908.162L1347.15 908.673L1343.52 907.395L1304.43 906.118L1258.52 903.938L1247.53 869.948L1238.96 838.899L1237.93 872.458L1238.96 894.761L1228.75 901.925L1183.52 898.196L1172.35 836.834L1153.65 828.859L1146.89 865.059L1139.12 868.196L1141.97 886.29L1098.35 887.388L1034.39 889.362L1025.29 824.571L1019.72 823.813L1026.26 860.039L1010.02 823.434L1008.94 872.641L1002.53 846.22L989.173 845.946L990.273 816.401L956.758 820.558L959.13 841.579L933.687 844.795L919.401 841.579L901.258 813.616L871.258 812.309L880.101 829.134L882.258 838.546L887.672 862.497L863.043 857.712L847.329 824.179L845.9 816.492L841.029 810.505L801.029 811.106L787 808.975C787 808.975 793.671 817.59 795.571 819.159C797.472 820.728 801.486 823.434 801.486 823.434L814.629 824.323L823.7 829.631L830.457 838.546L816.572 841.606L811.243 845.096L803.757 845.959L807.243 855.712L829.643 865.111L999.516 899.311L1200.1 914.841L1416.29 916.319L1445.15 913.064V838.546L1410.42 838.886Z" fill="url(#paint12_linear_14_413)"/>
<path fill-rule="evenodd" clip-rule="evenodd" d="M907.292 846.176L914.838 887.442C914.838 887.442 938.49 895.951 947.865 897.678C957.241 899.404 968.102 893.632 968.102 893.632L985.423 892.175L997.328 884.569L1002.66 847.7L973.033 847.349L907.292 846.176Z" fill="url(#paint13_linear_14_413)"/>
<path fill-rule="evenodd" clip-rule="evenodd" d="M907.292 846.176C907.292 846.176 935.875 835.873 939.848 836.169C943.821 836.466 956.84 836.169 956.84 836.169C956.84 836.169 967.445 840.579 973.99 841.172C980.536 841.766 1002.66 847.645 1002.66 847.645C1002.66 847.645 987.439 849.992 982.579 849.992L984.58 852.932C975.687 854.043 966.677 854.043 957.784 852.932C957.784 852.932 944.364 850.289 907.292 846.176Z" fill="url(#paint14_linear_14_413)"/>
<path fill-rule="evenodd" clip-rule="evenodd" d="M804.593 842.251L815.74 840.984L822.2 841.618L816.712 842.858L811.381 846.459L803.892 847.349C803.475 846.526 803.318 845.607 803.443 844.702C803.567 843.798 803.966 842.946 804.593 842.251Z" fill="url(#paint15_linear_14_413)"/>
<path fill-rule="evenodd" clip-rule="evenodd" d="M1079 788.848L1145.19 788.349L1184.23 788.848L1230.67 792.934L1323.16 799.353H1208.14L1159.08 797.722L1089.39 791.464L1079 788.848Z" fill="url(#paint16_linear_14_413)"/>
<path fill-rule="evenodd" clip-rule="evenodd" d="M917.296 819.11L956.826 821.173C968.11 820.63 979.325 819.196 990.354 816.885L1010.19 824.14L1025.47 825.286L1028.48 828.59L1153.85 829.71L1201.7 823.29L1225.52 819.11L1323.18 799.34L1211.36 796.117L1192.14 799.34L1153.26 797.196L1083.69 790.291C1083.69 790.291 1036.33 795.469 1027.84 797.357C1019.35 799.245 962.1 806.716 962.1 806.716L907.292 815.819C907.292 815.819 906.892 817.842 917.296 819.11Z" fill="url(#paint17_linear_14_413)"/>
<path fill-rule="evenodd" clip-rule="evenodd" d="M818.441 794.094L822.2 796.791L828.331 795.443L831.189 794.094L829.517 791.397C829.517 791.397 821.728 791.64 818.441 794.094Z" fill="#C2FFFF"/>
<path fill-rule="evenodd" clip-rule="evenodd" d="M807.666 802.549H812.811L816.512 799.758C816.512 799.758 812.61 798.625 807.666 802.549Z" fill="#C2FFFF"/>
<path fill-rule="evenodd" clip-rule="evenodd" d="M798.59 800.594L792.702 804.842L794.046 806.717H800.52L804.993 804.559L798.59 800.594Z" fill="#C2FFFF"/>
<path fill-rule="evenodd" clip-rule="evenodd" d="M1351.89 799.609L1445.37 796.777L1445.7 806.716L1351.89 799.609Z" fill="url(#paint18_linear_14_413)"/>
<path fill-rule="evenodd" clip-rule="evenodd" d="M1239.16 840.053L1271.6 842.872H1287.45L1320.6 841.456L1337.07 842.252L1359.45 842.872L1368.84 848.239L1389.77 847.349L1407.59 845.596L1413.61 840.053L1433.11 839.069L1445.37 839.703L1363.06 832.272L1319.63 836.17H1278.16L1239.16 840.053Z" fill="url(#paint19_linear_14_413)"/>
<path fill-rule="evenodd" clip-rule="evenodd" d="M871.277 812.623L882.682 811.517L890.814 810.007L903.805 811.315L922.769 812.623L944.964 809.198L907.277 815.833L901.818 814.916L899.474 815.833L871.277 812.623Z" fill="url(#paint20_linear_14_413)"/>
<path fill-rule="evenodd" clip-rule="evenodd" d="M1153.79 829.71L1175.33 826.824L1201.75 823.304L1230.85 818.045L1193.74 822.077L1140.49 829.022L1150.35 846.176L1153.79 829.71Z" fill="url(#paint21_linear_14_413)"/>
<path fill-rule="evenodd" clip-rule="evenodd" d="M1182.55 761L1224.32 765.086L1227.79 769.186L1210.51 767.905H1179.65L1156.64 765.086L1182.55 761Z" fill="url(#paint22_linear_14_413)"/>
<defs>
<linearGradient id="paint0_linear_14_413" x1="158.823" y1="947.064" x2="161.889" y2="831.783" gradientUnits="userSpaceOnUse">
<stop stop-color="#009DBA"/>
<stop offset="1" stop-color="#000E77"/>
</linearGradient>
<linearGradient id="paint1_linear_14_413" x1="341.191" y1="862.335" x2="207.641" y2="858.339" gradientUnits="userSpaceOnUse">
<stop stop-color="#6BEBED"/>
<stop offset="1" stop-color="#3994DD"/>
</linearGradient>
<linearGradient id="paint2_linear_14_413" x1="167.098" y1="949.776" x2="169.453" y2="861.261" gradientUnits="userSpaceOnUse">
<stop stop-color="#097098"/>
<stop offset="1" stop-color="#003194"/>
</linearGradient>
<linearGradient id="paint3_linear_14_413" x1="331.374" y1="893.541" x2="321.127" y2="893.235" gradientUnits="userSpaceOnUse">
<stop stop-color="#4CCCED"/>
<stop offset="1" stop-color="#39BDDD"/>
</linearGradient>
<linearGradient id="paint4_linear_14_413" x1="182.298" y1="849.327" x2="49.1771" y2="845.344" gradientUnits="userSpaceOnUse">
<stop stop-color="#0059A2"/>
<stop offset="1" stop-color="#000E77"/>
</linearGradient>
<linearGradient id="paint5_linear_14_413" x1="275.552" y1="864.72" x2="48.8007" y2="857.936" gradientUnits="userSpaceOnUse">
<stop stop-color="#4CCCED"/>
<stop offset="1" stop-color="#39BDDD"/>
</linearGradient>
<linearGradient id="paint6_linear_14_413" x1="93.861" y1="884.095" x2="-2.95833" y2="881.198" gradientUnits="userSpaceOnUse">
<stop stop-color="#4CCCED"/>
<stop offset="1" stop-color="#39BDDD"/>
</linearGradient>
<linearGradient id="paint7_linear_14_413" x1="274.952" y1="869.375" x2="275.094" y2="864.071" gradientUnits="userSpaceOnUse">
<stop stop-color="#4CCCED"/>
<stop offset="1" stop-color="#39BDDD"/>
</linearGradient>
<linearGradient id="paint8_linear_14_413" x1="122.889" y1="889.602" x2="123.487" y2="867.115" gradientUnits="userSpaceOnUse">
<stop stop-color="#0059A2"/>
<stop offset="1" stop-color="#000E77"/>
</linearGradient>
<linearGradient id="paint9_linear_14_413" x1="1116.66" y1="916.814" x2="1116.66" y2="772.598" gradientUnits="userSpaceOnUse">
<stop stop-color="#009DBA"/>
<stop offset="1" stop-color="#000E77"/>
</linearGradient>
<linearGradient id="paint10_linear_14_413" x1="787.129" y1="804.828" x2="1032.07" y2="804.828" gradientUnits="userSpaceOnUse">
<stop stop-color="#6BEBED"/>
<stop offset="1" stop-color="#3994DD"/>
</linearGradient>
<radialGradient id="paint11_radial_14_413" cx="0" cy="0" r="1" gradientUnits="userSpaceOnUse" gradientTransform="translate(1184.23 800.351) scale(187.219 176.662)">
<stop stop-color="#4CACED"/>
<stop offset="1" stop-color="#39A5DD"/>
</radialGradient>
<linearGradient id="paint12_linear_14_413" x1="1116.12" y1="916.319" x2="1116.12" y2="808.975" gradientUnits="userSpaceOnUse">
<stop stop-color="#097098"/>
<stop offset="1" stop-color="#003194"/>
</linearGradient>
<linearGradient id="paint13_linear_14_413" x1="954.954" y1="898.001" x2="954.954" y2="846.176" gradientUnits="userSpaceOnUse">
<stop stop-color="#00B4BA"/>
<stop offset="1" stop-color="#0031A2"/>
</linearGradient>
<linearGradient id="paint14_linear_14_413" x1="907.277" y1="844.948" x2="1002.64" y2="844.948" gradientUnits="userSpaceOnUse">
<stop stop-color="#4CCCED"/>
<stop offset="1" stop-color="#39BDDD"/>
</linearGradient>
<linearGradient id="paint15_linear_14_413" x1="803.406" y1="844.166" x2="822.2" y2="844.166" gradientUnits="userSpaceOnUse">
<stop stop-color="#4CCCED"/>
<stop offset="1" stop-color="#39BDDD"/>
</linearGradient>
<linearGradient id="paint16_linear_14_413" x1="1079" y1="793.851" x2="1323.16" y2="793.851" gradientUnits="userSpaceOnUse">
<stop stop-color="#0059A2"/>
<stop offset="1" stop-color="#000E77"/>
</linearGradient>
<linearGradient id="paint17_linear_14_413" x1="907.278" y1="809.993" x2="1323.16" y2="809.993" gradientUnits="userSpaceOnUse">
<stop stop-color="#4CCCED"/>
<stop offset="1" stop-color="#39BDDD"/>
</linearGradient>
<linearGradient id="paint18_linear_14_413" x1="1351.89" y1="801.754" x2="1445.7" y2="801.754" gradientUnits="userSpaceOnUse">
<stop stop-color="#0059A2"/>
<stop offset="1" stop-color="#000E77"/>
</linearGradient>
<linearGradient id="paint19_linear_14_413" x1="1239.16" y1="840.256" x2="1445.37" y2="840.256" gradientUnits="userSpaceOnUse">
<stop stop-color="#4CCCED"/>
<stop offset="1" stop-color="#39BDDD"/>
</linearGradient>
<linearGradient id="paint20_linear_14_413" x1="908.121" y1="815.833" x2="908.121" y2="809.198" gradientUnits="userSpaceOnUse">
<stop stop-color="#4CCCED"/>
<stop offset="1" stop-color="#39BDDD"/>
</linearGradient>
<linearGradient id="paint21_linear_14_413" x1="1185.66" y1="846.176" x2="1185.66" y2="818.045" gradientUnits="userSpaceOnUse">
<stop stop-color="#0059A2"/>
<stop offset="1" stop-color="#000E77"/>
</linearGradient>
<linearGradient id="paint22_linear_14_413" x1="1156.64" y1="765.086" x2="1227.79" y2="765.086" gradientUnits="userSpaceOnUse">
<stop stop-color="#4CCCED"/>
<stop offset="1" stop-color="#39BDDD"/>
</linearGradient>
</defs>
</svg>
