<svg width="1446" height="964" viewBox="0 0 1446 964" fill="none" xmlns="http://www.w3.org/2000/svg">
<path fill-rule="evenodd" clip-rule="evenodd" d="M359.434 592.932C359.434 592.932 424.797 599.462 436.702 598.917C448.607 598.372 566.513 607.142 566.513 607.142L590.986 612.46L502.981 609.711L426.958 607.142C407.984 606.496 362.238 593.979 351.764 592.889C341.29 591.798 315.491 590.621 315.491 590.621C315.491 590.621 339.215 584.736 346.484 585.281C353.753 585.827 359.434 592.932 359.434 592.932Z" fill="url(#paint0_linear_7_5142)"/>
<path fill-rule="evenodd" clip-rule="evenodd" d="M764.759 648.025L762.431 630.529C762.431 630.529 753.274 627.222 751.91 624.19C750.547 621.159 745.865 566.87 745.865 566.87L739.611 561.733C739.611 561.733 735.842 551.742 732.655 552.776C729.469 553.809 725.705 567.235 725.705 567.235C725.705 567.235 725.191 567.826 724.395 568.856C723.276 570.276 722.23 571.753 721.262 573.279C719.779 575.586 717.958 584.691 716.781 591.211C716.076 595.201 715.622 598.248 715.622 598.248L699.352 601.299L697.26 605.243L683.615 613.119C679.274 633.121 682.873 658.428 682.873 658.428C687.187 661.999 707.393 667.249 714.173 666.799C720.509 666.382 733.682 662.271 735.283 661.747L735.454 661.751L737.972 649.044C748.618 652.357 764.759 648.025 764.759 648.025Z" fill="#394FDD"/>
<path fill-rule="evenodd" clip-rule="evenodd" d="M764.759 648.025L762.431 630.529C762.431 630.529 753.274 627.222 751.91 624.19C750.547 621.159 745.865 566.87 745.865 566.87L739.611 561.733C739.611 561.733 735.842 551.742 732.655 552.776C729.469 553.809 725.705 567.235 725.705 567.235C725.705 567.235 725.191 567.826 724.395 568.856L727.65 570.494L733.735 565.305L736.348 572.614L737.004 612.972L728.307 610.206L718.332 598.008L716.781 591.211C716.076 595.2 715.622 598.248 715.622 598.248L699.352 601.299L697.26 605.243L683.615 613.119L692.777 611.775L693.854 621.189L697.371 607.284L701.552 607.22L711.022 609.975C712.446 613.059 713.657 616.238 714.645 619.489C715.43 622.794 716.956 644.135 716.956 644.135L717.281 663.524L722.487 664.976L735.169 661.73L735.34 661.734L737.857 649.027C748.618 652.356 764.759 648.025 764.759 648.025Z" fill="url(#paint1_linear_7_5142)"/>
<path fill-rule="evenodd" clip-rule="evenodd" d="M45.8983 565.27L49.2158 547.901C49.2158 547.901 59.2223 545.025 60.83 542.061C62.4378 539.097 69.9974 485.084 69.9974 485.084L76.965 480.244C76.965 480.244 81.485 470.44 84.865 471.621C88.2451 472.803 91.6712 486.39 91.6712 486.39C91.6712 486.39 92.1968 487.005 93.0053 488.071C94.1429 489.542 95.1995 491.066 96.1709 492.636C97.6592 495.01 99.1955 504.19 100.158 510.758C100.731 514.777 101.079 517.843 101.079 517.843L118.442 521.651L120.51 525.689L134.824 534.195C138.565 554.379 133.517 579.49 133.517 579.49C128.71 582.856 106.726 587.156 99.4518 586.39C92.6548 585.677 78.672 580.954 76.9745 580.356L76.7896 580.352L74.6718 567.541C63.0637 570.352 45.8983 565.27 45.8983 565.27Z" fill="#301693"/>
<path fill-rule="evenodd" clip-rule="evenodd" d="M45.8981 565.27L49.2156 547.901C49.2156 547.901 59.2221 545.025 60.8298 542.061C62.4376 539.097 69.9972 485.084 69.9972 485.084L76.9648 480.244C76.9648 480.244 81.4848 470.44 84.8648 471.621C88.2449 472.803 91.6709 486.39 91.6709 486.39C91.6709 486.39 92.1966 487.005 93.0051 488.071L89.4266 489.556L83.1214 484.087L79.9704 491.266L77.3885 531.551L86.8746 529.195L98.1734 517.476L100.158 510.758C100.731 514.777 101.078 517.843 101.078 517.843L118.442 521.651L120.509 525.689L134.824 534.195L125.029 532.423L123.433 541.777L120.294 527.723L115.799 527.463L105.482 529.772C103.807 532.787 102.357 535.906 101.142 539.107C100.144 542.372 97.5105 563.619 97.5105 563.619L96.2603 582.973L90.5917 584.18L77.0978 580.344L76.913 580.34L74.7951 567.529C63.0635 570.352 45.8981 565.27 45.8981 565.27Z" fill="#1F0A70"/>
<path fill-rule="evenodd" clip-rule="evenodd" d="M661.833 687.304L659.505 669.807C659.505 669.807 650.347 666.5 648.984 663.469C647.621 660.437 642.939 606.149 642.939 606.149L636.685 601.011C636.685 601.011 632.915 591.02 629.729 592.054C626.543 593.088 622.779 606.513 622.779 606.513C622.779 606.513 622.265 607.104 621.469 608.134C620.35 609.554 619.304 611.031 618.336 612.558C616.853 614.864 615.031 623.969 613.855 630.489C613.15 634.479 612.696 637.527 612.696 637.527L596.425 640.577L594.333 644.521L580.689 652.397C576.348 672.399 579.947 697.706 579.947 697.706C584.261 701.277 604.467 706.528 611.247 706.077C617.582 705.66 630.756 701.549 632.357 701.025L632.528 701.029L635.046 688.323C645.691 691.635 661.833 687.304 661.833 687.304Z" fill="#394FDD"/>
<path fill-rule="evenodd" clip-rule="evenodd" d="M661.833 687.303L659.505 669.807C659.505 669.807 650.347 666.5 648.984 663.469C647.621 660.437 642.939 606.148 642.939 606.148L636.685 601.011C636.685 601.011 632.915 591.02 629.729 592.054C626.543 593.088 622.779 606.513 622.779 606.513C622.779 606.513 622.265 607.104 621.469 608.134L624.724 609.772L630.808 604.583L633.421 611.892L634.078 652.25L625.381 649.484L615.406 637.286L613.855 630.489C613.15 634.479 612.696 637.526 612.696 637.526L596.425 640.577L594.333 644.521L580.689 652.397L589.85 651.053L590.928 660.467L594.445 646.562L598.626 646.499L608.096 649.253C609.52 652.337 610.731 655.516 611.719 658.767C612.504 662.073 614.03 683.413 614.03 683.413L614.355 702.802L619.56 704.255L632.243 701.008L632.414 701.012L634.931 688.306C645.691 691.635 661.833 687.303 661.833 687.303Z" fill="url(#paint2_linear_7_5142)"/>
<path fill-rule="evenodd" clip-rule="evenodd" d="M586.511 611.899L607.768 615.546L687.759 618.913H712.931C712.931 618.913 708.712 611.899 707.897 611.057C707.082 610.215 707.897 609.935 691.675 606.568C675.453 603.201 639.373 600.676 586.511 611.899Z" fill="#1F0A70"/>
<path fill-rule="evenodd" clip-rule="evenodd" d="M0 527.634C0 527.634 18.2726 491.348 19.0023 485.779C19.7321 480.21 22.5652 450.269 22.5652 450.269C22.5652 450.269 39.736 450.527 47.0336 455.034C54.3312 459.541 57.8512 471.986 57.8512 471.986C57.8512 471.986 64.233 493.157 62.9452 495.037C61.4469 496.744 59.7347 498.25 57.8512 499.516C57.8512 499.516 66.5367 531.653 68.0678 537.48C69.5988 543.308 94.1244 558.551 94.1244 558.551C94.1244 558.551 115.874 548.403 118.049 542.604C120.224 536.806 118.993 535.428 118.993 535.428C118.993 535.428 116.747 528.021 116.747 525.38C116.747 522.739 149.572 523.715 149.572 523.715C149.572 523.715 170.105 532.112 172.266 537.954C172.92 539.492 172.989 541.218 172.462 542.804C171.935 544.391 170.847 545.729 169.404 546.566C169.404 546.566 198.566 544.111 205.677 546.566L213.332 552.838L258.348 558.206C258.348 558.206 261.74 540.308 265.918 538.514C270.983 536.332 305.983 558.608 305.983 558.608C305.983 558.608 323.583 585.995 328.877 588.162C334.172 590.329 348.91 591.966 354.519 590.344C360.128 588.722 377.013 583.268 383.523 586.038C390.034 588.808 419.296 604.482 419.296 604.482L1446 648.371V964H723.5H0V527.634Z" fill="url(#paint3_linear_7_5142)"/>
<path fill-rule="evenodd" clip-rule="evenodd" d="M22.5654 450.269C22.5654 450.269 27.3159 468.828 31.1507 477.885C34.9856 486.942 39.5501 489.655 39.5501 489.655L47.0766 487.76C47.0766 487.76 51.7557 493.889 53.6587 495.037C55.5618 496.186 62.9882 495.037 62.9882 495.037C62.2424 485.794 60.7543 476.626 58.5381 467.622L56.3631 463.001C56.3631 463.001 49.2087 454.317 47.0766 451.719C44.9446 449.121 22.5654 450.269 22.5654 450.269Z" fill="#1F0A70"/>
<path fill-rule="evenodd" clip-rule="evenodd" d="M68.0679 537.48L59.3108 535.069C59.3108 535.069 61.2854 545.949 63.6893 548.131C66.0932 550.312 70.6864 554.934 70.6864 554.934V552.207C70.6864 552.207 74.4926 554.661 78.0126 556.829C81.5326 558.996 89.8891 560.632 89.8891 560.632H97.0435L94.1817 558.551C94.1817 558.551 70.6006 539.892 68.0679 537.48Z" fill="#1F0A70"/>
<path fill-rule="evenodd" clip-rule="evenodd" d="M172.738 539.648V539.763C170.134 542.547 161.505 542.963 161.505 542.963L153.106 541.6L143.619 542.92C143.619 542.92 127.078 537.179 124.374 535.04C122.098 533.218 118.278 527.605 117.09 525.825L116.733 525.28C121.583 520.673 150.874 524.16 150.874 524.16C166.056 528.696 170.706 534.122 172.108 537.222C172.491 537.975 172.706 538.803 172.738 539.648Z" fill="#1F0A70"/>
<path fill-rule="evenodd" clip-rule="evenodd" d="M169.375 546.48L154.194 554.116C154.194 554.116 172.795 553.298 179.12 552.753C182.339 552.625 185.49 551.787 188.349 550.298L194.588 547.858L205.649 546.423C193.687 543.894 181.329 543.913 169.375 546.48Z" fill="#1F0A70"/>
<path fill-rule="evenodd" clip-rule="evenodd" d="M213.848 554.116L205.649 555.738L187.047 559.01C187.047 559.01 211.129 566.345 220.101 567.981L226.625 565.527C236.001 567.838 245.511 569.564 255.1 570.694C271.083 572.603 290.873 570.694 290.873 570.694C290.873 570.694 272.557 559.814 258.348 558.12C258.32 558.12 225.495 553.298 213.848 554.116Z" fill="#1F0A70"/>
<path fill-rule="evenodd" clip-rule="evenodd" d="M265.889 538.427C265.889 538.427 263.285 545.604 264.315 549.322C265.346 553.039 279.182 563.087 288.397 564.723C297.612 566.359 306.026 558.551 306.026 558.551C306.026 558.551 278.367 537.968 265.889 538.427Z" fill="#1F0A70"/>
<path fill-rule="evenodd" clip-rule="evenodd" d="M354.562 590.286C354.562 590.286 358.611 593.588 376.512 598.985C388.029 602.193 400.131 602.685 411.869 600.42C411.869 600.42 389.876 584.775 380.933 585.334C371.99 585.894 354.562 590.286 354.562 590.286Z" fill="#1F0A70"/>
<path fill-rule="evenodd" clip-rule="evenodd" d="M263.156 591.363C263.156 591.363 280.542 588.65 290.844 591.363C301.147 594.076 328.92 598.985 328.92 598.985C328.92 598.985 261.468 601.697 241.721 598.985C241.721 598.985 253.369 592.382 263.156 591.363Z" fill="#1F0A70"/>
<defs>
<linearGradient id="paint0_linear_7_5142" x1="315.491" y1="597.525" x2="589.636" y2="597.525" gradientUnits="userSpaceOnUse">
<stop stop-color="#200377"/>
<stop offset="1" stop-color="#005497"/>
</linearGradient>
<linearGradient id="paint1_linear_7_5142" x1="716.008" y1="695.225" x2="717.415" y2="608.813" gradientUnits="userSpaceOnUse">
<stop stop-color="#1F4D95"/>
<stop offset="0.98" stop-color="#291689"/>
</linearGradient>
<linearGradient id="paint2_linear_7_5142" x1="613.082" y1="734.503" x2="614.489" y2="648.091" gradientUnits="userSpaceOnUse">
<stop stop-color="#1F4D95"/>
<stop offset="0.98" stop-color="#291689"/>
</linearGradient>
<linearGradient id="paint3_linear_7_5142" x1="209.669" y1="604.381" x2="209.669" y2="450.269" gradientUnits="userSpaceOnUse">
<stop stop-color="#1F005C"/>
<stop offset="1" stop-color="#000027"/>
</linearGradient>
</defs>
</svg>
