<svg width="1446" height="963" viewBox="0 0 1446 963" fill="none" xmlns="http://www.w3.org/2000/svg">
<path fill-rule="evenodd" clip-rule="evenodd" d="M1034.91 497.355L1037.62 514.775C1037.62 514.775 1046.85 517.871 1048.28 520.868C1049.71 523.864 1055.61 577.971 1055.61 577.971L1061.97 582.96C1061.97 582.96 1065.96 592.852 1069.13 591.748C1072.29 590.644 1075.75 577.154 1075.75 577.154C1075.75 577.154 1076.25 576.551 1077.02 575.505C1078.11 574.062 1079.12 572.564 1080.06 571.017C1081.49 568.681 1083.1 559.548 1084.13 553.011C1084.75 549.011 1085.13 545.957 1085.13 545.957L1101.33 542.545L1103.33 538.559L1116.79 530.387C1120.69 510.316 1116.52 485.126 1116.52 485.126C1112.13 481.657 1091.82 476.868 1085.05 477.471C1078.73 478.03 1065.65 482.431 1064.06 482.99H1063.89L1061.66 495.735C1050.94 492.667 1034.91 497.355 1034.91 497.355Z" fill="#394FDD"/>
<path fill-rule="evenodd" clip-rule="evenodd" d="M1034.91 497.356L1037.62 514.775C1037.62 514.775 1046.85 517.872 1048.28 520.868C1049.71 523.864 1055.61 577.971 1055.61 577.971L1061.97 582.96C1061.97 582.96 1065.96 592.853 1069.13 591.749C1072.29 590.645 1075.75 577.154 1075.75 577.154C1075.75 577.154 1076.25 576.552 1077.02 575.505L1073.73 573.942L1067.77 579.261L1064.99 572.021L1063.43 531.735L1072.19 534.301L1082.43 546.258L1084.13 553.011C1084.75 549.011 1085.13 545.957 1085.13 545.957L1101.33 542.545L1103.33 538.559L1116.79 530.388L1107.67 531.936L1106.38 522.56L1103.17 536.524L1099 536.681L1089.47 534.144C1087.98 531.096 1086.7 527.949 1085.64 524.725C1084.78 521.441 1082.77 500.166 1082.77 500.166L1082.02 480.811L1076.78 479.478L1064.18 483.005H1064L1061.77 495.75C1050.94 492.668 1034.91 497.356 1034.91 497.356Z" fill="url(#paint0_linear_15_417)"/>
<path fill-rule="evenodd" clip-rule="evenodd" d="M1142.32 456.195C1143.98 455.693 1145.28 451.894 1146.32 448.267L1146.44 447.865C1146.94 446.145 1147.37 444.539 1147.74 443.464C1148.93 440.08 1150.33 431.88 1147.74 430.102C1146.67 429.488 1145.45 429.179 1144.22 429.209C1142.98 429.239 1141.78 429.608 1140.74 430.274C1138.8 431.292 1137.35 432.783 1137.27 433.529C1137.08 435.077 1139.83 456.983 1142.32 456.195Z" fill="#394FDD"/>
<path fill-rule="evenodd" clip-rule="evenodd" d="M1142.32 456.195C1143.98 455.693 1145.28 451.894 1146.32 448.267L1146.44 447.865H1143.99L1141.84 444.826L1140.74 430.274C1138.8 431.292 1137.35 432.783 1137.27 433.529C1137.08 435.077 1139.83 456.983 1142.32 456.195Z" fill="url(#paint1_linear_15_417)"/>
<path fill-rule="evenodd" clip-rule="evenodd" d="M1265.72 526.115V526.316C1265.49 528.28 1263.56 544.122 1262.86 547.821C1262.09 551.706 1260.71 551.72 1260.7 551.72C1260.69 551.72 1256.69 562.76 1253.22 564.494C1249.74 566.229 1238.91 563.878 1238.91 563.878C1238.91 563.878 1225.24 553.513 1222.93 527.563C1222.93 527.563 1235.81 521.384 1244.85 521.828C1253.89 522.273 1265.72 526.115 1265.72 526.115Z" fill="url(#paint2_linear_15_417)"/>
<path fill-rule="evenodd" clip-rule="evenodd" d="M1265.72 526.316C1265.49 528.28 1263.56 544.122 1262.86 547.821C1262.09 551.706 1260.71 551.72 1260.7 551.72C1260.69 551.72 1256.69 562.76 1253.22 564.494C1249.74 566.229 1238.91 563.878 1238.91 563.878C1238.91 563.878 1225.24 553.513 1222.93 527.563C1222.93 527.563 1226.47 545.326 1232.62 552.667C1238.77 560.007 1245.35 557.283 1245.35 557.283L1251.56 543.462L1254.56 532.653L1256.74 527.893L1259.5 537.083L1258.07 546.244H1262.12L1265.72 526.316Z" fill="url(#paint3_linear_15_417)"/>
<path fill-rule="evenodd" clip-rule="evenodd" d="M1222.97 527.534L1234.83 527.348L1246.04 526.316L1260.67 526.101L1265.75 526.316C1265.75 526.316 1253.08 521.413 1245.85 520.681C1238.63 519.95 1222.97 527.534 1222.97 527.534Z" fill="#A0FFED"/>
<path fill-rule="evenodd" clip-rule="evenodd" d="M837.092 842.015L837.094 841.815C837.346 839.853 839.461 824.035 840.205 820.344C841.022 816.468 842.396 816.47 842.41 816.47C842.424 816.47 846.543 805.478 850.04 803.784C853.536 802.09 864.338 804.567 864.338 804.567C864.338 804.567 877.893 815.091 879.896 841.065C879.896 841.065 866.95 847.094 857.914 846.545C848.878 845.995 837.092 842.015 837.092 842.015Z" fill="url(#paint4_linear_15_417)"/>
<path fill-rule="evenodd" clip-rule="evenodd" d="M837.094 841.815C837.346 839.853 839.461 824.035 840.205 820.344C841.022 816.468 842.396 816.47 842.41 816.47C842.424 816.47 846.543 805.478 850.04 803.784C853.536 802.09 864.338 804.567 864.338 804.567C864.338 804.567 877.893 815.091 879.896 841.065C879.896 841.065 876.568 823.262 870.502 815.851C864.436 808.439 857.824 811.087 857.824 811.087L851.455 824.834L848.326 835.608L846.096 840.342L843.442 831.121L844.979 821.977L840.93 821.93L837.094 841.815Z" fill="url(#paint5_linear_15_417)"/>
<path fill-rule="evenodd" clip-rule="evenodd" d="M701 835.814C701.252 833.853 703.366 818.034 704.11 814.344C704.928 810.468 706.301 810.47 706.315 810.47C706.33 810.47 710.449 799.478 713.945 797.784C717.441 796.09 728.243 798.567 728.243 798.567C728.243 798.567 741.799 809.091 743.801 835.065C743.801 835.065 740.474 817.262 734.408 809.85C728.341 802.439 721.729 805.086 721.729 805.086L715.361 818.834L712.231 829.608L710.002 834.342L707.347 825.121L708.884 815.977L704.836 815.93L701 835.814Z" fill="url(#paint6_linear_15_417)"/>
<path fill-rule="evenodd" clip-rule="evenodd" d="M879.853 841.094L867.992 841.142L856.779 842.044L842.142 842.088L837.066 841.814C837.066 841.814 849.684 846.865 856.899 847.68C864.115 848.495 879.853 841.094 879.853 841.094Z" fill="#A0FFED"/>
<path fill-rule="evenodd" clip-rule="evenodd" d="M0 778.816L47.8461 777.543C54.8562 777.543 69.4056 777.728 72.2525 777.273C78.4471 776.279 89.8921 772.539 98.2326 772.236C117.761 776.22 171.838 780.28 183.312 780.28C194.785 780.28 201.237 778.806 201.237 778.806L207.417 781.695C207.417 781.695 259.363 780.6 270.594 779.497C281.824 778.393 307.561 775.353 314.113 774.805L320.665 774.249L330.494 781.695C330.494 781.695 407.232 782.765 416.073 783.86C424.915 784.955 466.818 785.545 466.818 785.545L478.763 784.163C478.763 784.163 514.843 772.59 526.532 770.113C526.532 770.113 544.901 764.048 552.283 763.501C559.665 762.953 571.577 765.351 571.577 765.351C571.577 765.351 559.193 771.217 559.193 773.146C559.193 775.075 570.366 788.847 570.366 788.847C570.366 788.847 575.43 785.814 576.675 783.616C577.919 781.417 579.693 764.04 580.967 761.715C582.24 759.39 590.981 752.946 590.981 752.946C590.981 752.946 592.612 738.003 593.985 735.602C595.359 733.202 595.344 727.053 596.746 725.301C596.746 725.301 600.623 721.855 601.968 723.397C603.313 724.938 601.568 744.22 601.968 747.53C602.369 750.84 604.057 759.323 604.386 761.125C604.715 762.928 605.5 777.5 605.5 777.5C605.5 777.5 604.457 789.959 606.217 792.435C607.977 794.912 640.352 799.604 640.352 799.604C640.352 799.604 650.366 796.293 658.435 796.571C666.503 796.849 668.592 798.256 672.44 799.604C676.289 800.951 770.266 804.287 779.208 804.287C788.149 804.287 808.521 805.972 811.44 807.589C814.358 809.206 826.404 806.747 836.289 807.589C846.175 808.431 885.689 807.934 890.023 808.179C894.358 808.423 906.547 806.216 906.547 806.216C906.547 806.216 942.556 808.692 951.698 810.074C957.385 810.886 963.32 810.886 969.008 810.074C969.008 810.074 988.436 812.003 994.516 813.106C1000.6 814.21 1033.14 816.964 1042.34 817.512C1051.54 818.059 1058.16 822.195 1067.99 822.195C1077.82 822.195 1446 844.511 1446 844.511V963H0V778.816Z" fill="url(#paint7_linear_15_417)"/>
<path fill-rule="evenodd" clip-rule="evenodd" d="M480 785.928C480 785.928 500.328 786.09 509.783 785.928C519.239 785.765 533.856 780.99 537.861 779.473C541.866 777.956 542.964 770.576 541.157 768.219C539.35 765.861 483.137 783.279 480 785.928Z" fill="#4CA4ED"/>
<path fill-rule="evenodd" clip-rule="evenodd" d="M545.516 767.151C541.562 769.061 561.429 767.151 567.774 767.151C574.12 767.151 579 764.462 579 764.462C573.576 763.151 567.218 762.702 561.076 763.195C554.934 763.689 549.415 765.092 545.516 767.151Z" fill="#394FDD"/>
<path fill-rule="evenodd" clip-rule="evenodd" d="M588 760.812C588 760.812 599.005 761.597 602.957 759.958C606.91 758.318 610 751 610 751L597.896 751.905C597.896 751.905 588.853 757.422 588 760.812Z" fill="#394FDD"/>
<path fill-rule="evenodd" clip-rule="evenodd" d="M613.536 791C613.536 791 599.792 795.089 594 795.93C594 795.93 613.521 796.99 626.521 797.613C632.992 798.008 639.505 798.101 646 797.89C646 797.89 618.613 792.447 613.536 791Z" fill="#394FDD"/>
<path fill-rule="evenodd" clip-rule="evenodd" d="M649 797.989C649 797.989 653.696 799.078 662.941 798.996C672.186 798.913 674 796.333 674 796.333C669.962 795.227 665.533 794.798 661.149 795.088C656.765 795.379 652.578 796.378 649 797.989Z" fill="#394FDD"/>
<path fill-rule="evenodd" clip-rule="evenodd" d="M268 781.006C268 781.006 312.456 772.745 328.12 773.006L333 778.139C333 778.139 304.452 786.795 268 781.006Z" fill="#394FDD"/>
<path fill-rule="evenodd" clip-rule="evenodd" d="M0 779.006C0 779.006 44.4563 770.745 60.1196 771.006L65 776.139C65 776.139 36.4518 784.795 0 779.006Z" fill="#394FDD"/>
<path fill-rule="evenodd" clip-rule="evenodd" d="M191 779.618C191 779.618 200.395 780.768 205.386 780.942C207.968 781.118 210.577 780.891 213 780.28L208.569 778.009C208.569 778.009 197.324 777.779 191 779.618Z" fill="#394FDD"/>
<path fill-rule="evenodd" clip-rule="evenodd" d="M105.182 771C96.2013 771.301 87.5137 773.01 80 775.955C80 775.955 90.9963 777.788 97.8326 776.599C104.669 775.41 107.553 772.404 105.182 771Z" fill="#394FDD"/>
<path fill-rule="evenodd" clip-rule="evenodd" d="M723 807.676C723 807.676 772.601 802.35 786.655 803.066C800.71 803.783 819 806.623 819 806.623C819 806.623 787.172 809.799 776.003 809.99C764.834 810.18 723 807.676 723 807.676Z" fill="#394FDD"/>
<path fill-rule="evenodd" clip-rule="evenodd" d="M542 768.475L545.336 781.802C545.336 781.802 566.304 782.753 569.736 780.489C573.167 778.225 575.188 772.068 575.188 772.068L579 764C579 764 577.532 766.026 567.906 766.916C558.279 767.805 542 768.475 542 768.475Z" fill="url(#paint8_linear_15_417)"/>
<path fill-rule="evenodd" clip-rule="evenodd" d="M514 786.012C514 786.012 521.069 789.881 524.324 789.99C527.579 790.099 540.355 789.293 540.355 789.293C540.355 789.293 546.42 784.795 546.965 783.2C547.51 781.606 541.473 769 541.473 769C541.473 769 540.627 777.518 538.993 778.576C537.358 779.633 521.8 784.803 514 786.012Z" fill="url(#paint9_linear_15_417)"/>
<path fill-rule="evenodd" clip-rule="evenodd" d="M603.815 759.477C603.815 759.477 601.301 774.044 602.292 774.886C603.283 775.727 604.188 778.816 604.72 779.775C605.251 780.734 602.292 789.874 602.292 789.874L596 796L614 790.951C614 790.951 613.454 775.054 613.54 772.605C613.626 770.156 613.54 759.435 613.54 759.435L612.104 759.67L609.949 747.998L609.805 738.421L610.279 727.683V726C610.279 726 602.204 733.709 601.5 734.5C600.796 735.291 601.5 747.5 601.5 747.5L602.5 751.5H603L609.805 751.129C609.805 751.129 606.717 757.465 603.815 759.477Z" fill="url(#paint10_linear_15_417)"/>
<path fill-rule="evenodd" clip-rule="evenodd" d="M818.777 807L782.777 809.831H771C771 809.831 786.722 810.508 794.867 810.965C803.012 811.421 828 807.312 828 807.312L818.777 807Z" fill="url(#paint11_linear_15_417)"/>
<path fill-rule="evenodd" clip-rule="evenodd" d="M683 799.163C683 799.163 675.096 802.126 670.043 802.867C664.989 803.608 646 801.015 646 801.015L658.036 801.074L661.318 799.156C661.318 799.156 670.734 798.459 674.016 797L683 799.163Z" fill="url(#paint12_linear_15_417)"/>
<path fill-rule="evenodd" clip-rule="evenodd" d="M338 780.708C338 780.708 328.868 783.813 322.993 784.635C317.117 785.457 288.593 784.635 288.593 784.635L278 782.68C278 782.68 299.158 783.19 313.094 781.296C319.833 780.463 326.471 779.362 332.964 778L338 780.708Z" fill="url(#paint13_linear_15_417)"/>
<path fill-rule="evenodd" clip-rule="evenodd" d="M70 778.708C70 778.708 60.8683 781.813 54.9928 782.635C49.1172 783.457 20.5933 782.635 20.5933 782.635L10 780.68C10 780.68 31.1577 781.19 45.0941 779.296C51.833 778.463 58.4711 777.362 64.9638 776L70 778.708Z" fill="url(#paint14_linear_15_417)"/>
<path fill-rule="evenodd" clip-rule="evenodd" d="M208.69 778L202.993 779.201H191C191 779.201 204.877 782.093 215 780.543L208.69 778Z" fill="url(#paint15_linear_15_417)"/>
<path fill-rule="evenodd" clip-rule="evenodd" d="M105.659 771C105.659 771 102.147 775.714 98 776.862C98 776.862 112.451 777.966 123 773.931L105.659 771Z" fill="url(#paint16_linear_15_417)"/>
<path fill-rule="evenodd" clip-rule="evenodd" d="M575 789V795C575 795 569.55 794.933 562.717 794.916C557.596 794.823 552.494 794.509 547.452 793.978L533 789C533 789 558.052 789.62 565.627 789.402C573.202 789.184 575 789 575 789Z" fill="url(#paint17_linear_15_417)"/>
<path fill-rule="evenodd" clip-rule="evenodd" d="M533 789.587C533 789.587 558.166 785.048 563.872 785C569.579 784.953 575 789.587 575 789.587C575 789.587 571.861 791.039 563.872 790.999C555.883 790.96 533 789.587 533 789.587Z" fill="#4CA4ED"/>
<path fill-rule="evenodd" clip-rule="evenodd" d="M585.857 782.343C582.983 783.941 580.355 785.667 578 787.505C578 787.505 588.567 789.362 594.143 788.937C595.829 788.777 597.421 788.397 598.788 787.829C600.154 787.261 601.256 786.521 602 785.672L600.46 785.577L602 783.815C602 783.815 593.073 781.053 585.857 782.343Z" fill="#4CA4ED"/>
<path fill-rule="evenodd" clip-rule="evenodd" d="M601.419 734.951C601.419 734.951 605.35 734.564 606.898 733.454C608.446 732.344 610.419 726.345 610.419 726.345L609.967 719.951C609.967 719.951 606.033 721.024 604.591 722.451C603.149 723.878 601.419 734.951 601.419 734.951Z" fill="#394FDD"/>
<path fill-rule="evenodd" clip-rule="evenodd" d="M1213.83 551.167C1213.88 551.208 1213.92 551.259 1213.95 551.317C1213.98 551.375 1214 551.439 1214 551.504C1214 551.57 1213.99 551.635 1213.97 551.696C1213.95 551.757 1213.91 551.813 1213.87 551.859C1213.82 551.906 1213.77 551.943 1213.7 551.967C1213.64 551.991 1213.58 552.002 1213.51 552C1213.45 551.997 1213.38 551.981 1213.33 551.952C1213.27 551.924 1213.22 551.883 1213.17 551.833C1213.12 551.792 1213.08 551.741 1213.05 551.683C1213.02 551.625 1213 551.561 1213 551.496C1213 551.43 1213.01 551.365 1213.03 551.304C1213.05 551.243 1213.09 551.187 1213.13 551.141C1213.18 551.094 1213.23 551.057 1213.3 551.033C1213.36 551.009 1213.42 550.998 1213.49 551C1213.55 551.003 1213.62 551.019 1213.67 551.048C1213.73 551.076 1213.78 551.117 1213.83 551.167Z" fill="white"/>
<defs>
<linearGradient id="paint0_linear_15_417" x1="1079.38" y1="591.726" x2="1074.89" y2="479.786" gradientUnits="userSpaceOnUse">
<stop stop-color="#1F4D95"/>
<stop offset="0.98" stop-color="#291689"/>
</linearGradient>
<linearGradient id="paint1_linear_15_417" x1="1141.84" y1="456.224" x2="1141.84" y2="430.274" gradientUnits="userSpaceOnUse">
<stop stop-color="#0E2463"/>
<stop offset="1" stop-color="#004D93"/>
</linearGradient>
<linearGradient id="paint2_linear_15_417" x1="1244.38" y1="565.111" x2="1244.38" y2="521.785" gradientUnits="userSpaceOnUse">
<stop stop-color="#4C51DD"/>
<stop offset="0.99" stop-color="#57CFFF"/>
</linearGradient>
<linearGradient id="paint3_linear_15_417" x1="1244.36" y1="565.111" x2="1244.36" y2="526.316" gradientUnits="userSpaceOnUse">
<stop stop-color="#3E47BE"/>
<stop offset="1" stop-color="#239ABA"/>
</linearGradient>
<linearGradient id="paint4_linear_15_417" x1="858.436" y1="846.574" x2="858.94" y2="803.249" gradientUnits="userSpaceOnUse">
<stop stop-color="#012266"/>
<stop offset="1" stop-color="#012266" stop-opacity="0.56"/>
</linearGradient>
<linearGradient id="paint5_linear_15_417" x1="858.488" y1="842.064" x2="858.94" y2="803.249" gradientUnits="userSpaceOnUse">
<stop stop-color="#012266"/>
<stop offset="1" stop-color="#012266" stop-opacity="0.56"/>
</linearGradient>
<linearGradient id="paint6_linear_15_417" x1="722.393" y1="836.063" x2="722.845" y2="797.249" gradientUnits="userSpaceOnUse">
<stop stop-color="#012266"/>
<stop offset="1" stop-color="#012266"/>
</linearGradient>
<linearGradient id="paint7_linear_15_417" x1="640.438" y1="835.091" x2="640.438" y2="722.967" gradientUnits="userSpaceOnUse">
<stop stop-color="#012266"/>
<stop offset="0.0001" stop-color="#012266"/>
<stop offset="1" stop-color="#005791"/>
</linearGradient>
<linearGradient id="paint8_linear_15_417" x1="560.471" y1="782.004" x2="560.471" y2="764" gradientUnits="userSpaceOnUse">
<stop stop-color="#200377"/>
<stop offset="1" stop-color="#005497"/>
</linearGradient>
<linearGradient id="paint9_linear_15_417" x1="530.504" y1="789.998" x2="530.504" y2="769" gradientUnits="userSpaceOnUse">
<stop stop-color="#200377"/>
<stop offset="1" stop-color="#005497"/>
</linearGradient>
<linearGradient id="paint10_linear_15_417" x1="604.993" y1="796.017" x2="604.993" y2="725.992" gradientUnits="userSpaceOnUse">
<stop stop-color="#200377"/>
<stop offset="1" stop-color="#005497"/>
</linearGradient>
<linearGradient id="paint11_linear_15_417" x1="799.55" y1="811.003" x2="799.55" y2="807" gradientUnits="userSpaceOnUse">
<stop stop-color="#200377"/>
<stop offset="1" stop-color="#005497"/>
</linearGradient>
<linearGradient id="paint12_linear_15_417" x1="664.486" y1="803" x2="664.486" y2="797.007" gradientUnits="userSpaceOnUse">
<stop stop-color="#200377"/>
<stop offset="1" stop-color="#005497"/>
</linearGradient>
<linearGradient id="paint13_linear_15_417" x1="278" y1="781.495" x2="338" y2="781.495" gradientUnits="userSpaceOnUse">
<stop stop-color="#200377"/>
<stop offset="1" stop-color="#005497"/>
</linearGradient>
<linearGradient id="paint14_linear_15_417" x1="10" y1="779.495" x2="70" y2="779.495" gradientUnits="userSpaceOnUse">
<stop stop-color="#200377"/>
<stop offset="1" stop-color="#005497"/>
</linearGradient>
<linearGradient id="paint15_linear_15_417" x1="191" y1="779.468" x2="215" y2="779.468" gradientUnits="userSpaceOnUse">
<stop stop-color="#200377"/>
<stop offset="1" stop-color="#005497"/>
</linearGradient>
<linearGradient id="paint16_linear_15_417" x1="98" y1="774" x2="123" y2="774" gradientUnits="userSpaceOnUse">
<stop stop-color="#200377"/>
<stop offset="1" stop-color="#005497"/>
</linearGradient>
<linearGradient id="paint17_linear_15_417" x1="533" y1="792" x2="575" y2="792" gradientUnits="userSpaceOnUse">
<stop stop-color="#200377"/>
<stop offset="1" stop-color="#005497"/>
</linearGradient>
</defs>
</svg>
