<svg width="1446" height="964" viewBox="0 0 1446 964" fill="none" xmlns="http://www.w3.org/2000/svg">
<mask id="mask0_7_5212" style="mask-type:alpha" maskUnits="userSpaceOnUse" x="0" y="560" width="344" height="404">
<rect y="560.752" width="344" height="403.248" fill="#D9D9D9"/>
</mask>
<g mask="url(#mask0_7_5212)">
<path fill-rule="evenodd" clip-rule="evenodd" d="M95.5404 561.098C36.9679 561.689 0.0474973 561.023 0.0474973 561.023C-0.998616 563.027 227.46 559.32 226.217 561.098L227.751 564.548L287.271 569.885L344.007 578.288C342.467 581.157 340.822 583.918 339.08 586.56C338.049 587.848 336.934 589 335.749 589.999C335.749 589.999 334.317 597.966 333.798 601.242C333.512 603.395 333.673 605.603 334.263 607.608L331.408 618.816L249.713 640.171L197.859 638.791L92.2393 649.865L0.0474447 657.086L0.0474973 561.023L84.8305 558.621L95.5404 561.098Z" fill="url(#paint0_linear_7_5212)"/>
<path fill-rule="evenodd" clip-rule="evenodd" d="M210.988 564.425C210.988 564.425 216.042 561.269 219.246 560.826C222.449 560.382 303.513 566.638 308.353 567.015L319.204 566.139C319.204 566.139 321.483 562.963 323.633 563.56C324.997 563.98 326.309 564.653 327.535 565.562C327.535 565.562 328.211 569.021 328.879 569.913C329.546 570.804 332.447 571.593 332.447 571.593L334.618 574.122L338.204 571.035L341.959 574.328L344.271 578.1C344.271 578.1 338.371 579.022 336.566 579.653C334.761 580.285 307.172 577.286 298.973 578.653C290.774 580.021 281.586 579.777 280.921 580.644C280.255 581.51 271.745 583.636 268.657 583.101C265.569 582.565 234.305 575.175 234.305 575.175L216.397 569.499L210.988 564.425Z" fill="url(#paint1_linear_7_5212)"/>
<path fill-rule="evenodd" clip-rule="evenodd" d="M18.8925 594.127L14.121 652.059L36.8872 652.191L48.389 652.076L50.1215 652.543L52.0437 651.54L72.4357 651.028L96.4004 649.868L102.961 621.994L108.191 596.513L107.899 624.197L106.813 642.572L111.951 648.62L135.603 646.172L142.936 595.733L152.872 589.417L155.498 619.357L159.468 622.052L157.534 636.931L180.229 638.441L213.491 640.954L219.829 587.659L222.749 587.111L218.448 616.89L227.811 586.933L227.155 627.52L231.147 605.825L238.111 605.784L238.267 581.408L255.619 585.3L253.865 602.6L267.037 605.604L274.557 603.15L284.696 580.345L300.353 579.683L295.332 593.433L293.976 601.164L290.566 620.836L303.511 617.232L312.522 589.802L313.456 583.483L316.141 578.614L336.959 579.664L344.318 578.101C344.318 578.101 340.631 585.112 339.603 586.38C338.574 587.647 336.417 589.822 336.417 589.822L329.55 590.373L324.694 594.624L320.955 601.882L328.112 604.596L330.801 607.548L334.678 608.363L332.622 616.356L320.724 623.796L231.407 649.64L126.555 659.667L13.9243 657.89L0.0473635 657.086L0.813379 593.365L18.8925 594.127Z" fill="url(#paint2_linear_7_5212)"/>
<path fill-rule="evenodd" clip-rule="evenodd" d="M333.934 604.266L327.886 603.091L324.349 603.504L327.311 604.575L330.132 607.53L334.194 608.35C334.442 607.699 334.549 606.966 334.503 606.242C334.457 605.517 334.259 604.83 333.934 604.266Z" fill="url(#paint3_linear_7_5212)"/>
<path fill-rule="evenodd" clip-rule="evenodd" d="M185.579 557.6L149.502 556.241L128.2 556.074L102.783 558.666L52.1939 562.456L114.911 564.124L141.703 563.531L179.851 559.541L185.579 557.6Z" fill="url(#paint4_linear_7_5212)"/>
<path fill-rule="evenodd" clip-rule="evenodd" d="M273.033 584.134L251.428 585.21C245.289 584.612 239.207 583.303 233.249 581.296L222.259 586.807L213.901 587.502L212.177 590.099L143.791 589.175L117.854 583.35L104.963 579.663L52.1867 562.444L113.236 561.49L123.64 564.345L144.888 563.195L182.989 558.685C182.989 558.685 208.691 563.512 213.275 565.144C217.859 566.776 248.898 573.578 248.898 573.578L278.567 581.649C278.567 581.649 278.736 583.272 273.033 584.134Z" fill="url(#paint5_linear_7_5212)"/>
<path fill-rule="evenodd" clip-rule="evenodd" d="M327.535 565.573L325.421 567.674L322.11 566.507L320.583 565.388L321.56 563.257C321.56 563.257 325.801 563.564 327.535 565.573Z" fill="#C2FFFF"/>
<path fill-rule="evenodd" clip-rule="evenodd" d="M333.209 572.488L330.403 572.413L328.452 570.128C328.452 570.128 330.606 569.279 333.209 572.488Z" fill="#C2FFFF"/>
<path fill-rule="evenodd" clip-rule="evenodd" d="M338.203 571.056L341.313 574.537L340.535 576.016L337.005 575.922L334.617 574.133L338.203 571.056Z" fill="#C2FFFF"/>
<path fill-rule="evenodd" clip-rule="evenodd" d="M97.0274 596.205L81.7267 598.053L74.2845 597.855L58.7495 596.309L50.9997 596.739L40.476 596.956L35.9386 601.128L26.1287 600.156L17.8024 598.532L15.1097 594.026L5.97984 592.996L0.206911 593.349L39.0316 588.438L59.3323 592.096L78.8068 592.614L97.0274 596.205Z" fill="url(#paint6_linear_7_5212)"/>
<path fill-rule="evenodd" clip-rule="evenodd" d="M298.281 579.617L292.089 578.567L287.691 577.242L280.576 578.099L270.203 578.87L258.183 575.81L278.574 581.66L281.573 581.006L282.829 581.773L298.281 579.617Z" fill="url(#paint7_linear_7_5212)"/>
<path fill-rule="evenodd" clip-rule="evenodd" d="M143.822 589.176L132.147 586.557L117.822 583.36L102.082 578.734L122.223 582.496L151.094 588.819L145.306 602.387L143.822 589.176Z" fill="url(#paint8_linear_7_5212)"/>
</g>
<mask id="mask1_7_5212" style="mask-type:alpha" maskUnits="userSpaceOnUse" x="330" y="482" width="1116" height="482">
<rect x="330" y="482" width="1116" height="482" fill="white"/>
</mask>
<g mask="url(#mask1_7_5212)">
<path fill-rule="evenodd" clip-rule="evenodd" d="M991.508 493.598C993.645 497.742 996.031 501.768 998.654 505.655C1000.46 508.194 1002.46 510.605 1004.64 512.869L1001.64 517.131L892.282 521.824L787.854 530.441C790.52 534.079 793.382 537.585 796.429 540.947C798.248 542.591 800.229 544.067 802.346 545.356C802.346 545.356 804.532 555.363 805.304 559.476C805.709 562.177 805.293 564.932 804.103 567.419L808.72 581.525L957.251 610.937H1052.35L1245.28 628.293L1446.16 637.814V539.288L1263.86 514.474L991.508 493.598Z" fill="url(#paint9_linear_7_5212)"/>
<path fill-rule="evenodd" clip-rule="evenodd" d="M1032.37 517.535C1032.37 517.535 1023.28 513.422 1017.43 512.761C1011.59 512.1 862.697 517.225 853.808 517.535L833.971 516.078C833.971 516.078 829.97 512.033 825.997 512.707C823.475 513.187 821.033 513.985 818.737 515.08C818.737 515.08 817.307 519.382 816.035 520.475C814.764 521.567 809.404 522.457 809.404 522.457L805.288 525.545L798.886 521.567L791.826 525.559L787.381 530.198C787.381 530.198 798.143 531.546 801.415 532.396C804.688 533.246 855.409 530.414 870.358 532.396C885.306 534.378 902.156 534.378 903.328 535.484C904.5 536.59 919.978 539.53 925.666 538.964C931.354 538.397 989.049 530.198 989.049 530.198L1022.18 523.698L1032.37 517.535Z" fill="url(#paint10_linear_7_5212)"/>
<path fill-rule="evenodd" clip-rule="evenodd" d="M1445.99 482H1182.84C1179.23 483.466 1175.44 484.49 1171.55 485.048C1166.88 485.412 1111.91 486.073 1104.18 486.194C1096.45 486.315 1075.51 485.196 1062.29 486.194C1049.07 487.192 1032.19 487.785 1026.92 488.662C1021.65 489.538 1006.63 491.008 1001.2 491.885C995.766 492.762 989.849 491.885 991.092 493.355C992.336 494.825 1004.81 495.122 1009.17 497.185C1013.53 499.248 1033.21 500.705 1037.87 501.891C1042.53 503.078 1067.79 506.301 1073.6 508.054C1079.4 509.807 1084.03 511.291 1084.03 511.291C1084.03 511.291 1034.35 516.591 1028.18 518.357C1022 520.124 1016.4 521.58 1016.4 521.58C1016.4 521.58 941.644 529.82 934.298 532.463C926.952 535.107 922.336 536.293 923.236 538.06C924.137 539.827 951.005 541.593 957.207 542.173C963.41 542.753 990.849 535.997 995.523 538.357C1000.2 540.717 1005.23 542.173 1007.86 544.236C1010.49 546.3 1018.62 544.533 1025.76 546.286C1032.91 548.039 1147.91 549.523 1154.14 550.71C1160.38 551.896 1165.99 557.452 1172.85 558.936C1179.71 560.419 1445.72 560.702 1445.72 560.702L1445.99 482Z" fill="url(#paint11_radial_7_5212)"/>
<path fill-rule="evenodd" clip-rule="evenodd" d="M1410.71 559.886L1416.54 630.246L1372.86 629.673L1350.8 629.162L1347.45 629.673L1343.82 628.395L1304.72 627.118L1258.81 624.938L1247.83 590.948L1239.26 559.899L1238.23 593.458L1239.26 615.761L1229.05 622.925L1183.81 619.196L1172.64 557.834L1153.94 549.859L1147.18 586.059L1139.41 589.196L1142.27 607.29L1098.64 608.388L1034.68 610.362L1025.58 545.571L1020.01 544.813L1026.55 581.039L1010.31 544.434L1009.24 593.641L1002.83 567.22L989.468 566.946L990.568 537.401L957.053 541.558L959.425 562.579L933.982 565.795L919.696 562.579L901.553 534.616L871.553 533.309L880.396 550.134L882.553 559.546L887.967 583.497L863.339 578.712L847.624 545.179L846.196 537.492L841.324 531.505L801.324 532.106L787.295 529.975C787.295 529.975 793.967 538.59 795.867 540.159C797.767 541.728 801.781 544.434 801.781 544.434L814.924 545.323L823.995 550.631L830.753 559.546L816.867 562.606L811.538 566.096L804.052 566.959L807.538 576.712L829.938 586.111L999.811 620.311L1200.4 635.841L1416.59 637.319L1445.44 634.064V559.546L1410.71 559.886Z" fill="url(#paint12_linear_7_5212)"/>
<path fill-rule="evenodd" clip-rule="evenodd" d="M907.587 567.176L915.133 608.442C915.133 608.442 938.785 616.951 948.161 618.677C957.536 620.404 968.397 614.632 968.397 614.632L985.719 613.175L997.624 605.569L1002.95 568.7L973.328 568.349L907.587 567.176Z" fill="url(#paint13_linear_7_5212)"/>
<path fill-rule="evenodd" clip-rule="evenodd" d="M907.587 567.176C907.587 567.176 936.17 556.873 940.143 557.169C944.116 557.466 957.136 557.169 957.136 557.169C957.136 557.169 967.74 561.579 974.285 562.172C980.831 562.766 1002.95 568.646 1002.95 568.646C1002.95 568.646 987.734 570.992 982.875 570.992L984.876 573.932C975.982 575.043 966.972 575.043 958.079 573.932C958.079 573.932 944.659 571.289 907.587 567.176Z" fill="url(#paint14_linear_7_5212)"/>
<path fill-rule="evenodd" clip-rule="evenodd" d="M804.888 563.251L816.036 561.984L822.495 562.618L817.007 563.858L811.677 567.459L804.188 568.349C803.77 567.526 803.614 566.607 803.738 565.702C803.862 564.798 804.262 563.946 804.888 563.251Z" fill="url(#paint15_linear_7_5212)"/>
<path fill-rule="evenodd" clip-rule="evenodd" d="M1079.3 509.848L1145.48 509.349L1184.53 509.848L1230.96 513.934L1323.46 520.353H1208.44L1159.37 518.722L1089.69 512.464L1079.3 509.848Z" fill="url(#paint16_linear_7_5212)"/>
<path fill-rule="evenodd" clip-rule="evenodd" d="M917.591 540.11L957.121 542.173C968.405 541.63 979.62 540.196 990.649 537.885L1010.49 545.14L1025.76 546.286L1028.78 549.59L1154.14 550.71L1201.99 544.29L1225.82 540.11L1323.47 520.34L1211.65 517.117L1192.43 520.34L1153.56 518.196L1083.99 511.291C1083.99 511.291 1036.63 516.469 1028.14 518.357C1019.65 520.245 962.395 527.716 962.395 527.716L907.587 536.819C907.587 536.819 907.187 538.842 917.591 540.11Z" fill="url(#paint17_linear_7_5212)"/>
<path fill-rule="evenodd" clip-rule="evenodd" d="M818.737 515.094L822.495 517.791L828.626 516.443L831.485 515.094L829.813 512.397C829.813 512.397 822.024 512.64 818.737 515.094Z" fill="#C2FFFF"/>
<path fill-rule="evenodd" clip-rule="evenodd" d="M807.961 523.549H813.106L816.807 520.758C816.807 520.758 812.906 519.625 807.961 523.549Z" fill="#C2FFFF"/>
<path fill-rule="evenodd" clip-rule="evenodd" d="M798.886 521.594L792.998 525.842L794.341 527.717H800.815L805.288 525.559L798.886 521.594Z" fill="#C2FFFF"/>
<path fill-rule="evenodd" clip-rule="evenodd" d="M1352.18 520.609L1445.66 517.777L1445.99 527.716L1352.18 520.609Z" fill="url(#paint18_linear_7_5212)"/>
<path fill-rule="evenodd" clip-rule="evenodd" d="M1239.45 561.053L1271.89 563.872H1287.74L1320.9 562.456L1337.36 563.252L1359.74 563.872L1369.13 569.239L1390.07 568.349L1407.89 566.596L1413.91 561.053L1433.4 560.069L1445.66 560.703L1363.36 553.272L1319.93 557.17H1278.45L1239.45 561.053Z" fill="url(#paint19_linear_7_5212)"/>
<path fill-rule="evenodd" clip-rule="evenodd" d="M871.572 533.623L882.977 532.517L891.109 531.007L904.1 532.315L923.065 533.623L945.259 530.198L907.573 536.833L902.113 535.916L899.769 536.833L871.572 533.623Z" fill="url(#paint20_linear_7_5212)"/>
<path fill-rule="evenodd" clip-rule="evenodd" d="M1154.09 550.71L1175.62 547.824L1202.05 544.304L1231.15 539.045L1194.03 543.077L1140.78 550.022L1150.64 567.176L1154.09 550.71Z" fill="url(#paint21_linear_7_5212)"/>
<path fill-rule="evenodd" clip-rule="evenodd" d="M1182.84 482L1224.62 486.086L1228.09 490.186L1210.81 488.905H1179.94L1156.93 486.086L1182.84 482Z" fill="url(#paint22_linear_7_5212)"/>
</g>
<defs>
<linearGradient id="paint0_linear_7_5212" x1="161.984" y1="659.337" x2="165.051" y2="544.055" gradientUnits="userSpaceOnUse">
<stop stop-color="#009DBA"/>
<stop offset="1" stop-color="#000E77"/>
</linearGradient>
<linearGradient id="paint1_linear_7_5212" x1="344.352" y1="574.607" x2="210.803" y2="570.611" gradientUnits="userSpaceOnUse">
<stop stop-color="#6BEBED"/>
<stop offset="1" stop-color="#3994DD"/>
</linearGradient>
<linearGradient id="paint2_linear_7_5212" x1="170.26" y1="662.048" x2="172.615" y2="573.534" gradientUnits="userSpaceOnUse">
<stop stop-color="#097098"/>
<stop offset="1" stop-color="#003194"/>
</linearGradient>
<linearGradient id="paint3_linear_7_5212" x1="334.535" y1="605.814" x2="324.289" y2="605.507" gradientUnits="userSpaceOnUse">
<stop stop-color="#4CCCED"/>
<stop offset="1" stop-color="#39BDDD"/>
</linearGradient>
<linearGradient id="paint4_linear_7_5212" x1="185.46" y1="561.599" x2="52.3387" y2="557.616" gradientUnits="userSpaceOnUse">
<stop stop-color="#0059A2"/>
<stop offset="1" stop-color="#000E77"/>
</linearGradient>
<linearGradient id="paint5_linear_7_5212" x1="278.714" y1="576.993" x2="51.9622" y2="570.208" gradientUnits="userSpaceOnUse">
<stop stop-color="#4CCCED"/>
<stop offset="1" stop-color="#39BDDD"/>
</linearGradient>
<linearGradient id="paint6_linear_7_5212" x1="97.0226" y1="596.367" x2="0.203295" y2="593.47" gradientUnits="userSpaceOnUse">
<stop stop-color="#4CCCED"/>
<stop offset="1" stop-color="#39BDDD"/>
</linearGradient>
<linearGradient id="paint7_linear_7_5212" x1="278.114" y1="581.648" x2="278.255" y2="576.344" gradientUnits="userSpaceOnUse">
<stop stop-color="#4CCCED"/>
<stop offset="1" stop-color="#39BDDD"/>
</linearGradient>
<linearGradient id="paint8_linear_7_5212" x1="126.05" y1="601.875" x2="126.648" y2="579.388" gradientUnits="userSpaceOnUse">
<stop stop-color="#0059A2"/>
<stop offset="1" stop-color="#000E77"/>
</linearGradient>
<linearGradient id="paint9_linear_7_5212" x1="1116.96" y1="637.814" x2="1116.96" y2="493.598" gradientUnits="userSpaceOnUse">
<stop stop-color="#009DBA"/>
<stop offset="1" stop-color="#000E77"/>
</linearGradient>
<linearGradient id="paint10_linear_7_5212" x1="787.424" y1="525.828" x2="1032.37" y2="525.828" gradientUnits="userSpaceOnUse">
<stop stop-color="#6BEBED"/>
<stop offset="1" stop-color="#3994DD"/>
</linearGradient>
<radialGradient id="paint11_radial_7_5212" cx="0" cy="0" r="1" gradientUnits="userSpaceOnUse" gradientTransform="translate(1184.53 521.351) scale(187.219 176.662)">
<stop stop-color="#4CACED"/>
<stop offset="1" stop-color="#39A5DD"/>
</radialGradient>
<linearGradient id="paint12_linear_7_5212" x1="1116.41" y1="637.319" x2="1116.41" y2="529.975" gradientUnits="userSpaceOnUse">
<stop stop-color="#097098"/>
<stop offset="1" stop-color="#003194"/>
</linearGradient>
<linearGradient id="paint13_linear_7_5212" x1="955.249" y1="619.001" x2="955.249" y2="567.176" gradientUnits="userSpaceOnUse">
<stop stop-color="#00B4BA"/>
<stop offset="1" stop-color="#0031A2"/>
</linearGradient>
<linearGradient id="paint14_linear_7_5212" x1="907.573" y1="565.948" x2="1002.94" y2="565.948" gradientUnits="userSpaceOnUse">
<stop stop-color="#4CCCED"/>
<stop offset="1" stop-color="#39BDDD"/>
</linearGradient>
<linearGradient id="paint15_linear_7_5212" x1="803.702" y1="565.166" x2="822.495" y2="565.166" gradientUnits="userSpaceOnUse">
<stop stop-color="#4CCCED"/>
<stop offset="1" stop-color="#39BDDD"/>
</linearGradient>
<linearGradient id="paint16_linear_7_5212" x1="1079.3" y1="514.851" x2="1323.46" y2="514.851" gradientUnits="userSpaceOnUse">
<stop stop-color="#0059A2"/>
<stop offset="1" stop-color="#000E77"/>
</linearGradient>
<linearGradient id="paint17_linear_7_5212" x1="907.573" y1="530.993" x2="1323.46" y2="530.993" gradientUnits="userSpaceOnUse">
<stop stop-color="#4CCCED"/>
<stop offset="1" stop-color="#39BDDD"/>
</linearGradient>
<linearGradient id="paint18_linear_7_5212" x1="1352.18" y1="522.754" x2="1445.99" y2="522.754" gradientUnits="userSpaceOnUse">
<stop stop-color="#0059A2"/>
<stop offset="1" stop-color="#000E77"/>
</linearGradient>
<linearGradient id="paint19_linear_7_5212" x1="1239.45" y1="561.256" x2="1445.66" y2="561.256" gradientUnits="userSpaceOnUse">
<stop stop-color="#4CCCED"/>
<stop offset="1" stop-color="#39BDDD"/>
</linearGradient>
<linearGradient id="paint20_linear_7_5212" x1="908.416" y1="536.833" x2="908.416" y2="530.198" gradientUnits="userSpaceOnUse">
<stop stop-color="#4CCCED"/>
<stop offset="1" stop-color="#39BDDD"/>
</linearGradient>
<linearGradient id="paint21_linear_7_5212" x1="1185.96" y1="567.176" x2="1185.96" y2="539.045" gradientUnits="userSpaceOnUse">
<stop stop-color="#0059A2"/>
<stop offset="1" stop-color="#000E77"/>
</linearGradient>
<linearGradient id="paint22_linear_7_5212" x1="1156.93" y1="486.086" x2="1228.09" y2="486.086" gradientUnits="userSpaceOnUse">
<stop stop-color="#4CCCED"/>
<stop offset="1" stop-color="#39BDDD"/>
</linearGradient>
</defs>
</svg>
