<svg width="1446" height="964" viewBox="0 0 1446 964" fill="none" xmlns="http://www.w3.org/2000/svg">
<path fill-rule="evenodd" clip-rule="evenodd" d="M144.595 420.144L215.853 402.246L221.695 402.203L423.451 325.381L481.158 357.088L486.641 358.403L558.688 391.711L564.171 393.012L586.637 400.874L622.251 406.478L525.212 388.251L528.327 387.965L576.172 367.566L586.594 364.393L638.098 390.596L641.472 390.367L650.702 398.93L663.65 404.748L747.051 331.643H751.028L802.733 279.294L807.686 277.378L839.625 306.211L842.037 306.626L962.804 402.246L966.88 402.747L1061.72 375.986L1068.3 375.614L1184.46 433.981L1258.44 391.511L1262.82 391.711L1371.31 336.689L1446 363.263V509.917L144.595 509.703V420.144Z" fill="url(#paint0_linear_4_3674)"/>
<g style="mix-blend-mode:soft-light">
<path fill-rule="evenodd" clip-rule="evenodd" d="M807.686 277.378L844.176 319.863L813.485 288.242L805.274 289.915L841.161 336.689L818.151 310.128L798.427 329.212L802.533 356.53L798.427 357.645L789.384 345.294L784.603 346.795L800.422 384.735L723.007 428.564L668.488 400.802L747.051 331.643L774.311 373.184L751.028 331.643L802.734 279.294L807.686 277.378Z" fill="white"/>
</g>
<g style="mix-blend-mode:soft-light">
<path fill-rule="evenodd" clip-rule="evenodd" d="M915.419 389.624L844.176 319.863L881.441 358.031L879.805 359.518L899.528 383.505L915.419 389.624Z" fill="white"/>
</g>
<g style="mix-blend-mode:soft-light">
<path fill-rule="evenodd" clip-rule="evenodd" d="M423.452 325.381L456.769 354.744L423.452 330.713L418.959 331.643L440.06 348.668L423.897 340.062L401.432 350.912L429.093 385.221L412.384 368.496L409.097 368.696L421.988 380.861L384.45 402.161L341.156 364.393L336.376 366.637L361.267 389.624L282.201 379.16L423.452 325.381Z" fill="white"/>
</g>
<g style="mix-blend-mode:soft-light">
<path fill-rule="evenodd" clip-rule="evenodd" d="M1068.3 375.614L1084.92 386.836L1072.32 381.218L1068.3 380.475L1090.76 405.548L1068.3 409.665L1035.78 387.465L1032.8 387.708L1037.79 391.511L1029.38 386.207L1023.47 386.779L1043.09 405.305L1010.94 406.292L995.964 394.327L1061.72 375.986L1068.3 375.614Z" fill="white"/>
</g>
<g style="mix-blend-mode:soft-light" opacity="0.5">
<path fill-rule="evenodd" clip-rule="evenodd" d="M747.052 331.643L786.484 392.626L747.052 414.94L726.912 357.274L739.745 419.086L733.328 422.717L712.399 361.948L747.052 331.643Z" fill="white"/>
</g>
<g style="mix-blend-mode:soft-light">
<path fill-rule="evenodd" clip-rule="evenodd" d="M802.734 279.294L805.274 289.915L841.161 336.689L818.151 310.128L798.427 329.212L786.484 305.64L802.533 356.53L798.427 357.645L789.384 345.294L773.507 308.885L802.734 279.294Z" fill="white"/>
</g>
<g style="mix-blend-mode:soft-light" opacity="0.5">
<path fill-rule="evenodd" clip-rule="evenodd" d="M392.718 337.089L429.093 385.221L412.384 368.496L392.718 350.255L409.097 368.696L421.988 380.861L403.527 391.339L371.832 352.228L399.034 393.884L391.8 397.986L359.401 349.769L392.718 337.089Z" fill="white"/>
</g>
<g style="mix-blend-mode:soft-light">
<path fill-rule="evenodd" clip-rule="evenodd" d="M1213.42 417.356L1258.44 391.511L1321.73 437.312L1262.82 391.711L1371.31 336.689L1399.07 349.169L1392.14 364.136L1365.04 353.757L1362.31 353.729L1407.49 380.103L1355.97 403.047L1315.87 375.615H1311.83L1368.84 423.446L1323.09 389.624L1298.89 385.221L1399.81 461.471L1306.13 472.393L1235.24 425.833L1275.97 457.154L1213.42 417.356Z" fill="white"/>
</g>
<g style="mix-blend-mode:soft-light">
<path fill-rule="evenodd" clip-rule="evenodd" d="M1258.44 391.511L1321.73 437.312L1353.91 464.93L1338.41 466.231L1258.44 402.16L1253.5 404.533L1313.78 451.693L1283.6 457.597L1222.19 412.324L1258.44 391.511Z" fill="white"/>
</g>
<g style="mix-blend-mode:soft-light">
<path fill-rule="evenodd" clip-rule="evenodd" d="M1371.31 336.689L1399.07 349.169L1395.37 357.145L1368.02 341.192L1366.75 342.436L1392.92 362.435L1392.14 364.136L1350.76 347.124L1371.31 336.689Z" fill="white"/>
</g>
<g style="mix-blend-mode:soft-light">
<path fill-rule="evenodd" clip-rule="evenodd" d="M1347.21 349.04L1393.52 386.322L1370.36 396.643L1329.67 364.135H1326.38L1362.47 400.159L1355.97 403.047L1307.66 368.967L1347.21 349.04Z" fill="white"/>
</g>
<path fill-rule="evenodd" clip-rule="evenodd" d="M1301.4 349.74L1100.98 438.956H1093.68L926.185 402.975H920.342L849.832 367.566L765.641 406.521L761.98 406.849L718.098 431.666L715.126 430.765L620.945 341.463L618.059 341.764L547.735 270.245H540.601L482.163 343.122L476.134 347.682L432.509 403.033L336.376 390.481L333.749 387.765L143.72 338.233L138.595 339.934L86.832 405.191L39.289 422.059L0 376.772V963.721H1446V444.288L1321.73 374.742L1315.87 371.512L1301.4 349.74Z" fill="url(#paint1_linear_4_3674)"/>
<path opacity="0.53" fill-rule="evenodd" clip-rule="evenodd" d="M620.945 341.463L627.921 349.883L657.506 408.879L622.438 381.504L612.806 377.616L611.298 381.332L615.863 394.184L608.557 381.332L618.059 341.763L620.945 341.463Z" fill="white"/>
<g style="mix-blend-mode:soft-light">
<path fill-rule="evenodd" clip-rule="evenodd" d="M576.517 446.261L540.056 395.642L550.19 324.867L561.157 339.562L547.865 302.681L553.52 322.58L540.056 284.168L547.735 273.404L550.463 274.048L566.971 286.499L547.735 270.231H540.558L482.12 343.136L485.938 350.727L476.076 347.696L432.51 403.033L440.06 402.118L469.918 370.954L466.904 379.531L422.031 440.743L576.517 446.261ZM541.434 416.313L544.075 417.328L550.649 422.059H546.042L541.434 416.313ZM501.7 437.098H492.369L489.067 413.783L492.369 415.126L501.7 437.098ZM537.515 318.834L533.998 281.281L537.084 283.068L547.133 321.665L537.515 318.834ZM553.764 420.93L546.989 417.471L529.103 396.028L538.233 398.558L553.764 420.93Z" fill="white"/>
</g>
<g style="mix-blend-mode:soft-light">
<path fill-rule="evenodd" clip-rule="evenodd" d="M564.444 345.152L570.201 349.197L595.135 400.602L566.913 351.985L564.444 345.152Z" fill="white"/>
</g>
<g style="mix-blend-mode:soft-light">
<path fill-rule="evenodd" clip-rule="evenodd" d="M705.006 450.835L657.506 408.879L689.101 441.415L681.249 438.87L687.723 450.221L705.006 450.835Z" fill="white"/>
</g>
<g style="mix-blend-mode:soft-light">
<path fill-rule="evenodd" clip-rule="evenodd" d="M765.627 406.506L789.097 453.837L857.755 456.268L831.4 425.776L865.737 408.894L872.914 417.842L860.426 404.605L868.665 404.777L895.738 420.873L845.066 378.988L849.889 367.552L765.627 406.506ZM851.238 389.795L857.669 391.825L866.526 401.532H861.789L851.238 389.795ZM830.654 433.195L831.946 430.922L835.778 435.483L833.223 436.483L830.654 433.195ZM814.993 405.377L820.735 408.393L834.199 422.46H830.682L814.993 405.377Z" fill="white"/>
</g>
<g style="mix-blend-mode:soft-light">
<path fill-rule="evenodd" clip-rule="evenodd" d="M761.98 406.849L784.604 453.666L730.572 450.836L718.098 431.666L737.175 420.873L751.358 446.261L742.314 417.971L761.98 406.849Z" fill="white"/>
</g>
<g style="mix-blend-mode:soft-light">
<path fill-rule="evenodd" clip-rule="evenodd" d="M920.342 402.975L1018.93 462.014L1032.8 462.515L926.185 402.975H920.342Z" fill="white"/>
</g>
<g style="mix-blend-mode:soft-light">
<path fill-rule="evenodd" clip-rule="evenodd" d="M1101.01 438.913L1128.66 465.874L1173.47 467.504L1141.72 430.837L1149.24 429.85L1193.66 468.218L1290.77 471.678L1237.65 381.847L1256.83 375.228L1326.86 460.213L1338.45 460.985L1279.3 381.847L1283.69 379.546L1310.52 397.786L1301.45 349.712L1101.01 438.913ZM1158.95 419.372L1162.26 417.371L1176.82 430.808L1187.5 453.68L1158.95 419.372Z" fill="white"/>
</g>
<g style="mix-blend-mode:soft-light">
<path fill-rule="evenodd" clip-rule="evenodd" d="M336.375 390.481L369.363 420.873L347.73 396.285L352.869 397.057L395.402 429.865L432.509 403.033L336.375 390.481Z" fill="white"/>
</g>
<g style="mix-blend-mode:soft-light">
<path fill-rule="evenodd" clip-rule="evenodd" d="M216.901 357.317L266.626 406.849L216.901 370.969L172.372 359.533L245.438 434.911L197.192 432.752L162.884 379.56L190.632 432.524L177.152 432.037L125.805 363.807L121.226 366.637L157.013 430.851L86.8321 405.191L138.595 339.934L143.72 338.233L216.901 357.317Z" fill="white"/>
</g>
<g style="mix-blend-mode:soft-light">
<path fill-rule="evenodd" clip-rule="evenodd" d="M305.8 436.626L266.626 406.849L297.043 436.312L305.8 436.626Z" fill="white"/>
</g>
<g style="mix-blend-mode:soft-light">
<path fill-rule="evenodd" clip-rule="evenodd" d="M259.506 379.56L266.626 381.861L291.287 410.166L259.506 379.56Z" fill="white"/>
</g>
<path fill-rule="evenodd" clip-rule="evenodd" d="M1235.24 469.891L1226.66 462.515L1203.46 464.988L1201.19 467.947L1198.61 467.69L1194.04 465.074L1182.82 466.932L1175.23 467.59L1163 466.203L1161.09 464.23L1156.97 463.301L1147.92 466.203L1145.28 465.331L1135.03 466.146L1235.24 469.891Z" fill="#4F8DF4"/>
<path fill-rule="evenodd" clip-rule="evenodd" d="M973.785 460.413L965 456.268H951.033L906.921 458.341L973.785 460.413Z" fill="#4F8DF4"/>
<g style="mix-blend-mode:soft-light">
<path fill-rule="evenodd" clip-rule="evenodd" d="M534.041 281.295L491.565 333.987L523.619 294.075L524.308 296.734L503.078 330.699L529.103 396.042L538.233 398.573L540.056 395.642L544.936 367.995L534.041 332.729L545.467 351.642L549.846 326.825L536.366 317.891L534.041 281.295Z" fill="white"/>
</g>
<g style="mix-blend-mode:soft-light">
<path fill-rule="evenodd" clip-rule="evenodd" d="M476.119 347.682L485.995 350.727L507.255 412.596L484.531 368.996L481.976 369.339L516.514 440.086H502.977L476.119 347.682Z" fill="white"/>
</g>
<g style="mix-blend-mode:soft-light">
<path fill-rule="evenodd" clip-rule="evenodd" d="M622.438 381.504L656.258 407.907L636.649 376.729L620.428 347.682L627.921 349.883L620.945 341.463L618.059 341.763L610.48 376.015L612.806 377.616L622.438 381.504Z" fill="white"/>
</g>
<g style="mix-blend-mode:soft-light">
<path fill-rule="evenodd" clip-rule="evenodd" d="M466.904 379.56L493.661 439.557L473.033 439.085L456.769 400.602L453.855 399.931L470.636 439.028L446.362 438.456L444.883 409.565L466.904 379.56Z" fill="white"/>
</g>
<g style="mix-blend-mode:soft-light">
<path fill-rule="evenodd" clip-rule="evenodd" d="M865.737 408.893L851.167 389.795L857.598 391.825L868.665 404.748L877.149 405.234L880.651 406.077L845.008 378.988L849.832 367.566L809.452 386.178L820.706 408.336L806.15 387.765L795.729 392.597L835.778 447.505L851.167 447.862L831.4 425.79L856.004 413.668L834.171 389.795L857.641 412.882L865.737 408.893Z" fill="white"/>
</g>
<g style="mix-blend-mode:soft-light">
<path fill-rule="evenodd" clip-rule="evenodd" d="M797.982 404.505L765.627 406.52L784.604 446.261L811.476 446.947L793.762 405.677L794.307 410.394L816.787 446.947H826.275L797.982 404.505Z" fill="white"/>
</g>
<g style="mix-blend-mode:soft-light">
<path fill-rule="evenodd" clip-rule="evenodd" d="M1162.48 411.581L1162.23 417.413L1176.79 430.851L1188.39 455.439L1201.19 455.996L1181.71 408.708L1205.14 455.996H1215.69L1187.47 405.506L1252.43 457.197H1269.49L1187.47 400.459L1162.48 411.581Z" fill="white"/>
</g>
<g style="mix-blend-mode:soft-light">
<path fill-rule="evenodd" clip-rule="evenodd" d="M1138.29 422.402L1141.72 430.851L1162.68 454.967L1129.53 454.338L1120.89 432.523L1128.08 454.309L1116.44 454.038L1100.98 438.956L1138.29 422.402Z" fill="white"/>
</g>
<g style="mix-blend-mode:soft-light">
<path fill-rule="evenodd" clip-rule="evenodd" d="M245.438 434.911L154.113 340.949L143.72 338.233L138.596 339.934L123.006 359.575L177.152 432.037L182.248 432.524L143.333 364.607L160.329 382.348L185.536 432.338L190.632 432.524L165.066 379.56L197.192 432.752L233.38 434.911L168.181 358.703L240.328 433.667L245.438 434.911Z" fill="white"/>
</g>
<path opacity="0.2" fill-rule="evenodd" clip-rule="evenodd" d="M626.457 442.644L595.135 400.602L632.213 442.773L626.457 442.644Z" fill="#223995"/>
<path opacity="0.2" fill-rule="evenodd" clip-rule="evenodd" d="M895.681 420.873L924.835 449.578L920.342 449.478L895.681 420.873Z" fill="#223995"/>
<g style="mix-blend-mode:soft-light">
<path fill-rule="evenodd" clip-rule="evenodd" d="M920.342 410.709L913.495 424.933L925.223 444.703L917.873 427.706L926.099 439.128L922.668 413.268L920.342 410.709Z" fill="white"/>
</g>
<g style="mix-blend-mode:soft-light">
<path fill-rule="evenodd" clip-rule="evenodd" d="M588.46 405.062L577.866 425.447L588.46 420.873V405.062Z" fill="white"/>
</g>
<g style="mix-blend-mode:soft-light">
<path fill-rule="evenodd" clip-rule="evenodd" d="M282.201 393.026L308.642 425.304L366.679 434.539L312.116 424.318L366.679 431.151L362.071 422.174L282.201 393.026Z" fill="white"/>
</g>
<g style="mix-blend-mode:soft-light">
<path fill-rule="evenodd" clip-rule="evenodd" d="M1336.14 439.557H1387.63L1441.62 463.329L1411.55 462.829L1365.04 442.773L1360.09 442.43L1383.92 461.5L1351.92 459.827L1336.14 439.557Z" fill="white"/>
</g>
<g style="mix-blend-mode:soft-light">
<path fill-rule="evenodd" clip-rule="evenodd" d="M1301.4 349.726L1310.46 397.815L1301.4 391.639L1280.39 359.089L1276.17 360.962L1283.65 379.56L1279.25 381.861L1338.41 461.014L1264.18 366.637L1301.4 349.726Z" fill="white"/>
</g>
<g style="mix-blend-mode:soft-light">
<path fill-rule="evenodd" clip-rule="evenodd" d="M119.633 363.849L156.338 429.65L153.525 429.579L118.269 374.614L117.178 376.015L144.596 426.305L126.767 419.786L104.704 382.676L119.633 363.849Z" fill="white"/>
</g>
<g style="mix-blend-mode:soft-light">
<path fill-rule="evenodd" clip-rule="evenodd" d="M101.603 386.564L118.843 416.899L116.948 416.198L97.8423 391.31L101.603 386.564Z" fill="white"/>
</g>
<g style="mix-blend-mode:soft-light">
<path fill-rule="evenodd" clip-rule="evenodd" d="M80.6883 407.378L108.867 429.864L83.4731 428.707L65.5727 413.782L60.6059 414.497L73.7405 427.806L60.6059 427.892L49.4666 418.614L80.6883 407.378Z" fill="white"/>
</g>
<defs>
<linearGradient id="paint0_linear_4_3674" x1="795.298" y1="509.917" x2="795.298" y2="277.378" gradientUnits="userSpaceOnUse">
<stop offset="0.01" stop-color="#86F9FF"/>
<stop offset="1" stop-color="#4C51DD"/>
</linearGradient>
<linearGradient id="paint1_linear_4_3674" x1="723.007" y1="542.367" x2="723.007" y2="270.231" gradientUnits="userSpaceOnUse">
<stop offset="0.01" stop-color="#86C4FF"/>
<stop offset="1" stop-color="#4C40DD"/>
</linearGradient>
</defs>
</svg>
