<svg width="313" height="473" viewBox="0 0 313 473" fill="none" xmlns="http://www.w3.org/2000/svg">
<path d="M51.7538 248.107C52.7898 247.919 53.8574 248.019 54.8403 248.396C56.3188 249.037 58.2621 253.403 61.501 253.159C62.9185 252.87 63.4824 252.115 63.7187 250.713C63.7187 250.713 60.9447 249.425 58.384 244.289C55.8234 239.152 53.9334 236.287 49.498 237.491C49.498 237.491 49.7572 244.936 51.7538 248.107Z" fill="url(#paint0_linear_32_719)"/>
<path d="M49.4067 272.196L55.7016 276.807C56.5287 276.26 57.2333 275.548 57.7711 274.715C58.309 273.882 58.6682 272.947 58.8262 271.968C59.5044 268.477 57.302 263.006 54.4975 259.073L53.7964 255.941C53.7964 255.941 55.8007 259.035 57.1496 260.956C58.4985 262.876 61.6078 266.206 61.6078 266.206C62.2517 264.425 62.3655 262.495 61.9353 260.65C61.5052 258.805 60.5497 257.125 59.1844 255.812C57.0086 254.654 55.1052 253.044 53.6017 251.091C52.0981 249.138 51.0291 246.886 50.466 244.487L45.8249 246.392L45.2305 261.68L49.4067 272.196Z" fill="url(#paint1_linear_32_719)"/>
<path d="M47.1735 265.056C53.133 270.39 50.6791 275.367 50.6791 275.367C50.6791 275.367 43.5459 269.201 42.5171 267.746C41.4883 266.29 40.9014 252.367 39.0343 246.156C37.1672 239.945 28.7613 225.16 21.1937 208.447C19.004 203.58 17.0682 198.602 15.3942 193.533C13.5267 188.058 12.0046 182.471 10.8369 176.805L15.4095 157.898C26.8408 153.843 44.8491 157.136 44.8491 157.136L32.7623 180.867C40.1851 190.226 41.9836 203.951 42.6695 215.116C43.142 222.401 43.1496 228.589 43.927 231.783C45.0125 236.494 47.2604 240.859 50.4657 244.479L49.4902 248.084C49.4902 248.084 49.8865 250.995 48.2251 255.758C47.2282 258.75 46.8699 261.917 47.1735 265.056Z" fill="url(#paint2_linear_32_719)"/>
<path fill-rule="evenodd" clip-rule="evenodd" d="M169.703 412.353C169.916 413.435 166.776 417.847 166.776 417.847C166.776 417.847 150.117 427.351 143.86 427.755C137.603 428.159 126.187 422.961 126.187 422.961C126.187 422.961 119.062 412.155 119.328 410.455V410.356C119.93 409.045 125.562 408.908 125.562 408.908V408.839C125.212 408.161 122.415 402.743 122.262 401.401C122.228 400.992 122.321 400.582 122.528 400.228C122.736 399.873 123.047 399.591 123.421 399.42C123.421 399.42 121.005 385.763 122.986 373.364C124.968 360.965 127.559 340.922 127.399 335.884C127.239 330.847 115.289 272.989 109.871 263.486C109.467 263.143 103.012 257.549 94.7889 257.755C94.7889 257.755 89.4542 320.734 83.0603 334.772C83.0603 334.772 80.8655 342.179 77.4818 346.599C67.9404 359.367 61.683 374.285 59.2602 390.039C59.2602 390.039 64.168 395.922 64.4653 398.315C64.4662 398.83 64.3996 399.342 64.2671 399.839C63.4059 403.139 60.1899 409.32 59.8089 410.082L59.7632 410.158L59.8318 412.955C59.8318 412.955 43.3172 419.867 33.7834 420.111C24.2497 420.355 17.4213 415.096 17.1546 413.801C16.8879 412.505 20.142 411.774 20.142 411.774C20.142 411.774 16.4459 406.256 15.478 403.314C15.3023 402.874 15.2192 402.402 15.2341 401.927C15.6152 400.083 19.5247 399.207 21.0641 398.437C21.1501 398.401 21.234 398.36 21.3156 398.315C22.6188 397.553 24.4097 391.731 24.6612 388.69C24.9127 385.649 23.8229 375.65 32.5717 361.796C41.3205 347.941 51.0524 335.32 54.0856 326.648C57.1187 317.975 61.1883 267.136 59.8851 246.857L144.531 235.753C144.531 235.753 148.433 237.376 148.471 237.75C148.509 238.123 144.973 243.969 144.744 244.327C144.744 244.327 155.055 301.735 155.474 331.967C155.474 331.967 154.179 345.289 153.836 358.069C153.493 370.849 159.224 400.426 161.457 404.282C163.69 408.138 169.443 411.278 169.703 412.353Z" fill="url(#paint3_linear_32_719)"/>
<path style="mix-blend-mode:multiply" opacity="0.6" d="M166.784 417.84C166.784 417.84 150.117 427.358 143.845 427.747C137.573 428.136 126.18 422.961 126.18 422.961C126.18 422.961 119.069 412.147 119.321 410.44V410.348C119.321 410.348 129.495 414.487 144.851 414.418C144.851 414.418 132.604 412.772 125.562 408.893L125.524 408.824C125.181 408.146 122.377 402.727 122.24 401.394C122.201 400.987 122.29 400.578 122.493 400.223C122.696 399.868 123.005 399.585 123.375 399.412C123.375 399.412 120.982 385.756 122.948 373.356C124.915 360.957 127.521 340.907 127.376 335.877C127.231 330.847 115.259 272.974 109.848 263.478C109.848 263.478 103.195 257.518 94.7509 257.724L79.5472 269.369C79.5472 269.369 76.0568 339.337 73.3285 340.655C70.6002 341.974 52.5539 362.862 50.0999 368.639C47.646 374.416 44.7653 401.973 44.7653 401.973C44.7653 401.973 59.024 401.211 64.4882 398.284L64.2901 399.809C63.3756 403.337 59.8014 410.127 59.8014 410.127L59.87 412.932C59.87 412.932 43.3478 419.844 33.8217 420.08C24.2955 420.317 17.4443 415.073 17.1928 413.778C16.9413 412.482 20.1878 411.758 20.1878 411.758C20.1878 411.758 16.4841 406.248 15.501 403.276C19.8533 405.369 24.6106 406.485 29.4396 406.546C29.4396 406.546 24.265 401.836 21.1024 398.422L21.3615 398.284C22.6418 397.522 24.4479 391.708 24.6994 388.667C24.9509 385.626 23.8535 375.635 32.6099 361.765C41.3664 347.895 51.0831 335.305 54.1162 326.625C57.1493 317.945 61.2189 267.113 59.9081 246.826L144.508 235.761C144.508 235.761 148.41 237.369 148.448 237.757C148.486 238.146 144.942 243.961 144.737 244.327L136.963 254.958C136.963 254.958 151.87 313.982 147.099 340.106L141.254 362.344C141.254 362.344 140.301 400.975 149.995 407.483C152.556 409.198 169.695 412.345 169.695 412.345C169.924 413.42 166.784 417.84 166.784 417.84Z" fill="url(#paint4_linear_32_719)"/>
<path d="M193.541 461.271C184.533 466.019 172.004 465.028 172.004 465.028L169.299 464C168.933 463.854 168.542 463.784 168.149 463.794C167.756 463.805 167.369 463.895 167.012 464.061C165.816 464.625 164.414 467.391 164.414 467.391C147.038 471.537 133.473 468.153 133.473 468.153L134.235 463.718L134.41 462.635L175.083 459.961L192.504 458.779L193.541 461.271Z" fill="url(#paint5_linear_32_719)"/>
<path d="M93.2573 454.969C93.2573 454.969 86.3985 461.828 78.7242 462.91C74.3269 463.512 70.0287 463.672 66.927 463.786C65.4266 463.752 63.9262 463.859 62.4459 464.106C61.2342 464.533 59.9234 467.322 59.87 468.146C59.6859 468.993 59.4046 469.816 59.0317 470.599C47.9814 473.724 29.2721 471.362 29.2721 471.362L29.1196 465.265L67.9863 457.644L91.756 452.957L93.2573 454.969Z" fill="url(#paint6_linear_32_719)"/>
<path fill-rule="evenodd" clip-rule="evenodd" d="M91.7481 452.843C91.7481 452.843 91.7481 452.843 91.6947 452.843C81.5132 461.66 64.5109 461.431 64.5109 461.431L61.6226 462.803L58.437 465.638C44.5365 468.755 29.1651 465.882 29.1651 465.882C28.1862 464.692 27.591 463.233 27.458 461.698C27.458 460.387 28.2201 454.885 28.8679 450.434L29.7976 444.414C32.846 442.676 40.8785 440.748 48.1869 439.262C55.4954 437.776 62.1637 436.679 62.1637 436.679C62.8322 437.579 63.599 438.402 64.45 439.133C64.8628 439.5 65.298 439.841 65.7531 440.154C67.045 441.096 68.5194 441.758 70.0818 442.097C74.8754 443.057 86.8478 442.006 88.4101 442.943C89.9724 443.88 91.7481 452.843 91.7481 452.843Z" fill="url(#paint7_linear_32_719)"/>
<path fill-rule="evenodd" clip-rule="evenodd" d="M192.505 458.779L192.169 458.916C190.531 459.61 183.352 462.529 177.446 462.391C170.716 462.231 166.776 461.782 166.776 461.782L165.176 462.902C151.496 465.844 134.189 463.664 134.189 463.664C134.189 463.664 131.979 461.233 131.949 459.938C131.949 458.932 134.121 453.079 135.104 450.457L135.584 449.223C140.827 446.593 170.335 439.155 170.335 439.155L170.587 439.3C171.098 439.611 171.63 439.886 172.18 440.123C177.926 442.615 186.118 442.341 186.118 442.341C192.908 448.727 192.505 458.779 192.505 458.779Z" fill="url(#paint8_linear_32_719)"/>
<path fill-rule="evenodd" clip-rule="evenodd" d="M67.4524 436.816C67.4524 436.816 66.3169 437.768 64.4041 439.193C64.3603 439.238 64.3086 439.274 64.2516 439.3C58.6502 443.522 46.8378 451.616 38.5386 451.654C35.2632 451.692 31.9967 451.303 28.822 450.495C26.2839 449.905 23.8694 448.873 21.6888 447.447C21.6888 447.447 23.091 444.81 23.1672 435.878C23.2435 426.947 19.0977 421.025 19.2425 420.53C19.3873 420.034 22.7252 417.893 22.7252 417.893C25.419 418.618 28.1661 419.127 30.9406 419.417C33.0333 419.644 35.139 419.728 37.2431 419.669C44.925 419.425 59.7781 412.985 59.7781 412.985V411.53L62.0644 412.124L62.1864 417.542C62.3007 421.65 62.5064 426.794 62.7884 428.136C63.2914 430.422 67.4524 436.816 67.4524 436.816Z" fill="url(#paint9_linear_32_719)"/>
<path fill-rule="evenodd" clip-rule="evenodd" d="M172.141 437.082C172.141 437.082 171.6 437.982 170.617 439.369C167.622 443.499 160.581 451.905 152.06 452.766C145.842 453.391 139.57 451.951 135.134 450.526C133.068 449.866 131.046 449.071 129.083 448.148C129.083 448.148 130.646 441.388 129.769 436.435C128.893 431.481 124.084 425.765 124.084 425.765L126.187 422.999C126.187 422.999 138 427.472 143.944 427C145.968 426.723 147.952 426.211 149.858 425.476C155.608 423.258 161.24 420.745 166.731 417.946H166.776C166.93 419.141 167.146 420.326 167.424 421.498C168.91 427.945 172.141 437.082 172.141 437.082Z" fill="url(#paint10_linear_32_719)"/>
<path style="mix-blend-mode:multiply" opacity="0.6" d="M152.228 223.926L144.508 235.761L116.005 248.678L109.909 263.501C109.512 263.15 103.05 257.564 94.827 257.762L78.221 256.756L85.4532 254.745L59.9155 246.865L152.228 223.926Z" fill="url(#paint11_linear_32_719)"/>
<path style="mix-blend-mode:multiply" opacity="0.6" d="M91.7255 452.873C85.5373 460.372 68.1007 462.521 68.1007 462.521L66.9423 463.748C65.4418 463.714 63.9415 463.821 62.4612 464.068C61.2495 464.495 59.9387 467.284 59.8853 468.107C59.7011 468.955 59.4199 469.778 59.047 470.561C47.9967 473.686 29.2873 471.323 29.2873 471.323L29.1578 465.989C28.1789 464.799 27.5836 463.34 27.4507 461.805C27.4507 460.494 28.2128 454.992 28.8606 450.541C26.3225 449.951 23.908 448.919 21.7274 447.493C21.7274 447.493 23.1296 444.856 23.2058 435.924C23.2821 426.993 19.1363 421.071 19.2811 420.576C19.4258 420.08 22.7638 417.939 22.7638 417.939C25.4576 418.664 28.2047 419.173 30.9792 419.463L33.7684 420.179L37.053 421.14C44.9712 421.224 50.0086 420.82 57.2409 417.924L62.0725 412.17L62.1945 417.588L49.5818 433.63L48.1796 439.323L46.0838 447.706C52.3177 445.334 58.3675 442.504 64.1835 439.239L64.2902 439.3L65.7458 440.215L64.9837 441.808L63.9092 446.159L67.9559 457.514C83.9217 457.392 90.8644 453.376 91.6493 452.888C91.695 452.888 91.7103 452.873 91.7255 452.873Z" fill="url(#paint12_linear_32_719)"/>
<path style="mix-blend-mode:multiply" opacity="0.6" d="M192.497 458.825C192.268 459.107 188.267 463.611 172.004 465.029L169.299 464C168.934 463.854 168.543 463.784 168.149 463.794C167.756 463.805 167.369 463.895 167.013 464.061C165.816 464.625 164.414 467.391 164.414 467.391C147.038 471.537 133.473 468.153 133.473 468.153L134.235 463.718C134.235 463.718 132.025 461.287 131.994 459.991C131.994 458.985 134.166 453.132 135.149 450.511C133.083 449.851 131.062 449.056 129.098 448.133C129.098 448.133 130.661 441.373 129.784 436.42C128.908 431.466 124.099 425.75 124.099 425.75L126.203 422.984C126.203 422.984 138.015 427.457 143.959 426.985C145.983 426.708 147.967 426.196 149.873 425.461L167.439 421.452C168.918 428.006 172.149 437.144 172.149 437.144C172.149 437.144 171.608 438.043 170.625 439.43C171.136 439.74 171.668 440.015 172.218 440.253L165.481 451.783L166.715 458.01L175.098 460.037L178.513 460.86C178.513 460.86 187.757 460.86 192.23 459.039L192.497 458.825Z" fill="url(#paint13_linear_32_719)"/>
<path style="mix-blend-mode:multiply" opacity="0.6" d="M64.2291 399.862L59.7938 410.082L59.748 410.158L59.8166 412.955C59.8166 412.955 43.3021 419.867 33.7683 420.111C24.2346 420.355 17.4062 415.096 17.1395 413.801C17.1395 413.801 23.1753 416.674 36.0927 415.173C36.0927 415.173 24.3336 413.176 20.1269 411.774C20.1269 411.774 16.4307 406.256 15.4629 403.314C15.4629 403.314 20.1345 407.178 37.0834 407.491C53.5141 407.788 63.6271 400.304 64.2291 399.862Z" fill="url(#paint14_linear_32_719)"/>
<path style="mix-blend-mode:multiply" opacity="0.6" d="M169.702 412.353C169.916 413.435 166.776 417.847 166.776 417.847C166.776 417.847 150.117 427.351 143.86 427.754C137.603 428.158 126.187 422.961 126.187 422.961C126.187 422.961 119.061 412.154 119.328 410.455V410.356C119.328 410.356 128.115 415.934 142.717 416.559C151.896 416.852 161.048 415.426 169.702 412.353Z" fill="url(#paint15_linear_32_719)"/>
<g style="mix-blend-mode:soft-light">
<path d="M161.472 404.336C161.472 404.336 150.452 403.002 144.866 398.788C144.866 398.788 146.969 404.435 151.648 407.437C156.328 410.44 169.702 412.353 169.702 412.353C166.724 409.933 163.969 407.25 161.472 404.336Z" fill="#E0FFFF"/>
</g>
<g style="mix-blend-mode:soft-light">
<path d="M59.2452 390L57.9801 392.34C57.9801 392.34 56.0063 399.496 44.7197 401.981C44.7197 401.981 55.3204 402.148 64.4427 398.292C64.4427 398.292 63.3224 395.023 59.2452 390Z" fill="#E0FFFF"/>
</g>
<g style="mix-blend-mode:soft-light">
<path d="M155.459 332.021C155.459 332.021 147.252 271.617 136.963 254.958L144.737 244.327C144.737 244.327 154.705 301.613 155.459 332.021Z" fill="#E0FFFF"/>
</g>
<g style="mix-blend-mode:soft-light">
<path d="M79.5698 269.392C79.5698 269.392 86.9164 309.783 79.7451 342.911C79.7451 342.911 89.1493 331.807 94.7736 257.747L79.5698 269.392Z" fill="#E0FFFF"/>
</g>
<path style="mix-blend-mode:multiply" opacity="0.3" d="M49.3003 337.729C49.3003 337.729 61.6995 340.175 74.175 338.178L56.7155 336.471L52.8593 330.649L49.3003 337.729Z" fill="url(#paint16_linear_32_719)"/>
<path style="mix-blend-mode:multiply" opacity="0.3" d="M127.437 335.877L131.354 338.445C131.354 338.445 140.446 337.02 147.221 333.644C147.221 333.644 141.833 339.604 130.943 343.414L127.544 340.655L127.437 335.877Z" fill="url(#paint17_linear_32_719)"/>
<g style="mix-blend-mode:multiply" opacity="0.5">
<path fill-rule="evenodd" clip-rule="evenodd" d="M32.7318 180.898C40.1546 190.256 41.9531 203.982 42.639 215.146L15.3485 193.51C13.4973 188.042 11.9905 182.462 10.8369 176.805L15.4095 157.898C26.8408 153.843 44.8491 157.136 44.8491 157.136L32.7318 180.898Z" fill="#9A5459"/>
</g>
<path fill-rule="evenodd" clip-rule="evenodd" d="M232.857 122.781L237.171 114.962L256.604 115.244L252.336 118.635L239.335 127.666L232.857 122.781Z" fill="#CC5268"/>
<path fill-rule="evenodd" clip-rule="evenodd" d="M312.259 116.25C311.497 115.907 297.696 109.589 294.175 108.057L293.413 107.737C292.186 107.287 277.295 109.353 268.927 111.151C260.559 112.95 232.849 122.788 232.849 122.788C227.934 124.495 201.527 160.131 201.527 160.131L183.329 162.166L161.228 121.676C161.228 121.676 180.578 94.0727 196.162 75.5767L196.353 75.3176C203.707 66.6297 210.147 60.0072 213.302 59.3137C218.636 58.1324 283.201 87.1453 284.938 89.5916C285.822 90.6078 286.814 91.5251 287.895 92.3275C291.485 95.1015 296.751 98.4852 296.751 98.4852C303.396 103.706 309.417 112.081 311.474 115.122C311.932 115.747 312.198 116.143 312.259 116.25Z" fill="url(#paint18_linear_32_719)"/>
<g style="mix-blend-mode:multiply" opacity="0.2">
<path fill-rule="evenodd" clip-rule="evenodd" d="M268.95 111.151C260.567 112.973 232.865 122.781 232.865 122.781C227.949 124.496 214.91 142.671 214.91 142.671L168.697 155.467L168.59 111.494L196.223 75.5845L262.563 84.5924L254.394 90.3386L268.95 111.151Z" fill="#CF7A79"/>
</g>
<g style="mix-blend-mode:multiply" opacity="0.2">
<path fill-rule="evenodd" clip-rule="evenodd" d="M220.542 103.774L185.021 112.797L199.15 113.697L184.327 142.801L189.227 152.868L223.552 135.012L224.573 113.064L220.542 103.774Z" fill="#CF7A79"/>
</g>
<path d="M186.53 179.854C186.53 179.854 204.553 174.321 211.458 166.365C218.362 158.409 222.447 143.502 222.447 143.502L227.507 137.923C227.507 137.923 241.522 129.54 248.168 125.501C252.079 123.184 255.064 119.58 256.612 115.305C256.612 115.305 252.908 119.725 242.757 123.124C238.184 124.648 239.709 123.36 232.85 122.842C232.85 122.842 227.515 120.007 227.294 118.65C227.073 117.294 229.58 109.391 228.01 106.693C227.051 105.064 225.685 103.712 224.048 102.768C224.048 102.768 221.685 102.905 220.527 103.835C220.527 103.835 223.141 113.94 221.83 117.469C220.519 120.997 217.402 123.909 217.143 125.296C216.884 126.683 217.616 132.574 217.616 132.574C217.616 132.574 210.863 147.442 191.148 145.224C183.992 144.363 183.893 174.519 186.53 179.854Z" fill="url(#paint19_linear_32_719)"/>
<path fill-rule="evenodd" clip-rule="evenodd" d="M179.892 120.738C179.778 120.975 178.444 123.741 176.173 127.445C171.265 135.439 161.983 147.846 151.062 148.859C150.251 148.96 149.431 148.98 148.616 148.92C148.661 148.753 148.951 147.869 149.515 146.505C150.391 144.415 151.391 142.379 152.51 140.408C157.014 132.513 165.61 121.935 179.892 120.738Z" fill="#988100"/>
<path d="M187.315 179.389C185.905 180.501 182.445 179.45 178.291 177.103C171.45 173.096 165.369 167.913 160.329 161.792C156.358 156.793 153.135 152.06 151.077 148.837C150.635 148.158 150.239 147.549 149.911 147.023C149.782 146.817 149.66 146.626 149.545 146.459C148.882 145.384 148.532 144.782 148.532 144.782C148.532 144.782 150.109 142.938 152.54 140.339C157.936 134.578 167.546 125.158 173.765 123.825L173.97 124.13L176.135 127.468C177.308 129.289 178.764 131.537 180.105 133.602C180.928 134.867 181.698 136.056 182.346 137.039C184.458 140.148 186.846 143.061 189.479 145.742C189.479 145.742 190.691 176.706 187.315 179.389Z" fill="url(#paint20_linear_32_719)"/>
<path fill-rule="evenodd" clip-rule="evenodd" d="M179.892 120.738C177.864 121.74 175.899 122.865 174.009 124.107C164.558 130.125 156.372 137.93 149.911 147.084C149.477 147.693 149.058 148.303 148.646 148.936L140.606 140.195L138.32 81.2467C138.32 81.2467 147.633 81.9402 151.588 85.522C151.588 85.522 165.046 98.691 168.712 106.678C171.837 113.437 179.892 120.738 179.892 120.738Z" fill="url(#paint21_radial_32_719)"/>
<g style="mix-blend-mode:multiply" opacity="0.5">
<path fill-rule="evenodd" clip-rule="evenodd" d="M179.884 120.753C179.77 120.99 178.436 123.756 176.165 127.46C177.339 129.281 178.795 131.529 180.136 133.595L178.292 177.103C171.45 173.096 165.369 167.913 160.329 161.792C156.359 156.793 153.135 152.06 151.077 148.837C150.266 148.937 149.446 148.958 148.631 148.898L140.591 140.156L138.305 81.2085C138.305 81.2085 147.617 81.902 151.573 85.4838C151.573 85.4838 165.031 98.6528 168.697 106.64C171.821 113.414 179.877 120.715 179.877 120.715L179.884 120.753Z" fill="#9A5459"/>
</g>
<path fill-rule="evenodd" clip-rule="evenodd" d="M142.1 36.2909C142.1 36.2909 125.334 33.7837 114.162 36.9844L120.929 27.8774C120.929 27.8774 139.76 33.5855 142.1 36.2909Z" fill="url(#paint22_radial_32_719)"/>
<path d="M122.704 73.2523C121.027 74.5173 117.842 73.9458 117.842 73.9458C117.941 75.2154 118.218 76.4648 118.665 77.6571C118.665 77.6571 97.5017 79.3261 84.2261 85.7277C85.3732 81.9603 86.1392 78.0872 86.5123 74.1668C86.6513 72.5133 86.6079 70.8495 86.3828 69.2055L89.8732 64.633L116.181 30.1102L123.268 31.8783C123.268 31.8783 123.268 32.3889 123.352 33.1662C123.524 35.7448 123.87 38.3087 124.388 40.8405C124.488 41.3226 124.639 41.7927 124.838 42.2427C125.92 44.4909 128.039 47.0439 128.854 53.6741C129.67 60.3043 124.388 72.0024 122.704 73.2523Z" fill="url(#paint23_linear_32_719)"/>
<path d="M129.38 32.1298L123.383 33.1662H123.337V31.863C121.698 34.3932 121.264 40.8405 121.142 44.3232C121.096 45.7331 121.104 46.6552 121.104 46.6552C120.655 45.0599 120.016 43.5246 119.199 42.0827C118.908 41.5442 118.469 41.1 117.934 40.8024C117.456 40.5866 116.931 40.4957 116.409 40.5384C115.886 40.5811 115.383 40.7558 114.946 41.0462C113.084 46.7516 110.833 52.3228 108.209 57.7208C107.851 58.4829 107.447 59.1993 106.99 59.9537C102.12 68.0167 92.2817 77.1922 92.2817 77.1922C91.4282 75.2642 88.0064 75.0203 88.0064 75.0203C87.5187 74.7459 87.0386 74.4716 86.5813 74.1744C83.7768 72.3802 81.2611 70.1703 79.1204 67.6204C71.4614 58.6201 69.1142 47.3792 69.1142 47.3792L66.7136 48.5681C66.7136 48.2861 66.7136 47.9737 66.7136 47.6764C66.9041 43.8202 68.7483 38.9352 68.8703 38.6075C65.9438 41.191 61.0436 43.5383 60.7388 43.6755C62.7218 41.769 64.4507 39.6148 65.8829 37.2663C66.5738 36.1842 67.19 35.0562 67.7271 33.8902L67.7729 33.7835H67.811C76.5631 30.7109 85.6048 28.5354 94.7967 27.2905C98.099 26.8652 101.421 26.6108 104.75 26.5284C108.744 26.3895 112.741 26.6937 116.669 27.4353C117.431 27.5953 118.193 27.7706 118.955 27.9459C122.618 28.7946 126.131 30.1951 129.373 32.0993L129.38 32.1298Z" fill="url(#paint24_linear_32_719)"/>
<g style="mix-blend-mode:multiply" opacity="0.5">
<path fill-rule="evenodd" clip-rule="evenodd" d="M123.382 33.1663C123.544 35.7442 123.88 38.3081 124.388 40.8406L121.081 44.3386L120.822 44.6206L119.137 42.0752L117.087 42.3876C115.093 47.1756 114.603 52.4576 115.685 57.5304L106.929 59.9462L89.8807 64.6331L79.059 67.6129C71.4 58.6126 69.0528 47.3717 69.0528 47.3717L66.6522 48.5606C66.6522 48.2786 66.6522 47.9661 66.6522 47.6689L90.2237 41.6865L106.54 30.3466L80.949 33.334L65.8291 37.2587L67.6734 33.8827L67.7191 33.776H67.7572C76.5093 30.7034 85.551 28.5279 94.7429 27.283L116.623 27.4963H117.621L118.894 27.9917L129.311 32.1451L123.382 33.1663Z" fill="#9A5459"/>
</g>
<g style="mix-blend-mode:multiply" opacity="0.5">
<path fill-rule="evenodd" clip-rule="evenodd" d="M118.513 56.1663L117.416 49.9857L118.223 44.6053L118.803 47.1888L118.513 56.1663Z" fill="#9A5459"/>
</g>
<path fill-rule="evenodd" clip-rule="evenodd" d="M123.756 30.2398C123.756 30.2398 120.342 28.5632 111.395 27.9535C106.497 27.6504 101.585 27.6504 96.6865 27.9535C76.5597 29.1043 67.4146 34.4085 67.4146 34.4085C67.4146 34.4085 68.3138 22.3064 70.4629 17.4062C70.6272 17.031 70.8455 16.6819 71.1107 16.3698C75.1955 11.4314 92.3807 4.68689 92.3807 4.68689L95.6805 3.78L97.5324 3.25415L99.4529 4.16866C99.4728 4.17459 99.494 4.17459 99.5139 4.16866C101.953 5.38039 106.312 7.53711 110.564 9.89959C115.396 12.6126 120.06 15.5619 121.409 17.5205C124.571 22.1007 123.756 30.2398 123.756 30.2398Z" fill="url(#paint25_radial_32_719)"/>
<path fill-rule="evenodd" clip-rule="evenodd" d="M123.756 30.2246C123.756 30.2246 137.002 33.8141 142.1 36.3214L143.35 34.1799C143.35 34.1799 136.285 30.1256 123.863 27.8317L123.756 30.2246Z" fill="url(#paint26_linear_32_719)"/>
<path style="mix-blend-mode:multiply" opacity="0.5" d="M112.195 28.0298C107.013 27.71 101.817 27.6973 96.6335 27.9917C76.5066 29.1424 67.3691 34.4466 67.3691 34.4466C67.3691 34.4466 68.2608 22.3522 70.4175 17.4367C72.5742 12.5212 92.381 4.69454 92.381 4.69454L95.6732 3.78003L99.4837 4.17632H99.5371C100.299 4.72503 108.682 10.7608 110.206 14.1292C111.731 17.7111 112.195 28.0298 112.195 28.0298Z" fill="url(#paint27_linear_32_719)"/>
<path d="M121.424 17.5282L110.176 14.1369C108.133 11.0885 99.5063 4.18396 99.5063 4.18396C104.788 6.76745 118.879 13.8549 121.424 17.5282Z" fill="#FFC754"/>
<path fill-rule="evenodd" clip-rule="evenodd" d="M93.7144 4.32869L95.048 0.0762138L98.1269 0L99.4834 4.18389L93.7144 4.32869Z" fill="url(#paint28_radial_32_719)"/>
<path fill-rule="evenodd" clip-rule="evenodd" d="M160.009 37.3425L149.606 96.3284L149.347 96.2751C146.063 95.5968 112.713 88.9285 84.4246 93.6078C54.642 98.5461 24.8824 113.422 22.0702 113.925C19.2581 114.428 8.80222 109.406 3.93245 101.145C2.78837 99.1749 1.89974 97.0673 1.28799 94.8728C-0.289074 89.1519 -0.420011 83.1288 0.906949 77.3447C2.76645 70.4478 10.6998 65.7914 10.6998 65.7914C21.2929 64.5645 48.4767 68.7788 73.9916 66.1572C99.5064 63.5356 132.337 51.1211 143.624 45.6493C154.91 40.1775 160.009 37.3425 160.009 37.3425Z" fill="url(#paint29_linear_32_719)"/>
<path d="M129.853 51.4184L130.92 51.0145L130.333 49.0406L122.156 51.2278C122.156 51.2278 102.844 67.7119 116.669 92.2284L125.479 92.8609C116.669 92.2132 108.903 60.6778 129.853 51.4184Z" fill="url(#paint30_linear_32_719)"/>
<path d="M62.2475 66.8812L61.2492 65.197L56.2041 65.5628C56.2041 65.5628 46.9142 76.6513 55.5487 100.992L62.0646 98.9272C62.0646 98.9272 54.4437 82.5803 61.3025 66.9193L62.2475 66.8812Z" fill="url(#paint31_linear_32_719)"/>
<path style="mix-blend-mode:multiply" opacity="0.5" fill-rule="evenodd" clip-rule="evenodd" d="M149.348 96.275C146.063 95.5967 112.714 88.9284 84.4252 93.6077C54.6426 98.546 24.8829 113.422 22.0708 113.925C19.2587 114.428 8.8028 109.406 3.93303 101.145C2.78895 99.1748 1.90032 97.0671 1.28857 94.8727C1.57817 94.3393 7.77397 83.228 43.478 76.8188C80.0584 70.2495 118.597 68.1004 118.597 68.1004C131.286 67.6813 138.915 72.673 138.915 72.673L149.348 96.275Z" fill="url(#paint32_linear_32_719)"/>
<path fill-rule="evenodd" clip-rule="evenodd" d="M171.928 79.006C171.928 79.006 175.052 80.2787 175.921 82.8165C175.921 82.8165 167.599 94.4079 164.383 95.9854C161.167 97.563 153.058 97.9135 149.606 96.3512C146.154 94.7889 137.718 84.4169 138.937 65.4179C140.133 47.4707 157.471 38.3713 159.971 37.3272C163.667 35.803 174.382 37.5406 177.964 44.186C181.545 50.8315 181.355 60.9521 178.726 67.7499C177.161 71.8833 174.858 75.6974 171.928 79.006Z" fill="url(#paint33_linear_32_719)"/>
<path style="mix-blend-mode:multiply" opacity="0.5" fill-rule="evenodd" clip-rule="evenodd" d="M171.928 79.006L169.474 80.4616C169.474 80.4616 163.553 86.6802 160.207 87.1985C156.861 87.7167 149.111 85.1103 146.916 79.6309C144.721 74.1515 145.948 58.1932 148.745 52.8129C151.542 47.4325 158.241 43.9345 160.176 43.5611C163.842 42.8523 172.149 43.4544 173.544 47.2115C174.938 50.9686 174.71 63.6955 171.608 69.8685C168.506 76.0414 162.326 78.4954 160.458 78.4954C158.591 78.4954 152.426 74.6316 151.557 70.1124C150.688 65.5932 155.04 50.9 159.734 49.2996C164.429 47.6992 168.506 50.0998 169.2 51.8145C169.893 53.5292 169.451 65.7989 167.477 68.07C165.244 70.6382 160.695 69.8228 159.757 68.8321C158.82 67.8413 161.419 55.1144 161.419 55.1144L163.583 53.895L160.436 54.5428L157.944 53.956L159.902 55.9374C159.902 55.9374 157.959 69.015 158.34 69.9676C158.721 70.9202 166.319 70.8135 168.3 68.8092C170.282 66.8049 170.731 53.7198 170.343 51.1287C169.954 48.5375 162.623 47.0743 159.247 48.3394C153.584 50.4656 149.637 65.235 149.934 70.1733C150.346 77.0322 156.793 81.8562 160.504 82.0086C164.216 82.161 170.411 74.6925 172.85 70.402C175.289 66.1114 176.104 49.7721 174.146 45.7483C172.187 41.7244 165.046 40.6118 160.108 41.4653C157.425 41.9302 150.658 46.9829 147.213 52.348C143.769 57.7131 143.045 74.3496 146.017 80.6597C148.143 85.1789 154.316 89.8048 160.679 89.0427C167.043 88.2806 172.751 79.4023 172.751 79.4023L171.928 79.006Z" fill="url(#paint34_linear_32_719)"/>
<path fill-rule="evenodd" clip-rule="evenodd" d="M161.419 55.0992C161.419 55.0992 163.972 61.1503 161.785 69.7695C161.267 70.0723 160.684 70.2469 160.084 70.2787C159.485 70.3105 158.887 70.1986 158.34 69.9524C158.34 69.9524 158.165 61.2493 159.902 55.9223L161.419 55.0992Z" fill="url(#paint35_linear_32_719)"/>
<path style="mix-blend-mode:multiply" opacity="0.5" fill-rule="evenodd" clip-rule="evenodd" d="M130.333 49.0406C130.333 49.0406 112.172 59.7861 115.182 78.0001L116.562 77.863C116.562 77.863 113.559 58.4372 130.92 50.9992L130.333 49.0406Z" fill="url(#paint36_linear_32_719)"/>
<path style="mix-blend-mode:multiply" opacity="0.5" fill-rule="evenodd" clip-rule="evenodd" d="M62.248 66.8812L61.2496 65.197C61.2496 65.197 54.1012 72.536 58.9633 93.9355L60.1751 93.4097C60.1751 93.4097 55.4349 81.803 61.2953 66.9117L62.248 66.8812Z" fill="url(#paint37_linear_32_719)"/>
<path d="M144.371 230.076C141.81 232.766 137.291 235.708 133.419 237.979C133.305 238.047 133.175 238.116 133.061 238.192C130.089 239.93 127.574 241.24 126.736 241.652L126.599 241.72L126.454 241.789L125.859 241.896C125.685 241.915 125.512 241.946 125.341 241.987L124.64 242.109C124.358 242.17 124.061 242.223 123.779 242.269C115.708 243.679 107.699 244.754 100.101 245.561C99.6968 245.561 99.3005 245.653 98.8965 245.699C82.1169 247.465 65.2486 248.251 48.3775 248.053C48.3605 248.036 48.3475 248.015 48.3394 247.992C35.1476 221.677 28.9442 188.976 28.9442 188.976L23.7924 186.804C0.876299 127.887 20.6754 87.3054 20.6754 87.3054C46.1827 76.3617 87.7395 71.9035 104.963 71.3015C107.176 71.1744 109.395 71.1744 111.608 71.3015C112.694 71.4228 113.766 71.6474 114.809 71.9721C124.007 74.7004 137.946 84.3408 137.946 84.3408C140.56 98.5158 144.371 230.076 144.371 230.076Z" fill="url(#paint38_linear_32_719)"/>
<path style="mix-blend-mode:multiply" opacity="0.5" d="M111.593 71.3624C103.843 100.322 109.269 177.857 109.269 177.857L76.377 93.0134L104.963 71.3319C107.172 71.2156 109.386 71.2258 111.593 71.3624Z" fill="url(#paint39_linear_32_719)"/>
<path d="M23.7926 186.804C23.7926 186.804 69.6782 188.808 104.384 181.469L109.276 177.88C109.276 177.88 94.2861 115.975 111.608 71.3777C111.608 71.3777 69.0914 69.221 20.6757 87.3283C20.6604 87.3054 -0.259014 130.729 23.7926 186.804Z" fill="url(#paint40_linear_32_719)"/>
<path fill-rule="evenodd" clip-rule="evenodd" d="M28.4033 119.397C28.4033 119.397 52.9046 111.776 75.653 110.877L81.2392 110.74C81.2392 110.74 83.6397 144.538 85.0115 160.58L79.5702 161.685C79.5702 161.685 57.4695 165.839 35.1097 164.635C35.0945 164.612 30.0037 146.322 28.4033 119.397Z" fill="url(#paint41_linear_32_719)"/>
<path style="mix-blend-mode:multiply" opacity="0.5" d="M75.6147 110.877C75.6147 110.877 76.3768 141.985 81.2085 161.35L84.9732 160.588L81.2009 110.747L75.6147 110.877Z" fill="url(#paint42_linear_32_719)"/>
<path d="M30.3691 127.155L30.4377 129.86C30.4377 129.86 51.7763 124.099 74.8601 123.162L74.7915 120.418C74.7915 120.418 51.3953 123.047 30.3691 127.155Z" fill="url(#paint43_linear_32_719)"/>
<path style="mix-blend-mode:multiply" opacity="0.5" d="M23.7925 186.804C50.7616 187.435 77.7331 185.65 104.384 181.469L31.8021 201.49L28.9442 188.976L23.7925 186.804Z" fill="url(#paint44_linear_32_719)"/>
<path style="mix-blend-mode:multiply" opacity="0.6" d="M126.599 241.72L113.841 243.763C113.841 243.763 111.083 151.108 118.719 137.611L133.42 237.978L126.599 241.72Z" fill="url(#paint45_linear_32_719)"/>
<path fill-rule="evenodd" clip-rule="evenodd" d="M175.449 186.004L174.588 199.089C174.588 199.089 157.715 207.868 119.054 213.226C117.774 213.416 116.478 213.592 115.152 213.752C73.6945 219.048 32.633 216.968 32.633 216.968L29.1045 203.883L31.8175 201.467L32.29 203.311C32.29 203.311 79.3568 203.311 116.745 199.356C154.133 195.4 172.591 187.338 172.591 187.338L173.117 186.065L175.449 186.004Z" fill="url(#paint46_linear_32_719)"/>
<path fill-rule="evenodd" clip-rule="evenodd" d="M57.4922 171.989L68.7102 170.411C68.7102 170.411 73.0236 219.551 89.2867 246.156L91.3596 246.11V247.276L78.7469 248.8C78.7469 248.8 66.241 227.866 57.4922 171.989Z" fill="url(#paint47_linear_32_719)"/>
<path fill-rule="evenodd" clip-rule="evenodd" d="M53.4072 190.592L54.9848 200.331L58.2846 202.198L60.5023 216.282L57.5073 219.33L58.879 226.235L81.0712 223.087L86.4744 220.351L85.5599 213.363L80.3929 211.077L78.6782 198.876L82.9688 195.515L82.7935 188.305L78.7239 187.498L53.4072 190.592Z" fill="url(#paint48_linear_32_719)"/>
<path style="mix-blend-mode:multiply" opacity="0.5" d="M77.5434 187.696L77.7416 195.652L75.2114 198.746L76.8576 212.685L79.3344 213.218L81.0719 223.087L86.4752 220.351L85.5606 213.363L80.3936 211.077L78.6789 198.876L82.9695 195.515L82.7942 188.305L78.7247 187.498L77.5434 187.696Z" fill="url(#paint49_linear_32_719)"/>
<path fill-rule="evenodd" clip-rule="evenodd" d="M55.9305 200.865C55.9305 200.865 52.8212 208.394 58.6359 218.179L60.503 216.282L58.2854 202.198L55.9305 200.865Z" fill="#684A79"/>
<path fill-rule="evenodd" clip-rule="evenodd" d="M75.9961 198.594L77.8556 196.597L81.7194 196.498C84.0314 201.522 84.7545 207.132 83.7923 212.578L80.9497 213.569L77.7108 212.868L75.9961 198.594Z" fill="url(#paint50_linear_32_719)"/>
<path fill-rule="evenodd" clip-rule="evenodd" d="M77.8556 196.62C79.7648 202.021 80.6185 207.739 80.3705 213.462L77.7108 212.89L75.9961 198.616L77.8556 196.62Z" fill="#684A79"/>
<path d="M148.113 127.81C148.113 127.81 175.304 162.562 175.419 167.112C175.525 171.494 170.221 212.075 163.035 223.628C162.777 224.06 162.492 224.475 162.181 224.87C154.56 234.366 135.264 238.969 133.42 237.986C131.575 237.003 123.093 220.092 117.842 191.14C114.977 175.388 114.985 141.955 120.312 134.021C125.479 126.34 139.364 118.14 140.225 117.644H140.263L144.424 116.394C157.044 107.943 168.125 108.659 168.125 108.659C171.113 111.014 170.922 117.195 170.922 117.195L175.838 118.719C178.757 131.484 168.887 139.219 168.887 139.219C165.839 134.898 149.904 127.788 149.904 127.788L148.113 127.81Z" fill="url(#paint51_linear_32_719)"/>
<path d="M140.271 117.614C140.271 117.614 144.805 118.947 148.113 127.811L149.896 127.765C149.896 127.765 148.837 120.639 144.417 116.333L140.271 117.614Z" fill="url(#paint52_linear_32_719)"/>
<path style="mix-blend-mode:multiply" opacity="0.6" d="M168.186 188.999L163.035 223.659C162.777 224.091 162.492 224.506 162.181 224.901C154.56 234.397 135.264 239 133.42 238.017C131.575 237.034 123.093 220.123 117.842 191.171C114.977 175.418 114.985 141.985 120.312 134.052C125.479 126.37 139.364 118.17 140.225 117.675L126.447 131.766L131.019 152.83L145.118 158.165L140.591 140.202L142.961 119.412L145.468 122.461L144.577 131.972L150.529 152.876L157.448 163.545L165.245 165.953L168.186 188.999Z" fill="url(#paint53_linear_32_719)"/>
<path style="mix-blend-mode:multiply" opacity="0.6" d="M146.177 123.619L148.234 132.84L157.082 148.715L164.696 152.197L149.972 130.927L147.777 126.949L146.177 123.619Z" fill="url(#paint54_linear_32_719)"/>
<path style="mix-blend-mode:multiply" opacity="0.6" d="M146.047 118.261C146.047 118.261 163.073 114.649 170.922 117.164L170.427 112.782C170.427 112.782 160.009 113.552 146.047 118.261Z" fill="url(#paint55_linear_32_719)"/>
<path style="mix-blend-mode:multiply" opacity="0.6" d="M148.174 122.034L161.206 122.445L166.7 129.304L164.597 128.992C164.597 128.992 158.698 125.578 149.073 124.419L148.174 122.034Z" fill="url(#paint56_linear_32_719)"/>
<path style="mix-blend-mode:multiply" opacity="0.8" d="M133.42 237.978L133.061 238.184L126.736 241.644L126.599 241.713L126.454 241.781L125.86 241.888C125.685 241.908 125.512 241.938 125.341 241.979L124.64 242.101C120.876 242.711 111.639 244.19 100.101 245.554C99.6971 245.554 99.3008 245.645 98.8969 245.691C83.4416 247.467 64.1607 248.998 48.3778 248.046C48.3608 248.028 48.3478 248.008 48.3397 247.985C35.1479 221.67 28.9445 188.968 28.9445 188.968L23.7927 186.804C-0.746651 127.925 20.6758 87.3053 20.6758 87.3053C46.183 76.3617 87.7399 71.9034 104.963 71.3014C104.963 71.3014 88.2657 121.074 101.778 174.542L107.951 174.39C107.951 174.39 96.7935 110.039 111.609 71.3319L114.809 72.0025C114.809 72.0025 107.623 163.141 133.42 237.978Z" fill="url(#paint57_linear_32_719)"/>
<path fill-rule="evenodd" clip-rule="evenodd" d="M175.45 186.004L174.588 199.089C174.588 199.089 157.716 207.868 119.055 213.226L118.765 201.665L116.746 199.379C154.149 195.4 172.592 187.36 172.592 187.36L173.118 186.088L175.45 186.004Z" fill="#684A79"/>
<g style="mix-blend-mode:multiply" opacity="0.3">
<path fill-rule="evenodd" clip-rule="evenodd" d="M217.631 132.513L225.861 132.307C225.861 132.307 222.813 126.477 217.158 125.235C217.158 125.235 216.93 130.028 217.631 132.513Z" fill="#D97759"/>
</g>
<g style="mix-blend-mode:soft-light">
<path d="M186.118 442.394C186.118 442.394 184.762 443.85 179.122 444.886C175.879 445.517 172.554 445.6 169.284 445.13L172.18 440.177C172.18 440.177 176.127 442.25 186.118 442.394Z" fill="#E0FFFF"/>
</g>
<g style="mix-blend-mode:soft-light">
<path d="M65.7536 440.23L63.917 446.175C63.917 446.175 77.0174 447.889 88.4106 443.02C88.4106 443.02 87.3208 442.349 79.4561 442.616C68.5581 442.981 66.6605 440.794 65.7536 440.23Z" fill="#E0FFFF"/>
</g>
<path d="M130.92 51.0144L146.162 48.0423C146.162 48.0423 156.069 38.0131 161.998 36.8548C161.998 36.8548 160.367 36.7862 153.699 39.5983C153.737 39.6288 138.106 49.9932 130.92 51.0144Z" fill="#E0FFFF"/>
<path d="M122.156 51.2279L129.228 49.7647L129.274 51.6318L131.347 50.9993L130.402 48.6749L122.156 51.2279Z" fill="#FFD1AE"/>
<path d="M284.984 89.6069L262.556 84.5923L196.186 75.5996L196.376 75.3405C203.73 66.6527 210.17 60.0301 213.325 59.3366C218.682 58.1477 283.224 87.1605 284.984 89.6069Z" fill="#FFFFE6"/>
<path d="M311.52 115.137L293.428 107.737L268.927 110.343L254.394 90.3689L287.926 92.3427C291.516 95.1167 296.782 98.5004 296.782 98.5004C303.48 103.721 309.463 112.096 311.52 115.137Z" fill="#FFFFE6"/>
<path d="M180.974 134.89C180.974 134.89 186.537 144.127 188.991 146.779C188.991 146.779 200.225 152.053 206.519 150.124C212.814 148.196 218.774 132.596 218.774 132.596L217.6 132.482C217.6 132.482 214.659 138.297 209.461 141.627C204.264 144.958 193.907 143.349 189.212 145.377L180.974 134.89Z" fill="#FFD981"/>
<path d="M217.158 125.235L221.845 117.408C221.845 117.408 224.832 116.006 225.465 116.364C226.098 116.722 225.945 123.124 224.871 125.044C224.237 126.09 223.375 126.979 222.348 127.643C220.918 126.308 219.1 125.465 217.158 125.235Z" fill="#FFD981"/>
<path d="M138.945 94.4994L119.001 114.085L115.282 141.52L116.89 146.855L120.312 134.006C120.312 134.006 131.499 121.599 140.225 117.629L138.945 94.4994Z" fill="#FF8B3D"/>
<path d="M144.417 116.364L148.577 117.431C148.577 117.431 163.347 113.11 170.427 112.782C170.479 111.944 170.292 111.108 169.888 110.373C169.483 109.637 168.877 109.032 168.14 108.629C168.14 108.629 157.471 105.984 144.417 116.364Z" fill="#FF7636"/>
<path d="M151.435 118.124L156.77 121.82L175.06 125.082C175.06 125.082 176.409 121.272 175.822 118.665C175.837 118.665 163.255 115.076 151.435 118.124Z" fill="#FF7636"/>
<path d="M103.889 107.196L96.8469 110.359C96.8469 110.359 93.4785 140.37 98.9274 160.908L105.024 153.684C105.024 153.684 102.662 121.272 103.889 107.196Z" fill="#FF8B3D"/>
<path d="M75.6147 110.877C75.6147 110.877 76.3768 141.719 81.2085 161.35L84.9732 160.588L81.2009 110.747L75.6147 110.877Z" fill="#FFB730"/>
<path style="mix-blend-mode:multiply" opacity="0.6" d="M28.83 121.554L25.0195 125.09L31.4364 171.334C31.4364 171.334 60.1977 171.006 77.2381 166.677L83.0452 160.969C83.0452 160.969 58.3382 164.589 35.0334 164.635C35.0944 164.612 29.5692 141.475 28.83 121.554Z" fill="url(#paint58_linear_32_719)"/>
<g style="mix-blend-mode:soft-light">
<path d="M110.58 9.90722L110.176 14.1444C110.176 14.1444 95.071 8.55831 71.1489 16.385C75.1956 11.4314 92.3808 4.68689 92.3808 4.68689L95.6806 3.78L97.5325 3.25415L99.453 4.16866C99.4729 4.17459 99.4941 4.17459 99.514 4.16866C101.968 5.41087 106.327 7.56759 110.58 9.90722Z" fill="#FFC754"/>
</g>
<path d="M2.96436 72.9779L21.5518 67.5595L50.8389 66.7974C50.8389 66.7974 20.4391 64.5111 10.6996 65.7228C10.6996 65.7533 5.022 68.6493 2.96436 72.9779Z" fill="#E0FFFF"/>
<path style="mix-blend-mode:screen" fill-rule="evenodd" clip-rule="evenodd" d="M187.505 121.569C187.748 122.122 188.151 122.591 188.662 122.915C189.172 123.239 189.768 123.404 190.372 123.388C190.977 123.373 191.563 123.178 192.056 122.829C192.55 122.48 192.928 121.991 193.144 121.426C193.359 120.861 193.401 120.245 193.265 119.656C193.129 119.066 192.821 118.531 192.38 118.117C191.939 117.704 191.385 117.431 190.788 117.333C190.191 117.235 189.579 117.317 189.029 117.568C188.3 117.901 187.732 118.507 187.446 119.256C187.161 120.005 187.182 120.836 187.505 121.569Z" fill="url(#paint59_radial_32_719)"/>
<defs>
<linearGradient id="paint0_linear_32_719" x1="55.5712" y1="259.44" x2="55.2473" y2="243.246" gradientUnits="userSpaceOnUse">
<stop offset="0.02" stop-color="#FF6A3E"/>
<stop offset="1" stop-color="#C4614D"/>
</linearGradient>
<linearGradient id="paint1_linear_32_719" x1="52.7032" y1="283.002" x2="52.0544" y2="250.56" gradientUnits="userSpaceOnUse">
<stop offset="0.02" stop-color="#FF6A3E"/>
<stop offset="1" stop-color="#C4614D"/>
</linearGradient>
<linearGradient id="paint2_linear_32_719" x1="30.9063" y1="281.875" x2="28.5066" y2="161.892" gradientUnits="userSpaceOnUse">
<stop offset="0.02" stop-color="#FFAE78"/>
<stop offset="1" stop-color="#FF957C"/>
</linearGradient>
<linearGradient id="paint3_linear_32_719" x1="90.8964" y1="435.358" x2="87.0584" y2="243.456" gradientUnits="userSpaceOnUse">
<stop stop-color="#2222A2"/>
<stop offset="1" stop-color="#555DD9"/>
</linearGradient>
<linearGradient id="paint4_linear_32_719" x1="90.9956" y1="435.356" x2="87.1579" y2="243.469" gradientUnits="userSpaceOnUse">
<stop offset="0.01" stop-color="#BE6888"/>
<stop offset="1" stop-color="#C26157"/>
</linearGradient>
<linearGradient id="paint5_linear_32_719" x1="161.334" y1="475.775" x2="161.144" y2="466.248" gradientUnits="userSpaceOnUse">
<stop stop-color="#C96152"/>
<stop offset="0.98" stop-color="#C76834"/>
</linearGradient>
<linearGradient id="paint6_linear_32_719" x1="59.1643" y1="477.986" x2="58.8011" y2="459.825" gradientUnits="userSpaceOnUse">
<stop stop-color="#C96152"/>
<stop offset="0.98" stop-color="#C76834"/>
</linearGradient>
<linearGradient id="paint7_linear_32_719" x1="57.5318" y1="472.994" x2="56.9324" y2="443.021" gradientUnits="userSpaceOnUse">
<stop offset="0.01" stop-color="#3E1B40"/>
<stop offset="0.98" stop-color="#3A234D"/>
</linearGradient>
<linearGradient id="paint8_linear_32_719" x1="160.108" y1="470.881" x2="159.613" y2="446.121" gradientUnits="userSpaceOnUse">
<stop offset="0.01" stop-color="#3E1B40"/>
<stop offset="0.98" stop-color="#3A234D"/>
</linearGradient>
<linearGradient id="paint9_linear_32_719" x1="41.7025" y1="457.659" x2="40.9101" y2="418.038" gradientUnits="userSpaceOnUse">
<stop offset="0.01" stop-color="#3E1B40"/>
<stop offset="0.98" stop-color="#523E63"/>
</linearGradient>
<linearGradient id="paint10_linear_32_719" x1="146.433" y1="459.559" x2="145.741" y2="424.945" gradientUnits="userSpaceOnUse">
<stop offset="0.01" stop-color="#3E1B40"/>
<stop offset="0.98" stop-color="#523E63"/>
</linearGradient>
<linearGradient id="paint11_linear_32_719" x1="105.437" y1="269.978" x2="104.666" y2="231.47" gradientUnits="userSpaceOnUse">
<stop offset="0.01" stop-color="#BE6888"/>
<stop offset="1" stop-color="#C26157"/>
</linearGradient>
<linearGradient id="paint12_linear_32_719" x1="54.0431" y1="478.088" x2="52.8505" y2="418.455" gradientUnits="userSpaceOnUse">
<stop offset="0.01" stop-color="#BE6888"/>
<stop offset="1" stop-color="#C26157"/>
</linearGradient>
<linearGradient id="paint13_linear_32_719" x1="156.663" y1="475.868" x2="155.712" y2="428.306" gradientUnits="userSpaceOnUse">
<stop offset="0.01" stop-color="#BE6888"/>
<stop offset="1" stop-color="#C26157"/>
</linearGradient>
<linearGradient id="paint14_linear_32_719" x1="38.2348" y1="426.058" x2="37.8452" y2="406.579" gradientUnits="userSpaceOnUse">
<stop offset="0.01" stop-color="#BE6888"/>
<stop offset="1" stop-color="#C26157"/>
</linearGradient>
<linearGradient id="paint15_linear_32_719" x1="142.84" y1="434.319" x2="142.481" y2="416.334" gradientUnits="userSpaceOnUse">
<stop offset="0.01" stop-color="#BE6888"/>
<stop offset="1" stop-color="#C26157"/>
</linearGradient>
<linearGradient id="paint16_linear_32_719" x1="47.5697" y1="341.185" x2="72.4215" y2="340.688" gradientUnits="userSpaceOnUse">
<stop offset="0.01" stop-color="#BE6888"/>
<stop offset="1" stop-color="#C26157"/>
</linearGradient>
<linearGradient id="paint17_linear_32_719" x1="125.828" y1="345.33" x2="145.666" y2="344.933" gradientUnits="userSpaceOnUse">
<stop offset="0.01" stop-color="#BE6888"/>
<stop offset="1" stop-color="#C26157"/>
</linearGradient>
<linearGradient id="paint18_linear_32_719" x1="237.004" y1="167.854" x2="234.962" y2="65.7489" gradientUnits="userSpaceOnUse">
<stop stop-color="#FFCCAC"/>
<stop offset="1" stop-color="#FFECC4"/>
</linearGradient>
<linearGradient id="paint19_linear_32_719" x1="186.161" y1="179.668" x2="242.622" y2="104.823" gradientUnits="userSpaceOnUse">
<stop offset="0.02" stop-color="#FFAE78"/>
<stop offset="1" stop-color="#FF957C"/>
</linearGradient>
<linearGradient id="paint20_linear_32_719" x1="169.006" y1="186.924" x2="167.88" y2="130.621" gradientUnits="userSpaceOnUse">
<stop offset="0.02" stop-color="#FFAE78"/>
<stop offset="1" stop-color="#FF957C"/>
</linearGradient>
<radialGradient id="paint21_radial_32_719" cx="0" cy="0" r="1" gradientUnits="userSpaceOnUse" gradientTransform="translate(165.008 98.3828) rotate(-1.14576) scale(37.914 28.0603)">
<stop offset="0.01" stop-color="#FCBF00"/>
<stop offset="1" stop-color="#CCAE00"/>
</radialGradient>
<radialGradient id="paint22_radial_32_719" cx="0" cy="0" r="1" gradientUnits="userSpaceOnUse" gradientTransform="translate(133.227 30.6931) rotate(-1.14576) scale(10.0616 7.44665)">
<stop stop-color="#826200"/>
<stop offset="1" stop-color="#613F00"/>
</radialGradient>
<linearGradient id="paint23_linear_32_719" x1="106.511" y1="91.5405" x2="105.414" y2="36.7232" gradientUnits="userSpaceOnUse">
<stop offset="0.02" stop-color="#FFAE78"/>
<stop offset="1" stop-color="#FF957C"/>
</linearGradient>
<linearGradient id="paint24_linear_32_719" x1="95.6061" y1="83.4103" x2="94.598" y2="33.0056" gradientUnits="userSpaceOnUse">
<stop offset="0.01" stop-color="#A6453D"/>
<stop offset="0.99" stop-color="#6F2E45"/>
</linearGradient>
<radialGradient id="paint25_radial_32_719" cx="0" cy="0" r="1" gradientUnits="userSpaceOnUse" gradientTransform="translate(101.615 11.5763) rotate(-1.14576) scale(24.0945 17.8325)">
<stop stop-color="#FFFB00"/>
<stop offset="1" stop-color="#FFD900"/>
</radialGradient>
<linearGradient id="paint26_linear_32_719" x1="123.615" y1="38.7227" x2="143.102" y2="38.333" gradientUnits="userSpaceOnUse">
<stop stop-color="#FFC800"/>
<stop offset="1" stop-color="#FFEA00"/>
</linearGradient>
<linearGradient id="paint27_linear_32_719" x1="89.664" y1="40.1717" x2="89.0648" y2="10.2139" gradientUnits="userSpaceOnUse">
<stop offset="0.01" stop-color="#BE6888"/>
<stop offset="1" stop-color="#8E81F4"/>
</linearGradient>
<radialGradient id="paint28_radial_32_719" cx="0" cy="0" r="1" gradientUnits="userSpaceOnUse" gradientTransform="translate(100.719 1.8214) rotate(-1.14576) scale(2.87366 2.12681)">
<stop stop-color="#FFFB00"/>
<stop offset="1" stop-color="#FFD900"/>
</radialGradient>
<linearGradient id="paint29_linear_32_719" x1="80.6835" y1="118.733" x2="79.2198" y2="45.5496" gradientUnits="userSpaceOnUse">
<stop stop-color="#AAAAEE"/>
<stop offset="0.35" stop-color="#B2AEEB"/>
<stop offset="1" stop-color="#BDB3E7"/>
</linearGradient>
<linearGradient id="paint30_linear_32_719" x1="111.206" y1="77.7464" x2="131.028" y2="77.3499" gradientUnits="userSpaceOnUse">
<stop offset="0.02" stop-color="#C76834"/>
<stop offset="1" stop-color="#C96152"/>
</linearGradient>
<linearGradient id="paint31_linear_32_719" x1="51.445" y1="89.3636" x2="62.1981" y2="89.1485" gradientUnits="userSpaceOnUse">
<stop offset="0.02" stop-color="#C76834"/>
<stop offset="1" stop-color="#C96152"/>
</linearGradient>
<linearGradient id="paint32_linear_32_719" x1="75.1513" y1="118.844" x2="74.2824" y2="75.397" gradientUnits="userSpaceOnUse">
<stop offset="0.01" stop-color="#BE6888"/>
<stop offset="1" stop-color="#8E81F4"/>
</linearGradient>
<linearGradient id="paint33_linear_32_719" x1="160.14" y1="103.871" x2="158.933" y2="43.4979" gradientUnits="userSpaceOnUse">
<stop stop-color="#DBE5FF"/>
<stop offset="1" stop-color="white"/>
</linearGradient>
<linearGradient id="paint34_linear_32_719" x1="159.917" y1="95.7404" x2="158.96" y2="47.8963" gradientUnits="userSpaceOnUse">
<stop offset="0.01" stop-color="#BE6888"/>
<stop offset="1" stop-color="#8E81F4"/>
</linearGradient>
<linearGradient id="paint35_linear_32_719" x1="160.241" y1="76.8876" x2="159.939" y2="61.7525" gradientUnits="userSpaceOnUse">
<stop stop-color="#BDB3E7"/>
<stop offset="0.65" stop-color="#B2AEEB"/>
<stop offset="1" stop-color="#AAAAEE"/>
</linearGradient>
<linearGradient id="paint36_linear_32_719" x1="122.848" y1="84.2684" x2="122.276" y2="55.6747" gradientUnits="userSpaceOnUse">
<stop offset="0.01" stop-color="#BE6888"/>
<stop offset="1" stop-color="#8E81F4"/>
</linearGradient>
<linearGradient id="paint37_linear_32_719" x1="59.7483" y1="100.054" x2="59.1747" y2="71.3765" gradientUnits="userSpaceOnUse">
<stop offset="0.01" stop-color="#BE6888"/>
<stop offset="1" stop-color="#8E81F4"/>
</linearGradient>
<linearGradient id="paint38_linear_32_719" x1="78.9557" y1="253.827" x2="75.4444" y2="78.2635" gradientUnits="userSpaceOnUse">
<stop stop-color="#BD0B00"/>
<stop offset="1" stop-color="#ED5D1F"/>
</linearGradient>
<linearGradient id="paint39_linear_32_719" x1="95.4555" y1="184.515" x2="93.3233" y2="77.9059" gradientUnits="userSpaceOnUse">
<stop offset="0.01" stop-color="#9A5459"/>
<stop offset="1" stop-color="#C2819F"/>
</linearGradient>
<linearGradient id="paint40_linear_32_719" x1="63.0505" y1="192.749" x2="60.7658" y2="78.5113" gradientUnits="userSpaceOnUse">
<stop stop-color="#8C0F07"/>
<stop offset="1" stop-color="#D94F30"/>
</linearGradient>
<linearGradient id="paint41_linear_32_719" x1="56.4651" y1="170.718" x2="55.4007" y2="117.501" gradientUnits="userSpaceOnUse">
<stop stop-color="#FF5D17"/>
<stop offset="1" stop-color="#FF8E0D"/>
</linearGradient>
<linearGradient id="paint42_linear_32_719" x1="80.1286" y1="167.614" x2="79.1169" y2="117.026" gradientUnits="userSpaceOnUse">
<stop offset="0.01" stop-color="#9A5459"/>
<stop offset="1" stop-color="#C2819F"/>
</linearGradient>
<linearGradient id="paint43_linear_32_719" x1="29.6714" y1="131.7" x2="74.2461" y2="130.809" gradientUnits="userSpaceOnUse">
<stop stop-color="#FFE1C5"/>
<stop offset="1" stop-color="#A7A9CB"/>
</linearGradient>
<linearGradient id="paint44_linear_32_719" x1="63.4696" y1="206.845" x2="63.1053" y2="188.631" gradientUnits="userSpaceOnUse">
<stop offset="0.01" stop-color="#BE6888"/>
<stop offset="1" stop-color="#8E81F4"/>
</linearGradient>
<linearGradient id="paint45_linear_32_719" x1="122.488" y1="249.998" x2="120.369" y2="144.006" gradientUnits="userSpaceOnUse">
<stop offset="0.01" stop-color="#BE6888"/>
<stop offset="1" stop-color="#C26157"/>
</linearGradient>
<linearGradient id="paint46_linear_32_719" x1="28.0415" y1="209.909" x2="174.82" y2="206.974" gradientUnits="userSpaceOnUse">
<stop stop-color="#3E1340"/>
<stop offset="1" stop-color="#4B2F63"/>
</linearGradient>
<linearGradient id="paint47_linear_32_719" x1="74.1633" y1="255.119" x2="72.5912" y2="176.517" gradientUnits="userSpaceOnUse">
<stop stop-color="#3E1340"/>
<stop offset="1" stop-color="#4B2F63"/>
</linearGradient>
<linearGradient id="paint48_linear_32_719" x1="69.3205" y1="232.177" x2="68.5556" y2="193.935" gradientUnits="userSpaceOnUse">
<stop offset="0.01" stop-color="#3E1B40"/>
<stop offset="0.98" stop-color="#523E63"/>
</linearGradient>
<linearGradient id="paint49_linear_32_719" x1="80.0681" y1="229.362" x2="79.3552" y2="193.719" gradientUnits="userSpaceOnUse">
<stop offset="0.01" stop-color="#BE6888"/>
<stop offset="1" stop-color="#8E81F4"/>
</linearGradient>
<linearGradient id="paint50_linear_32_719" x1="79.2981" y1="219.847" x2="78.9573" y2="202.807" gradientUnits="userSpaceOnUse">
<stop offset="0.01" stop-color="#3E1B40"/>
<stop offset="0.98" stop-color="#523E63"/>
</linearGradient>
<linearGradient id="paint51_linear_32_719" x1="147.276" y1="244.371" x2="144.703" y2="115.715" gradientUnits="userSpaceOnUse">
<stop stop-color="#66001A"/>
<stop offset="1" stop-color="#540E00"/>
</linearGradient>
<linearGradient id="paint52_linear_32_719" x1="144.559" y1="134.442" x2="144.328" y2="122.912" gradientUnits="userSpaceOnUse">
<stop offset="0.02" stop-color="#C76834"/>
<stop offset="1" stop-color="#C96152"/>
</linearGradient>
<linearGradient id="paint53_linear_32_719" x1="142.36" y1="244.469" x2="139.954" y2="124.173" gradientUnits="userSpaceOnUse">
<stop offset="0.01" stop-color="#BE6888"/>
<stop offset="1" stop-color="#C26157"/>
</linearGradient>
<linearGradient id="paint54_linear_32_719" x1="155.03" y1="159.041" x2="154.45" y2="130.005" gradientUnits="userSpaceOnUse">
<stop offset="0.01" stop-color="#BE6888"/>
<stop offset="1" stop-color="#C26157"/>
</linearGradient>
<linearGradient id="paint55_linear_32_719" x1="157.894" y1="124.577" x2="157.797" y2="119.707" gradientUnits="userSpaceOnUse">
<stop offset="0.01" stop-color="#BE6888"/>
<stop offset="1" stop-color="#C26157"/>
</linearGradient>
<linearGradient id="paint56_linear_32_719" x1="156.876" y1="136.178" x2="156.721" y2="128.427" gradientUnits="userSpaceOnUse">
<stop offset="0.01" stop-color="#BE6888"/>
<stop offset="1" stop-color="#C26157"/>
</linearGradient>
<linearGradient id="paint57_linear_32_719" x1="73.0336" y1="254.28" x2="69.5158" y2="78.3896" gradientUnits="userSpaceOnUse">
<stop offset="0.01" stop-color="#BE6888"/>
<stop offset="1" stop-color="#C26157"/>
</linearGradient>
<linearGradient id="paint58_linear_32_719" x1="24.8206" y1="152.557" x2="81.9394" y2="151.415" gradientUnits="userSpaceOnUse">
<stop offset="0.01" stop-color="#BE6888"/>
<stop offset="1" stop-color="#C26157"/>
</linearGradient>
<radialGradient id="paint59_radial_32_719" cx="0" cy="0" r="1" gradientUnits="userSpaceOnUse" gradientTransform="translate(190.557 118.689) rotate(155.746) scale(3.01976 3.01975)">
<stop offset="0.02" stop-color="#FF9D77"/>
<stop offset="0.33" stop-color="#FD9C76"/>
<stop offset="0.46" stop-color="#F69773"/>
<stop offset="0.56" stop-color="#E9906D"/>
<stop offset="0.65" stop-color="#D78464"/>
<stop offset="0.72" stop-color="#C0765A"/>
<stop offset="0.79" stop-color="#A3644C"/>
<stop offset="0.85" stop-color="#814F3C"/>
<stop offset="0.9" stop-color="#59372A"/>
<stop offset="0.95" stop-color="#2E1C15"/>
<stop offset="1"/>
</radialGradient>
</defs>
</svg>
