<svg width="1454" height="196" viewBox="0 0 1454 196" fill="none" xmlns="http://www.w3.org/2000/svg">
<path fill-rule="evenodd" clip-rule="evenodd" d="M1199 75L1260.05 129.512L1298.63 95L1349.27 140.305L1379.01 113L1428 158H1369.05L1369.26 158.19H1228L1237.15 150H1115L1199 75Z" fill="#414141"/>
<path fill-rule="evenodd" clip-rule="evenodd" d="M668 119.849H669.54V117.839H671.08V116.445H673.704V118.455H675.7V122.771H682.636V112.438H684.176V113.831H686.024V109.972H713.744V114.756H715.432V112.746H721.284V113.671H723.601V122.302H727.912V120.452H734.688V121.846H740.072V119.836H743.004V110.132H743.768V119.996H746.848V121.587H748.179V119.836H752.084V121.784H754.954V120.761H756.187V122.093H758.959V120.761H760.4V122.093H768.1V120.046H769.024V117.776H770.971V116.445H775.8V110.687H777.956V109.355H779.286V110.896H785.249V113.461H787.196V112.438H789.869V114.386H793.972V117.678H797.052V129.293H805.467V125.692H808.14V124.151H809.471V125.791H824.255V128.677H831.142V124.669H835.762V122.302H840.48V124.669H842.537V121.686H847.971V125.286H849.104V120.046H850.546V118.911H851.975V119.935H853.515V118.295H855.979V90.959H862.348V87.6787H868.299V90.959H873.436V125.076H875.284V120.452H880.372V116.137H881.296V120.761H882.676V125.545H886.372V114.756H892.224V118.764H892.84V114.756H894.688V112.906H900.393V110.44H904.236V114.904H906.392V120.452H908.4V115.829H910.557V114.14H915.324V110.749H923.8V86.8525H928.876V83.9307H946.432V86.3965H951.36V87.6299H950.128V88.8633H951.521V90.3174H950.288V91.7852H951.668V93.709H949.98V102.031H951.668V116.827H956.189V103.19H954.23V102.167H956.694V95.4844H959.27V97.0254H961.314V94.8672H962.238V96.6182H970.148V95.2744H973.844V101.439H976.518V104.275H995.872V100.416H1032.36V132.018H1042.84V46.2627L1040.3 39.999H1043.22V26.4355H1044.61V22.1201H1046.3V18.7295H1047.69L1048.69 16.1152V0H1049.77V16.1152L1050.92 18.9639H1052.38V21.9727H1054.16V25.9795H1055.7V39.7646H1059.23L1056.62 45.4736V118.146H1064.4V113.671H1070.41V116.297H1075.64V113.979H1072.56V111.365H1080.88V108.899H1084.11V107.357H1085.96V105.04H1097.66V114.287H1108.13V110.896H1115.83V119.527H1121.68V112.746H1127.23V117.678H1152.18V113.979H1167.58V120.452H1175.28V116.753H1186.67V121.686H1193.45V117.579H1198.59V115.113H1206.79V117.986H1211.93V121.069H1218.49V113.671H1223.02L1228.15 46.0654L1233.08 109.763H1237.18V114.497H1239.65V111.611H1245.4V115.311H1254.03V112.647H1257.11V119.22H1260.38V115.521H1264.08V117.16H1267.58V114.694H1269.62V116.963H1277.01V114.694H1284V140.812H1286.36V137.622L1298.33 134.732L1310.28 137.622V140.812H1315.43V118H1343.22V131.553H1350.34V127.696H1365.49V131.553H1372.07V136.183H1383.51V139.909H1405.62V133.798H1400.81V130.736H1413.74V120.296H1434.81V133.057H1437.15V135.441H1439.82V134.507H1442.18V135.441H1444.85V134.507H1447.19V135.441H1449.87V134.507H1452.22V135.441H1454V156V196H0V156V136.502H2.3584V132.406L14.3271 128.696L26.2812 132.406V136.502H31.4297V86.1973L59.2188 75V124.615H66.3379V119.664H81.4854V124.615H88.0674V130.559H99.5137V135.343H121.616V127.497H116.811V123.567H129.735V114.604H150.808V126.546H153.15V129.606H155.822V128.407H158.18V129.606H160.852V128.407H163.194V129.606H165.866V128.407H168.224V129.606H170V126.604H171.573V129.612H173.356V126.604H174.92V129.612H176.713V126.604H178.276V129.612H180.079V126.604H181.653V129.612H183.436V126.604H185V129.612H186.793V126.604H188.356V129.612H190.139V126.604H191.713V119.102H193.217V114.819H194.292V110.968L203.545 105.371V96.2139H204.043V105.371L213.296 110.968V114.819H214.422V119.102H215.926V126.604H217.499V129.612H219.282V128.8H220.846V129.612H222.639V128.8H224.202V129.612H225.985V128.8H227.559V129.612H229.342V128.8H230.905V129.612H232.698V128.8H234.262V129.612H236.045V126.604H237.708V114.819H252.369V123.945H259.341V141.858H262.768V138.85L270.735 136.151L278.703 138.85V141.858H282.13V105.261H300.686V133.223H305.437V129.612H315.546V133.223H319.938V137.546H327.577V141.026H342.328V135.31H339.111V132.451H347.736V122.712H361.8V134.617H363.373V136.844H365.156V135.971H366.72V136.844H368.513V135.971H370.037V136.844H371.819V135.971H373.394V136.844H375.176V135.971H376.739V136.844H378.532V135.971H380.097V136.844H381.879V134.617H383.453V119.142H385.026V114.859H392.596V85.0615L391.729 83.5967H392.596V79.4248H393.264V78.4219H393.911V77.4189H394.519V73.6279L395.653 72.1035L396.789 73.6279V77.4189H397.396V78.4219H398.034V79.4248H398.701V83.5566H399.578L398.701 85.0215V114.819H406.271V119.102H407.775V138.027H416.53V129.833H413.014V126.724H421.082V102.653H423.233V85.2021L421.868 82.4941H423.233V74.0889L421.868 71.3809H423.233V67.2393H426.002V62.4346L428.044 54L430.086 62.4346V67.2393H432.854V71.3809H434.229L432.854 74.0889V82.4941H434.229L432.854 85.2021V102.653H435.016V124.327H439.567V138.127H446.629V133.514H448.192V134.417H449.985V133.514H451.549V134.417H453.332V133.514H454.906V134.417H456.688V133.514H458.252V134.417H460.045V133.514H461.609V134.417H463.392V133.514H464.966V134.417H466.748V131.909H468.312V109.845L478.432 101.439L488.541 109.845V118.871H500.413V130.625H506.957V100.817L506.08 99.3633H506.957V95.2217H507.604V94.2188H508.252V93.2158H508.859V89.4346L509.994 87.8994L511.13 89.4346V93.2158H511.737V94.2188H512.385V95.2217H513.053V99.3633H513.929L513.053 100.817V130.625H524.147C524.147 125.991 525.976 121.548 529.229 118.271C532.483 114.995 536.896 113.154 541.498 113.154C546.1 113.154 550.513 114.995 553.767 118.271C557.021 121.548 558.849 125.991 558.849 130.625H569.983V100.817L569.117 99.3633H569.983V95.2217H570.661V94.2188H571.299V93.2158H571.906V89.4346L573.041 87.8994L574.187 89.4346V93.2158H574.784V94.2188H575.432V95.2217H576.109V99.3633H576.976L576.109 100.817V130.625H582.652V138.047H591.438V121.298C598.297 117.159 605.155 117.159 612.015 121.298V133.443H618.07V79.9365H637.273V107.788H653.937V128.429H662.094V119.854L668 119.849Z" fill="#212121"/>
</svg>
