<?xml version="1.0" encoding="utf-8"?>
<!-- Generator: Adobe Illustrator 27.5.0, SVG Export Plug-In . SVG Version: 6.00 Build 0)  -->
<svg version="1.1" xmlns="http://www.w3.org/2000/svg" xmlns:xlink="http://www.w3.org/1999/xlink" x="0px" y="0px"
	 viewBox="0 0 841.89 841.89" style="enable-background:new 0 0 841.89 841.89;" xml:space="preserve">
<g id="bg">
	<rect y="0" style="fill:#FFDA22;" width="841.89" height="841.891"/>
</g>
<g id="Layer_1">
	<g>
		<g>
			<g>
				<g style="enable-background:new    ;">
					<g style="enable-background:new    ;">
						<defs>
							<path id="SVGID_1_" style="enable-background:new    ;" d="M214.301,573.92c80.773-29.332,212.161-29.331,293.462,0
								c-35.776-12.907-81.25-20.135-127.844-21.683C320.63,550.269,259.529,557.494,214.301,573.92z"/>
						</defs>
						<clipPath id="SVGID_00000149372704713310729300000015700445654741967006_">
							<use xlink:href="#SVGID_1_"  style="overflow:visible;"/>
						</clipPath>
						<g style="clip-path:url(#SVGID_00000149372704713310729300000015700445654741967006_);enable-background:new    ;">
							<path style="fill:#A3A3A3;" d="M214.301,573.92c39.149-14.217,90.191-21.543,141.656-21.979
								C304.491,552.377,253.45,559.703,214.301,573.92L214.301,573.92z"/>
							<path style="fill:#DADADA;" d="M355.957,551.941c2.183-0.018,4.364-0.025,6.547-0.018
								C360.321,551.916,358.14,551.923,355.957,551.941L355.957,551.941z"/>
							<path style="fill:#A3A3A3;" d="M362.504,551.923c52.55,0.152,105.034,7.485,145.259,21.997
								C467.538,559.408,415.054,552.075,362.504,551.923L362.504,551.923z"/>
						</g>
					</g>
					<g style="enable-background:new    ;">
						<defs>
							<path id="SVGID_00000179648578702883153890000013561794511088566190_" style="enable-background:new    ;" d="
								M215.257,680.142c-81.301-29.331-81.73-76.889-0.956-106.222c-52.9,19.21-70.972,46.238-54.306,70.843
								C168.776,657.727,187.202,670.021,215.257,680.142z"/>
						</defs>
						<clipPath id="SVGID_00000137120140526783220630000018093286906453718672_">
							<use xlink:href="#SVGID_00000179648578702883153890000013561794511088566190_"  style="overflow:visible;"/>
						</clipPath>
						<g style="clip-path:url(#SVGID_00000137120140526783220630000018093286906453718672_);enable-background:new    ;">
							<path style="fill:#A3A3A3;" d="M215.257,680.142c-81.301-29.331-81.73-76.889-0.956-106.222
								C133.526,603.253,133.956,650.81,215.257,680.142L215.257,680.142z"/>
						</g>
					</g>
					<g>
						<path style="fill:#D9D9D9;" d="M507.763,573.92c81.301,29.332,81.731,76.89,0.959,106.222
							c-80.775,29.333-212.164,29.333-293.465,0c-81.301-29.331-81.73-76.889-0.956-106.222
							C295.073,544.588,426.462,544.589,507.763,573.92z"/>
					</g>
				</g>
			</g>
		</g>
		<g>
			<g>
				<path style="fill:#BDBDBD;" d="M172.375,568.469c0.098-1.091,0.263-2.158,0.589-3.467c0.295-1.264,0.705-2.619,1.271-3.969
					c1.102-2.79,2.502-5.098,4.088-7.172c1.003-1.341,1.895-2.312,2.596-3.146c0.444-0.494,0.996-1.054,1.549-1.598
					c0.07-0.07,0.139-0.14,0.209-0.21c0.015-0.015,0.027-0.029,0.043-0.044c0.027-0.029,0.059-0.057,0.089-0.086
					c0.3-0.296,0.608-0.593,0.928-0.889c0.003-0.003,0.007-0.006,0.01-0.01l0.011-0.009c0-0.001,0.001-0.001,0.001-0.002
					l4.274-3.947c-0.088,0.08-0.168,0.162-0.254,0.244c0.011-0.012,0.023-0.022,0.035-0.034c0.086-0.081,0.165-0.161,0.252-0.241
					c0.034-0.031,0.068-0.061,0.102-0.092c0.023-0.022,0.044-0.042,0.067-0.063c0.029-0.025,0.057-0.049,0.085-0.073
					c1.435-1.302,2.861-2.469,4.332-3.562c0.743-0.558,1.5-1.095,2.328-1.65c1.792-1.211,3.68-2.368,5.751-3.571
					c0.548-0.302,1.105-0.6,1.663-0.895c0.023-0.013,0.046-0.025,0.07-0.037c33.941-17.916,87.83-25.867,140.348-27.392
					c64.243-2.094,131.248,5.543,170.054,22.646c0.21,0.092,0.419,0.184,0.626,0.275c0.156,0.069,0.313,0.14,0.468,0.209
					c1.099,0.494,2.173,0.997,3.22,1.51c0.1,0.049,0.2,0.097,0.299,0.146c0.064,0.033,0.129,0.065,0.193,0.097
					c3.328,1.64,6.411,3.357,9.22,5.155c9.183,5.878,14.315,11.733,15.951,17.42c0.057,0.191,0.108,0.381,0.157,0.571
					c0.004,0.019,0.01,0.039,0.015,0.059c0.616,2.46,0.573,4.882-0.081,7.256c1.789-6.079-0.41-12.383-7.263-18.667l4.298,3.941
					c0.01,0.009,0.019,0.018,0.028,0.027c0.187,0.171,0.372,0.345,0.556,0.52c0.011,0.01,0.021,0.021,0.031,0.03
					c0.053,0.051,0.105,0.102,0.158,0.153c-0.018-0.018-0.035-0.034-0.053-0.051c0.002,0.002,0.004,0.004,0.006,0.006
					c0.02,0.018,0.039,0.036,0.058,0.055c-0.004-0.004-0.007-0.008-0.011-0.01c0.021,0.02,0.043,0.04,0.064,0.06
					c0.014,0.013,0.025,0.026,0.039,0.039c1.189,1.15,2.33,2.372,3.393,3.659c1.432,1.695,2.898,3.688,3.943,5.761
					c1.89,3.435,3.137,7.162,3.385,11.065c0.021,0.338,0.033,0.676,0.035,1.012c0.021,0.373,0.042,0.754,0.059,1.151
					c0.018,9.657-9.195,18.556-25.016,26.195c-18.436,9.064-45.783,16.132-77.606,20.722c-50.304,7.376-112.445,8.661-170.606,0.841
					c-5.247-0.706-10.321-1.471-15.22-2.289c-57.797-9.659-90.959-26.902-90.992-44.843
					C172.22,571.521,172.168,570.35,172.375,568.469z"/>
				<path style="fill:#6E6E6E;" d="M278.513,672.789c-65.67-8.831-104.426-26.85-106.145-45.839
					c0.237,3.96,0.821,6.714,3.359,11.838c1.941,3.919,4.984,7.589,8.989,11.011l3.586,3.285l0,0
					c0.001,0.001,0.001,0.001,0.002,0.001c0.324,0.297,0.66,0.593,1.004,0.888c2.814,2.432,6.15,4.734,9.947,6.909
					c-1.451-0.857-2.846-1.732-4.18-2.629c2.454,1.596,5.213,3.157,8.254,4.677c-1.521-0.685-2.889-1.369-4.074-2.048
					c60.247,35.592,219.659,38.015,299.557,11.134l0.043-0.012c4.865-1.538,9.306-3.287,13.273-5.069
					c4.004-1.739,7.719-3.572,11.097-5.503c1.306-0.744,2.472-1.447,3.529-2.114c-2.329,1.445-4.858,2.837-7.567,4.177
					c3.143-1.66,5.819-3.248,7.979-4.618c2.161-1.323,4.135-2.685,5.917-4.082c0.281-0.218,0.433-0.34,0.433-0.34
					c-1.681,1.384-3.772,2.976-6.763,4.863c3.338-2.074,6.274-4.257,8.757-6.552c-0.043,0.037-0.088,0.075-0.132,0.113
					c0.181-0.162,0.362-0.322,0.538-0.483l4.282-3.953c0.001-0.001,0.002-0.002,0.002-0.002c6.737-6.471,10.591-12.486,11.409-21.41
					C546.771,664.265,403.854,689.644,278.513,672.789z"/>
				<path style="fill:#E8E8E8;" d="M351.508,614.025c1.313,0.018,2.401-1.019,2.445-2.332l0.024-0.729
					c0.022-0.648-0.219-1.277-0.666-1.746c-0.448-0.47-1.066-0.738-1.714-0.748c-30.784-0.432-63.77-3.13-93.482-8.82
					c-1.38-0.264-2.768,0.427-3.386,1.687l-0.006,0.013c-0.372,0.757-0.368,1.644,0.009,2.397c0.378,0.754,1.086,1.289,1.915,1.445
					C286.918,610.9,320.358,613.596,351.508,614.025z"/>
				<g>
					<path style="fill:#A1A1A1;" d="M551.74,625.032l-0.081-54.381c0.071,38.355-145.682,64.909-273.227,47.758
						c-67.158-9.031-106.177-27.672-106.212-47.132l0.08,54.38c0.037,19.461,39.055,38.101,106.213,47.132
						C405.64,689.885,551.812,663.477,551.74,625.032L551.74,625.032z"/>
				</g>
				<g>
					<path style="fill:#6D6D6D;" d="M204.722,610.804c0.413,0,0.824,0.075,1.223,0.223c18.664,6.932,43.221,12.57,71.016,16.309
						c26.735,3.594,54.914,5.418,83.766,5.418c41.617-0.001,83.28-3.946,117.316-11.111c1.624-0.341,3.265-0.698,4.875-1.06
						c0.321-0.072,0.648-0.108,0.972-0.108c2.362,0,4.283,1.902,4.283,4.24v24.833c0,3.824-2.554,7.102-6.211,7.968
						c-2.759,0.654-5.611,1.291-8.478,1.893c-32.593,6.845-72.642,10.615-112.789,10.615c-27.86-0.001-55.016-1.754-80.71-5.209
						c-29.858-4.016-54.982-10.12-72.655-17.654c-3.639-1.552-5.99-5.288-5.99-9.518V614.12c0-0.904,0.357-1.743,1.004-2.362
						C202.978,611.151,203.845,610.804,204.722,610.804L204.722,610.804L204.722,610.804z M204.722,608.666
						c-2.92,0-5.52,2.307-5.52,5.454v23.521c0,4.932,2.753,9.55,7.289,11.483c17.863,7.616,43.084,13.755,73.208,17.807
						c25.79,3.469,53.04,5.227,80.995,5.228c0.005,0,0.012,0,0.018,0c40.272,0,80.477-3.785,113.211-10.66
						c2.913-0.611,5.758-1.247,8.531-1.903c4.629-1.098,7.855-5.292,7.855-10.049v-24.833c0-3.619-2.974-6.378-6.421-6.378
						c-0.474,0-0.956,0.052-1.44,0.16c-1.645,0.37-3.262,0.721-4.847,1.055c-33.896,7.135-75.402,11.064-116.876,11.064
						c-0.004,0-0.01,0-0.013,0c-28.745,0-56.826-1.816-83.469-5.399c-27.876-3.748-51.982-9.296-70.556-16.192
						C206.034,608.78,205.37,608.666,204.722,608.666L204.722,608.666z"/>
					<path style="fill:#A1A1A1;" d="M483.889,620.474c-0.323,0-0.65,0.036-0.972,0.108c-1.61,0.361-3.251,0.719-4.875,1.06
						c-34.036,7.165-75.699,11.11-117.316,11.111c-28.851,0-57.03-1.824-83.766-5.418c-27.795-3.738-52.352-9.377-71.016-16.309
						c-0.398-0.148-0.81-0.223-1.223-0.223l0,0c-0.877,0-1.744,0.348-2.379,0.954c-0.646,0.619-1.004,1.458-1.004,2.362v23.521
						c0,4.229,2.352,7.966,5.99,9.518c17.673,7.534,42.797,13.639,72.655,17.654c25.694,3.455,52.85,5.208,80.71,5.209
						c40.147,0,80.196-3.771,112.789-10.615c2.866-0.602,5.719-1.238,8.478-1.893c3.657-0.866,6.211-4.143,6.211-7.968v-24.833
						C488.172,622.376,486.251,620.474,483.889,620.474z"/>
					<g>
						<path style="fill:#D9D9D9;" d="M483.889,620.474c-0.323,0-0.65,0.036-0.972,0.108c-1.48,0.332-2.985,0.659-4.481,0.976
							c0.096-0.006,0.192-0.016,0.288-0.016c2.361,0,4.283,1.902,4.283,4.24v24.833c0,3.825-2.555,7.102-6.211,7.968
							c-2.273,0.54-4.609,1.065-6.964,1.57c1.226-0.244,2.445-0.492,3.651-0.746c2.866-0.602,5.719-1.238,8.478-1.893
							c3.657-0.866,6.211-4.143,6.211-7.968v-24.833C488.172,622.376,486.251,620.474,483.889,620.474z"/>
					</g>
					<path style="opacity:0.6;fill:#A1A1A1;" d="M482.542,623.871c-0.708-1.38-2.152-2.329-3.818-2.329
						c-0.096,0-0.192,0.01-0.288,0.016c0.013-0.003,0.025-0.005,0.038-0.008c-0.145,0.03-0.289,0.063-0.432,0.092
						c-34.036,7.165-75.699,11.11-117.316,11.111c-28.851,0-57.03-1.824-83.766-5.418c-27.795-3.738-52.352-9.377-71.016-16.309
						c-0.398-0.148-0.81-0.223-1.223-0.223l0,0c-0.877,0-1.744,0.348-2.379,0.954c-0.646,0.619-1.004,1.458-1.004,2.362v3.206
						c0-0.904,0.357-1.743,1.004-2.362c0.635-0.607,1.502-0.954,2.379-0.954l0,0c0.413,0,0.824,0.074,1.223,0.224
						c18.664,6.931,43.221,12.57,71.016,16.308c26.735,3.595,54.914,5.418,83.766,5.418c41.617-0.001,83.28-3.947,117.316-11.11
						C479.541,624.533,481.052,624.204,482.542,623.871z"/>
				</g>
				<path style="fill:#C9C9C9;" d="M474.208,613.18v54.385c46.253-9.517,77.565-24.734,77.532-42.532l-0.081-54.381
					C551.692,588.415,520.44,603.648,474.208,613.18z"/>
				<path style="fill:#C9C9C9;" d="M526.754,659.317c-2.329,1.445-4.858,2.837-7.567,4.177c3.143-1.66,5.819-3.248,7.979-4.618
					c2.161-1.323,4.135-2.685,5.917-4.082c0.281-0.218,0.433-0.34,0.433-0.34C531.836,655.838,529.744,657.43,526.754,659.317
					c3.338-2.074,6.274-4.257,8.757-6.552c-0.043,0.037-0.088,0.075-0.132,0.113c0.181-0.162,0.362-0.322,0.538-0.483l4.282-3.953
					c0.001-0.001,0.002-0.002,0.002-0.002c6.737-6.471,10.591-12.486,11.409-21.41c-2.197,16.905-32.856,31.365-77.409,40.541
					l-12.384,13.857c13.523-2.578,26.011-5.718,36.994-9.413l0.043-0.012c4.865-1.538,9.306-3.287,13.273-5.069
					c4.004-1.739,7.719-3.572,11.097-5.503C524.53,660.688,525.696,659.984,526.754,659.317z"/>
				<path style="fill:#D4D4D4;" d="M551.601,569.5c-0.002-0.336-0.014-0.674-0.035-1.012c-0.248-3.903-1.495-7.63-3.385-11.065
					c-1.046-2.073-2.512-4.065-3.943-5.761c-1.063-1.287-2.203-2.509-3.393-3.659c-0.014-0.013-0.025-0.026-0.039-0.039
					c-0.022-0.02-0.043-0.04-0.064-0.06c0.004,0.002,0.007,0.006,0.011,0.01c-0.019-0.019-0.038-0.037-0.058-0.055
					c-0.002-0.002-0.004-0.004-0.006-0.006c0.018,0.017,0.035,0.033,0.053,0.051c-0.053-0.052-0.105-0.102-0.158-0.153
					c-0.01-0.01-0.021-0.02-0.031-0.03c-0.184-0.175-0.369-0.349-0.556-0.52c-0.01-0.01-0.018-0.019-0.028-0.027l-4.298-3.941
					c6.853,6.284,9.052,12.588,7.263,18.667c0.654-2.374,0.697-4.796,0.081-7.256c-0.005-0.02-0.011-0.039-0.015-0.059
					c-0.049-0.191-0.101-0.38-0.157-0.571c-1.636-5.687-6.768-11.542-15.951-17.42c-2.675-1.713-5.603-3.352-8.75-4.921
					l-9.026-2.401l-21.371,27.423l-24.334,36.491l10.799,19.994l0.043,0.035c21.014-4.288,39.041-9.804,52.393-16.368
					c15.82-7.64,25.033-16.538,25.016-26.195C551.643,570.254,551.622,569.873,551.601,569.5z"/>
				<path style="fill:#E3E3E3;" d="M180.258,640.715v-54.05l12.913-21.699l2.338-22.886l-7.301,1.682
					c-0.014,0.012-0.027,0.025-0.041,0.037c-0.033,0.031-0.067,0.061-0.102,0.092c-0.087,0.08-0.166,0.16-0.252,0.241
					c-0.012,0.012-0.024,0.023-0.035,0.034c0.086-0.082,0.166-0.164,0.254-0.244l-4.274,3.947c0,0.001-0.001,0.001-0.001,0.002
					l-0.011,0.009c-0.003,0.004-0.007,0.007-0.01,0.01c-0.32,0.296-0.628,0.593-0.928,0.889c-0.03,0.029-0.061,0.057-0.089,0.086
					c-0.016,0.015-0.028,0.029-0.043,0.044c-0.07,0.07-0.139,0.14-0.209,0.21c-0.553,0.544-1.105,1.103-1.549,1.598
					c-0.701,0.834-1.593,1.805-2.596,3.146c-1.586,2.074-2.986,4.382-4.088,7.172c-0.566,1.35-0.977,2.705-1.271,3.969
					c-0.326,1.308-0.491,2.376-0.589,3.467c-0.207,1.881-0.155,3.052-0.155,2.808l0.08,54.38c0.002,0.433,0.028,0.862,0.067,1.293
					l0,0c0.237,3.96,0.821,6.714,3.359,11.838c1.941,3.919,4.984,7.589,8.989,11.011l3.586,3.285l0,0
					c0.001,0.001,0.001,0.001,0.002,0.001c0.324,0.297,0.66,0.593,1.004,0.888c0.654,0.564,1.338,1.121,2.047,1.672L180.258,640.715
					z"/>
				<path style="fill:#CECECE;" d="M206.926,533.729c-41.971,23.845-6.606,52.507,78.989,64.017
					c85.594,11.511,189.006,1.512,230.977-22.335c41.971-23.845,6.607-52.506-78.988-64.017
					C352.309,499.884,248.896,509.885,206.926,533.729z"/>
				<path style="fill:#C9C9C9;" d="M407.875,679.05c-1.921-1.609-3.488-3.597-4.605-5.84l-6.32-12.691l-138.608-2.924l4.204,8.173
					c1.71,3.324,4.066,6.274,6.932,8.677l12.646,10.601c42.412,5.898,91.565,6.638,135.864,2.473L407.875,679.05z"/>
				<g>
					<path style="fill:#7F7F7F;" d="M273.056,638.007c-1.318,2.975-1.045,5.105-2.04,8.09l1.407,16.438
						c0.994-2.982,0.722-5.12,2.039-8.089L273.056,638.007z"/>
					<path style="fill:#969696;" d="M395.543,644.08c-3.854,3.741-7.017,6.27-10.885,9.327c-3.198,2.529-7.118,3.916-11.195,3.971
						c-40.738,0.552-83.31-4.272-121.364-9.512l1.514,13.588c0.372,3.336,2.972,5.974,6.301,6.402
						c36.858,4.745,76.741,6.736,115.046,5.979c4.025-0.08,7.921-1.471,11.08-3.968c3.878-3.066,7.045-5.597,10.911-9.35
						L395.543,644.08z"/>
					<path style="fill:#BDBDBD;" d="M256.823,637.201l16.232,0.806c-0.842,1.898-1.033,3.453-1.322,5.107
						c-0.137,0.783,0.057,1.587,0.532,2.223c0.477,0.636,1.194,1.045,1.983,1.135c28.339,3.203,59.375,4.82,92.332,4.492
						c1.313-0.013,2.586-0.463,3.644-1.24c3.05-2.237,5.829-4.023,8.707-6.467l16.611,0.824c-4.396,4.266-7.884,6.952-12.548,10.643
						c-2.055,1.627-4.587,2.567-7.207,2.628c-39.895,0.932-81.216-0.754-120.93-5.969c-2.032-0.267-3.266-2.362-2.557-4.285
						C253.519,643.792,254.521,641.123,256.823,637.201z"/>
				</g>
			</g>
		</g>
		<g>
			<g>
				<path style="fill:#BDBDBD;" d="M172.375,455.579c0.098-1.091,0.263-2.159,0.589-3.468c0.295-1.264,0.705-2.618,1.271-3.969
					c1.102-2.789,2.502-5.097,4.088-7.171c1.003-1.342,1.895-2.312,2.596-3.146c0.444-0.494,0.996-1.055,1.549-1.598
					c0.07-0.07,0.139-0.141,0.209-0.211c0.015-0.014,0.027-0.029,0.043-0.043c0.027-0.029,0.059-0.057,0.089-0.086
					c0.3-0.297,0.608-0.593,0.928-0.889c0.003-0.004,0.007-0.007,0.01-0.01l0.011-0.009c0,0,0.001-0.001,0.001-0.002l4.274-3.948
					c-0.088,0.081-0.168,0.162-0.254,0.244c0.011-0.012,0.023-0.022,0.035-0.034c0.086-0.08,0.165-0.16,0.252-0.24
					c0.034-0.032,0.068-0.061,0.102-0.092c0.023-0.022,0.044-0.042,0.067-0.064c0.029-0.025,0.057-0.05,0.085-0.075
					c1.435-1.3,2.861-2.467,4.332-3.56c0.743-0.559,1.5-1.095,2.328-1.65c1.792-1.211,3.68-2.369,5.751-3.572
					c0.548-0.301,1.105-0.599,1.663-0.895c0.023-0.013,0.046-0.025,0.07-0.036c33.941-17.916,87.83-25.867,140.348-27.393
					c64.243-2.094,131.248,5.544,170.054,22.646c0.21,0.092,0.419,0.185,0.626,0.276c0.156,0.069,0.313,0.139,0.468,0.208
					c1.099,0.494,2.173,0.997,3.22,1.51c0.1,0.05,0.2,0.098,0.299,0.146c0.064,0.032,0.129,0.065,0.193,0.096
					c3.328,1.64,6.411,3.357,9.22,5.155c9.183,5.878,14.315,11.733,15.951,17.421c0.057,0.191,0.108,0.381,0.157,0.57
					c0.004,0.021,0.01,0.04,0.015,0.06c0.616,2.46,0.573,4.881-0.081,7.254c1.789-6.079-0.41-12.382-7.263-18.665l4.298,3.941
					c0.01,0.009,0.019,0.018,0.028,0.026c0.187,0.172,0.372,0.345,0.556,0.52c0.011,0.011,0.021,0.02,0.031,0.031
					c0.053,0.05,0.105,0.102,0.158,0.151c-0.018-0.017-0.035-0.032-0.053-0.049c0.002,0.002,0.004,0.004,0.006,0.006
					c0.02,0.018,0.039,0.036,0.058,0.054c-0.004-0.003-0.007-0.007-0.011-0.011c0.021,0.021,0.043,0.041,0.064,0.061
					c0.014,0.013,0.025,0.025,0.039,0.039c1.189,1.15,2.33,2.372,3.393,3.658c1.432,1.696,2.898,3.688,3.943,5.762
					c1.89,3.436,3.137,7.162,3.385,11.064c0.021,0.339,0.033,0.677,0.035,1.013c0.021,0.373,0.042,0.753,0.059,1.15
					c0.018,9.658-9.195,18.557-25.016,26.196c-18.436,9.065-45.783,16.131-77.606,20.721c-50.304,7.377-112.445,8.662-170.606,0.841
					c-5.247-0.705-10.321-1.47-15.22-2.288c-57.797-9.66-90.959-26.903-90.992-44.843C172.22,458.63,172.168,457.46,172.375,455.579
					z"/>
				<path style="fill:#6E6E6E;" d="M278.513,559.898c-65.67-8.83-104.426-26.849-106.145-45.839
					c0.237,3.961,0.821,6.715,3.359,11.839c1.941,3.918,4.984,7.589,8.989,11.01l3.586,3.285v0.001
					c0.001,0.001,0.001,0.001,0.002,0.001c0.324,0.297,0.66,0.593,1.004,0.888c2.814,2.431,6.15,4.733,9.947,6.908
					c-1.451-0.857-2.846-1.733-4.18-2.628c2.454,1.596,5.213,3.156,8.254,4.677c-1.521-0.685-2.889-1.37-4.074-2.049
					c60.247,35.592,219.659,38.016,299.557,11.135l0.043-0.013c4.865-1.538,9.306-3.286,13.273-5.069
					c4.004-1.739,7.719-3.572,11.097-5.502c1.306-0.745,2.472-1.447,3.529-2.115c-2.329,1.446-4.858,2.838-7.567,4.177
					c3.143-1.66,5.819-3.248,7.979-4.618c2.161-1.323,4.135-2.684,5.917-4.082c0.281-0.217,0.433-0.34,0.433-0.34
					c-1.681,1.385-3.772,2.977-6.763,4.863c3.338-2.073,6.274-4.257,8.757-6.552c-0.043,0.037-0.088,0.075-0.132,0.113
					c0.181-0.161,0.362-0.321,0.538-0.484l4.282-3.952c0.001,0,0.002-0.001,0.002-0.002c6.737-6.47,10.591-12.485,11.409-21.409
					C546.771,551.375,403.854,576.754,278.513,559.898z"/>
				<path style="fill:#E8E8E8;" d="M351.507,501.137c1.314,0.019,2.401-1.018,2.445-2.332l0.024-0.728
					c0.022-0.648-0.218-1.278-0.666-1.747c-0.447-0.47-1.065-0.738-1.713-0.747c-30.788-0.433-63.776-3.132-93.492-8.822
					c-1.379-0.265-2.768,0.426-3.386,1.686l-0.007,0.013c-0.371,0.757-0.367,1.643,0.01,2.397c0.378,0.754,1.086,1.289,1.915,1.445
					C286.912,498.011,320.354,500.706,351.507,501.137z"/>
				<g>
					<path style="fill:#A1A1A1;" d="M551.74,512.142l-0.081-54.381c0.071,38.356-145.682,64.909-273.227,47.758
						c-67.158-9.031-106.177-27.671-106.212-47.131l0.08,54.38c0.037,19.461,39.055,38.1,106.213,47.131
						C405.64,576.994,551.812,550.587,551.74,512.142L551.74,512.142z"/>
				</g>
				<g>
					<path style="fill:#6D6D6D;" d="M204.722,497.914c0.413,0,0.824,0.074,1.223,0.223c18.664,6.932,43.221,12.57,71.016,16.308
						c26.735,3.595,54.914,5.418,83.766,5.418c41.617,0,83.28-3.946,117.316-11.11c1.624-0.342,3.265-0.699,4.875-1.061
						c0.321-0.071,0.648-0.108,0.972-0.108c2.362,0,4.283,1.902,4.283,4.241v24.832c0,3.825-2.554,7.102-6.211,7.969
						c-2.759,0.654-5.611,1.291-8.478,1.893c-32.593,6.845-72.642,10.614-112.789,10.614c-27.86-0.001-55.016-1.753-80.71-5.209
						c-29.858-4.016-54.982-10.12-72.655-17.655c-3.639-1.551-5.99-5.286-5.99-9.517v-23.52c0-0.905,0.357-1.744,1.004-2.363
						C202.978,498.261,203.845,497.914,204.722,497.914L204.722,497.914L204.722,497.914z M204.722,495.776
						c-2.92,0-5.52,2.307-5.52,5.454v23.52c0,4.933,2.753,9.55,7.289,11.483c17.863,7.616,43.084,13.756,73.208,17.807
						c25.79,3.469,53.04,5.227,80.995,5.228c0.005,0,0.012,0,0.018,0c40.272,0,80.477-3.785,113.211-10.66
						c2.913-0.612,5.758-1.247,8.531-1.905c4.629-1.097,7.855-5.291,7.855-10.048v-24.832c0-3.62-2.974-6.379-6.421-6.379
						c-0.474,0-0.956,0.052-1.44,0.161c-1.645,0.37-3.262,0.721-4.847,1.054c-33.896,7.135-75.402,11.064-116.876,11.065
						c-0.004,0-0.01,0-0.013,0c-28.745,0-56.826-1.816-83.469-5.399c-27.876-3.748-51.982-9.296-70.556-16.192
						C206.034,495.891,205.37,495.776,204.722,495.776L204.722,495.776z"/>
					<path style="fill:#A1A1A1;" d="M483.889,507.583c-0.323,0-0.65,0.037-0.972,0.108c-1.61,0.361-3.251,0.719-4.875,1.061
						c-34.036,7.164-75.699,11.11-117.316,11.11c-28.851,0-57.03-1.823-83.766-5.418c-27.795-3.737-52.352-9.376-71.016-16.308
						c-0.398-0.148-0.81-0.223-1.223-0.223l0,0c-0.877,0-1.744,0.347-2.379,0.953c-0.646,0.619-1.004,1.458-1.004,2.363v23.52
						c0,4.23,2.352,7.966,5.99,9.517c17.673,7.535,42.797,13.64,72.655,17.655c25.694,3.456,52.85,5.208,80.71,5.209
						c40.147,0,80.196-3.769,112.789-10.614c2.866-0.602,5.719-1.238,8.478-1.893c3.657-0.867,6.211-4.144,6.211-7.969v-24.832
						C488.172,509.485,486.251,507.583,483.889,507.583z"/>
					<g>
						<path style="fill:#D9D9D9;" d="M483.889,507.583c-0.323,0-0.65,0.037-0.972,0.108c-1.48,0.333-2.985,0.659-4.481,0.977
							c0.096-0.006,0.192-0.016,0.288-0.016c2.361,0,4.283,1.902,4.283,4.24v24.833c0,3.825-2.555,7.102-6.211,7.968
							c-2.273,0.539-4.609,1.064-6.964,1.57c1.226-0.244,2.445-0.493,3.651-0.746c2.866-0.602,5.719-1.238,8.478-1.893
							c3.657-0.867,6.211-4.144,6.211-7.969v-24.832C488.172,509.485,486.251,507.583,483.889,507.583z"/>
					</g>
					<path style="opacity:0.6;fill:#A1A1A1;" d="M482.542,510.981c-0.708-1.38-2.152-2.329-3.818-2.329
						c-0.096,0-0.192,0.01-0.288,0.016c0.013-0.003,0.025-0.006,0.038-0.008c-0.145,0.03-0.289,0.063-0.432,0.092
						c-34.036,7.164-75.699,11.11-117.316,11.11c-28.851,0-57.03-1.823-83.766-5.418c-27.795-3.737-52.352-9.376-71.016-16.308
						c-0.398-0.148-0.81-0.223-1.223-0.223l0,0c-0.877,0-1.744,0.347-2.379,0.953c-0.646,0.619-1.004,1.458-1.004,2.363v3.205
						c0-0.904,0.357-1.743,1.004-2.361c0.635-0.607,1.502-0.954,2.379-0.954l0,0c0.413,0,0.824,0.075,1.223,0.223
						c18.664,6.932,43.221,12.57,71.016,16.309c26.735,3.594,54.914,5.418,83.766,5.418c41.617-0.002,83.28-3.947,117.316-11.111
						C479.541,511.643,481.052,511.314,482.542,510.981z"/>
				</g>
				<path style="fill:#C9C9C9;" d="M474.208,500.29v54.384c46.253-9.517,77.565-24.733,77.532-42.532l-0.081-54.381
					C551.692,475.525,520.44,490.758,474.208,500.29z"/>
				<path style="fill:#C9C9C9;" d="M526.754,546.427c-2.329,1.446-4.858,2.838-7.567,4.177c3.143-1.66,5.819-3.248,7.979-4.618
					c2.161-1.323,4.135-2.684,5.917-4.082c0.281-0.217,0.433-0.34,0.433-0.34C531.836,542.948,529.744,544.54,526.754,546.427
					c3.338-2.073,6.274-4.257,8.757-6.552c-0.043,0.037-0.088,0.075-0.132,0.113c0.181-0.161,0.362-0.321,0.538-0.484l4.282-3.952
					c0.001,0,0.002-0.001,0.002-0.002c6.737-6.47,10.591-12.485,11.409-21.409c-2.197,16.905-32.856,31.365-77.409,40.54
					l-12.384,13.857c13.523-2.577,26.011-5.718,36.994-9.412l0.043-0.013c4.865-1.538,9.306-3.286,13.273-5.069
					c4.004-1.739,7.719-3.572,11.097-5.502C524.53,547.797,525.696,547.095,526.754,546.427z"/>
				<path style="fill:#D4D4D4;" d="M551.601,456.61c-0.002-0.336-0.014-0.674-0.035-1.013c-0.248-3.902-1.495-7.629-3.385-11.064
					c-1.046-2.073-2.512-4.065-3.943-5.762c-1.063-1.286-2.203-2.508-3.393-3.658c-0.014-0.014-0.025-0.026-0.039-0.039
					c-0.022-0.02-0.043-0.041-0.064-0.061c0.004,0.004,0.007,0.008,0.011,0.011c-0.019-0.018-0.038-0.036-0.058-0.054
					c-0.002-0.002-0.004-0.004-0.006-0.006c0.018,0.017,0.035,0.032,0.053,0.049c-0.053-0.05-0.105-0.102-0.158-0.151
					c-0.01-0.011-0.021-0.021-0.031-0.031c-0.184-0.175-0.369-0.348-0.556-0.52c-0.01-0.009-0.018-0.017-0.028-0.026l-4.298-3.941
					c6.853,6.283,9.052,12.586,7.263,18.665c0.654-2.373,0.697-4.794,0.081-7.254c-0.005-0.02-0.011-0.039-0.015-0.06
					c-0.049-0.189-0.101-0.38-0.157-0.57c-1.636-5.688-6.768-11.543-15.951-17.421c-2.675-1.712-5.603-3.351-8.75-4.92l-9.026-2.401
					l-21.371,27.423l-24.334,36.49l10.799,19.995l0.043,0.034c21.014-4.287,39.041-9.803,52.393-16.367
					c15.82-7.64,25.033-16.538,25.016-26.196C551.643,457.363,551.622,456.983,551.601,456.61z"/>
				<path style="fill:#E3E3E3;" d="M180.258,527.825v-54.05l12.913-21.699l2.338-22.887l-7.301,1.682
					c-0.014,0.013-0.027,0.025-0.041,0.038c-0.033,0.03-0.067,0.06-0.102,0.092c-0.087,0.08-0.166,0.16-0.252,0.24
					c-0.012,0.012-0.024,0.022-0.035,0.034c0.086-0.082,0.166-0.163,0.254-0.244l-4.274,3.948c0,0.001-0.001,0.001-0.001,0.001
					l-0.011,0.01c-0.003,0.003-0.007,0.006-0.01,0.01c-0.32,0.296-0.628,0.592-0.928,0.889c-0.03,0.029-0.061,0.057-0.089,0.086
					c-0.016,0.014-0.028,0.029-0.043,0.043c-0.07,0.07-0.139,0.141-0.209,0.211c-0.553,0.543-1.105,1.104-1.549,1.598
					c-0.701,0.834-1.593,1.804-2.596,3.146c-1.586,2.074-2.986,4.382-4.088,7.171c-0.566,1.351-0.977,2.705-1.271,3.969
					c-0.326,1.309-0.491,2.377-0.589,3.468c-0.207,1.881-0.155,3.051-0.155,2.809l0.08,54.38c0.002,0.432,0.028,0.862,0.067,1.294
					c0-0.001,0-0.001,0-0.002c0.237,3.961,0.821,6.715,3.359,11.839c1.941,3.918,4.984,7.589,8.989,11.01l3.586,3.285v0.001
					c0.001,0.001,0.001,0.001,0.002,0.001c0.324,0.297,0.66,0.593,1.004,0.888c0.654,0.565,1.338,1.121,2.047,1.671L180.258,527.825
					z"/>
				<path style="fill:#CECECE;" d="M206.926,420.839c-41.971,23.845-6.606,52.508,78.989,64.018
					c85.594,11.511,189.006,1.511,230.977-22.335c41.971-23.845,6.607-52.506-78.988-64.017
					C352.309,386.994,248.896,396.994,206.926,420.839z"/>
				<path style="fill:#C9C9C9;" d="M407.877,566.16c-1.922-1.609-3.49-3.598-4.606-5.84l-6.32-12.691l-138.613-2.924l4.203,8.172
					c1.711,3.326,4.068,6.276,6.935,8.679l12.646,10.601c42.412,5.898,91.566,6.639,135.867,2.473L407.877,566.16z"/>
				<g>
					<path style="fill:#7F7F7F;" d="M273.056,525.116c-1.318,2.976-1.045,5.105-2.04,8.091l1.407,16.438
						c0.994-2.983,0.722-5.12,2.039-8.091L273.056,525.116z"/>
					<path style="fill:#969696;" d="M395.543,531.19c-3.854,3.741-7.016,6.269-10.884,9.327c-3.199,2.529-7.119,3.916-11.196,3.971
						c-40.738,0.552-83.31-4.273-121.365-9.512l1.514,13.588c0.372,3.336,2.973,5.975,6.302,6.402
						c36.857,4.745,76.74,6.736,115.046,5.978c4.025-0.08,7.921-1.471,11.08-3.968c3.878-3.066,7.045-5.597,10.911-9.35
						L395.543,531.19z"/>
					<path style="fill:#BDBDBD;" d="M256.823,524.312l16.232,0.805c-0.842,1.897-1.033,3.453-1.322,5.107
						c-0.137,0.782,0.057,1.587,0.532,2.223c0.477,0.636,1.194,1.045,1.983,1.134c28.339,3.204,59.375,4.82,92.332,4.493
						c1.313-0.014,2.586-0.464,3.644-1.24c3.05-2.237,5.829-4.023,8.707-6.467l16.611,0.823c-4.396,4.267-7.884,6.952-12.548,10.643
						c-2.055,1.627-4.587,2.567-7.207,2.628c-39.895,0.932-81.216-0.755-120.93-5.971c-2.032-0.267-3.266-2.361-2.557-4.284
						C253.519,530.902,254.521,528.233,256.823,524.312z"/>
				</g>
			</g>
			<g>
				<path style="fill:#4271E5;" d="M196.832,546.468L196.832,546.468c-0.601-0.367-1.189-0.735-1.757-1.104
					c0.574,0.385,1.16,0.767,1.757,1.143l0,0c2.341,1.484,3.774,2.306,6.497,3.533C199.482,548.117,197.189,546.671,196.832,546.468
					z"/>
				<path style="fill:#4271E5;" d="M534.56,540.729c-16.93,14.793-50.628,23.789-72.742,27.81l0,0
					c-90.649,17.278-225.703,8.983-270.463-25.784l0,0c-0.356-0.284-0.804-0.608-2.097-1.715v13.247h0.009
					c-0.35,17.813,35.204,34.913,96.648,43.177c117.244,15.767,251.537-9.115,248.595-44.536h0.05V540.729z"/>
				<path style="fill:#4271E5;" d="M519.187,550.604c5.256-2.597,9.872-5.368,14.33-9.04
					C529.649,544.681,523.603,548.271,519.187,550.604z"/>
				<path style="fill:#497EFF;" d="M351.508,593.146c1.313,0.019,2.401-1.018,2.445-2.332l0.024-0.728
					c0.022-0.648-0.219-1.277-0.666-1.747c-0.448-0.469-1.066-0.737-1.714-0.746c-30.784-0.433-63.77-3.131-93.482-8.821
					c-1.38-0.264-2.768,0.427-3.387,1.688l-0.005,0.012c-0.372,0.757-0.368,1.644,0.009,2.397c0.378,0.754,1.086,1.289,1.915,1.445
					C286.918,590.021,320.358,592.716,351.508,593.146z"/>
				<path style="fill:#BDBDBD;" d="M461.817,568.538L461.817,568.538c-89.457,17.051-222.154,9.195-268.647-24.427l0,0
					c-0.305-0.22-0.605-0.44-0.903-0.662c-0.308-0.23-0.613-0.463-0.913-0.695l0,0c-0.356-0.284-0.804-0.608-2.097-1.715v6.056
					v7.191h0.009c-0.069,3.511,1.262,6.992,3.904,10.384v-14.509c1.869,1.337,3.898,2.634,6.084,3.886
					c-1.451-0.857-2.846-1.732-4.18-2.628c2.454,1.596,5.213,3.157,8.254,4.677c-1.521-0.685-2.889-1.37-4.074-2.049
					c51.967,30.7,177.705,36.722,262.563,20.547v18.552c44.287-8.832,74.096-23.328,72.692-40.219h0.05v-6.142v-6.057
					C517.63,555.521,483.932,564.518,461.817,568.538z"/>
			</g>
		</g>
		<g>
			<g>
				<path style="fill:#BDBDBD;" d="M172.375,342.69c0.098-1.092,0.263-2.16,0.589-3.468c0.295-1.264,0.705-2.619,1.271-3.97
					c1.102-2.789,2.502-5.097,4.088-7.17c1.003-1.342,1.895-2.313,2.596-3.146c0.444-0.495,0.996-1.055,1.549-1.598
					c0.07-0.07,0.139-0.141,0.209-0.211c0.015-0.015,0.027-0.029,0.043-0.043c0.027-0.029,0.059-0.057,0.089-0.086
					c0.3-0.296,0.608-0.593,0.928-0.888c0.003-0.004,0.007-0.007,0.01-0.01l0.011-0.009c0-0.001,0.001-0.001,0.001-0.002
					l4.274-3.948c-0.088,0.081-0.168,0.163-0.254,0.244c0.011-0.011,0.023-0.023,0.035-0.034c0.086-0.08,0.165-0.161,0.252-0.241
					c0.034-0.031,0.068-0.06,0.102-0.091c0.023-0.022,0.044-0.043,0.067-0.063c0.029-0.026,0.057-0.05,0.085-0.075
					c1.435-1.3,2.861-2.468,4.332-3.561c0.743-0.558,1.5-1.094,2.328-1.65c1.792-1.211,3.68-2.369,5.751-3.573
					c0.548-0.301,1.105-0.599,1.663-0.894c0.023-0.012,0.046-0.024,0.07-0.037c33.941-17.915,87.83-25.867,140.348-27.392
					c64.243-2.094,131.248,5.543,170.054,22.647c0.21,0.091,0.419,0.184,0.626,0.276c0.156,0.07,0.313,0.139,0.468,0.209
					c1.099,0.494,2.173,0.997,3.22,1.509c0.1,0.048,0.2,0.097,0.299,0.146c0.064,0.032,0.129,0.064,0.193,0.096
					c3.328,1.639,6.411,3.357,9.22,5.155c9.183,5.877,14.315,11.733,15.951,17.42c0.057,0.191,0.108,0.381,0.157,0.571
					c0.004,0.02,0.01,0.039,0.015,0.059c0.616,2.46,0.573,4.882-0.081,7.255c1.789-6.079-0.41-12.382-7.263-18.666l4.298,3.941
					c0.01,0.009,0.019,0.018,0.028,0.026c0.187,0.172,0.372,0.345,0.556,0.52c0.011,0.01,0.021,0.02,0.031,0.03
					c0.053,0.05,0.105,0.102,0.158,0.153c-0.018-0.017-0.035-0.033-0.053-0.05c0.002,0.002,0.004,0.004,0.006,0.006
					c0.02,0.018,0.039,0.036,0.058,0.054c-0.004-0.003-0.007-0.007-0.011-0.01c0.021,0.02,0.043,0.04,0.064,0.06
					c0.014,0.014,0.025,0.026,0.039,0.04c1.189,1.15,2.33,2.372,3.393,3.659c1.432,1.696,2.898,3.688,3.943,5.761
					c1.89,3.436,3.137,7.163,3.385,11.065c0.021,0.339,0.033,0.676,0.035,1.013c0.021,0.373,0.042,0.753,0.059,1.15
					c0.018,9.657-9.195,18.557-25.016,26.196c-18.436,9.063-45.783,16.131-77.606,20.721c-50.304,7.377-112.445,8.662-170.606,0.841
					c-5.247-0.705-10.321-1.47-15.22-2.288c-57.797-9.661-90.959-26.903-90.992-44.844C172.22,345.74,172.168,344.57,172.375,342.69
					z"/>
				<path style="fill:#6E6E6E;" d="M278.513,447.009c-65.67-8.831-104.426-26.85-106.145-45.839
					c0.237,3.961,0.821,6.714,3.359,11.839c1.941,3.918,4.984,7.587,8.989,11.01l3.586,3.285l0,0
					c0.001,0.001,0.001,0.001,0.002,0.002c0.324,0.297,0.66,0.592,1.004,0.887c2.814,2.432,6.15,4.733,9.947,6.908
					c-1.451-0.856-2.846-1.732-4.18-2.628c2.454,1.597,5.213,3.157,8.254,4.677c-1.521-0.685-2.889-1.369-4.074-2.049
					c60.247,35.593,219.659,38.015,299.557,11.135l0.043-0.012c4.865-1.538,9.306-3.287,13.273-5.069
					c4.004-1.739,7.719-3.572,11.097-5.502c1.306-0.746,2.472-1.448,3.529-2.116c-2.329,1.446-4.858,2.838-7.567,4.178
					c3.143-1.66,5.819-3.248,7.979-4.618c2.161-1.323,4.135-2.686,5.917-4.082c0.281-0.218,0.433-0.34,0.433-0.34
					c-1.681,1.384-3.772,2.977-6.763,4.862c3.338-2.072,6.274-4.256,8.757-6.551c-0.043,0.037-0.088,0.075-0.132,0.112
					c0.181-0.16,0.362-0.321,0.538-0.483l4.282-3.952c0.001-0.001,0.002-0.001,0.002-0.002c6.737-6.471,10.591-12.485,11.409-21.409
					C546.771,438.485,403.854,463.864,278.513,447.009z"/>
				<path style="fill:#E8E8E8;" d="M351.507,388.246c1.314,0.018,2.402-1.019,2.446-2.332l0.024-0.729
					c0.022-0.648-0.219-1.278-0.666-1.747c-0.448-0.469-1.066-0.738-1.714-0.747c-30.788-0.432-63.777-3.13-93.494-8.821
					c-1.38-0.264-2.768,0.427-3.387,1.688l-0.006,0.011c-0.371,0.757-0.367,1.644,0.01,2.398c0.378,0.754,1.086,1.288,1.915,1.444
					C286.91,385.122,320.354,387.816,351.507,388.246z"/>
				<g>
					<path style="fill:#A1A1A1;" d="M551.74,399.252l-0.081-54.381c0.071,38.355-145.682,64.909-273.227,47.758
						c-67.158-9.031-106.177-27.671-106.212-47.132l0.08,54.38c0.037,19.461,39.055,38.1,106.213,47.132
						C405.64,464.103,551.812,437.696,551.74,399.252L551.74,399.252z"/>
				</g>
				<g>
					<path style="fill:#6D6D6D;" d="M204.722,385.024c0.413,0,0.824,0.074,1.223,0.223c18.664,6.932,43.221,12.57,71.016,16.308
						c26.735,3.595,54.914,5.418,83.766,5.418c41.617-0.001,83.28-3.946,117.316-11.11c1.624-0.343,3.265-0.699,4.875-1.061
						c0.321-0.072,0.648-0.108,0.972-0.108c2.362,0,4.283,1.901,4.283,4.24v24.832c0,3.826-2.554,7.103-6.211,7.97
						c-2.759,0.653-5.611,1.291-8.478,1.892c-32.593,6.846-72.642,10.614-112.789,10.614c-27.86-0.001-55.016-1.753-80.71-5.208
						c-29.858-4.016-54.982-10.121-72.655-17.655c-3.639-1.551-5.99-5.286-5.99-9.517V388.34c0-0.905,0.357-1.743,1.004-2.362
						C202.978,385.371,203.845,385.024,204.722,385.024L204.722,385.024L204.722,385.024z M204.722,382.887
						c-2.92,0-5.52,2.306-5.52,5.453v23.521c0,4.932,2.753,9.55,7.289,11.483c17.863,7.616,43.084,13.757,73.208,17.808
						c25.79,3.468,53.04,5.227,80.995,5.228c0.005,0,0.012,0,0.018,0c40.272,0,80.477-3.786,113.211-10.66
						c2.913-0.611,5.758-1.247,8.531-1.904c4.629-1.097,7.855-5.291,7.855-10.049v-24.832c0-3.619-2.974-6.378-6.421-6.378
						c-0.474,0-0.956,0.052-1.44,0.16c-1.645,0.37-3.262,0.721-4.847,1.055c-33.896,7.135-75.402,11.064-116.876,11.064
						c-0.004,0-0.01,0-0.013,0c-28.745,0-56.826-1.816-83.469-5.398c-27.876-3.749-51.982-9.297-70.556-16.193
						C206.034,383,205.37,382.887,204.722,382.887L204.722,382.887z"/>
					<path style="fill:#A1A1A1;" d="M483.889,394.693c-0.323,0-0.65,0.036-0.972,0.108c-1.61,0.361-3.251,0.718-4.875,1.061
						c-34.036,7.164-75.699,11.109-117.316,11.11c-28.851,0-57.03-1.823-83.766-5.418c-27.795-3.737-52.352-9.376-71.016-16.308
						c-0.398-0.148-0.81-0.223-1.223-0.223l0,0c-0.877,0-1.744,0.347-2.379,0.953c-0.646,0.619-1.004,1.457-1.004,2.362v23.521
						c0,4.23,2.352,7.966,5.99,9.517c17.673,7.534,42.797,13.64,72.655,17.655c25.694,3.455,52.85,5.207,80.71,5.208
						c40.147,0,80.196-3.769,112.789-10.614c2.866-0.601,5.719-1.238,8.478-1.892c3.657-0.867,6.211-4.144,6.211-7.97v-24.832
						C488.172,396.595,486.251,394.693,483.889,394.693z"/>
					<g>
						<path style="fill:#D9D9D9;" d="M483.889,394.693c-0.323,0-0.65,0.036-0.972,0.108c-1.48,0.333-2.985,0.659-4.481,0.976
							c0.096-0.007,0.192-0.016,0.288-0.016c2.361,0,4.283,1.902,4.283,4.24v24.833c0,3.825-2.555,7.102-6.211,7.969
							c-2.273,0.539-4.609,1.064-6.964,1.57c1.226-0.246,2.445-0.493,3.651-0.747c2.866-0.601,5.719-1.238,8.478-1.892
							c3.657-0.867,6.211-4.144,6.211-7.97v-24.832C488.172,396.595,486.251,394.693,483.889,394.693z"/>
					</g>
					<path style="opacity:0.6;fill:#A1A1A1;" d="M482.542,398.091c-0.708-1.38-2.152-2.329-3.818-2.329
						c-0.096,0-0.192,0.009-0.288,0.016c0.013-0.003,0.025-0.006,0.038-0.008c-0.145,0.03-0.289,0.063-0.432,0.093
						c-34.036,7.164-75.699,11.109-117.316,11.11c-28.851,0-57.03-1.823-83.766-5.418c-27.795-3.737-52.352-9.376-71.016-16.308
						c-0.398-0.148-0.81-0.223-1.223-0.223l0,0c-0.877,0-1.744,0.347-2.379,0.953c-0.646,0.619-1.004,1.457-1.004,2.362v3.206
						c0-0.905,0.357-1.743,1.004-2.362c0.635-0.607,1.502-0.953,2.379-0.953l0,0c0.413,0,0.824,0.074,1.223,0.223
						c18.664,6.931,43.221,12.57,71.016,16.308c26.735,3.595,54.914,5.418,83.766,5.418c41.617-0.001,83.28-3.946,117.316-11.11
						C479.541,398.752,481.052,398.424,482.542,398.091z"/>
				</g>
				<path style="fill:#C9C9C9;" d="M474.208,387.399v54.384c46.253-9.516,77.565-24.733,77.532-42.531l-0.081-54.381
					C551.692,362.636,520.44,377.868,474.208,387.399z"/>
				<path style="fill:#C9C9C9;" d="M526.754,433.536c-2.329,1.446-4.858,2.838-7.567,4.178c3.143-1.66,5.819-3.248,7.979-4.618
					c2.161-1.323,4.135-2.686,5.917-4.082c0.281-0.218,0.433-0.34,0.433-0.34C531.836,430.058,529.744,431.65,526.754,433.536
					c3.338-2.072,6.274-4.256,8.757-6.551c-0.043,0.037-0.088,0.075-0.132,0.112c0.181-0.16,0.362-0.321,0.538-0.483l4.282-3.952
					c0.001-0.001,0.002-0.001,0.002-0.002c6.737-6.471,10.591-12.485,11.409-21.409c-2.197,16.904-32.856,31.365-77.409,40.539
					l-12.384,13.858c13.523-2.578,26.011-5.718,36.994-9.413l0.043-0.012c4.865-1.538,9.306-3.287,13.273-5.069
					c4.004-1.739,7.719-3.572,11.097-5.502C524.53,434.906,525.696,434.204,526.754,433.536z"/>
				<path style="fill:#D4D4D4;" d="M551.601,343.721c-0.002-0.337-0.014-0.674-0.035-1.013c-0.248-3.902-1.495-7.629-3.385-11.065
					c-1.046-2.073-2.512-4.065-3.943-5.761c-1.063-1.287-2.203-2.508-3.393-3.659c-0.014-0.014-0.025-0.026-0.039-0.04
					c-0.022-0.02-0.043-0.04-0.064-0.06c0.004,0.003,0.007,0.007,0.011,0.01c-0.019-0.019-0.038-0.037-0.058-0.054
					c-0.002-0.002-0.004-0.004-0.006-0.006c0.018,0.017,0.035,0.033,0.053,0.05c-0.053-0.051-0.105-0.103-0.158-0.153
					c-0.01-0.01-0.021-0.02-0.031-0.03c-0.184-0.175-0.369-0.348-0.556-0.52c-0.01-0.009-0.018-0.018-0.028-0.026l-4.298-3.941
					c6.853,6.284,9.052,12.586,7.263,18.666c0.654-2.373,0.697-4.795,0.081-7.255c-0.005-0.02-0.011-0.039-0.015-0.059
					c-0.049-0.19-0.101-0.38-0.157-0.571c-1.636-5.686-6.768-11.543-15.951-17.42c-2.675-1.713-5.603-3.352-8.75-4.92l-9.026-2.401
					l-21.371,27.422l-24.334,36.491l10.799,19.994l0.043,0.034c21.014-4.287,39.041-9.802,52.393-16.366
					c15.82-7.64,25.033-16.539,25.016-26.196C551.643,344.474,551.622,344.094,551.601,343.721z"/>
				<path style="fill:#E3E3E3;" d="M180.258,414.935v-54.05l12.913-21.699l2.338-22.887l-7.301,1.681
					c-0.014,0.013-0.027,0.025-0.041,0.039c-0.033,0.031-0.067,0.06-0.102,0.091c-0.087,0.08-0.166,0.161-0.252,0.241
					c-0.012,0.011-0.024,0.022-0.035,0.034c0.086-0.082,0.166-0.163,0.254-0.244l-4.274,3.948c0,0-0.001,0.001-0.001,0.002
					l-0.011,0.009c-0.003,0.003-0.007,0.006-0.01,0.01c-0.32,0.295-0.628,0.592-0.928,0.888c-0.03,0.029-0.061,0.057-0.089,0.086
					c-0.016,0.014-0.028,0.029-0.043,0.043c-0.07,0.07-0.139,0.14-0.209,0.211c-0.553,0.543-1.105,1.103-1.549,1.598
					c-0.701,0.833-1.593,1.803-2.596,3.146c-1.586,2.073-2.986,4.381-4.088,7.17c-0.566,1.35-0.977,2.706-1.271,3.97
					c-0.326,1.308-0.491,2.376-0.589,3.468c-0.207,1.881-0.155,3.051-0.155,2.808l0.08,54.38c0.002,0.432,0.028,0.863,0.067,1.294
					v-0.001c0.237,3.961,0.821,6.714,3.359,11.839c1.941,3.918,4.984,7.587,8.989,11.01l3.586,3.285l0,0
					c0.001,0.001,0.001,0.001,0.002,0.002c0.324,0.297,0.66,0.592,1.004,0.887c0.654,0.564,1.338,1.121,2.047,1.671L180.258,414.935
					z"/>
				<path style="fill:#CECECE;" d="M206.926,307.949c-41.971,23.845-6.606,52.506,78.989,64.017
					c85.594,11.511,189.006,1.512,230.977-22.334c41.971-23.845,6.607-52.507-78.988-64.017
					C352.309,274.104,248.896,284.103,206.926,307.949z"/>
				<path style="fill:#C9C9C9;" d="M407.876,453.27c-1.921-1.609-3.488-3.597-4.605-5.84l-6.32-12.691l-138.615-2.923l4.206,8.175
					c1.71,3.322,4.066,6.271,6.93,8.672l12.647,10.604c42.413,5.898,91.568,6.638,135.869,2.473L407.876,453.27z"/>
				<g>
					<path style="fill:#7F7F7F;" d="M273.056,412.227c-1.318,2.975-1.045,5.104-2.04,8.091l1.407,16.436
						c0.994-2.983,0.722-5.119,2.039-8.09L273.056,412.227z"/>
					<path style="fill:#969696;" d="M395.543,418.3c-3.854,3.741-7.016,6.271-10.884,9.328c-3.199,2.528-7.118,3.915-11.196,3.97
						c-40.738,0.553-83.31-4.272-121.364-9.512l1.514,13.588c0.372,3.336,2.972,5.975,6.301,6.402
						c36.858,4.745,76.741,6.736,115.046,5.978c4.025-0.08,7.921-1.471,11.079-3.968c3.879-3.066,7.046-5.597,10.912-9.35
						L395.543,418.3z"/>
					<path style="fill:#BDBDBD;" d="M256.823,411.422l16.232,0.805c-0.842,1.897-1.033,3.452-1.322,5.107
						c-0.137,0.782,0.057,1.587,0.532,2.223c0.477,0.636,1.194,1.044,1.983,1.134c28.339,3.203,59.375,4.82,92.332,4.492
						c1.313-0.013,2.586-0.463,3.644-1.239c3.05-2.238,5.829-4.023,8.707-6.467l16.611,0.823
						c-4.396,4.267-7.884,6.952-12.548,10.644c-2.055,1.626-4.587,2.565-7.207,2.628c-39.895,0.93-81.216-0.756-120.93-5.971
						c-2.032-0.267-3.266-2.361-2.557-4.285C253.519,418.013,254.521,415.344,256.823,411.422z"/>
				</g>
			</g>
			<g>
				<path style="fill:#4271E5;" d="M196.832,433.576L196.832,433.576c-0.601-0.365-1.189-0.733-1.757-1.104
					c0.574,0.386,1.16,0.766,1.757,1.145l0,0c2.341,1.484,3.774,2.306,6.497,3.532C199.482,435.228,197.189,433.78,196.832,433.576z
					"/>
				<path style="fill:#4271E5;" d="M534.56,427.839c-16.93,14.793-50.628,23.788-72.742,27.81l0,0
					c-90.649,17.277-225.703,8.982-270.463-25.785l0,0c-0.356-0.284-0.804-0.607-2.097-1.715v13.248h0.009
					c-0.35,17.813,35.204,34.913,96.648,43.176c117.244,15.767,251.537-9.115,248.595-44.535h0.05V427.839z"/>
				<path style="fill:#4271E5;" d="M519.187,437.714c5.256-2.598,9.872-5.368,14.33-9.04
					C529.649,431.791,523.603,435.382,519.187,437.714z"/>
				<path style="fill:#497EFF;" d="M351.507,480.257c1.314,0.018,2.402-1.018,2.446-2.332l0.024-0.729
					c0.022-0.648-0.219-1.278-0.666-1.747c-0.448-0.47-1.066-0.738-1.714-0.747c-30.788-0.433-63.777-3.131-93.495-8.821
					c-1.38-0.265-2.768,0.427-3.387,1.688l-0.005,0.011c-0.371,0.757-0.368,1.644,0.01,2.397c0.377,0.754,1.086,1.289,1.914,1.445
					C286.91,477.131,320.354,479.825,351.507,480.257z"/>
				<path style="fill:#BDBDBD;" d="M461.817,455.648L461.817,455.648c-89.457,17.05-222.154,9.194-268.647-24.427l0,0
					c-0.305-0.22-0.605-0.441-0.903-0.663c-0.308-0.23-0.613-0.462-0.913-0.695l0,0c-0.356-0.284-0.804-0.607-2.097-1.715v6.056
					v7.192h0.009c-0.069,3.51,1.262,6.992,3.904,10.384v-14.509c1.869,1.336,3.898,2.633,6.084,3.885
					c-1.451-0.857-2.846-1.733-4.18-2.628c2.454,1.596,5.213,3.157,8.254,4.677c-1.521-0.685-2.889-1.369-4.074-2.049
					c51.967,30.7,177.705,36.722,262.563,20.548v18.552c44.287-8.832,74.096-23.328,72.692-40.219h0.05v-6.143v-6.056
					C517.63,442.632,483.932,451.627,461.817,455.648z"/>
			</g>
		</g>
		<g>
			<g>
				<path style="fill:#BDBDBD;" d="M172.375,229.799c0.098-1.091,0.263-2.159,0.589-3.467c0.295-1.264,0.705-2.619,1.271-3.969
					c1.102-2.789,2.502-5.097,4.088-7.171c1.003-1.341,1.895-2.312,2.596-3.146c0.444-0.495,0.996-1.054,1.549-1.598
					c0.07-0.07,0.139-0.14,0.209-0.211c0.015-0.014,0.027-0.029,0.043-0.044c0.027-0.029,0.059-0.057,0.089-0.085
					c0.3-0.296,0.608-0.592,0.928-0.888c0.003-0.003,0.007-0.007,0.01-0.011l0.011-0.009c0-0.001,0.001-0.001,0.001-0.001
					l4.274-3.948c-0.088,0.081-0.168,0.162-0.254,0.244c0.011-0.011,0.023-0.022,0.035-0.034c0.086-0.08,0.165-0.161,0.252-0.241
					c0.034-0.031,0.068-0.061,0.102-0.091c0.023-0.021,0.044-0.043,0.067-0.064c0.029-0.025,0.057-0.049,0.085-0.075
					c1.435-1.3,2.861-2.467,4.332-3.56c0.743-0.558,1.5-1.095,2.328-1.65c1.792-1.211,3.68-2.369,5.751-3.572
					c0.548-0.301,1.105-0.599,1.663-0.894c0.023-0.012,0.046-0.024,0.07-0.036c33.941-17.916,87.83-25.867,140.348-27.392
					c64.243-2.095,131.248,5.543,170.054,22.646c0.21,0.092,0.419,0.184,0.626,0.276c0.156,0.069,0.313,0.139,0.468,0.208
					c1.099,0.494,2.173,0.997,3.22,1.509c0.1,0.049,0.2,0.098,0.299,0.146c0.064,0.032,0.129,0.064,0.193,0.096
					c3.328,1.64,6.411,3.358,9.22,5.156c9.183,5.878,14.315,11.732,15.951,17.42c0.057,0.19,0.108,0.38,0.157,0.57
					c0.004,0.02,0.01,0.04,0.015,0.06c0.616,2.46,0.573,4.88-0.081,7.254c1.789-6.079-0.41-12.382-7.263-18.665l4.298,3.941
					c0.01,0.009,0.019,0.018,0.028,0.026c0.187,0.172,0.372,0.345,0.556,0.52c0.011,0.01,0.021,0.02,0.031,0.03
					c0.053,0.051,0.105,0.102,0.158,0.152c-0.018-0.016-0.035-0.033-0.053-0.049c0.002,0.002,0.004,0.003,0.006,0.005
					c0.02,0.019,0.039,0.036,0.058,0.054c-0.004-0.003-0.007-0.007-0.011-0.01c0.021,0.02,0.043,0.041,0.064,0.061
					c0.014,0.013,0.025,0.026,0.039,0.039c1.189,1.15,2.33,2.372,3.393,3.658c1.432,1.696,2.898,3.688,3.943,5.761
					c1.89,3.437,3.137,7.163,3.385,11.066c0.021,0.339,0.033,0.676,0.035,1.012c0.021,0.373,0.042,0.753,0.059,1.151
					c0.018,9.658-9.195,18.556-25.016,26.196c-18.436,9.064-45.783,16.13-77.606,20.722c-50.304,7.376-112.445,8.661-170.606,0.84
					c-5.247-0.706-10.321-1.47-15.22-2.289c-57.797-9.66-90.959-26.903-90.992-44.843C172.22,232.85,172.168,231.68,172.375,229.799
					z"/>
				<path style="fill:#6E6E6E;" d="M278.513,334.118c-65.67-8.831-104.426-26.849-106.145-45.838
					c0.237,3.961,0.821,6.714,3.359,11.838c1.941,3.918,4.984,7.588,8.989,11.01l3.586,3.285l0,0c0.001,0,0.001,0.001,0.002,0.001
					c0.324,0.297,0.66,0.592,1.004,0.887c2.814,2.432,6.15,4.734,9.947,6.909c-1.451-0.857-2.846-1.732-4.18-2.628
					c2.454,1.596,5.213,3.157,8.254,4.677c-1.521-0.685-2.889-1.369-4.074-2.049c60.247,35.593,219.659,38.015,299.557,11.135
					l0.043-0.012c4.865-1.538,9.306-3.287,13.273-5.07c4.004-1.739,7.719-3.572,11.097-5.502c1.306-0.745,2.472-1.448,3.529-2.115
					c-2.329,1.446-4.858,2.838-7.567,4.177c3.143-1.66,5.819-3.247,7.979-4.618c2.161-1.323,4.135-2.685,5.917-4.083
					c0.281-0.217,0.433-0.34,0.433-0.34c-1.681,1.385-3.772,2.977-6.763,4.863c3.338-2.074,6.274-4.256,8.757-6.551
					c-0.043,0.037-0.088,0.075-0.132,0.113c0.181-0.161,0.362-0.322,0.538-0.485l4.282-3.952c0.001-0.001,0.002-0.001,0.002-0.003
					c6.737-6.47,10.591-12.485,11.409-21.409C546.771,325.595,403.854,350.975,278.513,334.118z"/>
				<path style="fill:#E8E8E8;" d="M351.507,275.356c1.314,0.018,2.402-1.019,2.446-2.332l0.024-0.729
					c0.022-0.648-0.219-1.278-0.666-1.747c-0.448-0.469-1.066-0.738-1.714-0.747c-30.789-0.432-63.778-3.13-93.494-8.821
					c-1.38-0.264-2.768,0.427-3.387,1.688l-0.005,0.011c-0.372,0.757-0.368,1.644,0.009,2.398c0.378,0.754,1.086,1.288,1.915,1.445
					C286.91,272.231,320.354,274.926,351.507,275.356z"/>
				<g>
					<path style="fill:#A1A1A1;" d="M551.74,286.361l-0.081-54.38c0.071,38.355-145.682,64.909-273.227,47.758
						c-67.158-9.031-106.177-27.671-106.212-47.132l0.08,54.38c0.037,19.461,39.055,38.1,106.213,47.131
						C405.64,351.214,551.812,324.807,551.74,286.361L551.74,286.361z"/>
				</g>
				<g>
					<path style="fill:#6D6D6D;" d="M204.722,272.134c0.413,0,0.824,0.075,1.223,0.223c18.664,6.931,43.221,12.57,71.016,16.307
						c26.735,3.596,54.914,5.418,83.766,5.418c41.617,0,83.28-3.946,117.316-11.11c1.624-0.342,3.265-0.699,4.875-1.06
						c0.321-0.072,0.648-0.108,0.972-0.108c2.362,0,4.283,1.902,4.283,4.24v24.833c0,3.826-2.554,7.102-6.211,7.969
						c-2.759,0.654-5.611,1.291-8.478,1.893c-32.593,6.845-72.642,10.614-112.789,10.614c-27.86-0.001-55.016-1.754-80.71-5.208
						c-29.858-4.016-54.982-10.12-72.655-17.655c-3.639-1.551-5.99-5.287-5.99-9.517V275.45c0-0.905,0.357-1.743,1.004-2.362
						C202.978,272.481,203.845,272.134,204.722,272.134L204.722,272.134L204.722,272.134z M204.722,269.996
						c-2.92,0-5.52,2.306-5.52,5.454v23.522c0,4.931,2.753,9.549,7.289,11.482c17.863,7.616,43.084,13.756,73.208,17.808
						c25.79,3.468,53.04,5.227,80.995,5.227c0.005,0,0.012,0,0.018,0c40.272,0,80.477-3.785,113.211-10.659
						c2.913-0.611,5.758-1.248,8.531-1.904c4.629-1.097,7.855-5.292,7.855-10.049v-24.833c0-3.619-2.974-6.378-6.421-6.378
						c-0.474,0-0.956,0.052-1.44,0.161c-1.645,0.369-3.262,0.721-4.847,1.054c-33.896,7.135-75.402,11.064-116.876,11.065
						c-0.004,0-0.01,0-0.013,0c-28.745,0-56.826-1.816-83.469-5.399c-27.876-3.748-51.982-9.296-70.556-16.192
						C206.034,270.11,205.37,269.996,204.722,269.996L204.722,269.996z"/>
					<path style="fill:#A1A1A1;" d="M483.889,281.803c-0.323,0-0.65,0.036-0.972,0.108c-1.61,0.361-3.251,0.718-4.875,1.06
						c-34.036,7.164-75.699,11.11-117.316,11.11c-28.851,0-57.03-1.822-83.766-5.418c-27.795-3.737-52.352-9.376-71.016-16.307
						c-0.398-0.148-0.81-0.223-1.223-0.223l0,0c-0.877,0-1.744,0.348-2.379,0.954c-0.646,0.619-1.004,1.457-1.004,2.362v23.522
						c0,4.229,2.352,7.965,5.99,9.517c17.673,7.535,42.797,13.639,72.655,17.655c25.694,3.455,52.85,5.207,80.71,5.208
						c40.147,0,80.196-3.77,112.789-10.614c2.866-0.602,5.719-1.239,8.478-1.893c3.657-0.867,6.211-4.143,6.211-7.969v-24.833
						C488.172,283.706,486.251,281.803,483.889,281.803z"/>
					<g>
						<path style="fill:#D9D9D9;" d="M483.889,281.803c-0.323,0-0.65,0.036-0.972,0.108c-1.48,0.332-2.985,0.66-4.481,0.976
							c0.096-0.006,0.192-0.016,0.288-0.016c2.361,0,4.283,1.902,4.283,4.24v24.832c0,3.826-2.555,7.102-6.211,7.969
							c-2.273,0.538-4.609,1.064-6.964,1.57c1.226-0.245,2.445-0.493,3.651-0.746c2.866-0.602,5.719-1.239,8.478-1.893
							c3.657-0.867,6.211-4.143,6.211-7.969v-24.833C488.172,283.706,486.251,281.803,483.889,281.803z"/>
					</g>
					<path style="opacity:0.6;fill:#A1A1A1;" d="M482.542,285.201c-0.708-1.379-2.152-2.329-3.818-2.329
						c-0.096,0-0.192,0.009-0.288,0.016c0.013-0.003,0.025-0.005,0.038-0.008c-0.145,0.031-0.289,0.063-0.432,0.092
						c-34.036,7.164-75.699,11.11-117.316,11.11c-28.851,0-57.03-1.822-83.766-5.418c-27.795-3.737-52.352-9.376-71.016-16.307
						c-0.398-0.148-0.81-0.223-1.223-0.223l0,0c-0.877,0-1.744,0.348-2.379,0.954c-0.646,0.619-1.004,1.457-1.004,2.362v3.206
						c0-0.904,0.357-1.743,1.004-2.362c0.635-0.607,1.502-0.954,2.379-0.954l0,0c0.413,0,0.824,0.075,1.223,0.223
						c18.664,6.931,43.221,12.57,71.016,16.307c26.735,3.595,54.914,5.419,83.766,5.419c41.617-0.001,83.28-3.947,117.316-11.111
						C479.541,285.862,481.052,285.533,482.542,285.201z"/>
				</g>
				<path style="fill:#C9C9C9;" d="M474.208,274.509v54.384c46.253-9.517,77.565-24.734,77.532-42.532l-0.081-54.38
					C551.692,249.746,520.44,264.978,474.208,274.509z"/>
				<path style="fill:#C9C9C9;" d="M526.754,320.647c-2.329,1.446-4.858,2.838-7.567,4.177c3.143-1.66,5.819-3.247,7.979-4.618
					c2.161-1.323,4.135-2.685,5.917-4.083c0.281-0.217,0.433-0.34,0.433-0.34C531.836,317.168,529.744,318.76,526.754,320.647
					c3.338-2.074,6.274-4.256,8.757-6.551c-0.043,0.037-0.088,0.075-0.132,0.113c0.181-0.161,0.362-0.322,0.538-0.485l4.282-3.952
					c0.001-0.001,0.002-0.001,0.002-0.003c6.737-6.47,10.591-12.485,11.409-21.409c-2.197,16.905-32.856,31.366-77.409,40.54
					l-12.384,13.857c13.523-2.577,26.011-5.717,36.994-9.412l0.043-0.012c4.865-1.538,9.306-3.287,13.273-5.07
					c4.004-1.739,7.719-3.572,11.097-5.502C524.53,322.017,525.696,321.314,526.754,320.647z"/>
				<path style="fill:#D4D4D4;" d="M551.601,230.83c-0.002-0.336-0.014-0.673-0.035-1.012c-0.248-3.903-1.495-7.629-3.385-11.066
					c-1.046-2.073-2.512-4.064-3.943-5.761c-1.063-1.286-2.203-2.508-3.393-3.658c-0.014-0.013-0.025-0.027-0.039-0.039
					c-0.022-0.02-0.043-0.041-0.064-0.061c0.004,0.003,0.007,0.007,0.011,0.01c-0.019-0.018-0.038-0.036-0.058-0.054
					c-0.002-0.002-0.004-0.004-0.006-0.005c0.018,0.017,0.035,0.033,0.053,0.049c-0.053-0.051-0.105-0.102-0.158-0.152
					c-0.01-0.01-0.021-0.02-0.031-0.03c-0.184-0.176-0.369-0.349-0.556-0.52c-0.01-0.009-0.018-0.018-0.028-0.026l-4.298-3.941
					c6.853,6.284,9.052,12.586,7.263,18.665c0.654-2.374,0.697-4.795,0.081-7.254c-0.005-0.02-0.011-0.04-0.015-0.06
					c-0.049-0.19-0.101-0.38-0.157-0.57c-1.636-5.688-6.768-11.542-15.951-17.42c-2.675-1.713-5.603-3.352-8.75-4.921l-9.026-2.401
					l-21.371,27.422l-24.334,36.491l10.799,19.994l0.043,0.035c21.014-4.287,39.041-9.803,52.393-16.367
					c15.82-7.64,25.033-16.538,25.016-26.196C551.643,231.583,551.622,231.203,551.601,230.83z"/>
				<path style="fill:#E3E3E3;" d="M180.258,302.044v-54.049l12.913-21.699l2.338-22.887l-7.301,1.682
					c-0.014,0.012-0.027,0.025-0.041,0.038c-0.033,0.031-0.067,0.061-0.102,0.091c-0.087,0.08-0.166,0.161-0.252,0.241
					c-0.012,0.011-0.024,0.023-0.035,0.034c0.086-0.081,0.166-0.163,0.254-0.244l-4.274,3.948c0,0.001-0.001,0.001-0.001,0.001
					l-0.011,0.009c-0.003,0.003-0.007,0.007-0.01,0.011c-0.32,0.296-0.628,0.592-0.928,0.888c-0.03,0.029-0.061,0.057-0.089,0.085
					c-0.016,0.015-0.028,0.029-0.043,0.044c-0.07,0.071-0.139,0.141-0.209,0.211c-0.553,0.544-1.105,1.103-1.549,1.598
					c-0.701,0.833-1.593,1.804-2.596,3.146c-1.586,2.074-2.986,4.382-4.088,7.171c-0.566,1.35-0.977,2.706-1.271,3.969
					c-0.326,1.308-0.491,2.376-0.589,3.467c-0.207,1.881-0.155,3.051-0.155,2.808l0.08,54.38c0.002,0.432,0.028,0.863,0.067,1.293
					c0,0,0-0.001,0-0.001c0.237,3.961,0.821,6.714,3.359,11.838c1.941,3.918,4.984,7.588,8.989,11.01l3.586,3.285l0,0
					c0.001,0,0.001,0.001,0.002,0.001c0.324,0.297,0.66,0.592,1.004,0.887c0.654,0.565,1.338,1.121,2.047,1.671L180.258,302.044z"/>
				<path style="fill:#CECECE;" d="M206.926,195.059c-41.971,23.846-6.606,52.507,78.989,64.018
					c85.594,11.51,189.006,1.511,230.977-22.335c41.971-23.846,6.607-52.507-78.988-64.017
					C352.309,161.214,248.896,171.214,206.926,195.059z"/>
				<path style="fill:#C9C9C9;" d="M407.875,340.377c-1.92-1.609-3.487-3.596-4.604-5.839l-6.321-12.691l-138.609-2.924l4.203,8.172
					c1.711,3.325,4.068,6.275,6.934,8.678l12.646,10.601c42.412,5.898,91.565,6.639,135.864,2.473L407.875,340.377z"/>
				<g>
					<path style="fill:#7F7F7F;" d="M273.056,299.337c-1.318,2.975-1.045,5.104-2.04,8.089l1.407,16.438
						c0.994-2.983,0.722-5.12,2.039-8.09L273.056,299.337z"/>
					<path style="fill:#969696;" d="M395.543,305.41c-3.854,3.741-7.016,6.27-10.884,9.328c-3.199,2.529-7.119,3.915-11.196,3.971
						c-40.738,0.552-83.31-4.273-121.364-9.513l1.514,13.589c0.372,3.336,2.972,5.974,6.301,6.403
						c36.858,4.744,76.742,6.736,115.047,5.977c4.025-0.08,7.92-1.471,11.078-3.967c3.879-3.066,7.046-5.597,10.912-9.349
						L395.543,305.41z"/>
					<path style="fill:#BDBDBD;" d="M256.823,298.532l16.232,0.805c-0.842,1.897-1.033,3.452-1.322,5.107
						c-0.137,0.783,0.057,1.586,0.532,2.222c0.477,0.635,1.194,1.045,1.983,1.135c28.339,3.203,59.375,4.82,92.332,4.492
						c1.313-0.013,2.586-0.463,3.644-1.24c3.05-2.237,5.829-4.023,8.707-6.466l16.611,0.823c-4.396,4.266-7.884,6.952-12.548,10.643
						c-2.055,1.627-4.587,2.566-7.207,2.628c-39.895,0.931-81.216-0.755-120.93-5.97c-2.032-0.267-3.266-2.361-2.557-4.285
						C253.519,305.122,254.521,302.453,256.823,298.532z"/>
				</g>
			</g>
			<g>
				<path style="fill:#4271E5;" d="M196.832,320.686L196.832,320.686c-0.601-0.366-1.189-0.734-1.757-1.104
					c0.574,0.385,1.16,0.766,1.757,1.145l0,0c2.341,1.484,3.774,2.305,6.497,3.533C199.482,322.337,197.189,320.89,196.832,320.686z
					"/>
				<path style="fill:#4271E5;" d="M534.56,314.949c-16.93,14.792-50.628,23.788-72.742,27.809l0,0
					c-90.649,17.278-225.703,8.982-270.463-25.784l0,0c-0.356-0.284-0.804-0.607-2.097-1.715v13.248h0.009
					c-0.35,17.813,35.204,34.914,96.648,43.177c117.244,15.767,251.537-9.116,248.595-44.537h0.05V314.949z"/>
				<path style="fill:#4271E5;" d="M519.187,324.823c5.256-2.597,9.872-5.368,14.33-9.04
					C529.649,318.901,523.603,322.492,519.187,324.823z"/>
				<path style="fill:#497EFF;" d="M351.507,367.366c1.314,0.018,2.402-1.019,2.446-2.332l0.024-0.729
					c0.022-0.648-0.219-1.278-0.666-1.747c-0.448-0.469-1.066-0.738-1.714-0.747c-30.788-0.432-63.777-3.13-93.494-8.821
					c-1.38-0.264-2.768,0.427-3.387,1.688l-0.006,0.011c-0.371,0.757-0.367,1.644,0.01,2.398c0.378,0.754,1.086,1.288,1.915,1.444
					C286.91,364.242,320.354,366.936,351.507,367.366z"/>
				<path style="fill:#BDBDBD;" d="M461.817,342.758L461.817,342.758c-89.457,17.051-222.154,9.195-268.647-24.426l0,0
					c-0.305-0.22-0.605-0.441-0.903-0.663c-0.308-0.23-0.613-0.462-0.913-0.695l0,0c-0.356-0.284-0.804-0.607-2.097-1.715v6.055
					v7.192h0.009c-0.069,3.511,1.262,6.992,3.904,10.385v-14.51c1.869,1.337,3.898,2.633,6.084,3.886
					c-1.451-0.857-2.846-1.732-4.18-2.628c2.454,1.596,5.213,3.156,8.254,4.677c-1.521-0.685-2.889-1.369-4.074-2.049
					c51.967,30.7,177.705,36.722,262.563,20.547v18.553c44.287-8.833,74.096-23.328,72.692-40.22h0.05v-6.141v-6.056
					C517.63,329.741,483.932,338.737,461.817,342.758z"/>
			</g>
		</g>
	</g>
	<g>
		<path style="fill:#BFBFBF;" d="M743.096,703.997c0,8.004-54.613,14.492-121.981,14.492s-121.981-6.488-121.981-14.492
			c0-8.003,54.613-14.491,121.981-14.491S743.096,695.994,743.096,703.997z"/>
		<path style="fill:#1F78CF;" d="M745.164,628.388c-33.594,67.428-115.481,94.86-182.912,61.27
			c-67.428-33.59-94.856-115.48-61.271-182.908c33.594-67.428,115.481-94.859,182.908-61.271
			C751.318,479.069,778.747,560.961,745.164,628.388z"/>
		<g>
			<path style="fill:#99C00F;" d="M597.408,507.502c-13.424,0.363-31.496,3.067-32.277,23.913
				c-0.133,3.519-0.201,7.062-0.334,10.621c-0.269,11.363,5.193,14.743,14.434,21.083c3.004,2.053,6,4.161,9.068,6.201
				c4.785,3.285,7.717,8.79,7.783,14.646c0.066,10.393,0.184,20.63,0.453,30.657c0.066,4.945-17.221,29.995-20.361,32.868
				c-6.203,5.638-10.537,12.997-7.605,20.944c2.166,5.693,8.252,10.367,15.225,11.395c4.939,0.734,9.287-1.311,11.775-4.536
				c1.273-1.643,3.598-2.601,6.17-2.499c6.43,0.249,12.893,0.372,19.371,0.389c5.229,0,9.945-2.088,14.096-4.855
				c5.289-3.564,14.139-9.278,14.139-9.278c16.129-10.635,31.932-22.235,47.041-34.49c2.691-1.33,4.563-4.17,4.828-7.15
				c0.199-2.755-1.73-4.853-4.326-4.671c-1.732,0.116-3.479,0.227-5.238,0.341c-2.828,0.168-5.019-2.104-4.885-5.104
				c0.674-15.094,0.795-30.528,0.596-46.088c-0.133-6.576-2.598-12.976-6.973-17.813c-4.297-4.817-10.482-7.206-16.775-8.15
				c-4.609-0.694-8.299-4.664-8.5-9.4c0-1.107-0.121-2.209-0.121-3.31c-0.131-4.052-1.787-8-4.637-11.032
				c-2.752-3.012-6.734-4.762-10.826-4.836C639.527,507.347,611.068,507.15,597.408,507.502z"/>
			<path style="fill:#99C00F;" d="M497.733,595.172c0.803-4.303,9.494-16.641,9.494-16.641c4.471-8.773,6.344-19.738,5.334-30.286
				c-0.066-1.109-0.24-2.21-0.307-3.314c-0.266-2.999-2.199-5.063-4.559-4.894c-1.113,0.081-1.914-1.012-1.848-2.449
				c0.264-3.693,0.5-7.367,0.834-11.006c2.527-6.186,5.146-12.339,7.939-18.398c0.596-4.672,1.244-9.262,1.914-13.768
				c0.596-4.078-0.977-7.163-3.357-7.903c-4.584,6.193-8.719,12.854-12.254,19.985c-17.156,34.338-18.348,73.71-6.291,107.244
				C495.512,607.697,496.484,601.491,497.733,595.172z"/>
			<g>
				<path style="fill:#99C00F;" d="M606.242,432.84c1.359-0.405,2.721-0.796,4.078-1.179c-27.119,2.551-53.563,13.401-74.68,31.002
					c1.27,0.852,3.123,0.697,5.383-1.105c4.643-3.722,9.354-7.327,14.1-10.837c8.842-2.463,17.934-4.645,27.207-6.58
					c0,0,12.873,5.944,15.566,5.814c2.981-0.157,11.672-5.424,16.768-8.022c5.635-2.867-1.383-7.705-8.059-7.463
					C605.721,434.495,604.074,433.467,606.242,432.84z"/>
				<path style="fill:#99C00F;" d="M634.42,434.693c0.566,0.318,0.313,0.893-0.385,0.875c-0.596-0.018-1.19-0.031-1.783-0.048
					c-1.477-0.042-2.619,0.763-2.619,1.788c0.066,1.035,1.258,1.898,2.752,1.941c4.057,0.09,8.1,0.256,12.127,0.471
					c0.574-0.306,1.18-0.546,1.75-0.85c2.572-1.228,6.35-0.612,8.639,1.374c1.635,1.473,0.541,3.382-1.867,3.206
					c-2.42-0.177-4.85-0.315-7.289-0.46c-6.184-0.324-2.223,4.833,4.025,5.224c1.021,0.068,2.041,0.139,3.06,0.198
					c3.221,3.103,7.91,5.373,12.617,5.474c8.068,0.175,5.207-9-1.211-14.261c-1.445-1.141-2.852-2.309-4.27-3.441
					c-10.779-3.025-21.744-4.699-32.635-5.047C629.678,432.295,632.043,433.479,634.42,434.693z"/>
			</g>
			<path style="fill:#99C00F;" d="M731.74,485.192c-2.508-3.344-5.854-5.992-9.691-7.648c-1.172-0.506-2.357-1.246-3.479-2.202
				c-1.271-1.086-2.555-2.161-3.83-3.25c-3.219-2.718-7.029-1.488-6.436,2.105c0.471,2.476-1.309,4.196-3.9,3.789
				c-1.537-0.225-3.086-0.457-4.646-0.686c-1.4-1.793-2.824-3.559-4.234-5.321c-4.461-5.412-12.023-7.909-17.568-5.683
				c-1.559,0.645-3.148,1.261-4.738,1.924c-3.396,1.426-5.266,4.575-5.002,8.286c0.199,1.68-1.279,2.938-3.197,2.808
				c-3.916-0.279-7.867-0.516-11.85-0.719c-4.311-0.216-7.668,2.734-7.537,6.603c0.068,1.963-1.656,3.511-3.879,3.443
				c-0.838-0.025-1.676-0.04-2.512-0.066c-1.619-1.142-3.193-2.335-4.789-3.482c-3.223-2.365-7.932-1.851-10.426,1.028
				c-0.271,0.339-0.576,0.652-0.844,0.996c-2.254,2.594-2.273,6.279-0.152,9.065c2.195,2.793,6.07,4.114,9.682,3.212
				c5.428-1.357,10.824-2.599,16.156-3.831c2.104,1.493,4.244,2.945,6.369,4.431c1.889,3.188,3.9,6.334,5.826,9.563
				c0.588,0.931,0.379,2.084-0.422,2.733c-0.191,0.143-0.371,0.301-0.559,0.449c-1.281,1.055-1.578,2.907-0.645,4.406
				c0.877,1.466,2.775,2.038,4.176,1.249c0.738-0.386,1.463-0.79,2.195-1.174c2.633-1.435,3.607-4.709,2.086-7.48
				c-1-1.939-2.039-3.847-3.043-5.763c-0.594-1.09-0.123-2.353,1.008-2.703c1.215-0.368,2.631,0.126,3.426,1.227
				c2.086,2.969,4.225,5.924,6.297,8.941c1.348,1.982,3.559,3.246,5.814,3.378c2.324,0.137,4.498-0.548,6.205-1.862
				c0.947-0.777,1.893-1.546,2.859-2.271c0.941,0.075,1.881,0.145,2.814,0.219c4.551,0.363,8.879,3.565,10.883,8.139
				c0.336,0.724,0.691,1.442,0.971,2.191c1.129,2.56-0.358,5.209-2.85,5.045c-0.154-0.02-0.31-0.012-0.465-0.03
				c-1.77-1.132-3.527-2.31-5.342-3.412c-2.273-1.454-5.041-0.999-6.488,1.056c-1.281,1.871-0.506,4.697,1.635,5.851
				c0.406,0.22,0.82,0.428,1.221,0.661c1.623,0.86,2.715,2.648,2.781,4.533c0.199,4.077,0.279,8.185,0.346,12.313
				c0.334,12.517,0.334,25.104,0.066,37.643c-0.268,8.902,7.102,14.857,14.547,12.014c3.32-1.294,6.58-2.578,9.779-3.845
				c2.451-1.01,3.965-4.091,3.434-7.001c-0.533-2.898-3.022-4.502-5.484-3.569c-1.275,0.469-2.604-0.368-2.734-1.929
				c-0.201-3.225-0.482-6.456-0.814-9.69c-0.268-3.268,2.783-5.366,4.977-3.421c6.207,5.7,12.096,11.217,17.607,16.592
				c-0.463,12.437-1.363,24.634-2.713,36.469c-0.135,1.555,0.688,2.658,1.93,2.469c1.338-0.207,2.648-1.438,3.31-3.061
				c2.873-7.398,5.664-14.83,8.135-22.344c0.529-1.506,2.059-1.267,1.926,0.296c-0.133,1.335-0.244,2.67-0.311,4.005
				c-0.266,3.199,2.787,3.63,3.854,0.581c1.393-3.982,2.75-7.961,3.957-11.964C763.754,553.715,753.924,514.765,731.74,485.192z"/>
			<path style="fill:#99C00F;" d="M651.725,665.156c-3.354,2.844,0.895,6.245,5.135,4.672c3.201-1.167,6.377-2.397,9.545-3.643
				c2.121-0.829,3.76-2.551,4.285-4.471c0.404-1.671-0.85-3.021-2.75-2.872c-0.26,0.032-0.521,0.039-0.781,0.062
				c-1.5,1.384-2.984,2.773-4.465,4.152c-3.045,0.215-6.111,0.407-9.193,0.588C652.932,664.178,652.291,664.626,651.725,665.156z"/>
		</g>
		<path style="fill:#C9C9C9;" d="M746.99,624.56c0.313-0.677,0.619-1.354,0.918-2.033c0.153-0.348,0.305-0.695,0.455-1.043
			c0.289-0.67,0.571-1.342,0.849-2.014c0.133-0.324,0.269-0.647,0.399-0.971c0.342-0.848,0.674-1.696,0.998-2.547
			c0.053-0.139,0.109-0.277,0.162-0.417c0.371-0.983,0.727-1.969,1.073-2.956c0.106-0.304,0.207-0.607,0.312-0.911
			c0.238-0.695,0.473-1.392,0.699-2.089c0.118-0.363,0.233-0.727,0.348-1.09c0.209-0.661,0.412-1.322,0.609-1.984
			c0.107-0.354,0.214-0.71,0.317-1.065c0.223-0.769,0.437-1.537,0.646-2.307c0.064-0.235,0.131-0.469,0.193-0.704
			c0.262-0.988,0.512-1.979,0.751-2.97c0.075-0.31,0.143-0.619,0.216-0.929c0.163-0.697,0.322-1.395,0.475-2.093
			c0.084-0.387,0.164-0.774,0.245-1.162c0.132-0.638,0.261-1.275,0.384-1.914c0.074-0.389,0.15-0.778,0.222-1.168
			c0.128-0.692,0.247-1.385,0.363-2.077c0.054-0.321,0.112-0.643,0.163-0.965c0.158-0.98,0.305-1.959,0.439-2.94
			c0.045-0.324,0.082-0.647,0.125-0.972c0.09-0.684,0.176-1.37,0.255-2.056c0.048-0.414,0.091-0.828,0.135-1.243
			c0.063-0.602,0.124-1.204,0.18-1.807c0.04-0.431,0.078-0.861,0.114-1.292c0.051-0.614,0.095-1.228,0.137-1.843
			c0.027-0.4,0.059-0.801,0.082-1.2c0.058-0.956,0.105-1.911,0.142-2.867c0.015-0.367,0.022-0.734,0.032-1.102
			c0.02-0.634,0.038-1.268,0.048-1.901c0.008-0.462,0.01-0.923,0.014-1.384c0.003-0.542,0.004-1.084,0.001-1.626
			c-0.003-0.479-0.007-0.958-0.015-1.437c-0.009-0.533-0.023-1.066-0.037-1.599c-0.014-0.475-0.025-0.949-0.043-1.424
			c-0.023-0.609-0.056-1.218-0.088-1.826c-0.039-0.765-0.086-1.527-0.138-2.29c-0.037-0.532-0.072-1.065-0.115-1.597
			c-0.042-0.517-0.09-1.033-0.138-1.549c-0.043-0.468-0.087-0.937-0.135-1.403c-0.055-0.532-0.112-1.063-0.173-1.594
			c-0.051-0.447-0.106-0.893-0.161-1.34c-0.067-0.541-0.135-1.083-0.208-1.623c-0.057-0.414-0.12-0.827-0.181-1.24
			c-0.158-1.086-0.329-2.168-0.514-3.249c-0.058-0.339-0.111-0.679-0.172-1.018c-0.105-0.587-0.218-1.172-0.33-1.757
			c-0.072-0.374-0.143-0.748-0.218-1.121c-0.118-0.587-0.239-1.172-0.365-1.757c-0.076-0.358-0.155-0.714-0.234-1.069
			c-0.134-0.604-0.271-1.209-0.413-1.812c-0.065-0.274-0.134-0.549-0.201-0.823c-0.524-2.156-1.102-4.299-1.729-6.426
			c-0.077-0.262-0.153-0.523-0.231-0.785c-0.193-0.64-0.393-1.278-0.596-1.916c-0.085-0.269-0.172-0.537-0.259-0.806
			c-0.212-0.653-0.427-1.305-0.649-1.955c-0.061-0.181-0.125-0.36-0.188-0.54c-0.779-2.253-1.617-4.486-2.514-6.696
			c-0.056-0.136-0.109-0.271-0.164-0.407c-0.28-0.685-0.568-1.366-0.859-2.047c-0.08-0.188-0.16-0.374-0.242-0.561
			c-0.297-0.688-0.6-1.373-0.908-2.055c-0.051-0.11-0.102-0.22-0.152-0.33c-1.396-3.059-2.904-6.067-4.525-9.02
			c-0.064-0.119-0.13-0.237-0.195-0.355c-0.387-0.701-0.779-1.398-1.18-2.093c-0.035-0.063-0.072-0.124-0.107-0.186
			c-1.721-2.978-3.558-5.896-5.506-8.747c-0.044-0.063-0.087-0.126-0.131-0.19c-0.474-0.691-0.954-1.378-1.441-2.06
			c-0.029-0.042-0.06-0.083-0.09-0.124c-2.035-2.845-4.185-5.617-6.446-8.311c-0.022-0.025-0.044-0.052-0.065-0.078
			c-0.555-0.659-1.116-1.314-1.684-1.963c-0.032-0.036-0.063-0.072-0.095-0.108c-2.336-2.666-4.784-5.25-7.342-7.743
			c-0.004-0.004-0.007-0.007-0.011-0.011l0,0c-9.883-9.63-21.399-17.918-34.413-24.401c-67.427-33.589-149.315-6.157-182.908,61.271
			c-19.413,38.976-18.44,82.783-1.142,119.301l0,0c0,0.001,0.001,0.003,0.002,0.004c0.713,1.504,1.461,2.991,2.229,4.47
			c0.136,0.26,0.268,0.522,0.405,0.78c0.746,1.415,1.519,2.817,2.316,4.207c0.154,0.27,0.31,0.536,0.467,0.804
			c0.828,1.423,1.676,2.836,2.557,4.229c0.053,0.084,0.108,0.166,0.161,0.249c0.858,1.351,1.744,2.685,2.65,4.008
			c0.155,0.226,0.307,0.452,0.462,0.677c0.918,1.322,1.863,2.627,2.829,3.919c0.194,0.26,0.392,0.518,0.588,0.777
			c0.99,1.303,1.999,2.593,3.038,3.862c0.113,0.14,0.231,0.276,0.346,0.415c1,1.211,2.023,2.406,3.067,3.585
			c0.161,0.182,0.318,0.366,0.48,0.547c1.085,1.213,2.199,2.406,3.332,3.583c0.233,0.243,0.468,0.484,0.702,0.725
			c1.145,1.172,2.308,2.327,3.498,3.461c0.174,0.165,0.352,0.326,0.525,0.49c1.156,1.089,2.332,2.16,3.529,3.211
			c0.145,0.127,0.285,0.256,0.43,0.382c1.256,1.092,2.539,2.159,3.841,3.21c0.263,0.212,0.526,0.424,0.792,0.635
			c1.295,1.03,2.61,2.04,3.95,3.027c0.227,0.167,0.457,0.33,0.685,0.496c1.337,0.972,2.691,1.925,4.07,2.854
			c0.098,0.064,0.191,0.133,0.289,0.197c1.427,0.955,2.883,1.879,4.356,2.786c0.283,0.174,0.565,0.349,0.851,0.521
			c1.444,0.875,2.909,1.727,4.397,2.555c0.273,0.152,0.552,0.301,0.828,0.452c1.56,0.853,3.135,1.689,4.74,2.489
			c67.431,33.591,149.318,6.158,182.912-61.27c0.48-0.966,0.946-1.936,1.402-2.906C746.71,625.175,746.85,624.866,746.99,624.56z
			 M505.201,506.349c32.157-64.545,110.545-90.804,175.089-58.651c9.962,4.963,19.01,11.027,27.072,17.972
			c11.47,9.878,19.156,23.317,21.888,38.206c5.139,28.01,1.586,57.854-12.086,85.306c-33.594,67.428-115.481,94.86-182.912,61.269
			c-0.271-0.135-0.539-0.269-0.809-0.406c-13.535-6.856-24.24-18.099-30.454-31.94C487.522,583.648,487.049,542.793,505.201,506.349
			z"/>
	</g>
</g>
</svg>
