<svg xmlns="http://www.w3.org/2000/svg" xmlns:xlink="http://www.w3.org/1999/xlink" viewBox="0 0 1473.07 1303.7"><defs><style>.cls-1{fill:url(#linear-gradient);}.cls-2{fill:url(#linear-gradient-2);}.cls-3{fill:#91b3fa;}.cls-4{fill:url(#linear-gradient-3);}.cls-5{fill:url(#linear-gradient-4);}.cls-6{fill:url(#linear-gradient-5);}.cls-7{fill:url(#linear-gradient-6);}.cls-8{fill:url(#linear-gradient-7);}.cls-9{fill:url(#linear-gradient-8);}.cls-10{fill:url(#linear-gradient-9);}.cls-11{fill:url(#linear-gradient-10);}.cls-12{fill:url(#linear-gradient-11);}.cls-13{fill:url(#linear-gradient-12);}.cls-14{fill:url(#linear-gradient-13);}.cls-15{fill:url(#linear-gradient-14);}.cls-16{fill:url(#linear-gradient-15);}.cls-17{fill:url(#linear-gradient-16);}.cls-18{fill:url(#linear-gradient-17);}.cls-19{fill:url(#linear-gradient-18);}.cls-20{fill:url(#linear-gradient-19);}.cls-21{fill:url(#linear-gradient-20);}.cls-22{fill:url(#linear-gradient-21);}.cls-23{fill:url(#linear-gradient-22);}.cls-24{fill:url(#linear-gradient-23);}</style><linearGradient id="linear-gradient" x1="-4675.56" y1="2284.63" x2="-5017.02" y2="3343.15" gradientTransform="matrix(-1, 0, 0, 1, -2179.29, 0)" gradientUnits="userSpaceOnUse"><stop offset="0" stop-color="#4f52ff"/><stop offset="1" stop-color="#4042e2"/></linearGradient><linearGradient id="linear-gradient-2" x1="2087.72" y1="2198.12" x2="2087.72" y2="2452.14" gradientUnits="userSpaceOnUse"><stop offset="0" stop-color="#09005d"/><stop offset="1" stop-color="#1a0f91"/></linearGradient><linearGradient id="linear-gradient-3" x1="1992.68" y1="3683.31" x2="1931.71" y2="3310.73" xlink:href="#linear-gradient-2"/><linearGradient id="linear-gradient-4" x1="2070.99" y1="2874.8" x2="2253.89" y2="2271.91" xlink:href="#linear-gradient-2"/><linearGradient id="linear-gradient-5" x1="1873.18" y1="3183.83" x2="1974.8" y2="2794.32" xlink:href="#linear-gradient-2"/><linearGradient id="linear-gradient-6" x1="-4515.55" y1="2466.85" x2="-4683.47" y2="2666.54" gradientTransform="matrix(-1, 0, 0, 1, -2179.29, 0)" gradientUnits="userSpaceOnUse"><stop offset="0" stop-color="#febbba"/><stop offset="1" stop-color="#ff928e"/></linearGradient><linearGradient id="linear-gradient-7" x1="-4987.78" y1="2096.83" x2="-4718.74" y2="3040.71" gradientTransform="matrix(-1, 0, 0, 1, -2179.29, 0)" xlink:href="#linear-gradient-2"/><linearGradient id="linear-gradient-8" x1="-4711.35" y1="2648.54" x2="-4375.71" y2="2189.37" xlink:href="#linear-gradient-6"/><linearGradient id="linear-gradient-9" x1="-4916.67" y1="2268.03" x2="-4904.31" y2="2156.76" xlink:href="#linear-gradient-6"/><linearGradient id="linear-gradient-10" x1="-4850.73" y1="2170.97" x2="-4905.22" y2="1991.24" xlink:href="#linear-gradient-6"/><linearGradient id="linear-gradient-11" x1="-4899.79" y1="1841.58" x2="-4849.24" y2="2129.9" gradientTransform="matrix(-1, 0, 0, 1, -2179.29, 0)" xlink:href="#linear-gradient-2"/><linearGradient id="linear-gradient-12" x1="-4907.17" y1="2188.08" x2="-4961.67" y2="2008.35" xlink:href="#linear-gradient-6"/><linearGradient id="linear-gradient-13" x1="-4461.77" y1="2544.66" x2="-4206.36" y2="2544.66" gradientTransform="matrix(-1, 0, 0, 1, -2179.29, 0)" xlink:href="#linear-gradient-2"/><linearGradient id="linear-gradient-14" x1="2113.09" y1="2500.25" x2="2149.55" y2="2500.25" gradientTransform="matrix(1, 0, 0, 1, 0, 0)" xlink:href="#linear-gradient"/><linearGradient id="linear-gradient-15" x1="-4430.77" y1="2656.3" x2="-4634.99" y2="2712.27" gradientTransform="matrix(-1, 0, 0, 1, -2179.29, 0)" xlink:href="#linear-gradient-2"/><linearGradient id="linear-gradient-16" x1="2568.46" y1="2446.95" x2="2832.63" y2="1547.73" gradientTransform="matrix(1, 0, 0, 1, 0, 0)" xlink:href="#linear-gradient"/><linearGradient id="linear-gradient-17" x1="2707.14" y1="2487.69" x2="2971.31" y2="1588.47" gradientTransform="matrix(1, 0, 0, 1, 0, 0)" xlink:href="#linear-gradient"/><linearGradient id="linear-gradient-18" x1="2826.02" y1="2522.61" x2="3090.2" y2="1623.4" gradientTransform="matrix(1, 0, 0, 1, 0, 0)" xlink:href="#linear-gradient"/><linearGradient id="linear-gradient-19" x1="2693.26" y1="2133.56" x2="2765.46" y2="2133.56" gradientTransform="matrix(1, 0, 0, 1, 0, 0)" xlink:href="#linear-gradient"/><linearGradient id="linear-gradient-20" x1="2676.78" y1="2167.88" x2="2700.74" y2="2167.88" gradientTransform="translate(5377.52 4335.76) rotate(-180)" xlink:href="#linear-gradient"/><linearGradient id="linear-gradient-21" x1="2650.54" y1="1996.84" x2="2760.88" y2="1996.84" gradientTransform="matrix(1, 0, 0, 1, 0, 0)" xlink:href="#linear-gradient"/><linearGradient id="linear-gradient-22" x1="2735.49" y1="2077.25" x2="2796.44" y2="2077.25" gradientTransform="matrix(1, 0, 0, 1, 0, 0)" xlink:href="#linear-gradient"/><linearGradient id="linear-gradient-23" x1="2748.05" y1="2077.23" x2="2787.07" y2="2077.23" gradientTransform="matrix(1, 0, 0, 1, 0, 0)" xlink:href="#linear-gradient"/></defs><title>web-person</title><g id="Illustration"><path class="cls-1" d="M3114.33,2170.42s133.64,74,144.7,199.33S3260,3015.1,2992,3143.1s-622.71,98.5-758.49,84.51-211.07-106.27-227.89-169.81-44-300.22,98.86-376.56S2397.3,2487.93,2547.21,2374,2954,2074.23,3114.33,2170.42Z" transform="translate(-1788.7 -1937.1)"/><path class="cls-2" d="M2146.56,2724.43s36.07,1.91,40.49,76.12c0,0-83.64,75-196.62,92.82-8.48,1.34,11.86-57.9,14.92-65.92C2019.9,2789.26,2065.72,2764.67,2146.56,2724.43Z" transform="translate(-1788.7 -1937.1)"/><path class="cls-3" d="M2552.78,2637.18h-76.11s-233.63-258-386.85-284c0,0-106.66,136.15,5.68,390.54,9,20.47,34.31,29.56,53.17,17.52a30.42,30.42,0,0,0,12.14-14.48l-9-217.21s199.28,174.29,233.92,207.93S2596.4,2750.56,2552.78,2637.18Z" transform="translate(-1788.7 -1937.1)"/><path class="cls-4" d="M1816.9,3178.89c31.9-27.95,82.72-59.32,156.09-68.31l24.81,15.18s-15.82,23.33-44.73,48c-26.56,15.43-67.58,36.32-101.59,40.85C1818.42,3219,1813.54,3199,1816.9,3178.89Z" transform="translate(-1788.7 -1937.1)"/><path class="cls-5" d="M2005.35,2827.45c19.65,6.36,28.29,34.2,78.15,15.79a441.26,441.26,0,0,0,102.56-54c.41,3.59.75,7.34,1,11.34,0,0-88.19,83.88-201.17,101.73a11.25,11.25,0,0,1-12.14-15.16A283.77,283.77,0,0,1,2005.35,2827.45Z" transform="translate(-1788.7 -1937.1)"/><path class="cls-6" d="M1792.87,3202.75a263.38,263.38,0,0,1,24-23.86c-3.36,20.14,1.52,40.12,34.58,35.71,34-4.53,75-25.42,101.59-40.85-33.29,28.39-84,58.53-147.89,56.76C1791,3230.12,1783.49,3213.42,1792.87,3202.75Z" transform="translate(-1788.7 -1937.1)"/><path class="cls-3" d="M2550,2692.25l-356.45,3.86S1990,2864.52,1953.07,3121.33c0,0-6.13,18.88,30.67,22.11,0,0,123.07-80.37,203.31-222.48,98.4-174.25,293.33-95.82,293.33-95.82,64-46.17,154.55-55.58,222.73-71Z" transform="translate(-1788.7 -1937.1)"/><path class="cls-7" d="M2541.58,2405.11s-38.37,192.31-226.39,268.39l-66.87-7.89-15.78,25.17,156.87,5s134.1-53.11,205.14-197.83C2596.9,2493.16,2636,2412.38,2541.58,2405.11Z" transform="translate(-1788.7 -1937.1)"/><path class="cls-8" d="M2521,2689.11s43.63-118.62,53-233.87c0,0-31.92-27.43-51.88-39.27a14.43,14.43,0,0,1-5.63-18.71c14.67-30.39,103.38-149.71,110-151.37,36.12-9,184.25-79.45,288.59,63.26,44.77,61.24-8.89,249.78-212,445l-41.9,8Z" transform="translate(-1788.7 -1937.1)"/><path class="cls-9" d="M2689.16,2481.23s-121.24,143.55-276.23,164.53c0,0-40.06-36.52-69.85-23.48s-70.63,70.59-70.63,70.59h199s188.18-6.63,282.21-120.74C2746.11,2532.2,2723.45,2508.35,2689.16,2481.23Z" transform="translate(-1788.7 -1937.1)"/><path class="cls-10" d="M2759.88,2145.21l26.53,88.47a9.73,9.73,0,0,1-3.78,10.83c-12.77,8.75-46.15,26.14-91.94,9.24a14.43,14.43,0,0,1-9.28-12.39l-6.29-77.07Z" transform="translate(-1788.7 -1937.1)"/><path class="cls-11" d="M2604.55,2073.56s13,91.71,48.28,119.91,103.86,7,127.05-62.17l-46.2-118.21Z" transform="translate(-1788.7 -1937.1)"/><path class="cls-12" d="M2738.89,2089.58A4.54,4.54,0,0,1,2733,2086c-1.27-8.47-4.44-25.23-10.87-36.64,0,0,3.36-12-30.41,6.15s-84.49,44.87-114.35,29c-29.12-15.51-58.61-93.52,18.34-79.07a4.54,4.54,0,0,0,5.4-4.75c-1-12.82.33-42.32,30.2-51.79,27.95-8.86,12.94,5.5,19.25,13.12,1.85,2.24-2.34-7.63,37.38-1.86,13.63,2,31.11-34.2,64.59-19.45,27.58,12.16,31.86,29.14,31.41,39.73a4.52,4.52,0,0,0,6.45,4.31c8.44-3.89,22-5.91,35,10.4,18,22.54-7.72,42.08-15.43,47.21a4.55,4.55,0,0,0-2.06,3.74c-.07,11.73-1.89,62.86-27.52,91.7a4.58,4.58,0,0,1-7.61-1.32l-19.74-47a4.57,4.57,0,0,0-5.6-2.58Z" transform="translate(-1788.7 -1937.1)"/><path class="cls-13" d="M2738.47,2099.13s12.05-49.08,30.35-33.14-4.77,51-25.74,57.68Z" transform="translate(-1788.7 -1937.1)"/><path class="cls-14" d="M2282.47,2704l-89.36-298a30.46,30.46,0,0,0-27.11-21.65l-120.64-8.25a17.11,17.11,0,0,0-17.31,22.73l99.89,284.59a25.06,25.06,0,0,0,21.12,16.63l118.8,13.19Z" transform="translate(-1788.7 -1937.1)"/><path class="cls-15" d="M2117.67,2507c6.67,13.47,18.19,21.35,25.73,17.62s8.25-17.68,1.58-31.15-18.2-21.35-25.74-17.62S2111,2493.54,2117.67,2507Z" transform="translate(-1788.7 -1937.1)"/><path class="cls-16" d="M2267.86,2713.25l.58,0,253.15-12.79a11.34,11.34,0,1,0-1.15-22.66l-253.14,12.79a11.35,11.35,0,0,0,.56,22.68Z" transform="translate(-1788.7 -1937.1)"/><path class="cls-17" d="M2574,2457.25a2,2,0,0,0,2-2c-.17-52.88,20.24-123.09,20.45-123.8a2,2,0,1,0-3.86-1.12c-.21.7-20.78,71.46-20.6,124.94A2,2,0,0,0,2574,2457.25Z" transform="translate(-1788.7 -1937.1)"/><path class="cls-18" d="M2689.15,2483.24a2,2,0,0,0,1.58-.76c.55-.71,55.93-71.09,75-119.33a2,2,0,1,0-3.73-1.47c-18.83,47.68-73.83,117.61-74.39,118.31a2,2,0,0,0,.34,2.82A2,2,0,0,0,2689.15,2483.24Z" transform="translate(-1788.7 -1937.1)"/><path class="cls-19" d="M2767.07,2590.85l1.49-.64c80.1-34.29,129.58-129.93,130.07-130.89a2,2,0,0,0-3.58-1.82c-.48.94-48.7,94.12-126.58,128.37l-8.26-11.66a2,2,0,0,0-3.28,2.32Z" transform="translate(-1788.7 -1937.1)"/><path class="cls-20" d="M2694,2170.77c54.4-9.62,71.3-72.74,71.47-73.38l-4.08-1c-.16.61-16.41,61.14-68.12,70.29Z" transform="translate(-1788.7 -1937.1)"/><rect class="cls-21" x="2676.78" y="2160.41" width="23.96" height="14.94" rx="1.64" transform="translate(3588.81 2398.66) rotate(180)"/><path class="cls-22" d="M2747,2037.43s-41.1-80.32-96.47-75.48c0,0,13.18-10.57,30.93-6.83s68.66,35.37,79.41,81.19C2751,2042.47,2747,2037.43,2747,2037.43Z" transform="translate(-1788.7 -1937.1)"/><path class="cls-23" d="M2754.73,2030c30.86-1.55,36.75,36.47,36.75,36.47,9,26.39,4.56,41.74-3.89,50.68a23.92,23.92,0,0,1-40.05-8.83c-2.42-7.19-4.82-14-6-16.33C2738.69,2086.3,2723.87,2031.51,2754.73,2030Z" transform="translate(-1788.7 -1937.1)"/><path class="cls-24" d="M2754.43,2040a13.76,13.76,0,0,1,16.56,4.13c27.93,36.14,13.16,68.07,2.73,71.32-11,3.43-24.47-50.22-25.62-64.56C2747.61,2044.91,2750.69,2041.71,2754.43,2040Z" transform="translate(-1788.7 -1937.1)"/></g></svg>